<?xml version="1.0" encoding="UTF-8"?>
<svg id="uuid-d9739ff7-c23f-4626-aa36-2aee60a8a260" data-name="Layer 1" xmlns="http://www.w3.org/2000/svg" xmlns:xlink="http://www.w3.org/1999/xlink" viewBox="0 0 1080 1080">
  <defs>
    <style>
      .uuid-dc2a4e5e-ada0-4ea9-9375-c58d28983f1f {
        clip-path: url(#uuid-4413ce6d-9e92-4c2a-b4da-8b4ab06efd01);
      }

      .uuid-16da1986-f55d-4a03-affb-bae81badf18b {
        clip-path: url(#uuid-ec273687-bfa6-4652-b83c-f86b42ebb90f);
      }

      .uuid-3b36539a-9d2a-4850-a6ee-bd61c1466221 {
        fill: none;
      }

      .uuid-3b36539a-9d2a-4850-a6ee-bd61c1466221, .uuid-61390fc4-79be-43a3-8814-cf2449c9f989, .uuid-18fa4fe2-d7a9-44e1-8aff-0ce2bc50b66d, .uuid-cdf792eb-539d-4ef9-bded-f523fc7887a2, .uuid-8d511b34-cb1c-4bc4-88d6-991463184736, .uuid-316d1419-7950-4df8-bef8-c900f5a0b66a, .uuid-36fbeed9-c18d-4258-a91a-5aaeb4a6ad59, .uuid-4a9b977d-1216-4ca7-a2bc-498eb355fcfa, .uuid-558c6bb1-e044-4f93-8391-4d6d34535af4, .uuid-43d45d96-41be-4b6d-9df3-573463ba6685, .uuid-2801e42a-7060-4486-88aa-d94681ee2ed0, .uuid-81072a91-e8e9-441e-a11f-37c3fd868a0d, .uuid-cb3be09b-e4ed-4d2f-aeb3-eb49a25b2a39, .uuid-a70371d8-a3f4-4dbe-ad0d-0c4bdf15f082, .uuid-db2e6ea7-8c0c-4c2f-ba7b-a69a0dbb6e4d, .uuid-253635c7-d671-49a3-943d-dcae1e3ea900, .uuid-9002faa4-2900-438b-8492-e5c1fd008780, .uuid-c83e48d4-6996-457b-9cb4-115cb8c93406 {
        stroke-width: 0px;
      }

      .uuid-67b9f1ca-8a34-43aa-b2b0-7b41952c6713 {
        clip-path: url(#uuid-7fa89c88-6495-46e7-a9b2-d82f11a698fa);
      }

      .uuid-39cf7afe-70b0-4066-801e-6b6e873eb4e1 {
        clip-path: url(#uuid-f61af702-7373-457e-a6c7-119d4fdbac1f);
      }

      .uuid-db01da53-9c0b-47b1-a92a-578658f7497f {
        mask: url(#uuid-51c97860-03fc-4705-8fea-bb758a104e4c);
      }

      .uuid-64f3b32f-84fa-4dfe-86c0-894bf5bbbe7d {
        clip-path: url(#uuid-f2cbe323-fc57-4ac1-a21e-97da56c0cfa5);
      }

      .uuid-18fa4fe2-d7a9-44e1-8aff-0ce2bc50b66d {
        fill: #f5921b;
      }

      .uuid-cdf792eb-539d-4ef9-bded-f523fc7887a2 {
        fill: #f7c8bb;
      }

      .uuid-8d511b34-cb1c-4bc4-88d6-991463184736 {
        fill: #292929;
      }

      .uuid-316d1419-7950-4df8-bef8-c900f5a0b66a {
        fill: #707070;
      }

      .uuid-36fbeed9-c18d-4258-a91a-5aaeb4a6ad59 {
        fill: #e0f0ff;
      }

      .uuid-4a9b977d-1216-4ca7-a2bc-498eb355fcfa {
        fill: #be00f3;
      }

      .uuid-558c6bb1-e044-4f93-8391-4d6d34535af4 {
        fill: #a60000;
      }

      .uuid-43d45d96-41be-4b6d-9df3-573463ba6685 {
        fill: #92c5f9;
      }

      .uuid-2801e42a-7060-4486-88aa-d94681ee2ed0 {
        fill: #009c6d;
      }

      .uuid-81072a91-e8e9-441e-a11f-37c3fd868a0d {
        fill: #fff;
      }

      .uuid-cb3be09b-e4ed-4d2f-aeb3-eb49a25b2a39 {
        fill: #e00;
      }

      .uuid-a70371d8-a3f4-4dbe-ad0d-0c4bdf15f082 {
        fill: #ffe8cc;
      }

      .uuid-db2e6ea7-8c0c-4c2f-ba7b-a69a0dbb6e4d {
        fill: #fccb8f;
      }

      .uuid-253635c7-d671-49a3-943d-dcae1e3ea900 {
        fill: #e8a997;
      }

      .uuid-9002faa4-2900-438b-8492-e5c1fd008780 {
        fill: #036;
      }

      .uuid-c83e48d4-6996-457b-9cb4-115cb8c93406 {
        fill: #06c;
      }

      .uuid-57009325-15fc-45f9-945c-a0892a27bce5 {
        mask: url(#uuid-b51a5625-00cb-42a2-abed-2302d2fe12dd);
      }
    </style>
    <mask id="uuid-b51a5625-00cb-42a2-abed-2302d2fe12dd" data-name="mask" x="106.02" y="142.02" width="428.23" height="326.41" maskUnits="userSpaceOnUse">
      <g>
        <g>
          <rect class="uuid-81072a91-e8e9-441e-a11f-37c3fd868a0d" x="106.6" y="142.6" width="427.07" height="325.25"/>
          <path class="uuid-61390fc4-79be-43a3-8814-cf2449c9f989" d="m533.1,143.17v324.1H107.18V143.17h425.92m1.15-1.15H106.02v326.41h428.23V142.02h0Z"/>
        </g>
        <rect class="uuid-61390fc4-79be-43a3-8814-cf2449c9f989" x="145.87" y="150.58" width="386.1" height="276.41"/>
      </g>
    </mask>
    <clipPath id="uuid-f61af702-7373-457e-a6c7-119d4fdbac1f">
      <path id="uuid-0b851b4d-254e-4fcb-9677-f2b51d8e0b31" data-name="SVGID" class="uuid-3b36539a-9d2a-4850-a6ee-bd61c1466221" d="m590.51,764.45s-31.55,26.63-81.51,10.1-50.33-62.35-50.33-62.35c0,0-51.09-1.88-74.47-44.2-20.48-37.06-.28-81.63-.28-81.63,0,0-27.8-6.46-42.45-36.83-14.65-30.37-1.13-58.58-1.13-58.58,0,0-32.46-30.19-19.6-68.76,12.86-38.57,44.01-45.43,44.01-45.43,0,0,1.82-41.76,35.69-74.18,31.18-29.85,81.89-23.11,81.89-23.11,0,0,6.01-43.57,47.33-50.4,41.32-6.83,60.85,21.85,60.85,21.85v513.52Z"/>
    </clipPath>
    <mask id="uuid-51c97860-03fc-4705-8fea-bb758a104e4c" data-name="mask-1" x="106.02" y="142.02" width="428.23" height="326.41" maskUnits="userSpaceOnUse">
      <g>
        <g>
          <rect class="uuid-81072a91-e8e9-441e-a11f-37c3fd868a0d" x="106.6" y="142.6" width="427.07" height="325.25"/>
          <path class="uuid-61390fc4-79be-43a3-8814-cf2449c9f989" d="m533.1,143.17v324.1H107.18V143.17h425.92m1.15-1.15H106.02v326.41h428.23V142.02h0Z"/>
        </g>
        <rect class="uuid-61390fc4-79be-43a3-8814-cf2449c9f989" x="116.17" y="150.58" width="386.1" height="276.41"/>
      </g>
    </mask>
    <clipPath id="uuid-ec273687-bfa6-4652-b83c-f86b42ebb90f">
      <path id="uuid-44ce7b48-945e-461f-9dde-8c4a77ac9086" data-name="SVGID" class="uuid-3b36539a-9d2a-4850-a6ee-bd61c1466221" d="m161.28,822.94s-12.77,12.89-20.37,9.75c0,0-2.92,10.13,4.75,20.34,7.67,10.21,14.29,9.69,14.29,9.69,0,0-2.38-6.68,2.52-13.7,4.9-7.02,10.91-11.35,10.91-11.35l-12.09-14.72Z"/>
    </clipPath>
    <clipPath id="uuid-7fa89c88-6495-46e7-a9b2-d82f11a698fa">
      <path id="uuid-5bc346d4-1506-4122-8ac6-b30f0d2ffa8b" data-name="SVGID" class="uuid-3b36539a-9d2a-4850-a6ee-bd61c1466221" d="m234.28,851.06s-1.71,18.45-10.59,20.91c0,0,4.82,9.88,18.87,12.93,14.06,3.05,19.42-1.66,19.42-1.66,0,0-6.91-3.71-7.75-12.42-.84-8.71,1.22-16.03,1.22-16.03l-21.17-3.73Z"/>
    </clipPath>
    <clipPath id="uuid-4413ce6d-9e92-4c2a-b4da-8b4ab06efd01">
      <path id="uuid-e2bd56eb-ce72-4539-93bf-f9dcf3777d0f" data-name="SVGID" class="uuid-3b36539a-9d2a-4850-a6ee-bd61c1466221" d="m313.99,311.11s-1.56-15.86-6.19-22.01c-4.63-6.15-19.06-19.37-42.21-13.9-23.15,5.47-24.24,28.56-22.63,39.84,1.6,11.28-1.25,22.56-2.67,26.83-1.42,4.27-5.39,40.67-5.39,40.67l15.35,6.07-.04.1s14.37,38.98,17,14.29c2.45-22.95,15.93-44.28,23.32-45.25,3.27,1.52,6.74,2.87,9.56,1.18,4.14-2.48,3.88-6.44,8.62-14.31,2.6-4.31,3.71-6.18,4.59-11.15,1.25-7.01-1.58-12.58-1.58-12.58-.98-2.7,2.69-6.2,2.27-9.79Z"/>
    </clipPath>
    <clipPath id="uuid-f2cbe323-fc57-4ac1-a21e-97da56c0cfa5">
      <path id="uuid-44158513-a3a7-46fc-8eb6-93eac2d2aa62" data-name="SVGID" class="uuid-3b36539a-9d2a-4850-a6ee-bd61c1466221" d="m226.68,465.33c2.39,8.97,5.68,20.07,7.13,29.29,1.96,12.49-1.63,27.26-1.63,27.26,0,0,6.83,2,32.82,2s34.15-2.17,34.15-2.17c0,0,.33-17.66-.67-29.15-1-11.49-2.83-25.99-2-31.82.83-5.83,6.83-13.83,5-24.49-1.83-10.66-11.66-16.99-14.66-23.49-3-6.5-12.99-28.49-26.32-28.82-13.33-.33-31.19,1.46-40.86,23.62-6.74,15.46-2.26,23.96,2.45,41.6,1.2,4.51,2.57,8.94,3.84,13.43.26.91.51,1.83.75,2.74Z"/>
    </clipPath>
  </defs>
  <rect class="uuid-81072a91-e8e9-441e-a11f-37c3fd868a0d" x="140.87" y="157.5" width="386.1" height="274.62"/>
  <path class="uuid-36fbeed9-c18d-4258-a91a-5aaeb4a6ad59" d="m343.38,296.69c-53.75,34.62-108.47,55.48-167.04,75.49-51.62,17.64-117.02,56.78-132.88,112.02-15.98,55.64,20.59,162.3,169.22,164.27,168.67,2.24,254.86,59.94,345.37,88.52,90.93,28.71,172.67,39.83,250.93,4.34,105.89-48.03,169.73-169.34,167.63-280.35-1.83-97.08-70.53-181.1-153.12-228.04-69.56-39.53-152.39-54.8-232-44.25-138.57,18.36-209.05,82.85-248.1,108Z"/>
  <g class="uuid-57009325-15fc-45f9-945c-a0892a27bce5">
    <rect class="uuid-c83e48d4-6996-457b-9cb4-115cb8c93406" x="131.18" y="167.39" width="386.1" height="274.62"/>
  </g>
  <path class="uuid-36fbeed9-c18d-4258-a91a-5aaeb4a6ad59" d="m590.51,764.45s-31.55,26.63-81.51,10.1-50.33-62.35-50.33-62.35c0,0-51.09-1.88-74.47-44.2-20.48-37.06-.28-81.63-.28-81.63,0,0-27.8-6.46-42.45-36.83-14.65-30.37-1.13-58.58-1.13-58.58,0,0-32.46-30.19-19.6-68.76,12.86-38.57,44.01-45.43,44.01-45.43,0,0,1.82-41.76,35.69-74.18,31.18-29.85,81.89-23.11,81.89-23.11,0,0,6.01-43.57,47.33-50.4,41.32-6.83,60.85,21.85,60.85,21.85v513.52Z"/>
  <g class="uuid-39cf7afe-70b0-4066-801e-6b6e873eb4e1">
    <g class="uuid-db01da53-9c0b-47b1-a92a-578658f7497f">
      <rect class="uuid-c83e48d4-6996-457b-9cb4-115cb8c93406" x="131.18" y="174.26" width="386.1" height="267.74"/>
    </g>
  </g>
  <g>
    <rect class="uuid-81072a91-e8e9-441e-a11f-37c3fd868a0d" x="140.87" y="157.5" width="386.1" height="274.62"/>
    <path class="uuid-cb3be09b-e4ed-4d2f-aeb3-eb49a25b2a39" d="m527.97,433.12H139.87V156.5h388.1v276.62Zm-386.1-2h384.1V158.5H141.87v272.62Z"/>
  </g>
  <path class="uuid-a70371d8-a3f4-4dbe-ad0d-0c4bdf15f082" d="m320.74,422.2c12.86-38.57,44.01-45.43,44.01-45.43,0,0,1.82-41.76,35.69-74.18,31.18-29.85,81.89-23.11,81.89-23.11,0,0,5.73-41.5,44.42-49.84v-28.06c-96.8,26.19-150.92,74.22-183.36,95.11-53.75,34.62-108.47,55.48-167.04,75.49-11.45,3.91-23.58,8.89-35.7,14.86v45.01h177.73c.48-3.21,1.25-6.5,2.37-9.85Z"/>
  <path class="uuid-db2e6ea7-8c0c-4c2f-ba7b-a69a0dbb6e4d" d="m482.32,279.48s-50.71-6.74-81.89,23.11c-33.87,32.42-35.69,74.18-35.69,74.18,0,0-31.15,6.86-44.01,45.43-1.12,3.35-1.89,6.64-2.37,9.85h208.37v-202.41c-38.69,8.34-44.42,49.84-44.42,49.84Z"/>
  <path class="uuid-81072a91-e8e9-441e-a11f-37c3fd868a0d" d="m590.51,764.45s31.55,26.63,81.51,10.1c49.96-16.53,50.33-62.35,50.33-62.35,0,0,51.09-1.88,74.47-44.2,20.48-37.06.28-81.63.28-81.63,0,0,27.8-6.46,42.45-36.83,14.65-30.37,1.13-58.58,1.13-58.58,0,0,32.46-30.19,19.6-68.76-12.86-38.57-44.01-45.43-44.01-45.43,0,0-1.82-41.76-35.69-74.18-31.18-29.85-81.89-23.11-81.89-23.11,0,0-6.01-43.57-47.33-50.4-41.32-6.83-60.85,21.85-60.85,21.85v513.52Z"/>
  <circle class="uuid-cb3be09b-e4ed-4d2f-aeb3-eb49a25b2a39" cx="422.97" cy="555.64" r="5.88"/>
  <rect class="uuid-18fa4fe2-d7a9-44e1-8aff-0ce2bc50b66d" x="166.77" y="268.41" width="22.35" height="55.36"/>
  <rect class="uuid-43d45d96-41be-4b6d-9df3-573463ba6685" x="206.33" y="224.04" width="22.35" height="99.73"/>
  <rect class="uuid-db2e6ea7-8c0c-4c2f-ba7b-a69a0dbb6e4d" x="245.88" y="238.14" width="22.35" height="85.63"/>
  <g>
    <path class="uuid-cb3be09b-e4ed-4d2f-aeb3-eb49a25b2a39" d="m861.22,421.88c-11.79-35.36-39.18-44.54-44.01-45.9-.46-5.79-4.64-44.16-35.94-74.12-28.8-27.57-74.57-24.2-81.75-23.48-1.22-6.51-9.87-43.99-47.99-50.29-36.85-6.1-56.87,15.98-61.02,21.19-4.15-5.2-24.17-27.28-61.02-21.19-38.12,6.3-46.77,43.78-47.99,50.29-7.18-.72-52.96-4.09-81.75,23.48-31.3,29.96-35.48,68.33-35.94,74.12-4.83,1.36-32.23,10.54-44.01,45.9-12.01,36.03,15.22,65.16,19.35,69.3-1.91,4.47-12.03,30.91,1.42,58.79,13,26.95,36.55,35.42,41.98,37.05-2.88,7.06-17.96,47.57.77,81.46,21.65,39.18,67.29,44.13,74.38,44.66.16,3.03,1.1,12.95,6.49,24.46,5.87,12.52,18.35,29.25,44.49,37.9,11.83,3.91,22.67,5.41,32.32,5.41,27.94,0,45.97-12.52,49.5-15.19,3.53,2.68,21.56,15.19,49.5,15.19,9.65,0,20.5-1.5,32.32-5.41,46.1-15.25,50.56-55.7,50.98-62.36,7.06-.53,52.73-5.47,74.39-44.66,18.72-33.89,3.65-74.4.77-81.46,5.43-1.63,28.98-10.1,41.98-37.05,13.45-27.88,3.33-54.31,1.42-58.79,4.13-4.14,31.36-33.28,19.35-69.3Zm-271.72,325.29c-.8-1.5-1.82-2.89-3.05-4.12l-23.53-23.53c-3.61-3.61-5.6-8.42-5.6-13.52v-29.69c3.04-.48,5.38-3.12,5.38-6.3,0-3.52-2.86-6.38-6.38-6.38s-6.38,2.86-6.38,6.38c0,3.18,2.34,5.81,5.38,6.3v29.69c0,5.64,2.2,10.95,6.19,14.94l23.53,23.53c2.88,2.88,4.47,6.71,4.47,10.78v8.72c-3.6,2.79-34.18,24.86-80.2,9.64-48.67-16.1-49.64-60.96-49.65-61.41v-14.7c0-4.33,3.52-7.86,7.85-7.86h7.45c.48,3.04,3.12,5.38,6.3,5.38,3.52,0,6.38-2.86,6.38-6.38s-2.86-6.38-6.38-6.38c-3.18,0-5.81,2.34-6.3,5.38h-7.45c-3.21,0-6.05,1.55-7.85,3.93v-62.62c0-4.07,1.58-7.89,4.46-10.76l32.63-32.63c1.05.77,2.34,1.22,3.74,1.22,3.52,0,6.38-2.86,6.38-6.38s-2.86-6.38-6.38-6.38-6.38,2.86-6.38,6.38c0,1.4.46,2.69,1.22,3.74l-32.63,32.63c-1.23,1.23-2.25,2.62-3.04,4.11v-21.21c0-5.64-2.2-10.95-6.19-14.94l-29.8-29.8-1.41,1.41,29.8,29.8c3.61,3.61,5.6,8.42,5.6,13.52v50.53c-.79-1.49-1.81-2.88-3.04-4.11l-15.21-15.21c.77-1.05,1.22-2.34,1.22-3.74,0-3.52-2.86-6.38-6.38-6.38s-6.38,2.86-6.38,6.38,2.86,6.38,6.38,6.38c1.4,0,2.69-.46,3.74-1.22l15.21,15.21c2.88,2.88,4.46,6.7,4.46,10.76v52.87c-7.33-.57-51.59-5.6-72.6-43.62-19.99-36.18-.44-80.29-.24-80.74.12-.27.12-.59-.01-.86s-.38-.46-.67-.53c-.27-.06-27.51-6.73-41.77-36.29-14.26-29.56-1.26-57.44-1.13-57.72.19-.39.1-.87-.22-1.16s-31.83-30.21-19.33-67.71c12.19-36.56,41.37-44.3,43.18-44.75h36.21c6.88,0,13.34-2.68,18.21-7.54l37.05-37.05c1.05.77,2.34,1.22,3.74,1.22,3.52,0,6.38-2.86,6.38-6.38s-2.86-6.38-6.38-6.38-6.38,2.86-6.38,6.38c0,1.4.46,2.69,1.22,3.74l-37.05,37.05c-4.49,4.49-10.45,6.96-16.8,6.96h-35.25c.57-6.62,5.07-43.52,35.3-72.46,21.24-20.33,52.02-23.45,68.88-23.45,7.33,0,12.03.59,12.18.61.55.07,1.05-.31,1.12-.85.06-.43,6.37-42.92,46.5-49.55,38.16-6.3,57.67,18.46,59.69,21.19v495.92Zm249.14-198.07c-14.26,29.55-41.5,36.22-41.77,36.29-.29.07-.54.26-.67.53-.13.27-.14.58-.01.86.2.44,19.76,44.53-.24,80.74-21.01,38.02-65.27,43.05-72.6,43.62v-29.56c0-4,1.56-7.76,4.38-10.58l15.83-15.83c.96.68,2.13,1.08,3.39,1.08,3.25,0,5.88-2.63,5.88-5.88s-2.63-5.88-5.88-5.88-5.88,2.63-5.88,5.88c0,1.26.4,2.43,1.08,3.39l-15.83,15.83c-1.2,1.2-2.19,2.54-2.97,3.99v-39.6c0-5.77,2.25-11.2,6.33-15.28l16.14-16.14c.96.68,2.13,1.08,3.39,1.08,3.25,0,5.88-2.63,5.88-5.88s-2.63-5.88-5.88-5.88-5.88,2.63-5.88,5.88c0,1.26.4,2.43,1.08,3.39l-16.14,16.14c-4.46,4.46-6.92,10.39-6.92,16.7v15.2c-.78-1.45-1.77-2.79-2.97-3.99l-18.83-18.83c.68-.96,1.08-2.13,1.08-3.39,0-3.25-2.63-5.88-5.88-5.88s-5.88,2.63-5.88,5.88,2.63,5.88,5.88,5.88c1.26,0,2.43-.4,3.39-1.08l18.83,18.83c2.83,2.83,4.38,6.58,4.38,10.58v55.02c0,.11-.18,11.46-6.38,24.64-5.71,12.13-17.84,28.36-43.27,36.77-46.02,15.23-76.59-6.85-80.2-9.64v-18.22h0v-8.72c0-4.07,1.59-7.9,4.46-10.78l19.87-19.87c3.61-3.61,8.42-5.6,13.52-5.6h6.83c.48,2.77,2.89,4.88,5.79,4.88,3.25,0,5.88-2.63,5.88-5.88s-2.63-5.88-5.88-5.88c-2.91,0-5.32,2.11-5.79,4.89h-6.83c-5.64,0-10.95,2.2-14.94,6.19l-19.87,19.87c-1.23,1.23-2.26,2.62-3.05,4.12v-17.71h.03v-13.39c0-4.07,1.59-7.9,4.47-10.78l28.18-28.18c3.3-3.3,7.69-5.12,12.36-5.12h22.91c.48,2.77,2.89,4.88,5.79,4.88,3.25,0,5.88-2.63,5.88-5.88s-2.63-5.88-5.88-5.88c-2.91,0-5.32,2.11-5.79,4.89h-22.91c-2.18,0-4.3.38-6.3,1.06l19.31-19.31c3.19-3.19,4.94-7.42,4.94-11.93v-40.98c2.77-.48,4.89-2.89,4.89-5.79,0-3.25-2.63-5.88-5.88-5.88s-5.88,2.63-5.88,5.88c0,2.91,2.11,5.32,4.88,5.79v40.98c0,3.97-1.55,7.71-4.36,10.52l-25.36,25.36s0,0,0,0l-4.73,4.73h0s-23.45,23.45-23.45,23.45c-1.25,1.25-2.28,2.66-3.08,4.17v-264.72h0v-18.05c0-4.07,1.59-7.9,4.47-10.78l23.6-23.6h0s3.27-3.27,3.27-3.27c0,0,0,0,0,0l1.49-1.49c2.81-2.81,6.54-4.36,10.52-4.36h9.37c.04,3.21,2.66,5.8,5.88,5.8s5.88-2.63,5.88-5.88-2.63-5.88-5.88-5.88c-2.58,0-4.76,1.66-5.56,3.97h-9.69c-2.76,0-5.42.67-7.8,1.91,1.44-2.96,2.22-6.22,2.22-9.6v-15.56c2.91-.35,5.17-2.83,5.17-5.84,0-3.25-2.63-5.88-5.88-5.88s-5.88,2.63-5.88,5.88c0,2.81,1.97,5.15,4.6,5.74v15.65c0,5.34-2.08,10.35-5.85,14.13l-26.87,26.87c-1.23,1.23-2.26,2.62-3.05,4.12v-147.74c2.02-2.73,21.53-27.5,59.69-21.19,36.65,6.06,45.1,42.08,46.33,48.55-7.97,1.13-14.08,8.19-14.08,16.49v3.28h-25.91c-.48-2.77-2.89-4.89-5.79-4.89-3.25,0-5.88,2.63-5.88,5.88s2.63,5.88,5.88,5.88c2.91,0,5.32-2.11,5.79-4.88h25.91v15.71c0,4.51,1.75,8.74,4.94,11.93l27.84,27.84c-.68.96-1.08,2.13-1.08,3.39,0,3.25,2.63,5.88,5.88,5.88s5.88-2.63,5.88-5.88-2.63-5.88-5.88-5.88c-1.26,0-2.43.4-3.39,1.08l-27.84-27.84c-2.81-2.81-4.36-6.54-4.36-10.52v-20.99c0-7.59,5.79-14.01,13.17-14.62h.17s0-.02,0-.02c.01,0,.03,0,.04,0,.5-.07,50.59-6.34,81.06,22.84,29.9,28.62,34.62,65.02,35.28,72.23-3.52-.69-6.92-1.16-10.12-1.36-.43-.03-.86-.04-1.28-.04h0s-3.59,0-3.59,0c-4.13,0-8.15-1.69-11.03-4.65l-22.81-23.35c.7-.97,1.12-2.16,1.12-3.45,0-3.25-2.63-5.88-5.88-5.88s-5.88,2.63-5.88,5.88,2.63,5.88,5.88,5.88c1.24,0,2.39-.39,3.34-1.04l22.81,23.35c2.24,2.29,5.08,3.89,8.15,4.68-2.89,1.09-5.55,2.8-7.79,5.03l-31.77,31.77c-.96-.68-2.13-1.08-3.39-1.08-3.25,0-5.88,2.63-5.88,5.88s2.63,5.88,5.88,5.88,5.88-2.63,5.88-5.88c0-1.26-.4-2.43-1.08-3.39l31.77-31.77c4.08-4.08,9.72-6.21,15.43-5.84,3.5.23,7.24.76,11.13,1.58.09.02,7.78,1.78,16.91,8.15,8.42,5.88,19.83,17,26.37,36.62,12.5,37.5-19.01,67.41-19.33,67.71-.32.3-.41.77-.22,1.17.13.28,13.15,28.12-1.13,57.72Z"/>
    <path class="uuid-cb3be09b-e4ed-4d2f-aeb3-eb49a25b2a39" d="m568.22,303.45c-3.52,0-6.38,2.86-6.38,6.38s2.86,6.38,6.38,6.38,6.38-2.86,6.38-6.38-2.86-6.38-6.38-6.38Z"/>
  </g>
  <g>
    <g>
      <path class="uuid-cb3be09b-e4ed-4d2f-aeb3-eb49a25b2a39" d="m589.51,340.36v14.77h2v-14.77c0-5.58-2.17-10.83-6.12-14.77l-16.46-16.46-1.41,1.41,16.46,16.46c3.57,3.57,5.53,8.31,5.53,13.36Z"/>
      <path class="uuid-cb3be09b-e4ed-4d2f-aeb3-eb49a25b2a39" d="m517.4,502.68v-1.5c0-40.31,32.8-73.11,73.11-73.11,31.67,0,59.91,20.69,69.58,50.62l-18.59-4.07-.64,2.93,22.77,4.98,5.77-26.37-2.93-.64-4.34,19.85c-10.77-29.86-39.49-50.3-71.61-50.3-41.46,0-75.29,33.33-76.09,74.61l-335.59-.08v3s337.07.08,337.07.08h1.5Z"/>
      <path class="uuid-cb3be09b-e4ed-4d2f-aeb3-eb49a25b2a39" d="m1025.15,485.9h-102.77c-7.87,0-14.36,6.02-15.11,13.69l-242.15.08h-1.5v1.5c0,40.31-32.8,73.11-73.11,73.11-31.67,0-59.91-20.69-69.58-50.62l18.59,4.07.64-2.93-22.77-4.98-5.77,26.37,2.93.64,4.34-19.85c10.77,29.86,39.49,50.3,71.61,50.3,41.46,0,75.29-33.33,76.09-74.61l240.67-.08c.76,7.67,7.25,13.69,15.11,13.69h102.77c8.38,0,15.19-6.81,15.19-15.19s-6.81-15.19-15.19-15.19Z"/>
    </g>
    <path class="uuid-18fa4fe2-d7a9-44e1-8aff-0ce2bc50b66d" d="m1003.65,440.48h-81.27c-8.38,0-15.19,6.81-15.19,15.19s6.81,15.19,15.19,15.19h81.27c8.38,0,15.19-6.81,15.19-15.19s-6.81-15.19-15.19-15.19Z"/>
    <g>
      <rect class="uuid-81072a91-e8e9-441e-a11f-37c3fd868a0d" x="908.69" y="532.83" width="108.65" height="27.38" rx="13.69" ry="13.69"/>
      <path class="uuid-cb3be09b-e4ed-4d2f-aeb3-eb49a25b2a39" d="m1003.65,561.71h-81.27c-8.38,0-15.19-6.81-15.19-15.19s6.81-15.19,15.19-15.19h81.27c8.38,0,15.19,6.81,15.19,15.19s-6.81,15.19-15.19,15.19Zm-81.27-27.38c-6.72,0-12.19,5.47-12.19,12.19s5.47,12.19,12.19,12.19h81.27c6.72,0,12.19-5.47,12.19-12.19s-5.47-12.19-12.19-12.19h-81.27Z"/>
    </g>
    <path class="uuid-c83e48d4-6996-457b-9cb4-115cb8c93406" d="m1003.65,576.76h-81.27c-8.38,0-15.19,6.81-15.19,15.19s6.81,15.19,15.19,15.19h81.27c8.38,0,15.19-6.81,15.19-15.19s-6.81-15.19-15.19-15.19Z"/>
  </g>
  <g>
    <path class="uuid-cb3be09b-e4ed-4d2f-aeb3-eb49a25b2a39" d="m139.88,156.5v276.61h388.09V156.5H139.88Zm1.99,274.62v-243.25h384.11v243.25H141.87Z"/>
    <circle class="uuid-81072a91-e8e9-441e-a11f-37c3fd868a0d" cx="507.45" cy="172.68" r="5.93"/>
  </g>
  <g>
    <rect class="uuid-81072a91-e8e9-441e-a11f-37c3fd868a0d" x="60.33" y="487.4" width="130.15" height="27.38" rx="13.69" ry="13.69"/>
    <path class="uuid-cb3be09b-e4ed-4d2f-aeb3-eb49a25b2a39" d="m176.8,516.28h-102.77c-8.38,0-15.19-6.81-15.19-15.19s6.81-15.19,15.19-15.19h102.77c8.38,0,15.19,6.81,15.19,15.19s-6.81,15.19-15.19,15.19Zm-102.77-27.38c-6.72,0-12.19,5.47-12.19,12.19s5.47,12.19,12.19,12.19h102.77c6.72,0,12.19-5.47,12.19-12.19s-5.47-12.19-12.19-12.19h-102.77Z"/>
  </g>
  <path class="uuid-cb3be09b-e4ed-4d2f-aeb3-eb49a25b2a39" d="m504.84,630.23v-2.92h5.43v-12.44c-.18.37-.45.72-.83,1.05-.38.33-.81.62-1.31.86s-1.04.44-1.63.58-1.19.22-1.81.22v-2.99c.69,0,1.33-.08,1.93-.24s1.14-.38,1.63-.66.93-.62,1.31-1.01c.38-.39.69-.82.93-1.28h3.71v15.92h4.51v2.92h-13.87Z"/>
  <path class="uuid-cb3be09b-e4ed-4d2f-aeb3-eb49a25b2a39" d="m498.65,649.54c0,1.78-.17,3.28-.52,4.52-.34,1.23-.82,2.23-1.43,3-.61.77-1.33,1.32-2.16,1.67s-1.74.52-2.73.52-1.89-.17-2.72-.51-1.54-.89-2.14-1.66-1.06-1.77-1.4-3-.5-2.74-.5-4.53.17-3.43.5-4.68c.33-1.25.8-2.24,1.4-2.99s1.33-1.27,2.17-1.58,1.78-.46,2.8-.46c.96,0,1.85.15,2.67.46.82.31,1.54.83,2.14,1.58s1.07,1.74,1.41,2.99.51,2.81.51,4.68Zm-3.94,0c0-1.28-.05-2.35-.15-3.2s-.27-1.53-.49-2.04-.51-.87-.87-1.08-.79-.31-1.31-.31c-.55,0-1.01.11-1.38.32s-.67.58-.9,1.09-.39,1.19-.49,2.05-.15,1.91-.15,3.18.05,2.29.15,3.14.27,1.53.49,2.05.52.88.88,1.1.81.33,1.34.33.95-.11,1.31-.33.66-.59.89-1.1.4-1.2.51-2.05c.11-.85.16-1.89.16-3.14Z"/>
  <path class="uuid-cb3be09b-e4ed-4d2f-aeb3-eb49a25b2a39" d="m553.3,604.67c0,1.78-.17,3.28-.52,4.52-.34,1.23-.82,2.23-1.43,3s-1.33,1.32-2.16,1.67-1.74.52-2.73.52-1.89-.17-2.72-.51c-.83-.34-1.54-.89-2.14-1.66s-1.06-1.77-1.4-3-.5-2.74-.5-4.53.17-3.43.5-4.68c.33-1.25.8-2.24,1.4-2.99s1.33-1.27,2.17-1.58c.84-.31,1.78-.46,2.8-.46.96,0,1.85.15,2.67.46.82.31,1.54.83,2.14,1.58s1.07,1.74,1.41,2.99c.34,1.25.51,2.81.51,4.68Zm-3.94,0c0-1.28-.05-2.35-.15-3.2-.1-.85-.27-1.53-.49-2.04s-.51-.87-.87-1.08c-.36-.21-.79-.31-1.31-.31-.55,0-1.01.11-1.38.32s-.67.58-.9,1.09-.39,1.19-.49,2.05-.15,1.91-.15,3.18.05,2.29.15,3.14.27,1.53.49,2.05.52.88.88,1.1.81.33,1.34.33.95-.11,1.31-.33.66-.59.89-1.1.4-1.2.51-2.05.16-1.89.16-3.14Z"/>
  <g>
    <path class="uuid-cb3be09b-e4ed-4d2f-aeb3-eb49a25b2a39" d="m716.88,412.78v-2.92h5.43v-12.44c-.18.37-.45.72-.83,1.05-.38.33-.81.62-1.31.86s-1.04.44-1.63.58-1.19.22-1.81.22v-2.99c.69,0,1.33-.08,1.93-.24s1.14-.38,1.63-.66.93-.62,1.31-1.01.69-.82.93-1.28h3.71v15.92h4.51v2.92h-13.87Z"/>
    <path class="uuid-cb3be09b-e4ed-4d2f-aeb3-eb49a25b2a39" d="m748.24,480.26v-2.92h5.43v-12.44c-.18.37-.45.72-.83,1.05s-.81.62-1.31.86-1.04.44-1.63.58c-.59.14-1.19.22-1.81.22v-2.99c.69,0,1.33-.08,1.93-.24s1.14-.38,1.63-.66.93-.62,1.31-1.01.69-.82.93-1.28h3.71v15.92h4.51v2.92h-13.87Z"/>
    <path class="uuid-cb3be09b-e4ed-4d2f-aeb3-eb49a25b2a39" d="m699.91,434.68c0,1.78-.17,3.28-.52,4.52-.34,1.23-.82,2.23-1.43,3s-1.33,1.32-2.16,1.67-1.74.52-2.73.52-1.89-.17-2.72-.51-1.54-.89-2.14-1.66-1.06-1.77-1.4-3c-.34-1.23-.5-2.74-.5-4.53s.17-3.43.5-4.68c.33-1.25.8-2.24,1.4-2.99.61-.74,1.33-1.27,2.17-1.58s1.78-.46,2.8-.46c.96,0,1.85.15,2.67.46s1.54.83,2.14,1.58,1.07,1.74,1.41,2.99.51,2.81.51,4.68Zm-3.94,0c0-1.28-.05-2.35-.15-3.2s-.27-1.53-.49-2.04c-.22-.51-.51-.87-.87-1.08s-.79-.31-1.31-.31c-.55,0-1.01.11-1.38.32s-.67.58-.9,1.09-.39,1.19-.49,2.05-.15,1.91-.15,3.18.05,2.29.15,3.14c.1.85.27,1.53.49,2.05s.52.88.88,1.1c.36.22.81.33,1.34.33s.95-.11,1.31-.33.66-.59.89-1.1.4-1.2.51-2.05c.11-.85.16-1.89.16-3.14Z"/>
    <path class="uuid-cb3be09b-e4ed-4d2f-aeb3-eb49a25b2a39" d="m818.54,529.9c0,2.03-.2,3.76-.59,5.17-.39,1.41-.94,2.56-1.64,3.44-.7.88-1.52,1.52-2.48,1.91s-1.99.59-3.12.59-2.17-.19-3.12-.58-1.76-1.02-2.44-1.9-1.21-2.02-1.6-3.44-.58-3.14-.58-5.18.19-3.93.57-5.35c.38-1.43.91-2.57,1.61-3.42.69-.85,1.52-1.45,2.48-1.81s2.03-.53,3.2-.53c1.1,0,2.12.18,3.06.53.94.35,1.76.95,2.44,1.81.69.85,1.23,1.99,1.61,3.42.39,1.43.58,3.21.58,5.35Zm-4.51,0c0-1.47-.06-2.69-.18-3.66-.12-.97-.3-1.75-.56-2.33-.26-.59-.59-1-1-1.24s-.91-.36-1.49-.36c-.63,0-1.16.12-1.58.37s-.77.66-1.03,1.25-.45,1.37-.56,2.34-.17,2.19-.17,3.64.06,2.63.18,3.6.3,1.75.56,2.34.59,1.01,1.01,1.26c.42.25.93.38,1.53.38s1.09-.13,1.5-.38c.42-.25.76-.67,1.02-1.26s.46-1.37.58-2.34c.12-.97.18-2.17.18-3.6Z"/>
  </g>
  <g>
    <path class="uuid-cb3be09b-e4ed-4d2f-aeb3-eb49a25b2a39" d="m158.53,501.09c0,1.37-.13,2.52-.4,3.47-.26.95-.63,1.72-1.1,2.31s-1.02,1.02-1.66,1.28-1.34.4-2.1.4-1.46-.13-2.09-.39-1.18-.69-1.64-1.28-.82-1.36-1.07-2.31-.39-2.11-.39-3.48.13-2.64.38-3.6c.25-.96.61-1.72,1.08-2.3.47-.57,1.02-.98,1.67-1.21.65-.24,1.36-.35,2.15-.35.74,0,1.42.12,2.06.35.63.24,1.18.64,1.64,1.21.46.57.82,1.34,1.08,2.3.26.96.39,2.16.39,3.6Zm-3.03,0c0-.99-.04-1.81-.12-2.46-.08-.65-.2-1.17-.38-1.57s-.4-.67-.67-.83-.61-.24-1-.24c-.42,0-.78.08-1.06.25s-.52.44-.69.84-.3.92-.38,1.57c-.08.65-.11,1.47-.11,2.44s.04,1.76.12,2.41.2,1.18.38,1.57.4.68.68.85.62.25,1.03.25.73-.08,1.01-.25.51-.45.69-.85.31-.92.39-1.57.12-1.46.12-2.41Z"/>
    <path class="uuid-cb3be09b-e4ed-4d2f-aeb3-eb49a25b2a39" d="m130.76,508.33v-2.24h4.17v-9.56c-.14.29-.35.56-.64.81s-.63.47-1.01.66-.8.33-1.26.45-.92.17-1.39.17v-2.3c.53,0,1.02-.06,1.48-.18s.88-.29,1.26-.51.71-.48,1-.78.53-.63.71-.99h2.85v12.23h3.47v2.24h-10.66Z"/>
    <path class="uuid-cb3be09b-e4ed-4d2f-aeb3-eb49a25b2a39" d="m166.55,508.33v-2.24h4.17v-9.56c-.14.29-.35.56-.64.81s-.63.47-1.01.66-.8.33-1.26.45-.92.17-1.39.17v-2.3c.53,0,1.02-.06,1.48-.18s.88-.29,1.26-.51.71-.48,1-.78c.29-.3.53-.63.71-.99h2.85v12.23h3.47v2.24h-10.66Z"/>
    <path class="uuid-cb3be09b-e4ed-4d2f-aeb3-eb49a25b2a39" d="m122.73,501.09c0,1.37-.13,2.52-.4,3.47-.26.95-.63,1.72-1.1,2.31s-1.02,1.02-1.66,1.28c-.64.26-1.34.4-2.1.4s-1.46-.13-2.09-.39-1.18-.69-1.64-1.28-.82-1.36-1.07-2.31-.39-2.11-.39-3.48.13-2.64.38-3.6.61-1.72,1.08-2.3c.47-.57,1.02-.98,1.67-1.21.65-.24,1.36-.35,2.15-.35.74,0,1.42.12,2.06.35.63.24,1.18.64,1.64,1.21.46.57.82,1.34,1.08,2.3.26.96.39,2.16.39,3.6Zm-3.03,0c0-.99-.04-1.81-.12-2.46s-.2-1.17-.38-1.57-.4-.67-.67-.83-.61-.24-1-.24c-.42,0-.78.08-1.06.25s-.52.44-.69.84-.3.92-.38,1.57c-.08.65-.11,1.47-.11,2.44s.04,1.76.12,2.41.2,1.18.38,1.57.4.68.68.85.62.25,1.03.25.73-.08,1.01-.25.51-.45.69-.85.31-.92.39-1.57.12-1.46.12-2.41Z"/>
    <path class="uuid-cb3be09b-e4ed-4d2f-aeb3-eb49a25b2a39" d="m94.96,508.33v-2.24h4.17v-9.56c-.14.29-.35.56-.64.81s-.63.47-1.01.66-.8.33-1.26.45-.92.17-1.39.17v-2.3c.53,0,1.02-.06,1.48-.18s.88-.29,1.26-.51.71-.48,1-.78c.29-.3.53-.63.71-.99h2.85v12.23h3.47v2.24h-10.66Z"/>
    <path class="uuid-cb3be09b-e4ed-4d2f-aeb3-eb49a25b2a39" d="m86.93,501.09c0,1.37-.13,2.52-.4,3.47-.26.95-.63,1.72-1.1,2.31-.47.59-1.02,1.02-1.66,1.28s-1.34.4-2.1.4-1.46-.13-2.09-.39-1.18-.69-1.64-1.28-.82-1.36-1.07-2.31-.39-2.11-.39-3.48.13-2.64.38-3.6.61-1.72,1.08-2.3c.47-.57,1.02-.98,1.67-1.21.65-.24,1.36-.35,2.15-.35.74,0,1.42.12,2.06.35.63.24,1.18.64,1.64,1.21s.82,1.34,1.08,2.3c.26.96.39,2.16.39,3.6Zm-3.03,0c0-.99-.04-1.81-.12-2.46s-.2-1.17-.38-1.57-.4-.67-.67-.83-.61-.24-1-.24c-.42,0-.78.08-1.06.25s-.52.44-.69.84-.3.92-.38,1.57-.11,1.47-.11,2.44.04,1.76.12,2.41.2,1.18.38,1.57.4.68.68.85.62.25,1.03.25.73-.08,1.01-.25.51-.45.69-.85.31-.92.39-1.57.12-1.46.12-2.41Z"/>
  </g>
  <g>
    <g>
      <path class="uuid-cdf792eb-539d-4ef9-bded-f523fc7887a2" d="m161.28,822.94s-12.77,12.89-20.37,9.75c0,0-2.92,10.13,4.75,20.34,7.67,10.21,14.29,9.69,14.29,9.69,0,0-2.38-6.68,2.52-13.7,4.9-7.02,10.91-11.35,10.91-11.35l-12.09-14.72Z"/>
      <g class="uuid-16da1986-f55d-4a03-affb-bae81badf18b">
        <path class="uuid-253635c7-d671-49a3-943d-dcae1e3ea900" d="m142.86,839.93c6.13-3.28,14.01-7.42,14.01-7.42,0,0,10.08,5.22,16.5,6.37,6.43,1.15.81.14.81.14l-15.47-17.85-17.4,8.37-5.37,9.5"/>
      </g>
      <path class="uuid-8d511b34-cb1c-4bc4-88d6-991463184736" d="m121.65,846.93c-1.58,6.96-12.82,17.79-12.82,17.79,0,0-1.43,2.6,2.49,5.93,3.38,2.88,4.75,2.66,6.33,2.02,0,0,8.13-8.59,10.14-10.82,2.47-2.72,4.73.53,4.73.53,0,0,.89-4.18-3.53-9.88-4.42-5.7-7.34-5.57-7.34-5.57Z"/>
      <path class="uuid-61390fc4-79be-43a3-8814-cf2449c9f989" d="m143.52,830.61s2.28-.82,2.88.62c1.7,4.05-2.36,10.92,1.45,17.99,3.81,7.07,11.91,6.61,14.75,6.41,0,0-1.4,12.6-2.47,20.74-1.07,8.14-2.91,9.87,2.86,13.44,5.76,3.57,7.33,6.09,6.05,11.13-.49,1.94-2.29,4.97-3.06,6,0,0-6.99.07-14.38-3.9-4.92-2.64-11.02-6.04-13.02-11.28-1.53-4-1.06-7.98-.64-12.21.56-5.72-.16-10.96-3.92-15.43-7.66-9.09-12.07-11.78-12.37-17.19,0,0-1.33-3.83,5.51-8.3,5.2-3.4,6.5-1.74,16.36-8.02Z"/>
    </g>
    <path class="uuid-316d1419-7950-4df8-bef8-c900f5a0b66a" d="m165.68,902.86c-.13,0-.25-.02-.38-.07-.51-.21-.76-.79-.55-1.3.82-2.02.82-3.87-.02-5.07-1.1-1.59-5.06-4.01-6.5-4.81-.48-.27-.65-.88-.39-1.36.27-.48.88-.66,1.36-.39.57.32,5.6,3.16,7.16,5.42,1.23,1.77,1.31,4.31.23,6.97-.16.39-.53.62-.93.62Z"/>
    <g>
      <path class="uuid-cdf792eb-539d-4ef9-bded-f523fc7887a2" d="m234.28,851.06s-1.71,18.45-10.59,20.91c0,0,4.82,9.88,18.87,12.93,14.06,3.05,19.42-1.66,19.42-1.66,0,0-6.91-3.71-7.75-12.42-.84-8.71,1.22-16.03,1.22-16.03l-21.17-3.73Z"/>
      <g class="uuid-67b9f1ca-8a34-43aa-b2b0-7b41952c6713">
        <path class="uuid-253635c7-d671-49a3-943d-dcae1e3ea900" d="m232.46,876.88s5.79-8.47,7.18-14.49c0,0,9.97.09,14.71-1.46l-21.89-6.18-8.16,20.84"/>
      </g>
      <path class="uuid-8d511b34-cb1c-4bc4-88d6-991463184736" d="m216.87,895.56c3.56,6.57,1.38,22.39,1.38,22.39,0,0,.59,2.98,6.4,3.16,5.01.15,6.06-.89,6.99-2.41,0,0,1.03-12.04,1.22-15.11.23-3.75,4.53-2.58,4.53-2.58,0,0-2.19-3.91-10.12-5.66-7.93-1.74-10.4.22-10.4.22Z"/>
      <path class="uuid-61390fc4-79be-43a3-8814-cf2449c9f989" d="m224.48,868.6s1.41-2.11,2.97-1.34c4.37,2.15,5.69,10.24,14.06,13.47,8.36,3.23,15.15-2.3,17.5-4.26,0,0,7.72,10.97,12.56,18.16,4.84,7.19,6.6,10.96,14.16,11.39s10.45,1.96,11.97,7.19c.58,2.01.49,5.65.3,6.97,0,0-6.76,3.48-16.11,3.48-6.23,0-12.83-.09-18.31-3.01-4.18-2.23-6.6-5.71-9.24-9.36-3.57-4.93-7.92-8.67-14.4-9.85-13.18-2.4-18.96-1.74-23.07-5.88,0,0-3.88-2.22-1.06-10.15,2.15-6.03,4.47-5.53,8.67-16.82Z"/>
    </g>
    <path class="uuid-316d1419-7950-4df8-bef8-c900f5a0b66a" d="m294.92,916.69c-.49,0-.92-.36-.99-.87-.31-2.26-1.34-3.96-2.85-4.66-1.97-.92-7.18-1.2-9.02-1.22-.55,0-.99-.46-.98-1.01,0-.55.5-1.01,1.01-.99.29,0,7.08.12,9.84,1.41,2.13,1,3.58,3.26,3.98,6.2.07.55-.31,1.05-.86,1.13-.05,0-.09,0-.14,0Z"/>
    <path class="uuid-61390fc4-79be-43a3-8814-cf2449c9f989" d="m238.8,693.97c.11,11.92-3,25.8-8.45,34.82s-24.42,31.79-36.19,46.79c-11.77,15-23.31,28.21-25.82,40.06,0,0-1.39,2.18-4.2,4.61-2.81,2.43-7.39,5.41-7.39,5.41,0,0-1.21,1.66,7.63,7.82,8.84,6.16,9.81,5.54,9.81,5.54,0,0,8.05-7.34,13.79-8.86,0,0,20.15-9.1,33.81-18.74,13.66-9.64,31.81-29.63,50.4-51.14,18.59-21.51,14.47-21.79,21.07-36.85,6.6-15.07-5.4-30.74-19.05-35.16-13.65-4.42-34.53-2-34.53-2,0,0-.95.29-.88,7.71Z"/>
    <path class="uuid-8d511b34-cb1c-4bc4-88d6-991463184736" d="m185.11,830.53c-.09,0-.17-.01-.26-.04-10.65-2.89-15.61-10.38-15.82-10.7-.3-.46-.17-1.08.29-1.38.46-.3,1.08-.17,1.38.29.05.07,4.78,7.18,14.67,9.86.53.14.85.69.7,1.23-.12.45-.52.74-.96.74Z"/>
    <path class="uuid-253635c7-d671-49a3-943d-dcae1e3ea900" d="m354.42,447.8c6.31-4.18,12.45-10.18,15.17-12.64,2.72-2.46,9.65-16.56,12.42-18.8,2.77-2.24,3.61,21.81,2.26,26.29-1.35,4.49-8.14,6.44-8.14,6.44,0,0-7.35,5.8-12.77,11.88-5.42,6.08-8.94-13.18-8.94-13.18Z"/>
    <path class="uuid-4a9b977d-1216-4ca7-a2bc-498eb355fcfa" d="m421.99,427.45c2.18.22,3.48.87,3.26,2.39-.22,1.52-2.39,2.61-4.57,2.39-2.18-.22-6.53-2.83-6.53-2.83"/>
    <path class="uuid-2801e42a-7060-4486-88aa-d94681ee2ed0" d="m292.09,357.87c-6.85-2.39-22.26,20.43-24.89,45.13-2.63,24.69-17-14.29-17-14.29l12.69-31.67,19.21-16.2"/>
    <ellipse class="uuid-81072a91-e8e9-441e-a11f-37c3fd868a0d" cx="311.35" cy="320.9" rx="5.97" ry="10.93"/>
    <path class="uuid-cdf792eb-539d-4ef9-bded-f523fc7887a2" d="m310.99,318.82c1.62,4.14,2.51,5.53,3.63,6.9s2.12,2.2,2.11,4.02c0,1.09-1.19,2.37-2.94,3.75-1.74,1.38-5.79,1.87-5.79,1.87"/>
    <path class="uuid-61390fc4-79be-43a3-8814-cf2449c9f989" d="m406.21,453.61l-48.65-15.73c-1.96-.63-4.04-5.35-2.7-7.36l48.71-68.92c1.34-2.01,4.02-3.13,5.98-2.5l50.01,14.1c.98,1.29,1.59,4.54.25,6.55l-47.62,71.36c-1.34,2.01-4.02,3.13-5.98,2.5Z"/>
    <g>
      <g>
        <path class="uuid-81072a91-e8e9-441e-a11f-37c3fd868a0d" d="m406.61,450.07c-.36,0-.69-.05-1-.15l-49.14-15.86c-.68-.22-1.14-.65-1.35-1.25-.27-.78-.08-1.75.54-2.67l47.62-71.36c.95-1.42,2.73-2.42,4.33-2.42.36,0,.69.05,1,.15l49.14,15.86c.68.22,1.14.65,1.35,1.25.27.78.08,1.75-.54,2.67l-47.62,71.36c-.95,1.42-2.73,2.42-4.33,2.42Z"/>
        <path class="uuid-8d511b34-cb1c-4bc4-88d6-991463184736" d="m407.59,356.94h0c.3,0,.57.04.82.12l49.14,15.86c.51.16.84.46.99.89.21.61.04,1.39-.47,2.16l-47.62,71.36c-.85,1.27-2.43,2.16-3.85,2.16-.3,0-.57-.04-.82-.12l-49.14-15.86c-.51-.16-.84-.46-.99-.89-.21-.61-.04-1.39.47-2.16l47.62-71.36c.85-1.27,2.43-2.16,3.85-2.16m0-1.15c-1.75,0-3.72,1.04-4.81,2.68l-47.62,71.36c-1.34,2.01-.84,4.16,1.12,4.79l49.14,15.86c.37.12.77.18,1.18.18,1.75,0,3.72-1.04,4.81-2.68l47.62-71.36c1.34-2.01.84-4.16-1.12-4.79l-49.14-15.86c-.37-.12-.77-.18-1.18-.18h0Z"/>
      </g>
      <path class="uuid-8d511b34-cb1c-4bc4-88d6-991463184736" d="m456.04,381.1l-56.24-18.15,3.05-4.57c1.28-1.92,3.83-2.98,5.7-2.38l49.48,15.97c1.87.6,2.35,2.65,1.07,4.56l-3.05,4.57Z"/>
      <g>
        <ellipse class="uuid-cb3be09b-e4ed-4d2f-aeb3-eb49a25b2a39" cx="420.56" cy="407.56" rx="7.32" ry="5.3" transform="translate(-155.78 303.57) rotate(-33.87)"/>
        <ellipse class="uuid-cb3be09b-e4ed-4d2f-aeb3-eb49a25b2a39" cx="404.81" cy="402.48" rx="5.26" ry="3.81" transform="translate(-155.62 293.93) rotate(-33.87)"/>
        <ellipse class="uuid-cb3be09b-e4ed-4d2f-aeb3-eb49a25b2a39" cx="391.36" cy="398.14" rx="3.2" ry="2.31" transform="translate(-155.48 285.7) rotate(-33.87)"/>
      </g>
    </g>
    <path class="uuid-558c6bb1-e044-4f93-8391-4d6d34535af4" d="m304.26,471.16c4.8-.28,40.28-17.01,54.54-27.81,0,0,4.12.12,6.23,2.73s4.13,6,4.08,11.64c-.04,5.64-15.74,23.91-15.74,23.91,0,0-25.32,17.57-35.13,19.46-9.82,1.89-13.98-29.94-13.98-29.94Z"/>
    <path class="uuid-cb3be09b-e4ed-4d2f-aeb3-eb49a25b2a39" d="m311.35,332.83c-3.91,0-6.97-5.24-6.97-11.93s3.06-11.93,6.97-11.93,6.97,5.24,6.97,11.93-3.06,11.93-6.97,11.93Zm0-21.86c-2.7,0-4.97,4.55-4.97,9.93s2.28,9.93,4.97,9.93,4.97-4.55,4.97-9.93-2.28-9.93-4.97-9.93Z"/>
    <path class="uuid-cdf792eb-539d-4ef9-bded-f523fc7887a2" d="m313.99,311.11c.41,3.59-3.25,7.09-2.27,9.79,0,0,2.82,5.57,1.58,12.58-.88,4.97-1.99,6.83-4.59,11.15-4.74,7.87-4.49,11.83-8.62,14.31-5.88,3.52-14.61-6.12-18.34-3.14,0,0-9.77,6.76-18.85,14.79-9.08,8.03-11.58,18.46-11.58,18.46l-16.43-6.49s3.96-36.4,5.39-40.67c1.42-4.27,4.27-15.55,2.67-26.83-1.6-11.28-.52-34.38,22.63-39.84,23.15-5.47,37.58,7.75,42.21,13.9,4.63,6.15,6.19,22.01,6.19,22.01Z"/>
    <g class="uuid-dc2a4e5e-ada0-4ea9-9375-c58d28983f1f">
      <path class="uuid-253635c7-d671-49a3-943d-dcae1e3ea900" d="m292.09,336.38c1.38,1.12.91,9.26.91,13.02s1.93,8.96,3.85,9.52,2.78.24,2.78.24c0,0-.37,2.32-5.43,2.75-5.06.43-10.61,4.71-12.46,8.05s-7.29,11.01-7.29,11.01l-4,6.6-7.34-11.56-1.46-10,5.65-10.88,7.15-10.36,9.12-15.16,7.02-1.2,2.14,2.14,1.46,2.06"/>
    </g>
    <path class="uuid-cb3be09b-e4ed-4d2f-aeb3-eb49a25b2a39" d="m226.68,465.33c2.39,8.97,5.68,20.07,7.13,29.29,1.96,12.49-1.63,27.26-1.63,27.26,0,0,6.83,2,32.82,2s34.15-2.17,34.15-2.17c0,0,.33-17.66-.67-29.15-1-11.49-2.83-25.99-2-31.82.83-5.83,6.83-13.83,5-24.49-1.83-10.66-11.66-16.99-14.66-23.49-3-6.5-12.99-28.49-26.32-28.82-13.33-.33-31.19,1.46-40.86,23.62-6.74,15.46-2.26,23.96,2.45,41.6,1.2,4.51,2.57,8.94,3.84,13.43.26.91.51,1.83.75,2.74Z"/>
    <g class="uuid-64f3b32f-84fa-4dfe-86c0-894bf5bbbe7d">
      <path class="uuid-558c6bb1-e044-4f93-8391-4d6d34535af4" d="m248.18,416.22s10.27,14.88,10.76,49.89c.5,35.01,1.65,54.54,17.85,70.71,16.2,16.17,12.4-30.37,12.4-30.37l-14.18-76.56-9.79-17.25"/>
      <path class="uuid-558c6bb1-e044-4f93-8391-4d6d34535af4" d="m274.39,375.64s-.84,6.86-22.4,22.39c-21.56,15.54-27.74,44.4-17.09,74.23,10.64,29.83,10.42,35.14,9.92,62.49-.5,27.35-25.98-4.35-25.98-4.35l-11.96-48.48-3.89-41.02,4.87-17.4,14.13-19.89,11.69-12.43,12.31-12.43,7.37-10.57,6.16-5.59"/>
    </g>
    <path class="uuid-cdf792eb-539d-4ef9-bded-f523fc7887a2" d="m352.34,461.23c9.75-7.46,14.62-14.99,16.78-17.48,2.16-2.49,3.66-5.94,4.68-9.16,1.02-3.22,9.56-1.12,12.74,1.53s.34,11.46.34,11.46c0,0-5.41,2.96-8.58,7.47-11.7,16.67-18.15,31.24-22.82,33.87"/>
    <path class="uuid-cdf792eb-539d-4ef9-bded-f523fc7887a2" d="m367.27,446.17c1.86-3.22,7.86-18.25,8.49-21.8.63-3.55.06-4.59,2.76-6.8,2.7-2.21,6.88-5.45,9.01-6.61,2.13-1.16,4.48-2.38,7.91-4.23s5.94-3.7,6.89-3.99c.95-.29,1.35-.48,1.93-.11.58.36,1.09,1.33-1.07,3.88-2.17,2.54-8.31,5.87-11.38,8.95,0,0,.96-.5,2.55-.21,1.59.29,2.61,1.28,2.77,1.9.16.62-.2,1.58-.2,1.58,0,0,1.71-.27,2.67.08s2.14,1.15,2.27,2.42-.17,2.68-.17,2.68c0,0,1.08-.21,1.88.44.8.65,1.44,2.32,1.26,4.08-.18,1.76-.79,4.67-1.5,5.75-.71,1.08-3.2,2.63-4.57,3.6s-2.78-.25-2.83-.71.13-2.21.13-2.21c0,0-2.88,3.17-4.22,6.72-1.34,3.54-4.69,6.72-6.39,8.38-1.7,1.65-7.34,4.81-8.9,7.36"/>
    <path class="uuid-9002faa4-2900-438b-8492-e5c1fd008780" d="m233.37,513.82c-.48,7.74-13.19,29.31-17.95,48.83-4.31,17.68,1.31,41.33,8.45,63.04,3.25,9.88,13.84,40.27,14.96,60.96.88,16.18-3.18,39.98,15.71,41.77,18.89,1.8,46.13-13.97,47.88-42.46,1.75-28.49,1.44-59.51-.65-83.38-2.09-23.88-7.41-56.15-6.96-63.48.45-7.33-.19-24.75-.19-24.75,0,0-50.75-6.61-61.24-.53Z"/>
    <g>
      <path class="uuid-9002faa4-2900-438b-8492-e5c1fd008780" d="m239.17,713.62c-.08,10.62-10.4,47.64-13.62,66.24-3.22,18.6-.14,53.43,7.62,62.5l-1.72,14.54s-1.31,2.04,10.82,3.41c12.13,1.36,14.49.27,14.49.27.04-9.05,4.45-18.45,4.45-18.45,6.66-9.85,15.87-29.76,19.85-40.96,14.51-40.79,19.47-92.41,20.82-110.57,1.28-17.22-22.31-18.1-37.83-18.1s-27.68-4.96-27.68-4.96c0,0,3.03,17.05,2.8,46.09Z"/>
      <path class="uuid-61390fc4-79be-43a3-8814-cf2449c9f989" d="m249.64,847.3c-8.07,0-14.5-2.48-14.85-2.62-.51-.2-.77-.78-.56-1.3.2-.51.78-.77,1.3-.57.11.04,11.08,4.26,21.94,1.57.53-.13,1.08.19,1.21.73.13.54-.19,1.08-.73,1.21-2.84.7-5.66.97-8.3.97Z"/>
    </g>
    <path class="uuid-61390fc4-79be-43a3-8814-cf2449c9f989" d="m294.81,539.11c.45-7.33-.19-24.75-.19-24.75,0,0-13.93-1.82-28.71-2.67-13.42-.78-27.54-.76-32.53,2.14-.14,2.36-1.43,6.01-3.28,10.5-4.21,10.22-11.36,24.77-14.67,38.34-4.31,17.68,1.31,41.33,8.45,63.04,1.88,5.71,6.21,18.29,9.75,31.87-2.39-23.01-6.39-43.42-8.84-55.93-5.97-30.4,2.35-42.26,6.46-51.43,2.73-6.09,7.69-17.83,10.69-27.1,7.56-.47,17.91-.61,29.76.6,6.4,8.99,15.12,18.13,23.55,23.39-.36-3.62-.53-6.4-.43-7.99Z"/>
    <g>
      <rect class="uuid-cb3be09b-e4ed-4d2f-aeb3-eb49a25b2a39" x="294.21" y="314.76" width="25.77" height="2"/>
      <path class="uuid-61390fc4-79be-43a3-8814-cf2449c9f989" d="m287.23,333.48s-1.99,11.41-3.3,27.47c-1.47,17.93,14.5,46.62.02,69.33l-16.59-6.67s1.68-6.71-1.31-16.79c-2.98-10.07-4.85-19.4-4.29-24.06,0,0,.93-19.02-5.6-30.22-1.44-2.47-3.21-5.4-5.1-8.47"/>
      <path class="uuid-cb3be09b-e4ed-4d2f-aeb3-eb49a25b2a39" d="m265.11,369.84c.29-7.72,4.15,7.74,5.9,11.26,2.88,5.78,14.8,10.47,19.91,14.42,5.99,4.63,9.05,12.43,9.82,28.9.77,16.47,7.87,55.79,12.36,65.79s18.14,31.38,8.65,38.71c-9.5,7.33-20.84,7-29.16.49-7.05-5.52-15.18-21.29-21.58-43.18-4.41-15.07-7.41-33.69-12.06-48.53-1.44-4.6-3.22-7.65-6.52-11.36-3.03-3.41-15.2-3.44-13.88-8.99.36-1.51,1.52-2.68,2.63-3.77,7.8-7.62,7.74-13.92,14.89-21.69,7.73-8.39,10.57-9.13,9.19-19.42-.14-1.05-.19-1.91-.16-2.62Z"/>
      <path class="uuid-cb3be09b-e4ed-4d2f-aeb3-eb49a25b2a39" d="m309.8,491.2c24.21-11.45,42.91-32.49,50.11-38.77,0,0,5.81-1.63,12.78,1.86,6.97,3.49,5.49,17.06,5.49,17.06,0,0-6.14,1.79-11.64,8.89-3.44,4.44-21.47,27.21-32.16,38.36-4.35,4.54-9.69,9.23-13.51,11.34-6.64,3.67-12.98,4.14-20.36,2.36-4.44-1.07-9.63-3.95-12.35-8.43-6.54-10.75,21.65-32.68,21.65-32.68Z"/>
      <path class="uuid-558c6bb1-e044-4f93-8391-4d6d34535af4" d="m316.1,502.92c-.48,0-.9-.35-.99-.83-.94-5.6-2.03-9.15-2.04-9.19-.16-.53.13-1.09.66-1.25s1.09.13,1.25.66c.05.15,1.13,3.7,2.1,9.45.09.54-.28,1.06-.82,1.15-.06,0-.11.01-.17.01Z"/>
    </g>
    <path class="uuid-558c6bb1-e044-4f93-8391-4d6d34535af4" d="m267.95,372.49v-1.15c-7.4,1.87-21.67,12.57-21.67,12.57l-10.07,11.61,12.39,4.82c7.35-4.83,17.67-12.21,21.86-20.54-.73-1.89-1.64-4.8-2.51-7.3Z"/>
    <path class="uuid-61390fc4-79be-43a3-8814-cf2449c9f989" d="m282.09,358.04c.81-2.94,1.73-6.02,1.86-9.72,0,0,3.26-11.89,4.89-25.26.41-3.38,6.68-4.07,7.66-1.14.98,2.93,3.58,4.07,4.24,1.47.65-2.61,2.28-7.17,4.64-8.8,2.36-1.63,5.08-7.82,5.08-7.82,2.05-3.62,1.98-8.57,1.98-8.57-.42-8.27-19.71-27.18-41.61-26.34-7.23.28-14.54,2.19-20.2,6.88-10.18,8.44-12.06,23.22-11.88,35.65.11,7.34-.89,30.07-1.75,37.41-3.07,26.13-10.01,29.02-23.08,46.3-13.07,17.29-23.36,41.66-21.17,62.33,2.19,20.67,17.53,29.21,24.54,29.65,7.01.44,12.13-4.34,12.89-11.85.76-7.51-9.82-27.36-6.97-42.92,2.85-15.55,14.9-32.11,33.3-46.29,18.4-14.18,22.21-18.73,25.6-31Z"/>
    <path class="uuid-cdf792eb-539d-4ef9-bded-f523fc7887a2" d="m296.85,323s-.31-4.53-3.66-5.54c-3.35-1.01-6.46,4.19-5.77,11.05.69,6.85,6.57,9.25,6.57,9.25"/>
    <path class="uuid-8d511b34-cb1c-4bc4-88d6-991463184736" d="m307.72,311.86c1.52-2.32,2.74-5.1,2.74-5.1,2.05-3.62,1.98-8.57,1.98-8.57-.42-8.27-19.71-27.18-41.61-26.34-.78.03-1.57.08-2.35.15,6.05-.1,34.5,7.1,39.24,39.85Z"/>
    <path class="uuid-61390fc4-79be-43a3-8814-cf2449c9f989" d="m311.04,320.64c-.06,0-.13,0-.19,0-.51,0-.91-.43-.9-.94,0-.51.43-.9.94-.91.86,0,1.57-.1,2.01-.31.45-.23,1.01-.05,1.24.41.23.45.05,1.01-.41,1.24-.83.42-1.88.51-2.69.51Z"/>
    <path class="uuid-61390fc4-79be-43a3-8814-cf2449c9f989" d="m314.02,312.01c-.73-.62-1.85-1.06-3.15.31,0,0,.5-1.84,1.87-2.35s1.7.92,1.29,2.04Z"/>
  </g>
</svg>