<?xml version="1.0" encoding="utf-8"?>
<!-- Generator: Adobe Illustrator 28.3.0, SVG Export Plug-In . SVG Version: 6.00 Build 0)  -->
<svg version="1.1" id="uuid-8f959568-17a3-4541-bf2b-510305e1a8a9"
	 xmlns="http://www.w3.org/2000/svg" xmlns:xlink="http://www.w3.org/1999/xlink" x="0px" y="0px" viewBox="0 0 334 321"
	 style="enable-background:new 0 0 334 321;" xml:space="preserve">
<style type="text/css">
	.st0{fill:#DAF2F2;}
	.st1{fill:#E8A997;}
	.st2{fill:#9AD8D8;}
	.st3{fill:#EE0000;}
	.st4{fill:#FFFFFF;}
	.st5{clip-path:url(#SVGID_00000155144837773721602480000001274941825705248399_);}
	.st6{fill:none;stroke:#EE0000;stroke-width:2;stroke-linecap:round;stroke-miterlimit:10;}
	.st7{fill:#F7C8BB;}
	.st8{fill:#B9E5E5;}
	.st9{fill:#9AD8D8;stroke:#9AD8D8;stroke-width:2;stroke-linecap:round;stroke-linejoin:round;}
	.st10{fill:#CE8873;}
	.st11{fill:#63BDBD;}
	.st12{fill:none;stroke:#FFFFFF;stroke-width:2;stroke-linecap:round;stroke-linejoin:round;}
	.st13{fill:none;stroke:#FFFFFF;stroke-width:2;stroke-linecap:round;stroke-miterlimit:10;}
</style>
<g>
	<path class="st0" d="M301.9,37.4c11.8,5.7,21,15.6,26.5,30.1c11,29.1,5.1,63.4-12.5,88.3c-8.6,12.2-19.4,22.2-29.5,33
		c-10.5,11.2-19.2,23.9-28.1,36.4c-14.9,20.9-32,41.6-56.2,50.8c-26.5,10.1-55.7,5.2-79.8-9.1c-24.2-14.5-45.1-34.2-69.3-48.7
		c-22.3-13.4-43.7-28.7-50.7-56.2c-7.1-28.1,2.4-55.9,19.4-77.8c9.1-11.7,20-20.2,29.3-31.7C60,41.4,68,27.7,79.1,19
		C99.9,2.6,125.3-3.6,150.8,2.5c23.5,5.7,44.1,19.8,67.3,26.6c19.5,5.7,40.5,1.3,60.5,2.5C287.1,32.1,295,34,301.9,37.4L301.9,37.4z
		"/>
	<path class="st1" d="M191.4,293.7c0-4.8,1.2-9.6,2.1-12.4l11.1,2.2c0,4.4,1,7.8,2.6,8.7c0,0-1.9,4.2-7,4.5
		C195.1,297.1,191.4,293.7,191.4,293.7L191.4,293.7z"/>
	<g>
		<rect x="17.3" y="92.1" class="st2" width="91.5" height="51.5"/>
		<rect x="119.1" y="92.1" class="st2" width="91.5" height="51.5"/>
		<rect x="221" y="92.1" class="st2" width="91.5" height="51.5"/>
		<rect x="17.3" y="30.7" class="st2" width="91.5" height="51.5"/>
		<rect x="119.1" y="30.7" class="st2" width="91.5" height="51.5"/>
		<rect x="221" y="30.7" class="st2" width="91.5" height="51.5"/>
		<rect x="17.3" y="153.5" class="st2" width="91.5" height="51.5"/>
		<rect x="119.1" y="153.5" class="st2" width="91.5" height="51.5"/>
		<rect x="221" y="153.5" class="st2" width="91.5" height="51.5"/>
	</g>
	<path class="st3" d="M323.7,224.9H7.1c-0.3,0-0.5-0.2-0.5-0.5s0.2-0.5,0.5-0.5h316.7c0.3,0,0.5,0.2,0.5,0.5S324,224.9,323.7,224.9
		L323.7,224.9z"/>
	<g>
		<g>
			<rect x="22.3" y="87.1" class="st4" width="91.5" height="51.5"/>
			<path d="M114.3,139.1H21.7V86.6h92.5V139.1z M22.8,138.1h90.5V87.6H22.8L22.8,138.1L22.8,138.1z"/>
		</g>
		<g>
			<rect x="124.1" y="87.1" class="st4" width="91.5" height="51.5"/>
			<path d="M216.1,139.1h-92.5V86.6h92.5V139.1z M124.6,138.1h90.5V87.6h-90.5V138.1z"/>
		</g>
		<g>
			<rect x="226" y="87.1" class="st4" width="91.5" height="51.5"/>
			<path d="M318,139.1h-92.5V86.6H318V139.1z M226.5,138.1H317V87.6h-90.5V138.1z"/>
		</g>
		<g>
			<rect x="22.3" y="25.7" class="st4" width="91.5" height="51.5"/>
			<path d="M114.3,77.7H21.7V25.2h92.5V77.7z M22.8,76.7h90.5V26.2H22.8L22.8,76.7L22.8,76.7z"/>
		</g>
		<g>
			<rect x="124.1" y="25.7" class="st4" width="91.5" height="51.5"/>
			<path d="M216.1,77.7h-92.5V25.2h92.5V77.7z M124.6,76.7h90.5V26.2h-90.5V76.7z"/>
		</g>
		<g>
			<rect x="226" y="25.7" class="st4" width="91.5" height="51.5"/>
			<path d="M318,77.7h-92.5V25.2H318V77.7z M226.5,76.7H317V26.2h-90.5V76.7z"/>
		</g>
		<g>
			<rect x="22.3" y="148.5" class="st4" width="91.5" height="51.5"/>
			<path d="M114.3,200.5H21.7V148h92.5V200.5z M22.8,199.5h90.5V149H22.8L22.8,199.5L22.8,199.5z"/>
		</g>
		<g>
			<rect x="124.1" y="148.5" class="st4" width="91.5" height="51.5"/>
			<path d="M216.1,200.5h-92.5V148h92.5V200.5z M124.6,199.5h90.5V149h-90.5V199.5z"/>
		</g>
		<g>
			<rect x="226" y="148.5" class="st4" width="91.5" height="51.5"/>
			<path d="M318,200.5h-92.5V148H318V200.5z M226.5,199.5H317V149h-90.5V199.5z"/>
		</g>
	</g>
	<g>
		<rect x="26" y="90.9" class="st4" width="84" height="44"/>
		<rect x="26" y="90.9" class="st4" width="84" height="44"/>
	</g>
	<g>
		<rect x="127.8" y="90.9" class="st4" width="84" height="44"/>
		<rect x="127.8" y="90.9" class="st4" width="84" height="44"/>
	</g>
	<g>
		<rect x="229.7" y="90.9" class="st4" width="84" height="44"/>
		<rect x="229.7" y="90.9" class="st4" width="84" height="44"/>
	</g>
	<g>
		<rect x="26" y="29.5" class="st4" width="84" height="44"/>
		<rect x="26" y="29.5" class="st4" width="84" height="44"/>
	</g>
	<g>
		<rect x="127.8" y="29.5" class="st4" width="84" height="44"/>
		<rect x="127.8" y="29.5" class="st4" width="84" height="44"/>
	</g>
	<g>
		<rect x="26" y="152.3" class="st4" width="84" height="44"/>
		<rect x="26" y="152.3" class="st4" width="84" height="44"/>
	</g>
	<g>
		<rect x="127.8" y="152.3" class="st4" width="84" height="44"/>
		<rect x="127.8" y="152.3" class="st4" width="84" height="44"/>
	</g>
	<g>
		<rect x="229.7" y="152.3" class="st4" width="84" height="44"/>
		<rect x="229.7" y="152.3" class="st4" width="84" height="44"/>
	</g>
	<g>
		<defs>
			<path id="SVGID_1_" d="M26,134.9v-44h84v44H26z M211.9,134.9v-44h-84v44H211.9z M313.8,134.9v-44h-84v44H313.8z M110,73.5v-44H26
				v44H110z M211.9,73.5v-44h-84v44H211.9z M313.8,73.5v-44h-84v44H313.8z M110,196.3v-44H26v44H110z M211.9,196.3v-44h-84v44H211.9
				z M313.8,196.3v-44h-84v44H313.8z"/>
		</defs>
		<clipPath id="SVGID_00000016782343718668753850000015624202287320811412_">
			<use xlink:href="#SVGID_1_"  style="overflow:visible;"/>
		</clipPath>
		<g style="clip-path:url(#SVGID_00000016782343718668753850000015624202287320811412_);">
			<g>
				<path class="st3" d="M272.7,200H272v-23.4c0-2.7-2.2-5-5-5h-87.5c-3.1,0-5.6-2.5-5.6-5.6v-48c0-3.1,2.5-5.6,5.6-5.6h106.2
					c2.7,0,5-2.2,5-5V64.2c0-2.7-2.2-5-5-5h-8.1c-3.1,0-5.6-2.5-5.6-5.6v-7.2c0-2.7-2.2-5-5-5h-91.9c-2.7,0-5,2.2-5,5
					c0,3.1-2.5,5.6-5.6,5.6H69c-2.7,0-5,2.2-5,5v50.6c0,3.1-2.5,5.6-5.6,5.6h-6.7c-2.7,0-5,2.2-5,5V169c0,2.7,2.2,5,5,5h62v0.7h-62
					c-3.1,0-5.6-2.5-5.6-5.6v-50.8c0-3.1,2.5-5.6,5.6-5.6h6.7c2.7,0,5-2.2,5-5V57c0-3.1,2.5-5.6,5.6-5.6h95.6c2.7,0,5-2.2,5-5
					c0-3.1,2.5-5.6,5.6-5.6H267c3.1,0,5.6,2.5,5.6,5.6v7.2c0,2.7,2.2,5,5,5h8.1c3.1,0,5.6,2.5,5.6,5.6v43.3c0,3.1-2.5,5.6-5.6,5.6
					H179.5c-2.7,0-5,2.2-5,5v48c0,2.7,2.2,5,5,5H267c3.1,0,5.6,2.5,5.6,5.6L272.7,200L272.7,200z"/>
				<path class="st3" d="M52.5,122.3c-1.8,0-3.3-1.5-3.3-3.3s1.5-3.3,3.3-3.3s3.3,1.5,3.3,3.3S54.3,122.3,52.5,122.3z M52.5,116.4
					c-1.4,0-2.6,1.2-2.6,2.6c0,1.4,1.2,2.6,2.6,2.6s2.6-1.2,2.6-2.6C55.1,117.6,53.9,116.4,52.5,116.4z"/>
				<path class="st3" d="M52.5,171.5c-1.8,0-3.3-1.5-3.3-3.3c0-1.8,1.5-3.3,3.3-3.3s3.3,1.5,3.3,3.3C55.8,170,54.3,171.5,52.5,171.5
					z M52.5,165.6c-1.4,0-2.6,1.2-2.6,2.6c0,1.4,1.2,2.6,2.6,2.6s2.6-1.2,2.6-2.6C55.1,166.8,53.9,165.6,52.5,165.6z"/>
				<path class="st3" d="M180.5,168.4c-1.8,0-3.3-1.5-3.3-3.3c0-1.8,1.5-3.3,3.3-3.3s3.3,1.5,3.3,3.3
					C183.8,166.9,182.3,168.4,180.5,168.4z M180.5,162.5c-1.4,0-2.6,1.2-2.6,2.6s1.2,2.6,2.6,2.6s2.6-1.2,2.6-2.6
					S181.9,162.5,180.5,162.5z"/>
				<path class="st3" d="M180.5,122c-1.8,0-3.3-1.5-3.3-3.3s1.5-3.3,3.3-3.3s3.3,1.5,3.3,3.3S182.3,122,180.5,122z M180.5,116.1
					c-1.4,0-2.6,1.2-2.6,2.6c0,1.4,1.2,2.6,2.6,2.6s2.6-1.2,2.6-2.6C183.1,117.3,181.9,116.1,180.5,116.1z"/>
				<path class="st3" d="M284.8,109.8c-1.8,0-3.3-1.5-3.3-3.3s1.5-3.3,3.3-3.3c1.8,0,3.3,1.5,3.3,3.3S286.6,109.8,284.8,109.8z
					 M284.8,103.9c-1.4,0-2.6,1.2-2.6,2.6c0,1.4,1.2,2.6,2.6,2.6c1.4,0,2.6-1.2,2.6-2.6C287.4,105.1,286.2,103.9,284.8,103.9z"/>
				<path class="st3" d="M284.8,68.4c-1.8,0-3.3-1.5-3.3-3.3c0-1.8,1.5-3.3,3.3-3.3c1.8,0,3.3,1.5,3.3,3.3
					C288.1,66.9,286.6,68.4,284.8,68.4z M284.8,62.5c-1.4,0-2.6,1.2-2.6,2.6c0,1.4,1.2,2.6,2.6,2.6c1.4,0,2.6-1.2,2.6-2.6
					S286.2,62.5,284.8,62.5z"/>
				<path class="st3" d="M278.6,56c-1.8,0-3.3-1.5-3.3-3.3c0-1.8,1.5-3.3,3.3-3.3s3.3,1.5,3.3,3.3C281.9,54.5,280.4,56,278.6,56z
					 M278.6,50c-1.4,0-2.6,1.2-2.6,2.6c0,1.4,1.2,2.6,2.6,2.6c1.4,0,2.6-1.2,2.6-2.6C281.2,51.2,280,50,278.6,50z"/>
				<path class="st3" d="M266.1,50.7c-1.8,0-3.3-1.5-3.3-3.3s1.5-3.3,3.3-3.3c1.8,0,3.3,1.5,3.3,3.3S267.9,50.7,266.1,50.7z
					 M266.1,44.8c-1.4,0-2.6,1.2-2.6,2.6s1.2,2.6,2.6,2.6c1.4,0,2.6-1.2,2.6-2.6C268.7,45.9,267.6,44.8,266.1,44.8z"/>
				<path class="st3" d="M176.1,50.7c-1.8,0-3.3-1.5-3.3-3.3s1.5-3.3,3.3-3.3c1.8,0,3.3,1.5,3.3,3.3S177.9,50.7,176.1,50.7z
					 M176.1,44.8c-1.4,0-2.6,1.2-2.6,2.6s1.2,2.6,2.6,2.6s2.6-1.2,2.6-2.6C178.7,45.9,177.5,44.8,176.1,44.8z"/>
				<path class="st3" d="M163.6,48.8c-1.8,0-3.3-1.5-3.3-3.3c0-1.8,1.5-3.3,3.3-3.3c1.8,0,3.3,1.5,3.3,3.3
					C166.9,47.3,165.5,48.8,163.6,48.8z M163.6,42.9c-1.4,0-2.6,1.2-2.6,2.6c0,1.4,1.2,2.6,2.6,2.6s2.6-1.2,2.6-2.6
					C166.3,44.1,165.1,42.9,163.6,42.9z"/>
				<path class="st3" d="M69.9,61.3c-1.8,0-3.3-1.5-3.3-3.3s1.5-3.3,3.3-3.3c1.8,0,3.3,1.5,3.3,3.3S71.7,61.3,69.9,61.3z M69.9,55.3
					c-1.4,0-2.6,1.2-2.6,2.6s1.2,2.6,2.6,2.6c1.4,0,2.6-1.2,2.6-2.6S71.3,55.3,69.9,55.3z"/>
				<path class="st3" d="M266.1,180.9c-1.8,0-3.3-1.5-3.3-3.3s1.5-3.3,3.3-3.3c1.8,0,3.3,1.5,3.3,3.3S267.9,180.9,266.1,180.9z
					 M266.1,174.9c-1.4,0-2.6,1.2-2.6,2.6s1.2,2.6,2.6,2.6c1.4,0,2.6-1.2,2.6-2.6S267.6,174.9,266.1,174.9z"/>
				<path class="st3" d="M57.4,110.2c-1.8,0-3.3-1.5-3.3-3.3s1.5-3.3,3.3-3.3c1.8,0,3.3,1.5,3.3,3.3S59.3,110.2,57.4,110.2z
					 M57.4,104.2c-1.4,0-2.6,1.2-2.6,2.6c0,1.4,1.2,2.6,2.6,2.6c1.4,0,2.6-1.2,2.6-2.6C60.1,105.4,58.9,104.2,57.4,104.2z"/>
			</g>
		</g>
	</g>
	<g>
		<path d="M49,223.8c-0.1,0-0.3-0.1-0.4-0.1c-0.2-0.2-0.2-0.5,0-0.7c0.1-0.1,9.7-9.5,26.7-9.5c8.9,0,15.6,2.6,19.8,4.7
			c4.5,2.3,6.8,4.7,6.9,4.8c0.2,0.2,0.2,0.5,0,0.7c-0.2,0.2-0.5,0.2-0.7,0c-0.1-0.1-9.4-9.2-26-9.2s-25.9,9.1-26,9.2
			C49.3,223.8,49.2,223.8,49,223.8L49,223.8z"/>
		<path d="M83.4,214.2v-14.3H67.9v14.3c0,0,3.4-0.3,7.5-0.3C79.4,213.9,83.4,214.2,83.4,214.2z"/>
	</g>
	<g>
		<path class="st6" d="M143.6,223.5c0,0,9.4-9.3,26.3-9.3s26.3,9.3,26.3,9.3"/>
		<path d="M178,214.3V200h-15.6v14.3c0,0,3.4-0.3,7.5-0.3C173.9,214,178,214.3,178,214.3z"/>
	</g>
	<g>
		<path d="M245.4,224c-0.1,0-0.3-0.1-0.4-0.1c-0.2-0.2-0.2-0.5,0-0.7c0.1-0.1,9.7-9.5,26.7-9.5c8.9,0,15.6,2.6,19.8,4.7
			c4.5,2.3,6.8,4.7,6.9,4.8c0.2,0.2,0.2,0.5,0,0.7c-0.2,0.2-0.5,0.2-0.7,0c-0.1-0.1-9.4-9.2-26-9.2s-25.9,9.1-26,9.2
			C245.7,223.9,245.5,224,245.4,224z"/>
		<path d="M279.8,214.3V200h-15.6v14.3c0,0,3.4-0.3,7.5-0.3C275.8,214,279.8,214.3,279.8,214.3z"/>
	</g>
	<g>
		<path class="st4" d="M148.1,260.6c-1.4,0-9.1-0.7-23.5-14.7c-13.6-13.3-20.5-27.1-23.9-36.4c-3.8-10.4-4.6-18.9-3.9-21.6
			c0.4-1.7,2.2-3.4,4.2-5.4c3.8-3.7,8.5-8.3,8-15.3c-4.3-1.8-6.6-6.1-6.9-8.8c-0.1,0-0.3,0-0.5,0c-0.9,0-1.6-0.5-2-1.3l0-0.1l0-0.1
			c0,0,1.1-3.3,0.7-5.7c-0.2,0.1-0.5,0.1-0.8,0.1c-0.9,0-1.5-0.5-1.8-1.4l-0.1-0.2l0.2-0.1c0,0,1.7-1.2,2-3.5c0-0.1,0-0.3,0-0.5
			c0.6-8.1,3-12.2,7.2-12.2c0,0,0.1,0,0.1,0c1.6-2.3,3.5-3.4,5.9-3.4c1.8,0,3.5,0.6,5,1.1c1.2,0.4,2.2,0.7,2.9,0.7
			c1.4,0,2.6-0.1,3.6-0.2c0.9-0.1,1.6-0.1,2.3-0.1c1,0,2,0.9,3.2,1.9c2,1.8,4.7,4.3,9.6,4.3h0.3l0.1,0.2c0,0,0.3,1.2-0.3,1.9
			c-0.2,0.3-0.6,0.5-1,0.6c0.3,0.3,0.8,0.6,1.6,0.6h0.4l0,0.4c-0.1,1.1-0.9,3.1-2.8,3.1c-1.2,0-2.2,0-3,0.2c0.5,2,1.1,4.3,1.1,5.1
			c0,0.3,0,0.5-0.1,0.7l3.2,0.6l0,0.7c0,0.4-0.2,3.6-1.7,5.7c0.5,0.6,0.8,1,0.9,1.3c0.2,0.5,0.1,1-0.2,1.4c-0.3,0.4-0.7,0.6-1.2,0.6
			l-0.2,0.4c0.3,0.6,1,1.7,1.9,2.3l0.1,0.1v0.2c0,0.7-0.4,1.9-1.7,2.2c0.2,0.4,0.4,1,0.4,1.6c0,0.7-0.5,1.4-0.9,1.8
			c-0.1,0.1-0.3,0.3-0.3,0.4c0,0,0,0,0,0.1c0.2,1.7-0.2,3.1-1.1,4c-0.9,1-2.4,1.5-4.3,1.5c-2.1,0-3.6-0.8-4.7-2.4
			c-0.4,2.4-0.6,6.7-0.2,9.9c5.9,1.8,10.2,3.8,13.1,6.1c2.1,1.6,3.4,3.4,5.2,6.1c2,3.1,4.3,6.7,7.2,9.1l0.4,0.3l-0.1,0.5
			c0,0-0.1,0.3-0.3,0.8c2.5,2.6,8.6,8.5,14,10.8c1.5,0.6,3,1.2,4.5,1.8l16.8-10.7l7.7-25.9c0.1-0.3,0.4-0.6,0.8-0.6c0,0,0.1,0,0.1,0
			l32.4,2.5c0.2,0,0.5,0.1,0.6,0.3c0.1,0.2,0.2,0.4,0.1,0.7l-9,30.9l0,0c0,0,0,0.1-0.1,0.1c0,0,0,0.1-0.1,0.1c0,0-0.1,0.1-0.1,0.1
			c0,0,0,0,0,0l0,0l-25.3,16.8c-0.1,0.1-0.3,0.1-0.4,0.1c-0.1,0-0.2,0-0.3,0l-7.8-2.7c-4.2,1.3-9.6,2.1-14.7,2.1
			c-3.4,0-6.5-0.3-9.2-1c-0.1,0-0.2-0.1-0.3-0.1c1.6,5.8,0,12.6-4.8,19.7c-3.7,5.5-8.1,9.4-8.1,9.4l-0.1,0.1l-0.1,0
			C148.3,260.6,148.2,260.6,148.1,260.6L148.1,260.6z"/>
		<path class="st4" d="M113.3,130.3c3.1,0,6.1,1.8,7.9,1.8c2.5,0,4.4-0.3,5.9-0.3c2.5,0,5,6.2,12.8,6.2c0,0,0.6,2.2-1.6,2.2
			c0,0,0.6,1.2,2.2,1.2c0,0-0.3,2.8-2.5,2.8c-1.4,0-2.5,0-3.4,0.2c0.5,1.6,1.2,4.5,1.2,5.4c0,0.3,0,0.6-0.1,1l3.2,0.6l0,0.4
			c0,0.2-0.2,3.7-1.8,5.7c0.4,0.4,0.9,1,1,1.4c0.3,0.9-0.3,1.6-1.2,1.6l-0.3,0.7c0.3,0.5,1.1,1.8,2,2.5c0,0,0,1.9-1.9,1.9
			c0,0,0.6,0.9,0.6,1.9s-1.2,1.9-1.2,2.2c0,0.3,0.9,5.3-5,5.3c-2.6,0-4.1-1.4-4.9-3c-0.5,2.2-0.8,7.5-0.3,11.1
			c4.8,1.5,9.8,3.5,13.2,6.1c2,1.5,3.3,3.2,5.1,6.1c2,3.1,4.3,6.7,7.2,9.1l0.2,0.2l-0.1,0.3c0,0-0.1,0.4-0.3,1
			c2.7,2.8,8.7,8.6,14.2,11.1c1.6,0.7,3.2,1.3,4.7,1.8l17-10.9l7.7-26c0.1-0.2,0.2-0.3,0.4-0.3c0,0,0,0,0,0l32.4,2.5
			c0.1,0,0.3,0.1,0.3,0.2c0.1,0.1,0.1,0.3,0.1,0.4l-9,30.8c0,0,0,0,0,0c0,0,0,0.1,0,0.1c0,0,0,0,0,0c0,0,0,0-0.1,0.1c0,0,0,0,0,0
			c0,0,0,0,0,0l-25.2,16.8c-0.1,0.1-0.2,0.1-0.3,0.1c-0.1,0-0.1,0-0.2,0l-7.9-2.7c-4.2,1.3-9.5,2.1-14.7,2.1c-3.2,0-6.4-0.3-9.1-0.9
			c-0.3-0.1-0.6-0.1-0.9-0.2c4.6,14.2-12.7,29.4-12.7,29.4s0,0-0.1,0c-1.1,0-8.8-0.5-23.2-14.6c-25.3-24.8-28.9-52.7-27.7-57.7
			c1.1-4.6,13.1-9.8,12.3-21c-4.3-1.7-6.9-6.2-6.9-8.9c0,0-0.4,0.1-0.8,0.1c-0.6,0-1.3-0.2-1.7-1.1c0,0,1.2-3.7,0.6-6.2
			c0,0-0.5,0.2-1,0.2s-1.2-0.2-1.5-1.2c0,0,1.9-1.2,2.2-3.7c0.2-1.2,0.3-12.5,6.9-12.5c0.1,0,0.2,0,0.3,0
			C109.3,131,111.3,130.3,113.3,130.3 M113.3,129.6c-2.5,0-4.5,1.1-6.1,3.4c-3.5,0-5.3,3-6.2,5.4c-1,2.7-1.2,5.8-1.3,7.1
			c0,0.2,0,0.4,0,0.5c-0.3,2.2-1.9,3.3-1.9,3.3l-0.4,0.3l0.2,0.5c0.4,1,1.1,1.6,2.1,1.6c0.2,0,0.3,0,0.5,0c0.2,2.2-0.7,5.1-0.7,5.2
			l-0.1,0.2l0.1,0.2c0.4,1,1.2,1.5,2.3,1.5c0.1,0,0.2,0,0.2,0c0.2,1.4,0.9,3,1.9,4.4c1.3,1.8,3,3.3,5,4.2c0.3,6.7-4.3,11.2-8,14.8
			c-2.1,2-3.9,3.8-4.3,5.6c-0.6,2.6-0.1,10.7,3.9,21.8c3.4,9.3,10.3,23.1,23.9,36.5c14.4,14.1,22.3,14.8,23.7,14.8
			c0.1,0,0.2,0,0.2,0l0.2,0l0.2-0.1c0.2-0.2,4.4-3.9,8.2-9.5c4.7-7,6.4-13.7,5-19.5c2.7,0.6,5.8,0.9,9.1,0.9
			c5.1,0,10.4-0.8,14.7-2.1l7.7,2.6c0.1,0,0.2,0.1,0.4,0.1c0.2,0,0.4-0.1,0.6-0.2l25.2-16.8l0.1,0l0,0c0,0,0,0,0,0
			c0,0,0.1-0.1,0.1-0.1c0,0,0.1-0.1,0.1-0.1c0,0,0-0.1,0.1-0.1c0,0,0-0.1,0-0.1l9-30.8c0.1-0.3,0-0.7-0.2-1
			c-0.2-0.3-0.5-0.5-0.8-0.5l-32.4-2.5c0,0-0.1,0-0.1,0c-0.5,0-0.9,0.3-1.1,0.8l-7.7,25.8l-16.5,10.6c-1.5-0.5-2.9-1.1-4.3-1.7
			c-5.3-2.3-11.2-8-13.7-10.6c0.1-0.4,0.2-0.6,0.2-0.7l0.1-0.3l0.1-0.4l-0.3-0.3l-0.2-0.2c-2.8-2.4-5.1-5.9-7.1-9
			c-1.8-2.8-3.2-4.6-5.3-6.2c-2.9-2.3-7.2-4.3-13-6.1c-0.3-2.8-0.2-6.4,0.1-8.8c1.1,1.3,2.6,1.9,4.5,1.9c2,0,3.5-0.5,4.5-1.6
			c0.9-1,1.3-2.4,1.1-4.2c0.1-0.1,0.1-0.2,0.2-0.3c0.4-0.5,1-1.2,1-2.1c0-0.5-0.1-1-0.3-1.4c1.1-0.4,1.5-1.6,1.5-2.4v-0.3l-0.3-0.2
			c-0.7-0.5-1.3-1.5-1.7-2l0-0.1c0.5-0.1,1-0.3,1.2-0.7c0.3-0.5,0.4-1.1,0.2-1.7c0-0.1-0.2-0.5-0.8-1.2c1.4-2.2,1.6-5.3,1.6-5.7
			l0-0.4l0-0.6l-0.6-0.1l-2.6-0.5c0-0.2,0-0.3,0-0.5c0-0.7-0.4-2.3-1.1-4.8c0.7-0.1,1.6-0.1,2.6-0.1c2.2,0,3-2.2,3.2-3.4l0.1-0.7
			h-0.7c-0.4,0-0.6-0.1-0.9-0.2c0.3-0.2,0.5-0.3,0.6-0.5c0.7-0.9,0.4-2.1,0.3-2.2l-0.1-0.5H140c-4.7,0-7.4-2.4-9.4-4.2
			c-1.3-1.1-2.2-2-3.4-2c-0.7,0-1.5,0.1-2.3,0.1c-1,0.1-2.2,0.2-3.6,0.2c-0.7,0-1.7-0.3-2.8-0.7
			C116.9,130.2,115.2,129.6,113.3,129.6L113.3,129.6L113.3,129.6z"/>
	</g>
	<path class="st1" d="M97.2,187.9c4.8-10.2,14.9-10.8,11.8-24.2c0,0-12.9-21.6,1.1-26.9c18.7-7.1,24.3,6.5,24.3,6.5s1.6,5.3,1.6,6.5
		s-0.6,2.5-0.6,5.9l1.6,1.5c0,0,1.1,1.1,1.3,1.7c0.3,0.9-0.3,1.6-1.2,1.6l-1.7,3.9c-0.6,1.9-7.8,5.3-8.4,5.9
		c-0.5,0.5-1.7,6.9-0.8,12.1c0,0,2,7.1,1.7,11.9C127.4,199.1,97.2,187.9,97.2,187.9L97.2,187.9z"/>
	<g>
		<path class="st7" d="M137,160.9c-0.2,0-0.3-0.2-0.3-0.3c0-0.2,0.2-0.3,0.3-0.3c0.4,0,0.7-0.1,0.9-0.4c0.1-0.2,0.2-0.5,0.1-0.8
			c-0.1-0.4-0.8-1.2-1.3-1.6c-0.1-0.1-0.1-0.3,0-0.5c0.1-0.1,0.3-0.1,0.5,0c0.1,0.1,1.2,1.2,1.4,1.9c0.2,0.5,0.1,1-0.2,1.4
			C138.1,160.7,137.6,160.9,137,160.9L137,160.9z"/>
		<path class="st7" d="M135.3,156.1c-0.2,0-0.3-0.2-0.3-0.3c0-2.2,0.3-3.5,0.4-4.5c0.1-0.6,0.2-1,0.2-1.5c0-1-1.1-5-1.5-6.4
			c-0.1-0.2,0.1-0.4,0.2-0.4c0.2-0.1,0.4,0.1,0.4,0.2c0.1,0.2,1.6,5.4,1.6,6.6c0,0.5-0.1,1-0.2,1.6c-0.2,0.9-0.4,2.2-0.4,4.3
			C135.6,155.9,135.5,156.1,135.3,156.1L135.3,156.1z"/>
	</g>
	<path class="st4" d="M103.6,179.4c-2.4,3.2-5.9,6.2-6.4,8.5c-1.2,5,2.4,32.9,27.7,57.7c15.6,15.3,23.4,14.6,23.4,14.6
		s19.6-17.1,11.5-32.1l-9.2-15.4l-1.9-2.2c0,0,2.5-3.7,2.6-5.8c-5.6-4.7-8.5-13.4-12.8-16.2c-3.3-2.2-11.6-5.6-12.9-5.9
		C106.7,178,103.6,179.4,103.6,179.4z"/>
	<path class="st8" d="M144,216.1c-10.9-11.5-14.9-19.7-20-21.7c-8.1-3.2-20.4-4.8-27.7-3.2c0,0,1,20.5,15.7,40.2
		c14.7,19.7,31.7,27.2,31.7,27.2s20.4-5.8,18-24.8l-23.1-14.9C138.6,218.8,141.7,218.5,144,216.1L144,216.1z"/>
	<path class="st3" d="M188.2,303.1c-12.5,2.5-14.9,7.8,0.9,6.5c15.9-1.2,32.1-10,30.5-11.2L188.2,303.1z"/>
	<g>
		<path d="M159.8,219.8l0.1-0.3c0.3-1.5,2-9.3,3.9-10.5c1.1-0.7,6.5-1.7,12.2-1.7c4.4,0,8.1,0.6,11.1,1.6l0.3,0.1l-3.6,18.7
			L159.8,219.8L159.8,219.8z"/>
		<path class="st4" d="M176,207.7c3.7,0,7.7,0.4,11,1.6l-3.4,18.1l-23.4-7.8c0.6-3.1,2.2-9.3,3.7-10.3
			C164.9,208.8,170.1,207.7,176,207.7 M176,207L176,207c-5.8,0-11.2,1-12.4,1.7c-2,1.2-3.6,8.5-4,10.7l-0.1,0.6l0.6,0.2l23.4,7.8
			l0.7,0.2l0.1-0.8l3.4-18.1l0.1-0.6l-0.5-0.2C184.1,207.6,180.4,207,176,207L176,207L176,207z"/>
	</g>
	<ellipse class="st0" cx="171.1" cy="308.9" rx="74.7" ry="12"/>
	<g>
		<path d="M176.7,308.3c-0.2,0-0.4,0-0.6-0.1l-21.5-8.4l-20,8.4c-0.2,0.1-0.4,0.1-0.6,0.1h-0.7c-0.7,0-1.3-0.5-1.5-1.2
			c-0.2-0.7,0.2-1.4,0.8-1.7l22-10.6l22.7,10.6c0.7,0.3,1,1,0.8,1.7C178,307.9,177.4,308.4,176.7,308.3L176.7,308.3z"/>
		<path class="st4" d="M154.7,295.2l22.5,10.5c1.1,0.5,0.8,2.3-0.5,2.3c-0.1,0-0.3,0-0.4-0.1l-21.6-8.5l-20.2,8.5
			c-0.1,0.1-0.3,0.1-0.5,0.1h-0.7c-1.3,0-1.6-1.7-0.5-2.2L154.7,295.2 M154.6,294.5l-0.3,0.1l-21.8,10.5c-0.8,0.4-1.2,1.2-1,2.1
			c0.2,0.9,0.9,1.4,1.8,1.4h0.7c0.2,0,0.5-0.1,0.7-0.1l19.9-8.4l21.3,8.4c0.2,0.1,0.4,0.1,0.7,0.1c0.9,0,1.6-0.6,1.8-1.4
			c0.2-0.9-0.2-1.7-1-2.1l-22.5-10.5L154.6,294.5L154.6,294.5L154.6,294.5z"/>
	</g>
	<rect x="153.4" y="264.3" width="3" height="34"/>
	<path d="M159.4,230c6.2,2.5,0.6,37.7-23.4,27.7c0,0,3,6.4,27.5,6.4s53.5-27.3,57.8-32.5c4.4-5.3,1.6-13.1-5.3-15.3
		C209.3,214.2,159.4,230,159.4,230L159.4,230z"/>
	<path class="st3" d="M245.6,214.2c0,0-1-3.7-4.7-3.7c-2.3,0-6.6,1.7-10.5,3.3c-2.1,0.8-4.1,1.6-5.5,2c-3.6,1-6.3,0.8-7.3,0.6
		c-0.1,0-0.3,0-0.4,0.1l0,0c-1.9,2.4-3.8,3.5-6.1,4.7c-0.6,0.3-1.3,0.7-1.9,1.1c-1.1,0.7-1.8,1.6-2,2.7c-0.3,1.8,0.7,4.2,2.8,6.6
		c0.2,0.3,0.6,0.5,1.4,0.5c2,0,6.5-1.5,17.6-7.8c8.3-4.7,16.3-9.8,16.4-9.9l0.2-0.1L245.6,214.2L245.6,214.2z"/>
	<path class="st4" d="M210.8,232.6c-0.1,0-0.2,0-0.3-0.1c-2.9-3.4-4.2-5.9-3.9-7.7c0.1-0.9,0.6-1.6,1.5-2.1c0.8-0.5,1.7-1,2.6-1.4
		c2.5-1.3,5-2.6,6.8-4.9c0.1-0.1,0.3-0.2,0.5-0.1c0.1,0.1,0.2,0.3,0.1,0.5c-1.9,2.4-4.5,3.7-7,5.1c-0.9,0.5-1.8,0.9-2.6,1.4
		c-0.7,0.4-1.1,1-1.2,1.6c-0.3,1.6,1,4,3.8,7.2c0.1,0.1,0.1,0.4,0,0.5C211,232.5,210.9,232.6,210.8,232.6L210.8,232.6z"/>
	<path d="M209,283.9c0-16.5,9.3-42,14.5-57L199,238.4c0,0-8.7,17.8-8.7,43.9c0,0,3.4,3.7,10.6,3.7C208,286.1,209,283.9,209,283.9
		L209,283.9z"/>
	<path class="st4" d="M209.8,245c-1.2,0.2-2.3,0-2.8-0.2c1-1.2,2-2.4,3-3.7c0.1-0.1,0.1-0.4-0.1-0.5c-0.1-0.1-0.4-0.1-0.5,0.1
		c-6.4,8.7-14.2,14.4-25.4,18.6c-0.2,0.1-0.3,0.3-0.2,0.4c0.1,0.1,0.2,0.2,0.3,0.2c0,0,0.1,0,0.1,0c9.4-3.5,16.4-8.1,22.2-14.6
		c0.3,0.1,1.1,0.4,2.2,0.4c0.4,0,0.8,0,1.2-0.1c0.2,0,0.3-0.2,0.3-0.4C210.2,245.1,210,245,209.8,245L209.8,245z"/>
	<polygon class="st9" points="187.8,209.5 165.4,223.8 193.7,233.5 219.7,216.2 228.7,185.3 227.8,184.7 219.1,215.6 193.9,232.1 	
		"/>
	<g>
		<polygon points="193.7,232.2 218.9,215.4 187.8,208.2 165.4,222.6 		"/>
		<path class="st2" d="M193.7,232.6c0,0-0.1,0-0.1,0l-28.3-9.7c-0.1,0-0.2-0.2-0.2-0.3c0-0.1,0-0.3,0.2-0.3l22.4-14.3
			c0.1,0,0.2-0.1,0.3,0l31.1,7.2c0.1,0,0.2,0.1,0.3,0.3c0,0.1,0,0.3-0.1,0.3l-25.2,16.8C193.8,232.5,193.8,232.6,193.7,232.6
			L193.7,232.6z M166.1,222.5l27.5,9.4l24.4-16.3l-30.3-7L166.1,222.5L166.1,222.5z"/>
	</g>
	<path class="st1" d="M165.8,216.2c3.7,0,11.5-5.9,13.1-5.9c1.6,0,5.9,1.9,7.5,1.9l2.5,3.4l-6.8,2.6c0,0-6.4,5.5-12.6,7.1
		c-3.4,0.9-7.4-0.5-8.7-1.9c-3.7-4-0.9-7.4-0.9-7.4L165.8,216.2L165.8,216.2z"/>
	<g>
		<polygon points="228,184.6 218.9,215.4 187.8,208.2 195.6,182.1 		"/>
		<path class="st2" d="M218.9,215.7C218.9,215.7,218.9,215.7,218.9,215.7l-31.2-7.2c-0.1,0-0.2-0.1-0.2-0.2s-0.1-0.2,0-0.3l7.8-26.2
			c0-0.2,0.2-0.2,0.3-0.2l32.4,2.5c0.1,0,0.2,0.1,0.3,0.1c0.1,0.1,0.1,0.2,0,0.3l-9,30.8C219.2,215.6,219.1,215.7,218.9,215.7
			L218.9,215.7z M188.2,208l30.5,7l8.8-30.1l-31.7-2.4L188.2,208L188.2,208z"/>
	</g>
	<polygon class="st4" points="190.7,206.4 197.2,184.6 224.9,186.7 217.3,212.6 	"/>
	<path class="st3" d="M216,206.5C216,206.5,216,206.5,216,206.5l-21.7-4l4.2-13.9c0.1-0.2,0.2-0.3,0.4-0.2c0.2,0.1,0.3,0.2,0.2,0.4
		l-4,13.2l20.9,3.9c0.2,0,0.3,0.2,0.3,0.4C216.3,206.4,216.2,206.5,216,206.5L216,206.5z"/>
	<path class="st1" d="M185.4,222c1.2-1.3,0.2-4.1,0.9-4.7c0.6-0.6,3.4-4,4.4-4c0.9,0,1.6,0.9,1.9,0.9s2.5-0.9,2.8-0.9
		c0.3,0,2.5,1.6,2.5,1.6s2.1,3.2,2.1,3.8c0,0.6-0.9,3.7-2.4,4.9c-1.6,1.2-4.4,2.2-5.9,3.1C190,227.5,183.4,224.1,185.4,222
		L185.4,222z"/>
	<path class="st8" d="M148.1,260.6c-1.3,0-9.1-0.7-23.4-14.7c-25.9-25.4-29.7-51.4-28.4-56.1c1.1-4.2,3.9-7.1,6.5-9.9
		c4-4.2,7.8-8.2,5.9-16.1l0.7-0.2c1.9,8.2-2.2,12.5-6.1,16.7c-2.6,2.8-5.3,5.6-6.4,9.6c-0.6,2.3,0,9.7,4.2,20.2
		c3.5,8.7,10.5,21.9,24.1,35.2c14.3,14,22,14.5,23,14.5c1.4-1.3,19-17.6,11.4-31.6l0.6-0.3c3.4,6.2,2.4,13.8-2.7,22
		c-3.9,6.1-8.8,10.5-8.9,10.5l-0.1,0.1l-0.1,0C148.2,260.6,148.2,260.6,148.1,260.6L148.1,260.6z"/>
	<path class="st10" d="M175.8,222.1c-0.2,0-0.3-0.1-0.3-0.3c0-0.2,0.1-0.3,0.3-0.4c1.8-0.2,3.5-1.5,4.7-2.5c0.6-0.5,1.1-0.8,1.4-1
		c2.6-0.9,3.1-1.3,3.2-1.4c-0.3-0.5-1.7-0.9-4.6-0.1c-0.7,0.2-1.6,0.4-1.9-0.2c-0.4-0.7,0.8-2,1.3-2.6c0.1-0.1,0.3-0.1,0.5,0
		c0.1,0.1,0.1,0.3,0,0.5c-0.7,0.7-1.3,1.5-1.2,1.8c0,0,0,0,0.2,0c0.2,0,0.5,0,0.9-0.2c4.1-1.1,5.1,0,5.4,0.5c0.1,0.2,0.1,0.3,0,0.5
		c-0.2,0.5-1.3,1.1-3.6,1.9c-0.2,0.1-0.7,0.5-1.2,0.8C179.7,220.5,177.8,221.9,175.8,222.1C175.8,222.1,175.8,222.1,175.8,222.1
		L175.8,222.1z"/>
	<path class="st1" d="M186.4,222.1l-21.5-1.5l-14-14.7c0,0-2.6,10.4-12.2,12.9l22.7,15c0,0,24.6-2.9,30.2-7.2"/>
	<g>
		<path class="st7" d="M186.4,222.4C186.4,222.4,186.4,222.4,186.4,222.4l-21.5-1.5c-0.1,0-0.2,0-0.2-0.1l-13.7-14
			c-0.1-0.1-0.1-0.3,0-0.5c0.1-0.1,0.3-0.1,0.5,0l13.6,13.9l21.4,1.5c0.2,0,0.3,0.2,0.3,0.4C186.7,222.3,186.5,222.4,186.4,222.4
			L186.4,222.4z"/>
		<path class="st7" d="M185.4,222.3c-0.1,0-0.2,0-0.2-0.1c-0.1-0.1-0.1-0.3,0-0.5c0.6-0.7,0.6-1.9,0.5-2.8c0-0.9,0-1.6,0.3-1.9
			c0.1-0.1,0.4-0.4,0.6-0.7c1.9-2.2,3.2-3.4,4-3.4s1.3,0.4,1.6,0.7c0.1,0.1,0.2,0.2,0.3,0.2c0.2,0,0.8-0.3,1.3-0.4
			c0.9-0.3,1.3-0.5,1.5-0.5c0.1,0,0.4,0,2.7,1.6c0.2,0.1,0.2,0.3,0.1,0.5c-0.1,0.2-0.3,0.2-0.5,0.1c-0.9-0.7-2-1.4-2.3-1.5
			c-0.2,0-0.8,0.3-1.3,0.4c-0.9,0.3-1.3,0.5-1.5,0.5c-0.2,0-0.4-0.2-0.7-0.4c-0.3-0.3-0.7-0.6-1.2-0.6c-0.6,0-2.7,2.4-3.5,3.2
			c-0.3,0.3-0.5,0.6-0.7,0.7c-0.2,0.2-0.1,0.9-0.1,1.4c0,1.1,0.1,2.4-0.7,3.3C185.5,222.3,185.4,222.3,185.4,222.3L185.4,222.3z
			 M195.2,213.6L195.2,213.6z"/>
	</g>
	<g>
		<path class="st10" d="M161.3,234.2c-0.1,0-0.1,0-0.2-0.1l-22.3-14.7c-0.2-0.1-0.2-0.3-0.1-0.5c0.1-0.2,0.3-0.2,0.5-0.1l22.2,14.6
			c1.9-0.2,24.7-3.1,29.9-7.2c0.1-0.1,0.4-0.1,0.5,0.1c0.1,0.1,0.1,0.4-0.1,0.5c-2.4,1.8-8.2,3.6-17.4,5.3
			C167.6,233.4,161.4,234.2,161.3,234.2C161.3,234.2,161.3,234.2,161.3,234.2L161.3,234.2z"/>
		<path class="st10" d="M191.5,226.9c-0.1,0-0.2-0.1-0.3-0.2c-0.1-0.2,0-0.4,0.1-0.5c0.6-0.4,1.4-0.7,2.3-1.1c1.3-0.6,2.7-1.2,3.6-2
			c1.5-1.2,2.4-4.2,2.3-4.7c0-0.2,0.1-0.3,0.3-0.4c0.2,0,0.3,0.1,0.4,0.3c0.1,0.7-0.9,3.9-2.6,5.2c-1,0.8-2.4,1.4-3.7,2
			c-0.8,0.4-1.6,0.7-2.2,1.1C191.6,226.9,191.6,226.9,191.5,226.9L191.5,226.9z"/>
	</g>
	<path class="st7" d="M165.8,216.5c-0.2,0-0.3-0.2-0.3-0.3c0-0.2,0.2-0.3,0.3-0.3c2.2,0,6-2.2,8.8-3.9c2.3-1.3,3.6-2.1,4.3-2.1
		c0.8,0,2.3,0.5,3.8,0.9c1.4,0.5,2.9,0.9,3.6,0.9c0.2,0,0.3,0.2,0.3,0.3c0,0.2-0.2,0.3-0.3,0.3c-0.8,0-2.3-0.5-3.8-0.9
		c-1.4-0.5-2.9-0.9-3.6-0.9c-0.5,0-2.2,1-3.9,2C172,214.3,168.2,216.5,165.8,216.5L165.8,216.5z"/>
	<path class="st8" d="M137,219.8l-0.1-0.1c-3.4-1.9-5.8-3.9-7.8-5.6c-2.5-2.1-3.7-3.1-4.8-2.4c-0.2,0.1-0.4,0.1-0.5-0.1
		c-0.1-0.2-0.1-0.4,0.1-0.5c1.5-1.1,3.1,0.3,5.6,2.4c1.9,1.6,4.3,3.7,7.6,5.5c9.6-1.6,13.4-12.5,13.9-14.2c-3-2.5-5.3-6.1-7.3-9.2
		c-1.8-2.8-3.5-5.4-5.3-6.8c-3.1-2.5-19.2-8.3-27.1-8.8c-0.2,0-0.3-0.2-0.3-0.4c0-0.2,0.2-0.3,0.4-0.3c8.2,0.6,24.2,6.4,27.5,9
		c1.9,1.5,3.6,4.2,5.4,7c2.1,3.2,4.4,6.8,7.3,9.2l0.2,0.1l-0.1,0.2c0,0.1-3.8,13.2-14.6,14.9L137,219.8L137,219.8z"/>
	<path d="M107.6,133.6c4.4-6.5,10.6-1.6,13.7-1.6c2.5,0,4.4-0.3,5.9-0.3c2.5,0,5,6.2,12.8,6.2c0,0,0.6,2.2-1.6,2.2
		c0,0,0.6,1.2,2.2,1.2c0,0-0.3,2.8-2.5,2.8c-2.2,0-3.7,0-4.7,0.9c-0.9,0.9,0.9,2.8-2.8,5c-3.7,2.2-1.6,5.9,0.3,7.8
		c1.9,1.9,2.2,5,3.7,5c0,0,0.6-1.9,1.9-1.9c0,0,0.9,1.9,2.2,2.8c0,0,0,1.9-1.9,1.9c0,0,0.6,0.9,0.6,1.9c0,0.9-1.2,1.9-1.2,2.2
		c0,0.3,0.9,5.3-5,5.3c-5.9,0-5.9-7.2-5.9-8.4s1-5.9,1.2-9c0.5-5.7-2.8-7.8-5-6.5s-1.7,6.3,0.9,7.5c0,0-2.8,9-9.3,9
		s-10.6-6.2-10.6-9.7c0,0-1.9,0.6-2.5-0.9c0,0,1.2-3.7,0.6-6.2c0,0-1.9,0.9-2.5-0.9c0,0,1.9-1.2,2.2-3.7
		C100.6,144.9,100.7,133.3,107.6,133.6L107.6,133.6z"/>
	<g>
		<path class="st11" d="M105,210.3c18.9,0,40.5,23,57,28.9c18.4,6.5,30.5,1.6,40.8,8.7c0,0-12.8,16.2-47.3,16.2
			c-24.3,0-49.8-32.4-56.7-52.9C100.9,210.6,102.9,210.3,105,210.3 M105,209.3c-2.3,0-4.4,0.3-6.5,0.9l-1,0.3l0.3,1
			c3.7,11,12.1,24.3,22,34.6c5.5,5.8,11.3,10.3,17,13.6c6.4,3.7,12.7,5.5,18.6,5.5c8,0,15.4-0.9,22.2-2.6c5.4-1.4,10.4-3.3,14.9-5.7
			c7.6-4.1,10.9-8.2,11-8.4l0.7-0.8l-0.9-0.6c-5.6-3.9-11.8-4.3-18.9-4.8c-6.4-0.4-13.6-0.9-22.2-4c-6.4-2.3-13.5-7.2-21.1-12.3
			C129.3,217.8,116.8,209.3,105,209.3L105,209.3L105,209.3z"/>
		<path class="st3" d="M155.5,264.1c34.6,0,47.3-16.2,47.3-16.2c-10.3-7.2-22.4-2.2-40.8-8.7s-43-34.3-63.2-28
			C105.7,231.7,131.3,264.1,155.5,264.1L155.5,264.1z"/>
		<path class="st3" d="M155.5,264.1c34.6,0,47.3-16.2,47.3-16.2c-10.3-7.2-22.4-2.2-40.8-8.7s-43-34.3-63.2-28
			C105.7,231.7,131.3,264.1,155.5,264.1L155.5,264.1z"/>
	</g>
	<path class="st10" d="M178.6,214c-0.2,0-0.3-0.1-0.3-0.3c0-0.2,0.1-0.4,0.3-0.4c2.2-0.3,4.9,0,5.1,0c0.2,0,0.3,0.2,0.3,0.4
		c0,0.2-0.2,0.3-0.4,0.3C183.5,214,180.7,213.7,178.6,214C178.6,214,178.6,214,178.6,214L178.6,214z"/>
	<path class="st3" d="M206.5,199.5C206.4,199.5,206.4,199.5,206.5,199.5c-0.2,0-0.2-0.1-0.3-0.2l-1.6-2.7l-1.3,1.5
		c-0.1,0.1-0.2,0.1-0.3,0.1c-0.1,0-0.2-0.1-0.2-0.3l-0.5-2.5l-3.6,3.9c-0.1,0.1-0.3,0.1-0.5,0c-0.1-0.1-0.1-0.3,0-0.5l4-4.4
		c0.1-0.1,0.2-0.1,0.3-0.1c0.1,0,0.2,0.1,0.2,0.3l0.5,2.4l1.1-1.3c0.1-0.1,0.2-0.1,0.3-0.1c0.1,0,0.2,0.1,0.3,0.2l1.7,2.8l4.1-2.9
		c0.1-0.1,0.3-0.1,0.5,0.1l1,1.3l5.3-4.7c0.1-0.1,0.3-0.1,0.5,0c0.1,0.1,0.1,0.3,0,0.5l-5.6,5c-0.1,0.1-0.2,0.1-0.3,0.1
		c-0.1,0-0.2-0.1-0.2-0.1l-1-1.3l-4.1,2.9C206.6,199.5,206.5,199.5,206.5,199.5L206.5,199.5z"/>
	<path class="st4" d="M210,230.8c0,4,7.2,6.5,19.6-0.6c12.5-7.2,16.6-14.1,14.3-17.8c-3.2-5.3-13.4,7.1-18.7,10
		C220.6,224.9,210,224.9,210,230.8L210,230.8z"/>
	<g>
		<path class="st4" d="M211.3,232.1c0,4,7.2,4.7,19.6-0.6c13.2-5.6,16.6-14.1,14.3-17.8c-3.4-5.6-14,7.5-18.7,10
			C221.9,226.1,211.3,226.1,211.3,232.1L211.3,232.1z"/>
		<path class="st3" d="M216.4,235.6c-1.7,0-3.1-0.3-4.1-0.9c-0.9-0.6-1.4-1.5-1.4-2.6c0-4.3,5.2-5.7,9.8-6.8
			c2.2-0.6,4.2-1.1,5.6-1.9c1.4-0.7,3.4-2.5,5.4-4.3c4-3.5,8.5-7.5,11.5-7c0.9,0.1,1.6,0.6,2.1,1.5c0.8,1.3,0.9,3.2,0.3,5.2
			c-0.8,2.3-3.7,8.3-14.8,13C225.1,234.3,220,235.6,216.4,235.6L216.4,235.6z M242.9,212.6c-2.8,0-7.1,3.8-10.6,6.9
			c-2.1,1.9-4.1,3.6-5.6,4.4c-1.5,0.8-3.6,1.3-5.8,1.9c-4.6,1.2-9.3,2.4-9.3,6.2c0,0.9,0.4,1.6,1.1,2c3.2,2.1,11.4-0.1,18.1-3
			c10.8-4.6,13.7-10.3,14.4-12.6c0.6-1.8,0.5-3.5-0.2-4.7c-0.4-0.7-1-1.1-1.7-1.2C243.1,212.6,243,212.6,242.9,212.6L242.9,212.6z"
			/>
	</g>
	<g>
		<path class="st4" d="M219.4,301.2c-2,1.8-19.2,6.6-24.9,7c-5.1,0.3-6.6-1.4-6.8-1.7c-0.1-0.5-0.1-1.3-0.2-2.4
			c0.7,0.6,2.3,1.6,5.9,1.6c0.4,0,0.7,0,1.1,0c5.6-0.3,21.3-4.9,24.9-7.1C219.3,300.2,219.3,300.9,219.4,301.2z"/>
		<path class="st3" d="M219.7,297.8L219.7,297.8C219.7,297.8,219.7,297.8,219.7,297.8C219.7,297.8,219.7,297.8,219.7,297.8z"/>
	</g>
	<g>
		<path class="st3" d="M219.7,297.8C219.7,297.8,219.7,297.8,219.7,297.8L219.7,297.8C219.7,297.8,219.7,297.8,219.7,297.8z"/>
		<path class="st3" d="M219.7,297.8L219.7,297.8C219.7,297.8,219.7,297.8,219.7,297.8C219.7,297.8,219.7,297.8,219.7,297.8z"/>
		<path class="st3" d="M219.9,297.2c0,0,0,0-0.1-0.1l0,0c-1.3-2.5-3.3-3.2-5.6-4.1c-0.5-0.2-1-0.4-1.5-0.6c-3.2-1.3-5.1-3.6-5.2-3.6
			c-0.1-0.1-0.2-0.1-0.3-0.1c-0.1,0-0.2,0.1-0.3,0.2c0,0.1-1.6,5.1-6.6,6c-3.3,0.6-3.7-0.3-4.1-1.3c-0.2-0.5-0.4-1.1-1-1.4
			c-1.6-1-6.8-1.3-7-1.3c-0.1,0-0.3,0.1-0.3,0.2c-1.1,2.2-1.3,6.2-1.2,9.1c-0.1,2.8,0.1,5.5,0.2,6.5c0,0,0,0.1,0,0.1
			c0.1,0.1,1.2,2.1,6.3,2.1c0.4,0,0.7,0,1.1,0c5.7-0.3,23.7-5.2,25.5-7.3c0.1-0.1,0.1-0.2,0.1-0.3c0-0.2,0-1.8,0-3.4
			c0,0,0-0.1,0-0.1c0-0.1,0-0.2,0-0.3C220,297.3,220,297.2,219.9,297.2L219.9,297.2z M194.5,308.1c-5.1,0.3-6.6-1.4-6.8-1.7
			c-0.1-0.5-0.1-1.3-0.2-2.4c0.7,0.6,2.3,1.6,5.9,1.6c0.4,0,0.7,0,1.1,0c5.6-0.3,21.3-4.9,24.9-7.1c0,1.7,0,2.4,0,2.7
			C217.4,303,200.2,307.8,194.5,308.1z M219.7,297.8L219.7,297.8C219.7,297.8,219.7,297.8,219.7,297.8
			C219.7,297.8,219.7,297.8,219.7,297.8z"/>
	</g>
	<line class="st12" x1="220.2" y1="216.5" x2="193.8" y2="233.9"/>
	<path class="st4" d="M121,141.5C121,141.5,121,141.5,121,141.5c-0.1,0-2.1-0.4-4.4-2.6c-0.1-0.1-0.1-0.3,0-0.5s0.3-0.1,0.5,0
		c1.5,1.5,2.9,2.1,3.5,2.3c0-0.7,0.1-1.9,1.2-2.4c0.2-0.1,0.3,0,0.4,0.1c0,0.1,0.9,1.4,2.2,1.1c0.2,0,0.4,0.1,0.4,0.3
		s-0.1,0.4-0.3,0.4c-1.4,0.3-2.3-0.7-2.7-1.2c-0.8,0.6-0.5,2-0.5,2c0,0.1,0,0.2-0.1,0.3C121.2,141.4,121.1,141.5,121,141.5
		L121,141.5z"/>
	<polygon class="st3" points="124.4,149.2 138.3,151.6 138.3,152.4 127.1,151.9 	"/>
	<path class="st3" d="M138.6,151.5l-14.1-2.5c-0.1,0-0.3,0-0.4,0.2c-0.1,0.1,0,0.3,0.1,0.4l2.5,2.5c0.1,0.1,0.1,0.1,0.2,0.1
		c1.5,0,9,0.3,11.2,0.6c-0.2,1.6-0.9,4.7-2.8,5.3c-0.2,0.1-0.3,0.2-0.2,0.4c0,0.1,0.2,0.2,0.3,0.2c0,0,0.1,0,0.1,0
		c3-1,3.3-6.6,3.3-6.8C138.9,151.7,138.8,151.6,138.6,151.5L138.6,151.5z"/>
	<path class="st13" d="M144.1,216.2c-1.9,1.6-4.3,2.8-7.1,3.3c-7.6-4.2-10.6-9.7-12.9-7.9"/>
	<path class="st4" d="M139.7,151.7C139.7,151.7,139.6,151.7,139.7,151.7l-15.3-2.2c-0.2,0-0.3-0.2-0.3-0.4c0-0.2,0.2-0.3,0.4-0.3
		l15.3,2.2c0.2,0,0.3,0.2,0.3,0.4C140,151.6,139.8,151.7,139.7,151.7L139.7,151.7z"/>
</g>
</svg>
