<?xml version="1.0" encoding="utf-8"?>
<!-- Generator: Adobe Illustrator 28.3.0, SVG Export Plug-In . SVG Version: 6.00 Build 0)  -->
<svg version="1.1" id="uuid-a7ab53c3-7cad-44b3-b51c-bbc6bac212a4"
	 xmlns="http://www.w3.org/2000/svg" xmlns:xlink="http://www.w3.org/1999/xlink" x="0px" y="0px" viewBox="0 0 394 480"
	 style="enable-background:new 0 0 394 480;" xml:space="preserve">
<style type="text/css">
	.st0{clip-path:url(#SVGID_00000109723552571010259340000007470040599259438258_);}
	.st1{fill:#DAF2F2;}
	.st2{fill:#37A3A3;}
	.st3{fill:#FFFFFF;}
	.st4{fill:#B9E5E5;}
	.st5{fill:#EE0000;}
	.st6{clip-path:url(#SVGID_00000002358001176583397610000010072262552289970869_);}
	.st7{fill:none;}
	.st8{fill:#DEDEDE;}
	.st9{fill:#707070;}
	.st10{fill:#EE0000;stroke:#EE0000;stroke-width:1.5;stroke-miterlimit:10;}
	.st11{fill:#A60000;}
	.st12{stroke:#EE0000;stroke-width:1.5;stroke-miterlimit:10;}
	.st13{clip-path:url(#SVGID_00000043425643620266845590000017910303348047347863_);}
	.st14{fill:#E0E0E0;}
	.st15{fill:#FFFFFF;stroke:#E0E0E0;stroke-width:1.5;stroke-miterlimit:10;}
	.st16{fill:#C7C7C7;}
	.st17{fill:#147878;}
	.st18{fill:#147878;stroke:#37A3A3;stroke-width:1.5;stroke-miterlimit:10;}
	.st19{stroke:#000000;stroke-width:1.5;stroke-miterlimit:10;}
	.st20{fill:#A3A3A3;}
	.st21{stroke:#DEDEDE;stroke-width:1.5;stroke-miterlimit:10;}
	.st22{fill:#E8A997;}
	.st23{fill:#A66552;}
	.st24{fill:#40251D;}
	.st25{stroke:#000000;stroke-width:0.97;stroke-miterlimit:10;}
</style>
<g>
	<g>
		<defs>
			<path id="SVGID_1_" d="M366.7,407c63.6-60.9-7.6-113.8-4.1-165.2s53.6-143.8-27.4-178.3c-84.2-35.8-117.2,47.7-176.7,82.2
				c-36.8,21.4-133,21.8-149,91.3c-19.4,84.2,57.8,126.1,100.1,124.2c39.2-1.8,98.4,7.8,129.5,35C270.7,423.8,331.5,440.7,366.7,407
				L366.7,407z"/>
		</defs>
		<clipPath id="SVGID_00000124875786729139922110000017333564383753247108_">
			<use xlink:href="#SVGID_1_"  style="overflow:visible;"/>
		</clipPath>
		<g style="clip-path:url(#SVGID_00000124875786729139922110000017333564383753247108_);">
			<path class="st1" d="M366.7,407c63.6-60.9-7.6-113.8-4.1-165.2s53.6-143.8-27.4-178.3c-84.2-35.8-117.2,47.7-176.7,82.2
				c-36.8,21.4-133,21.8-149,91.3c-19.4,84.2,57.8,126.1,100.1,124.2c39.2-1.8,98.4,7.8,129.5,35C270.7,423.8,331.5,440.7,366.7,407
				L366.7,407z"/>
			<rect x="4.7" y="184.4" class="st2" width="54.3" height="54.3"/>
			<path class="st2" d="M367.3,69.6c0-7.5-6-13.5-13.5-13.5c-0.2,0-0.3,0-0.5,0c-1.6-10-10.1-17.7-20.4-18.2
				c-4.2-14.8-17.9-25.7-34.1-25.7c-18.4,0-33.6,14.1-35.3,32c-0.1,0-0.1,0-0.2,0c-10.7,0-19.4,8.7-19.4,19.4s8.6,19.4,19.3,19.4
				l0,0h0.1l0,0l0,0h35.5l0,0l0,0h55l0,0l0,0h0.2l0,0C361.4,83,367.3,77,367.3,69.6L367.3,69.6z"/>
			<path class="st2" d="M284.3,75.4c-4.3,0-8.4,0.6-12.3,1.8c-9.3-17.6-27.8-29.5-49.1-29.5c-23.7,0-43.8,14.8-51.9,35.6
				c-15.1,0.5-28,9.9-33.5,23.1c-2.1-0.5-4.3-0.8-6.6-0.8c-14.7,0-26.6,11.9-26.6,26.6s11.9,26.6,26.6,26.6h153.4
				c23,0,41.7-18.7,41.7-41.7C326,94,307.3,75.4,284.3,75.4L284.3,75.4z"/>
		</g>
	</g>
	<g>
		<path class="st3" d="M363.3,66.3c0-7.5-6-13.5-13.5-13.5c-0.2,0-0.3,0-0.5,0c-1.6-10-10.1-17.7-20.4-18.2
			C324.6,19.7,311,8.9,294.8,8.9c-18.4,0-33.6,14.1-35.3,32c-0.1,0-0.1,0-0.2,0c-10.7,0-19.4,8.7-19.4,19.4s8.6,19.4,19.3,19.4l0,0
			h0.1l0,0l0,0h35.5l0,0l0,0h55l0,0l0,0h0.2l0,0C357.3,79.7,363.3,73.7,363.3,66.3L363.3,66.3z"/>
		<path class="st4" d="M350,80.4l-91.5,0c-10.7-0.4-19.3-9.3-19.3-20.1s8.8-19.9,19.7-20.1c2.1-18.3,17.4-32,35.9-32
			c15.9,0,30,10.6,34.6,25.7c10.1,0.7,18.6,8.2,20.5,18.1c7.8,0,14.1,6.4,14.1,14.2s-5.9,13.7-13.3,14.2v0L350,80.4L350,80.4z
			 M259.7,79.1H350c7-0.1,12.6-5.9,12.6-12.8c0-7-5.8-12.8-12.8-12.8c-0.1,0-0.3,0-0.4,0l-0.6,0l-0.1-0.6
			c-1.6-9.8-9.9-17.2-19.8-17.6l-0.5,0l-0.1-0.5c-4.2-14.8-18-25.2-33.4-25.2c-18,0-32.9,13.5-34.6,31.4l-0.1,0.6l-0.8,0
			c-10.4,0-18.8,8.4-18.8,18.8s8.4,18.7,18.7,18.8L259.7,79.1L259.7,79.1z"/>
	</g>
	<g>
		<g>
			<path class="st5" d="M81.8,241.2c-0.1,0-0.2,0-0.3-0.1c-6.2-3.1-12.2-6.9-17.7-11.1c-0.3-0.2-0.3-0.6-0.1-0.9
				c0.2-0.3,0.6-0.3,0.9-0.1c5.5,4.2,11.4,7.9,17.5,11c0.3,0.2,0.5,0.6,0.3,0.9C82.3,241.1,82.1,241.2,81.8,241.2L81.8,241.2z"/>
			<path class="st5" d="M107.8,260.8c0,0-0.1,0-0.1,0c-16.6-3.3-32.1-9.9-46.1-19.7c-0.3-0.2-0.4-0.6-0.2-0.9
				c0.2-0.3,0.6-0.4,0.9-0.2c13.8,9.7,29.1,16.2,45.6,19.4c0.4,0.1,0.6,0.4,0.5,0.8C108.4,260.5,108.2,260.8,107.8,260.8
				L107.8,260.8z"/>
			<path class="st5" d="M130.7,272.3c-1.9,0-3.8,0-5.7-0.1c-28-1.2-54.3-11.1-76.1-28.6c-0.3-0.2-0.3-0.7-0.1-0.9s0.7-0.3,0.9-0.1
				c21.6,17.3,47.6,27.1,75.3,28.3c10.3,0.4,20.7-0.3,30.7-2.3c0.4-0.1,0.7,0.2,0.8,0.5c0.1,0.4-0.2,0.7-0.5,0.8
				C147.8,271.5,139.3,272.3,130.7,272.3L130.7,272.3z"/>
		</g>
		<g>
			<path class="st5" d="M65.3,67.8c-0.2,0-0.4-0.1-0.5-0.3c-0.2-0.3-0.2-0.7,0.1-0.9c5.5-4.3,11.4-8.1,17.6-11.3
				c0.3-0.2,0.7,0,0.9,0.3c0.2,0.3,0,0.7-0.3,0.9c-6.1,3.2-12,6.9-17.4,11.2C65.6,67.8,65.5,67.8,65.3,67.8L65.3,67.8z"/>
			<path class="st5" d="M36.6,83.1c-0.1,0-0.3,0-0.4-0.1c-0.3-0.2-0.4-0.6-0.1-0.9c9.3-12.7,20.9-23.3,34.4-31.5
				c0.3-0.2,0.7-0.1,0.9,0.2c0.2,0.3,0.1,0.7-0.2,0.9c-13.3,8.1-24.8,18.6-34,31.2C37,83,36.8,83.1,36.6,83.1L36.6,83.1z"/>
			<path class="st5" d="M7.9,122.7c-0.1,0-0.1,0-0.2,0c-0.4-0.1-0.6-0.5-0.5-0.8c2.5-10,6.2-19.8,11.1-29.1
				c13-24.8,33.2-44.4,58.2-56.7c0.3-0.2,0.7,0,0.9,0.3c0.2,0.3,0,0.7-0.3,0.9C52.3,49.4,32.4,68.8,19.5,93.4
				c-4.8,9.2-8.5,18.9-11,28.8C8.5,122.5,8.2,122.7,7.9,122.7L7.9,122.7z"/>
		</g>
	</g>
	<g>
		<rect x="1.8" y="191.5" class="st3" width="53.5" height="43.3"/>
		<path class="st5" d="M55.7,180.3H1.3c-0.3,0-0.5,0.2-0.5,0.5v54.5c0,0.3,0.2,0.5,0.5,0.5h54.5c0.3,0,0.5-0.2,0.5-0.5v-54.5
			C56.2,180.5,56,180.3,55.7,180.3z M55.2,234.8H1.8v-43.3h53.5V234.8z"/>
		<g>
			<circle class="st3" cx="45.7" cy="185.9" r="1.4"/>
			<circle class="st3" cx="51" cy="185.9" r="1.4"/>
		</g>
		<path class="st3" d="M33.8,186.4H4.5c-0.3,0-0.5-0.2-0.5-0.5c0-0.3,0.2-0.5,0.5-0.5h29.3c0.3,0,0.5,0.2,0.5,0.5
			C34.3,186.2,34,186.4,33.8,186.4z"/>
		<g>
			<path class="st5" d="M24.1,227.7c0,0-0.1,0-0.1,0c-0.3-0.1-0.4-0.4-0.3-0.6l8.8-28.6c0.1-0.3,0.4-0.4,0.6-0.3
				c0.3,0.1,0.4,0.4,0.3,0.6l-8.8,28.6C24.5,227.6,24.3,227.7,24.1,227.7z"/>
			<path class="st5" d="M37.6,220.6c-0.1,0-0.3,0-0.4-0.1c-0.2-0.2-0.2-0.5,0-0.7l6.8-6.8l-6.8-6.8c-0.2-0.2-0.2-0.5,0-0.7
				c0.2-0.2,0.5-0.2,0.7,0l7.5,7.5l-7.5,7.5C37.9,220.5,37.8,220.6,37.6,220.6z"/>
			<path class="st5" d="M19.3,220.6c-0.1,0-0.3,0-0.4-0.1l-7.5-7.5l7.5-7.5c0.2-0.2,0.5-0.2,0.7,0s0.2,0.5,0,0.7l-6.8,6.8l6.8,6.8
				c0.2,0.2,0.2,0.5,0,0.7C19.6,220.5,19.5,220.6,19.3,220.6z"/>
		</g>
	</g>
	<g>
		<path class="st5" d="M112.2,62.2C95,62.2,81,48.3,81,31.1S95,0,112.2,0s31.1,14,31.1,31.1S129.3,62.2,112.2,62.2z M112.2,1
			C95.5,1,82,14.5,82,31.1s13.5,30.1,30.1,30.1s30.1-13.5,30.1-30.1S128.8,1,112.2,1z"/>
		<g>
			<path class="st3" d="M111.9,40.8c-0.3,0-0.5-0.2-0.5-0.5v-9.2c0-0.3,0.2-0.5,0.5-0.5s0.5,0.2,0.5,0.5v9.2
				C112.4,40.6,112.2,40.8,111.9,40.8z"/>
			<path class="st3" d="M111.9,46.3c-0.3,0-0.5-0.2-0.5-0.5V31.1c0-0.3,0.2-0.5,0.5-0.5s0.5,0.2,0.5,0.5v14.7
				C112.4,46.1,112.2,46.3,111.9,46.3z"/>
			<g>
				<polygon class="st3" points="126.3,22.8 126.3,39.4 111.9,47.7 97.5,39.4 97.5,22.8 111.9,14.5 				"/>
				<path class="st5" d="M111.9,48.3L97,39.7V22.5l14.9-8.6l14.9,8.6v17.2L111.9,48.3z M98,39.1l13.9,8l13.9-8V23.1l-13.9-8l-13.9,8
					V39.1z"/>
			</g>
			<g>
				<defs>
					<polygon id="SVGID_00000141425380276407201280000013604326761576616885_" points="126.3,22.8 126.3,39.4 111.9,47.7 97.5,39.4 
						97.5,22.8 111.9,14.5 					"/>
				</defs>
				<clipPath id="SVGID_00000034076394557954382820000010320230075188281491_">
					<use xlink:href="#SVGID_00000141425380276407201280000013604326761576616885_"  style="overflow:visible;"/>
				</clipPath>
				<g style="clip-path:url(#SVGID_00000034076394557954382820000010320230075188281491_);">
					<g>
						<g>
							<line class="st7" x1="97.5" y1="22.8" x2="111.9" y2="31.1"/>
							<path class="st5" d="M111.9,31.6c-0.1,0-0.2,0-0.2-0.1l-14.4-8.3c-0.2-0.1-0.3-0.4-0.2-0.7c0.1-0.2,0.4-0.3,0.7-0.2l14.4,8.3
								c0.2,0.1,0.3,0.4,0.2,0.7C112.2,31.5,112.1,31.6,111.9,31.6L111.9,31.6z"/>
						</g>
						<path class="st5" d="M111.9,50.9c-0.3,0-0.5-0.2-0.5-0.5V31.1c0-0.3,0.2-0.5,0.5-0.5s0.5,0.2,0.5,0.5v19.3
							C112.4,50.7,112.2,50.9,111.9,50.9z"/>
						<g>
							<line class="st7" x1="126.3" y1="22.8" x2="111.9" y2="31.1"/>
							<path class="st5" d="M111.9,31.6c-0.2,0-0.3-0.1-0.4-0.3c-0.1-0.2-0.1-0.5,0.2-0.7l14.4-8.3c0.2-0.1,0.5-0.1,0.7,0.2
								c0.1,0.2,0.1,0.5-0.2,0.7l-14.4,8.3C112.1,31.6,112,31.6,111.9,31.6L111.9,31.6z"/>
						</g>
					</g>
				</g>
			</g>
			<path class="st5" d="M111.9,48.1l-14.7-8.5v-17l0.2-0.1l14.6-8.4l14.7,8.5v17l-0.2,0.1L111.9,48.1z M97.8,39.2l14.1,8.1l14.1-8.1
				V23l-14.1-8.1L97.8,23V39.2z"/>
		</g>
	</g>
	<g>
		<g>
			<path class="st3" d="M280.3,72c-4.3,0-8.4,0.6-12.3,1.8c-9.3-17.6-27.8-29.5-49.1-29.5c-23.7,0-43.8,14.8-51.9,35.6
				c-15.1,0.5-28,9.9-33.5,23.1c-2.1-0.5-4.3-0.8-6.6-0.8c-14.7,0-26.6,11.9-26.6,26.6s11.9,26.6,26.6,26.6h153.4
				c23,0,41.7-18.7,41.7-41.7C322,90.7,303.3,72,280.3,72L280.3,72z"/>
			<path class="st4" d="M280.3,156.1H126.9c-15,0-27.3-12.2-27.3-27.3s12.2-27.3,27.3-27.3c2.1,0,4.2,0.2,6.2,0.7
				c5.8-13.4,18.9-22.3,33.5-23c4.1-10.3,11-19.1,20.1-25.5c9.5-6.6,20.6-10.1,32.2-10.1c20.7,0,39.5,11.2,49.4,29.4
				c3.9-1.1,7.9-1.7,11.9-1.7c23.4,0,42.4,19,42.4,42.4S303.6,156.1,280.3,156.1L280.3,156.1z M126.9,102.9
				c-14.3,0-25.9,11.6-25.9,25.9s11.6,25.9,25.9,25.9h153.4c22.6,0,41-18.4,41-41s-18.4-41-41-41c-4.1,0-8.2,0.6-12.1,1.8l-0.5,0.2
				l-0.3-0.5c-9.6-18-28.1-29.2-48.5-29.2c-11.3,0-22.2,3.4-31.4,9.9c-9,6.3-15.9,15.1-19.8,25.3l-0.2,0.4l-0.4,0
				c-14.4,0.5-27.4,9.4-33,22.7l-0.2,0.5l-0.6-0.1C131.2,103.2,129.1,102.9,126.9,102.9L126.9,102.9z"/>
		</g>
		<path class="st8" d="M217.9,126.3c-3.2,0-5.8-2.6-5.8-5.8v-10.8c-3.8-2.1-6.2-6.1-6.2-10.5c0-6.6,5.4-12,12-12s12,5.4,12,12
			c0,4.4-2.4,8.4-6.2,10.5v10.8C223.7,123.7,221.1,126.3,217.9,126.3z M217.9,88.5c-5.9,0-10.7,4.8-10.7,10.7c0,4,2.2,7.7,5.8,9.5
			l0.4,0.2v11.6c0,2.5,2,4.5,4.5,4.5c2.5,0,4.5-2,4.5-4.5v-11.6l0.4-0.2c3.6-1.8,5.8-5.5,5.8-9.5C228.6,93.2,223.8,88.5,217.9,88.5
			L217.9,88.5z"/>
	</g>
	<polygon class="st5" points="111.5,31.1 111.9,47.7 126.3,39.2 126.3,23.1 	"/>
	<ellipse cx="220.2" cy="463" rx="72.2" ry="17"/>
	<path d="M207.1,452.1c9.3-7.6,4.9-52,4.9-63s14.2-10.9,15.3,0c1.1,11-1.5,58.3,5.3,62.4C244.3,458.7,197.8,459.8,207.1,452.1z"/>
	<path class="st9" d="M221.5,458.7c-6.3,0-12.6-0.9-13.7-3.2c-0.3-0.7-0.4-1.9,1.3-3.3c3.6-2.9,5.6-18.3,5.4-41.1
		c0-0.4,0.3-0.7,0.7-0.7c0.3,0,0.7,0.3,0.7,0.7c0.1,13.8-0.5,37.7-5.9,42.2c-0.6,0.5-1.2,1.1-0.9,1.6c1.2,2.5,15.2,3.3,23.4,1.5
		c0.4-0.1,0.7,0.1,0.8,0.5c0.1,0.4-0.1,0.7-0.5,0.8C229.9,458.3,225.7,458.7,221.5,458.7L221.5,458.7z"/>
	<path class="st10" d="M235.5,202.7c16.9-10.8,70-10.4,83.1,6.6c13.9,17.9-3.2,131.4-46.5,168.5c-41.6,35.6-94.9,34.8-134.2,17.1
		c-15.2-6.9-16.3-23.5-11.1-33.9c11.7-23.7,59-50.4,72-76.6C216.7,248.4,214.2,216.4,235.5,202.7L235.5,202.7z"/>
	<path class="st11" d="M318.7,209.3c-2-2.6-4.9-4.8-8.5-6.6c7.8,4.1,11.2,12.4,10.4,35.7c-1.2,37.5-19.4,93.7-47.3,121.4
		c-51.7,51.4-92.9,45.7-117.4,41.7c36.6,10.6,80.7,6.7,116.3-23.7C315.5,340.7,332.5,227.2,318.7,209.3L318.7,209.3z"/>
	<path class="st12" d="M236.1,204.3c16.9-10.8,48.7-10.4,71.5,2.5c22.2,12.5-1.5,82.6-34.9,128.8c-31,43-92.6,69.5-130.9,49.4
		c-48.1-25.2,33.7-57.3,56.5-93.8C219.6,257.3,214.8,218,236.1,204.3L236.1,204.3z"/>
	<path class="st9" d="M220.1,477c-38.6,0-68.9-7.1-68.9-16.1c0-2,1.4-3.8,4.3-5.4c0.3-0.2,0.7-0.1,0.8,0.2c0.2,0.3,0.1,0.7-0.2,0.8
		c-2.5,1.4-3.7,2.8-3.7,4.4c0,8.1,31,14.9,67.6,14.9c26.6,0,51-3.5,61.9-9c0.3-0.2,0.7,0,0.8,0.3c0.2,0.3,0,0.7-0.3,0.8
		C271.5,473.4,247,477,220.1,477L220.1,477z"/>
	<g>
		<defs>
			<path id="SVGID_00000031203376333382190370000004782890709439614857_" d="M217.1,124.4c9-5.7,51.1-12.6,69.9,9.2
				c16.6,19.2,9.9,66.6,20.6,72.7c22.2,12.5-1.5,82.6-34.9,128.8c-31,43-92.6,69.5-130.9,49.4c-48.1-25.2-56.8-71.1-34-107.6
				C129.1,243.1,195.8,138.1,217.1,124.4L217.1,124.4z"/>
		</defs>
		<clipPath id="SVGID_00000099630141084161515050000007109444054852416661_">
			<use xlink:href="#SVGID_00000031203376333382190370000004782890709439614857_"  style="overflow:visible;"/>
		</clipPath>
		<g style="clip-path:url(#SVGID_00000099630141084161515050000007109444054852416661_);">
			<g>
				<g>
					<path class="st3" d="M234.7,227.8c-1.1,8.1-7,14.4-15.4,30.1c-0.7,1.3-6-1.1-12.4-3.6l3.6,22.3c8.4,5.3,13.2,10.3,16,9.1
						c11.1-5.1,31.2-31.6,24.1-61.4C246.6,207.5,236.7,213.7,234.7,227.8L234.7,227.8z"/>
					<path class="st14" d="M225.6,286.3c-2,0-4.6-1.9-8.2-4.5c-2-1.5-4.4-3.1-7.1-4.9l-0.2-0.1l-3.7-23.4l2.7,1.1
						c3.5,1.4,9.5,3.8,9.9,3.1c3-5.6,5.6-9.9,7.9-13.7c4-6.7,6.7-11.1,7.4-16.2c1.1-8,4.9-13.9,9-14.1c2-0.1,5.7,1.1,7.9,10.4
						c4,16.8-0.6,31.2-5.2,40.3c-5.8,11.6-13.8,19.2-19.1,21.7C226.4,286.2,226,286.3,225.6,286.3L225.6,286.3z M211,276.3
						c2.7,1.7,4.9,3.3,7,4.8c3.9,2.8,6.8,4.9,8.4,4.1c5.2-2.4,12.9-9.9,18.6-21.2c4.5-9,9.1-23.2,5.2-39.6c-1.5-6.3-4-9.8-6.9-9.7
						c-3.6,0.2-7,5.7-8,13.2l0,0c-0.7,5.3-3.4,9.8-7.5,16.6c-2.3,3.8-4.9,8.1-7.9,13.7c-0.8,1.5-4.2,0.2-11.1-2.6l-1.1-0.4
						L211,276.3L211,276.3z"/>
				</g>
				<path class="st14" d="M234.7,227.8c0.3,12.5-6.6,20.2-11,34c-0.4,1.4-9,4.5-15.4,1c0,0,54.3,31.7,42.3-38.6
					C247.7,207.3,234.3,213.5,234.7,227.8L234.7,227.8z"/>
				<path class="st15" d="M309.9,229.3c-4.6-19.5-14.5-23.4-26.8-26.6c-0.5-0.1-0.8,0.6-0.4,0.9l1.3,0.8c0.3,0.2,0.3,0.9,0.1,1.3
					c-2.8,4.7-8.8,11.1-13.5,13.3c-10.7,5-19.3,5.2-15.8-1.5c1-2,5.5-7.1,5.1-11.5c0-0.4-5.1-0.6-5.5-0.5
					c-10.3,4.1-19.5,11-17.8,20.6c3.1,17.3-13.2,23.9-6.7,42.1c5.4,14.9-5.4,27.5-11.3,35.3c10,3.6,24.1,12.1,41.8,12
					c10.8-0.1,19.3,7.3,22.5,12.4c1.5-2.3,6.5-14.1,8.5-21.4C297.7,284.5,317,259.6,309.9,229.3L309.9,229.3z"/>
				<path class="st16" d="M310.4,229.3c-4.6-19.5-12.3,7-23.6,5.6c3.1,17.3,3.5,38.3-12.5,40.1c-17,1.9,6.4,13-11.7,36.7
					c9.7,5.2,17.6,11.1,20.8,16.2c1.5-2.3,6.5-14.1,8.5-21.4C298.2,284.5,317.5,259.5,310.4,229.3L310.4,229.3z"/>
				<path class="st16" d="M208.3,267.9l2.2,9.2c8.4,5.3,13.2,10.3,16,9.1c4.3-2,6-7.3,4-16C221.6,269.4,215.5,269,208.3,267.9
					L208.3,267.9z"/>
				<path d="M286.6,291.4c-5,16-11.3,28.2-9.4,29.7c2.8,2.3,5,4.6,6.4,6.8c1.5-2.3,11.2-29.4,12.9-33.6L286.6,291.4L286.6,291.4z"/>
			</g>
			<g>
				<path class="st9" d="M178,340.2c5.2,3.5,23,13.8,26.1,18.2s3.3,12-1.6,13.9c-4.9,1.8-9.9,4.5-14.5,2.8c-4.7-1.8-6.8-8-10.5-11.2
					c-3.6-3.2-9.4-11.5-14.5-12.5s-5.5-2.7-4.6-6.9S171.1,335.5,178,340.2L178,340.2z"/>
				<g>
					<path class="st17" d="M110.2,310.8c-7.7,28.3,28.8,28.8,56.1,54c-2.2-10.9,11.8-14.4,11.8-14.4c-13.1-18.6-15.4-32.4-52.2-40.1
						c29.4,5.3,38.8,19.5,41,24.1c3.6,7.3,12.2,18.1,27,23.6c5-3.8,0.7-12.4,6.9-10.8c8,2,32.4,16.8,37.3,16.9
						c2.4,0.1,8.1,6,13.9-0.3c13-10.5,19.4-16.6,30.8-35.5c-12.4-16.4-57.4-32.7-63.7-26.2c-4.1,4.2-8.5,9-14.5,8.5
						C171.1,307.5,118.2,281.2,110.2,310.8L110.2,310.8z"/>
					<path class="st2" d="M246.2,367.1c-2.2,0-4.2-1-5.8-1.7c-0.9-0.5-1.8-0.9-2.3-0.9c-2.6-0.1-10.3-4-18.4-8.2
						c-7.5-3.8-15.2-7.8-19-8.8c-1-0.3-1.7-0.2-2.2,0.1c-0.8,0.5-0.9,1.9-1.1,3.5c-0.3,2.3-0.6,5.3-3.1,7.1
						c-0.1,0.1-0.3,0.1-0.5,0.1c-6.7-2.5-12-6-16.1-9.5c0.3,0.4,0.6,0.8,0.8,1.2c0.1,0.1,0.1,0.3,0.1,0.5c-0.1,0.2-0.2,0.3-0.3,0.3
						c0,0-3.5,0.9-6.6,3c-4.1,2.8-5.7,6.5-4.8,10.8c0,0.2-0.1,0.4-0.2,0.5c-0.2,0.1-0.4,0.1-0.6-0.1c-10-9.2-21.1-15-31-20.2
						c-16.9-8.9-30.3-15.9-25.3-34.2l0.5,0.1l-0.5-0.1c5.8-21.3,34.4-14.2,62.1-7.3c11.3,2.8,23,5.7,32.9,6.6
						c5.6,0.5,9.8-3.9,13.9-8.1l0.2-0.2c1.2-1.3,3.7-1.8,7.3-1.6c14.6,0.9,46.6,14,57.1,27.8c0.1,0.2,0.1,0.4,0,0.6
						c-11.4,18.9-17.8,25.1-30.9,35.6C250.3,366.3,248.2,367.1,246.2,367.1L246.2,367.1z M199.5,346.3c0.4,0,0.9,0.1,1.5,0.2
						c4,1,11.7,5,19.2,8.8c7.7,3.9,15.6,8,18,8.1c0.7,0,1.6,0.4,2.7,1c2.9,1.4,6.8,3.3,10.8-1.1c0,0,0,0,0.1,0
						c12.9-10.4,19.3-16.5,30.5-35.1c-10.4-13.3-42.2-26.3-56.2-27.1c-3.3-0.2-5.6,0.2-6.6,1.3l-0.2,0.2c-4,4.2-8.6,8.9-14.7,8.4
						c-9.9-0.9-21.6-3.8-33-6.6c-27.2-6.8-55.4-13.8-60.9,6.6c-4.8,17.5,7.6,24.1,24.8,33.1c9.6,5,20.4,10.7,30.2,19.4
						c-0.7-8.8,8.9-12.5,11.7-13.4c-1.1-1.5-2.1-3-3-4.5c-4.4-4.7-6.9-9.1-7.9-11.1c-1.5-3.1-6.8-11.6-21.1-17.9
						c-5.2-2.2-11.6-4.2-19.6-5.8c-0.3-0.1-0.4-0.3-0.4-0.6c0.1-0.3,0.3-0.4,0.6-0.4c9.5,1.7,16.9,4.3,22.7,7.3
						c12.7,6.3,17.9,14.5,24,24c0.8,1.3,1.6,2.6,2.5,3.9c4.2,4.5,10.3,9.2,18.8,12.4c1.9-1.6,2.2-4.1,2.5-6.3
						c0.2-1.9,0.4-3.5,1.6-4.2C198.4,346.5,198.9,346.4,199.5,346.3L199.5,346.3z"/>
				</g>
				<path d="M126.2,309.9c29.4,5.3,38.5,19.8,40.7,24.3c3.6,7.3,7.1-8.5,13.3-12.3C155.9,312.3,134.8,311,126.2,309.9L126.2,309.9z"
					/>
				<path d="M111,310.8c-7.7,28.3,28,28.8,55.3,54c-1.1-5.2,1.6-8.8,4.7-11C137.5,334,110,334,111,310.8L111,310.8z"/>
				<g>
					<path class="st3" d="M169.7,371.3c-6.7-0.8-28.7-2.1-33.8-4.4c-5-2.4-8.9-8.4-5-11.8c3.8-3.4,7.4-7.6,12.7-8
						c5.3-0.4,10.4,3.8,15.4,5c5,1.2,14.5,5.6,19.8,4.4c5.3-1.2,6.5,0,7.7,3.8C187.8,363.9,178.5,372.3,169.7,371.3L169.7,371.3z"/>
					<path class="st14" d="M171.2,371.9c-0.5,0-1,0-1.5-0.1l0,0c-1.6-0.2-4.2-0.4-7.1-0.7c-9.7-0.8-22.9-2-26.8-3.8
						c-3.6-1.7-6.4-5-6.8-8.1c-0.3-1.8,0.3-3.4,1.7-4.6c0.6-0.5,1.2-1.1,1.8-1.6c3.2-3,6.6-6.1,11.2-6.5c3.4-0.3,6.6,1.3,9.8,2.7
						c2,0.9,3.9,1.8,5.8,2.3c1.5,0.3,3.3,1,5.3,1.6c4.7,1.6,10.7,3.6,14.3,2.7c5.6-1.3,7.1,0.2,8.3,4.1c0.4,1.3-0.2,3.1-1.8,5.1
						C182.3,368.6,176.7,371.9,171.2,371.9L171.2,371.9z M169.8,370.8c5.6,0.7,11.7-2.7,14.7-6.4c1.3-1.6,1.9-3.2,1.6-4.1
						c-1.1-3.5-1.9-4.6-7.1-3.4c-3.9,0.9-10-1.1-14.8-2.8c-1.9-0.6-3.8-1.3-5.2-1.6c-2-0.5-4-1.4-6-2.3c-3-1.4-6.1-2.9-9.3-2.6
						c-4.3,0.3-7.4,3.2-10.6,6.2c-0.6,0.6-1.2,1.1-1.8,1.7c-1.1,1-1.6,2.2-1.3,3.7c0.4,2.7,3,5.8,6.3,7.3c3.7,1.8,17.4,2.9,26.4,3.7
						C165.6,370.4,168.1,370.6,169.8,370.8L169.8,370.8L169.8,370.8z"/>
				</g>
				<g>
					<path class="st16" d="M169.7,371.3c-6.7-0.8-28.7-2.1-33.8-4.4c-2.4-1.1-4.5-3.1-5.7-5.2c-1.3-2.3-1.4-4.8,0.7-6.6
						c2.5,0.8,5.7,4.6,11,4.2c5.3-0.4,10,1.3,16.3-1c4.9-1.7,15.3-0.7,20.6-1.8c5.3-1.2,6.5,0,7.7,3.8
						C187.8,363.9,178.5,372.3,169.7,371.3L169.7,371.3z"/>
					<path class="st14" d="M171.2,371.9c-0.5,0-1,0-1.5-0.1l0,0c-1.6-0.2-4.2-0.4-7.1-0.7c-9.7-0.8-22.9-2-26.8-3.8
						c-2.5-1.2-4.7-3.2-5.9-5.4c-1.5-2.8-1.3-5.4,0.8-7.2l0.2-0.2l0.3,0.1c0.8,0.3,1.7,0.8,2.6,1.4c2.1,1.3,4.7,3,8.2,2.7
						c1.9-0.1,3.7,0,5.4,0.1c3.3,0.2,6.7,0.4,10.8-1.1c2.8-1,7.2-1.1,11.5-1.2c3.5-0.1,6.8-0.2,9.2-0.7c5.6-1.3,7.1,0.2,8.3,4.1
						c0.4,1.3-0.2,3.1-1.8,5.1C182.3,368.6,176.7,371.9,171.2,371.9L171.2,371.9z M169.8,370.8c5.6,0.7,11.7-2.7,14.7-6.4
						c1.3-1.6,1.9-3.2,1.6-4.1c-1.1-3.5-1.9-4.6-7.1-3.4c-2.4,0.5-5.8,0.6-9.4,0.7c-4.2,0.1-8.6,0.2-11.2,1.1
						c-4.3,1.5-7.8,1.3-11.2,1.1c-1.8-0.1-3.5-0.2-5.3-0.1c-3.9,0.3-6.6-1.5-8.8-2.9c-0.8-0.5-1.5-1-2.1-1.2c-2,2-1.1,4.5-0.3,5.8
						c1.1,2,3.2,3.9,5.5,5c3.7,1.8,17.4,2.9,26.4,3.7C165.6,370.4,168.1,370.6,169.8,370.8L169.8,370.8L169.8,370.8z"/>
				</g>
				<path class="st18" d="M158.3,358.2c4.1-18.1,6.8-48.7,17.8-56c23.1-15.3,57.8,13.9,79.7,13.9c15.4,0,23.7,6.5,27.2,12.1
					c-5.8,9.2-14.8,23-29.2,34.5c-3.2,2.1-4.2,4.7-12.1,3.2c-16.8-3.1-47.5-18.8-54.4-32.3c5.6,9.1,10.7,10.4,14.7,14.8
					c3.1,7.6-17.8,15.6-21.4,21.4C164.1,378.1,157.2,363,158.3,358.2L158.3,358.2z"/>
				<path class="st19" d="M158.3,358.2c0.8-6.2,8.3,9.6,18.3,1c5.6-4.8,10.1-15.1,10.6-25.6c17.4,13.4,36.5,16.1,49.6,15.2
					c19.9-1.4,59.1-32.5,21.3-33.7c0.7-1.3,1.1-2.5,2.1-3.8c7.5,3.2,17.5,8.4,23.7,15.8c-5.8,9.2-15.9,24.2-30.2,35.6
					c-3.2,2.1-4.2,4.7-12.1,3.2c-16.8-3.1-47.5-18.8-54.4-32.3c5.6,9.1,10.7,10.4,14.7,14.8c3.1,7.6-17.8,15.6-21.4,21.4
					C164.1,378.1,157.6,363.1,158.3,358.2L158.3,358.2z"/>
				<path class="st20" d="M204.3,362.4c-1.8-4.3-8.4-0.8-11.2,1.1c-4.2,2.9-9.1,6.3-5.6,10c4.3,1.7,9-0.8,13.5-2.5
					C204.3,369.7,205.1,366,204.3,362.4L204.3,362.4z"/>
			</g>
			<g>
				<path class="st21" d="M246,280.1c0,5.1,0.3,8.2,2.7,9.2c2.2,0.9,3.7-4.1,3.7-9.2c0-5.1,0.4-9.2-2-9.2
					C248,270.9,246,275,246,280.1L246,280.1z"/>
				<g>
					<g>
						<path class="st22" d="M255.2,274.1c-5.6-3.3-7.9-3.2-13.9-5.2c-1.4-0.5-2.9-1.6-4.3-2c-2.7-0.7-1.9-1-4.5-2.3
							c-0.8-0.4-2.7-0.3-4.3,0.2c-3.3-0.8-8.8-2-10.6-2.2c-3.9-0.3-8.5-0.2-9.6-0.1c-0.6,0.1-1.3,0.1-1.8,0.4
							c-0.3,0.1-0.7,0.3-0.9,0.7c-0.1,0.2-0.1,0.4,0,0.6c0.4,0.8,1.2,1.2,1.9,1.4c4.8,1.4,7,0.9,9.3,1.5c1.6,0.4,5.1,1.4,7.3,2
							c-1.7,2.8-3.2,6.1-2.5,6.8c1,0.9,1.8,1.9,2.7,2.9l-2.8,0.7c-0.3,0.2-1.9,1.2-2.2,1.4c-0.4,0.4-0.9,0.8-1,1.4
							c-0.2,0.6,0.7,2.1,1.2,2.6c0.3,0.3,0.7,0.3,1.1,0.4c0.6,0,2.3-0.6,3.9-1.1c5.7-1.4,7.9-0.4,12.6-1.7c1.3-0.4,2.3-0.9,3.1-1.6
							c0.9-0.7,2-0.9,3-0.6c2.8,0.8,5.7,1.9,8.8,3.1C253.7,284.2,256.3,274.7,255.2,274.1L255.2,274.1z"/>
						<path class="st23" d="M220.1,285.6C220.1,285.6,220.1,285.6,220.1,285.6c-0.6,0-1-0.2-1.3-0.4c-0.6-0.5-1.6-2.1-1.3-2.9
							c0.2-0.7,0.7-1.1,1.1-1.6c0.2-0.1,0.7-0.5,1.4-0.9c0.3-0.2,0.6-0.4,0.8-0.5l0.1-0.1l2.2-0.6c-0.2-0.2-0.4-0.5-0.7-0.7
							c-0.5-0.6-1.1-1.2-1.7-1.7c-1-1,1.4-5.4,2.2-6.8c-1-0.3-2.3-0.6-3.5-1c-1.3-0.4-2.6-0.7-3.3-0.9c-0.8-0.2-1.7-0.3-2.7-0.4
							c-1.6-0.1-3.6-0.3-6.5-1.1c-0.7-0.2-1.6-0.6-2.1-1.5c-0.2-0.3-0.2-0.7,0-1c0.2-0.4,0.5-0.6,1-0.9c0.6-0.2,1.2-0.3,1.9-0.4
							c1.2-0.1,5.8-0.3,9.7,0.1c1.8,0.2,7.4,1.4,10.6,2.2c1.7-0.5,3.6-0.5,4.5-0.1c1.1,0.5,1.6,0.9,2,1.2c0.5,0.4,0.9,0.6,2.4,1.1
							c0.8,0.2,1.6,0.7,2.4,1.1c0.7,0.4,1.3,0.7,1.9,0.9c1.8,0.6,3.4,1.1,4.7,1.4c3,0.9,5.4,1.5,9.3,3.8l0,0
							c1.1,0.6-0.1,5.4-1.2,7.7c-1.1,2.3-2.1,2.5-2.7,2.2c-2.5-1-5.7-2.2-8.7-3.1c-0.9-0.3-1.9-0.1-2.7,0.5c-0.9,0.7-2,1.3-3.2,1.6
							c-2.3,0.7-4.1,0.7-5.9,0.8c-1.9,0.1-3.8,0.2-6.7,0.9c-0.7,0.2-1.4,0.4-1.9,0.6C221.3,285.4,220.6,285.6,220.1,285.6
							L220.1,285.6z M221.1,279.8c-0.1,0.1-0.4,0.3-0.7,0.5c-0.5,0.3-1.2,0.7-1.3,0.9c-0.5,0.4-0.8,0.8-0.9,1.2
							c-0.1,0.4,0.6,1.8,1.1,2.2c0.2,0.2,0.5,0.3,0.9,0.3c0.3,0,1.1-0.2,1.9-0.5c0.6-0.2,1.3-0.4,2-0.6c2.9-0.7,4.9-0.8,6.8-0.9
							c1.8-0.1,3.5-0.2,5.8-0.8c1.1-0.3,2.1-0.8,3-1.5c1-0.7,2.2-1,3.3-0.7c3,0.9,6.3,2.1,8.8,3.1c0.5,0.2,1-0.5,1.3-1
							c1.6-2.4,2.5-7.3,2-7.7c-3.8-2.2-6.1-2.9-9.1-3.7c-1.3-0.4-2.9-0.8-4.7-1.4c-0.7-0.2-1.4-0.6-2-1c-0.7-0.4-1.5-0.8-2.3-1
							c-1.7-0.4-2.1-0.7-2.7-1.2c-0.4-0.3-0.9-0.6-1.9-1.1c-0.6-0.3-2.3-0.3-4.1,0.2l-0.1,0l-0.1,0c-3.2-0.7-8.8-2-10.6-2.2
							c-3.8-0.3-8.4-0.2-9.6-0.1c-0.6,0.1-1.2,0.1-1.7,0.3c-0.3,0.1-0.6,0.3-0.7,0.5c-0.1,0.1-0.1,0.2,0,0.3c0.3,0.6,0.8,1,1.7,1.2
							c2.9,0.8,4.8,1,6.4,1.1c1,0.1,2,0.2,2.9,0.4c0.8,0.2,2,0.6,3.3,0.9c1.4,0.4,2.8,0.8,3.9,1.1l0.4,0.1l-0.2,0.4
							c-2.1,3.5-2.9,6-2.6,6.4c0.6,0.6,1.1,1.2,1.7,1.7c0.4,0.4,0.7,0.8,1.1,1.1l0.4,0.4L221.1,279.8L221.1,279.8z"/>
					</g>
					<path class="st23" d="M225.5,266.8c-3.9,0.2-7-0.8-8.8-1c-3.9-0.3-10.6-1.4-11.8-2.4c-0.1,0.2-0.1,0.4,0,0.6
						c0.4,0.8,1.2,1.2,1.9,1.4c4.8,1.4,7.3,1,9.9,1.7c1.7,0.4,3.2,1,5.4,1.6L225.5,266.8L225.5,266.8z"/>
					<path class="st23" d="M255.2,274.1c-1.4-1.1-3.9-2.3-5.3-2.5c1.4,3.2,4.9,10.8-14.6,6.9c-8.3,2.3-16.2,7.2-17.5,3.9
						c-0.2,0.6,0.7,2.1,1.2,2.6c0.3,0.3,0.7,0.3,1.1,0.4c0.6,0,2.3-0.6,3.9-1.1c5.7-1.4,7.9-0.4,12.6-1.7c1.3-0.4,2.3-0.9,3.1-1.6
						c0.9-0.7,2-0.9,3-0.6c2.8,0.8,5.7,1.9,8.8,3.1C253.7,284.3,256.3,274.7,255.2,274.1L255.2,274.1z"/>
					<path class="st23" d="M226.6,275.5c1.2,1.7,0.9,1.9,2.8,3c1.1-0.6,2.1-0.7,3.3-1.6c-1.3-1.3-0.2-1.8-2.4-3
						C228.7,274.6,227.4,274.7,226.6,275.5L226.6,275.5z"/>
					<g>
						<path class="st22" d="M226,267c-4.2,1.6-6,4.6-7.9,7.5c-0.4,0.6-0.4,1.3-0.1,1.9c0.9,1.4,1.6,2.4,3,3.2c2.1,1.3,3.1,3,7.5,1.5
							l-2-10.1"/>
						<path class="st23" d="M225.5,282c-1.7,0-2.7-0.7-3.7-1.5c-0.3-0.2-0.7-0.5-1.1-0.7c-1.4-0.9-2.2-1.9-3.1-3.4
							c-0.4-0.7-0.4-1.6,0.1-2.3l0.4-0.5c1.8-2.7,3.7-5.5,7.7-7.1c0.2-0.1,0.4,0,0.5,0.2c0.1,0.2,0,0.4-0.2,0.5
							c-3.9,1.5-5.6,4.1-7.4,6.8l-0.4,0.5c-0.3,0.4-0.3,1-0.1,1.4c0.9,1.4,1.6,2.3,2.9,3.1c0.4,0.2,0.8,0.5,1.1,0.7
							c1.4,1,2.6,1.9,5.7,0.8l-1.9-9.8c0-0.2,0.1-0.4,0.3-0.4c0.2,0,0.4,0.1,0.4,0.3l2,10.1c0,0.2-0.1,0.4-0.3,0.4
							C227.3,281.9,226.3,282,225.5,282L225.5,282z"/>
					</g>
					<g>
						<path class="st22" d="M226.5,269.1c-2,1.5-3.9,3.1-5.3,5.6c-0.4,0.6-0.3,1.4,0.1,2.1c1.3,2,2.4,3.2,3.6,3.9
							c3.7,2.2,3.7,2.6,9.8-1c0.6-0.6,0.5-1.2-0.8-2c-1.5-1-3.6-0.7-4.9,0.4c0.2-1.4-1.3-1.4-1.9-2.4c1.7,0.1,2.5-0.8,4-1.4
							c0.5,1.9,0.4,2.2,2,2.8c0.8,0.7,1.9,1.3,1.9,1.8"/>
						<path class="st23" d="M228.7,282.6c-1.1,0-2-0.5-3.4-1.4l-0.6-0.4c-1.2-0.7-2.4-2-3.7-4c-0.5-0.7-0.5-1.7-0.1-2.4
							c1.5-2.6,3.5-4.3,5.4-5.7c0.1-0.1,0.4-0.1,0.5,0.1c0.1,0.1,0.1,0.4-0.1,0.5c-1.9,1.4-3.8,3-5.2,5.5c-0.3,0.5-0.3,1.2,0.1,1.7
							c1.2,1.9,2.3,3.1,3.4,3.8l0.6,0.4c3.1,1.9,3.3,2,8.8-1.3c0.2-0.2,0.2-0.4,0.2-0.4c0,0,0,0,0-0.1c0,0,0,0,0-0.1
							c0-0.1-0.1-0.2-0.2-0.3c-0.2-0.2-0.5-0.4-0.7-0.6c-0.1-0.1-0.2-0.1-0.3-0.2c-1.4-0.7-3.2-0.3-4.2,0.5c-0.1,0.1-0.3,0.1-0.4,0
							c-0.1-0.1-0.2-0.2-0.2-0.3c0.1-0.6-0.2-0.8-0.8-1.2c-0.4-0.2-0.8-0.5-1.1-1c-0.1-0.1-0.1-0.2,0-0.3c0.1-0.1,0.2-0.2,0.3-0.2
							c1.1,0,1.8-0.3,2.7-0.8c0.4-0.2,0.7-0.4,1.2-0.6c0.1,0,0.2,0,0.3,0c0.1,0,0.2,0.1,0.2,0.2c0.1,0.3,0.1,0.5,0.2,0.8
							c0.3,1.2,0.4,1.4,1.6,1.8c0,0,0.1,0,0.1,0.1c0.2,0.1,0.3,0.3,0.5,0.4c0.1,0.1,0.2,0.1,0.3,0.2c0.4,0.3,0.7,0.5,0.9,0.7
							c0.2,0.2,0.4,0.4,0.4,0.7c0,0.1,0,0.1,0,0.2c0,0.3-0.1,0.7-0.4,1c0,0,0,0-0.1,0C231.6,281.8,230,282.6,228.7,282.6
							L228.7,282.6z M227.8,275.9c0.1,0.1,0.3,0.2,0.4,0.3c0.4,0.3,0.9,0.6,1.1,1.2c0.7-0.4,1.6-0.7,2.4-0.7
							c-0.4-0.4-0.5-0.8-0.7-1.6c0-0.1-0.1-0.2-0.1-0.4c-0.3,0.1-0.5,0.3-0.8,0.4C229.4,275.4,228.7,275.8,227.8,275.9L227.8,275.9z
							"/>
					</g>
				</g>
				<g>
					<path class="st3" d="M286.3,234.9c3.8,10.5,2.6,19.6-3.8,43.6c-0.8,2.8-30.1-7.5-32.1-7.5c4.7,2.7,1.1,17.2-1.2,18.5
						c21.4,5.5,31.5,18.8,40.6,16.8c9.4-2,33.2-64,14.6-90.8"/>
					<path class="st14" d="M287.9,306.9c-4.2,0-8.7-2.7-14.2-5.9c-6.3-3.7-14.1-8.3-24.6-11.1c-0.2-0.1-0.3-0.2-0.4-0.4
						c0-0.2,0.1-0.4,0.3-0.5c1.2-0.7,3.2-6.6,3.2-11.7c0-3.1-0.7-5.2-2-5.9c-0.2-0.1-0.3-0.3-0.2-0.6c0.1-0.2,0.3-0.4,0.5-0.4
						c0.7,0,3.3,0.8,8.2,2.3c6.7,2,22.2,6.8,23.5,5.6c6.3-23.7,7.7-32.8,3.8-43.2c-0.1-0.3,0-0.5,0.3-0.6c0.3-0.1,0.5,0,0.6,0.3
						c3.9,10.7,2.6,19.9-3.8,43.9c0,0.2-0.2,0.4-0.5,0.6c-2,1.1-12.2-1.8-24.2-5.5c-2.4-0.7-4.8-1.5-6.3-1.9
						c0.8,1.2,1.2,3.1,1.2,5.5c0,4.3-1.5,9.8-3,11.8c10.3,2.8,17.9,7.3,24.1,11c6.4,3.8,11.1,6.6,15.5,5.6c3-0.7,7.9-8.3,12.1-19.1
						c9.2-23.5,13.5-54.5,2.2-70.9c-0.2-0.2-0.1-0.5,0.1-0.7c0.2-0.2,0.5-0.1,0.7,0.1c11.6,16.7,7.3,48.1-2.1,71.8
						c-4.5,11.4-9.4,19-12.8,19.7C289.3,306.8,288.6,306.9,287.9,306.9L287.9,306.9z"/>
				</g>
				<path class="st8" d="M252.4,280.1c0,2.8-2.2,8.7-3,9c-0.7,0.3-0.6,0.4,0.1,0.6c21.4,5.5,32.1,18.8,41.1,16.4
					c9.5-2.5,35.9-66.3,11.7-94c8.7,13.5,6.2,15.7,6.8,24c1,14.8-2.2,36-16.3,53.1C284.4,299.4,266.9,285.9,252.4,280.1L252.4,280.1
					z"/>
			</g>
			<g>
				<g>
					<path d="M171.1,219.4l11.1,60.9c0.1,0.3,0.3,0.6,0.6,0.8l28.6,10.6c0.9,0.5,2-0.3,1.8-1.3l-9.9-68.4c-0.2-1.1-1.1-1.8-2.1-1.9
						l-29.4-1.5C171.3,218.5,171,218.9,171.1,219.4L171.1,219.4z"/>
					<path class="st3" d="M171.1,219.4l11.1,60.9c0.1,0.3,0.3,0.6,0.6,0.8l26.3,9.1c0.9,0.5,2.5,2.3,1.8-0.8L201,222
						c-0.2-1.1-1.1-1.8-2.1-1.9l-27.1-1.5C171.3,218.5,171,218.9,171.1,219.4L171.1,219.4z"/>
					<path class="st14" d="M176.7,250.3l5.4,29.9c0.1,0.3,0.3,0.6,0.6,0.8l26.3,9.1c0.9,0.5,2.5,2.3,1.8-0.8l-1.5-10.1L176.7,250.3
						L176.7,250.3z"/>
					<path class="st20" d="M210.7,291.5c-0.4,0-0.8-0.3-1.3-0.7c-0.2-0.1-0.4-0.3-0.5-0.4l-26.2-9c-0.4-0.2-0.7-0.6-0.8-1.1
						l-11.1-60.9c-0.1-0.3,0-0.6,0.2-0.9c0.2-0.2,0.5-0.4,0.8-0.3l27.1,1.5c1.2,0.1,2.2,1,2.4,2.2l9.9,67.4c0.3,1.2,0.2,1.8-0.2,2
						C210.9,291.4,210.8,291.5,210.7,291.5L210.7,291.5z M171.8,218.9c-0.1,0-0.2,0-0.3,0.1c-0.1,0.1-0.1,0.2-0.1,0.3l11.1,60.9
						c0,0.2,0.2,0.5,0.4,0.6l26.2,9c0.2,0.1,0.5,0.3,0.7,0.4c0.3,0.2,0.7,0.5,0.9,0.5l0,0c0,0,0.1-0.3-0.1-1.3l-9.9-67.4
						c-0.2-0.9-0.9-1.6-1.8-1.6L171.8,218.9C171.8,218.9,171.8,218.9,171.8,218.9L171.8,218.9z"/>
				</g>
				<g>
					<g>
						<path class="st22" d="M178.7,262.4c1.9-0.4,3.9-1.2,4.9-0.1c1.4,1.6-0.7,2.1-2,2.9c-1.8,0.4-2.8,1.3-3.7,1
							c-1-0.3-1.6-0.5-2-1.6c-0.4-1.1,0.7-2.9,1.1-3.5C177.9,261.8,178.7,262.4,178.7,262.4L178.7,262.4z"/>
						<path class="st23" d="M178.2,266.4c-0.1,0-0.3,0-0.4-0.1c-1-0.3-1.7-0.5-2.1-1.7c-0.4-1,0.4-2.6,1.1-3.7l0.1-0.2l0.2,0.2
							c0.7,0.7,1.4,1.2,1.6,1.3c0.3-0.1,0.6-0.1,0.8-0.2c1.7-0.4,3.3-0.8,4.2,0.2c0.4,0.5,0.6,0.9,0.5,1.3c-0.1,0.7-0.9,1.1-1.8,1.5
							c-0.3,0.1-0.5,0.3-0.8,0.4l-0.1,0c-0.7,0.2-1.3,0.4-1.8,0.6C179.2,266.2,178.7,266.4,178.2,266.4L178.2,266.4z M177,261.3
							c-0.8,1.4-1.2,2.5-1,3.1c0.3,1,0.9,1.2,1.8,1.5c0.5,0.1,1-0.1,1.7-0.4c0.5-0.2,1.1-0.5,1.9-0.6c0.2-0.1,0.5-0.3,0.8-0.4
							c0.7-0.3,1.5-0.7,1.6-1.2c0-0.3-0.1-0.6-0.4-0.9c-0.7-0.8-2.2-0.4-3.7,0c-0.3,0.1-0.6,0.2-0.9,0.2l-0.1,0l-0.1-0.1
							C178.6,262.6,177.9,262.1,177,261.3L177,261.3z"/>
					</g>
					<g>
						<path class="st22" d="M179.5,258.3c3,0.1,4.5,0.1,4.9,1.6c0.7,2.3-2.6,2.2-5.1,2.6c-2.7-0.2-3,0.4-4-0.2
							c-1.1-0.7-1.8-1.1-1.4-2.5c0.4-1.4,3.3-3.1,4.4-3.7C178.8,257.4,179.5,258.3,179.5,258.3L179.5,258.3z"/>
						<path class="st23" d="M176.4,262.9c-0.4,0-0.7-0.1-1.2-0.4c-1.1-0.6-2-1.2-1.6-2.8c0.3-1.1,1.8-2.3,4.5-3.9l0.3-0.2l0.1,0.3
							c0.4,1,0.9,1.7,1.1,2l0.3,0c2.7,0.1,4.2,0.2,4.7,1.8c0.2,0.6,0.1,1.1-0.1,1.5c-0.6,0.9-2.1,1.1-3.8,1.3
							c-0.5,0.1-1,0.1-1.4,0.2h0h0c-1.1-0.1-1.8,0-2.3,0C176.8,262.9,176.6,262.9,176.4,262.9L176.4,262.9z M178.1,256.5
							c-2.3,1.3-3.7,2.5-4,3.3c-0.3,1.1,0.2,1.5,1.3,2.2c0.5,0.3,0.8,0.3,1.5,0.2c0.5,0,1.2-0.1,2.4,0c0.5-0.1,0.9-0.1,1.4-0.2
							c1.4-0.2,2.9-0.4,3.3-1c0.2-0.2,0.2-0.6,0-1c-0.4-1.2-1.4-1.3-4.2-1.4l-0.6,0l-0.1-0.1C179.2,258.5,178.6,257.7,178.1,256.5
							L178.1,256.5z"/>
					</g>
					<g>
						<path class="st22" d="M177.1,254.5c2.9,0.4,6.2,0.4,6.7,2.1c0.7,2.5-2.5,2.1-5,2.4c-2.7-0.4-4.8,0.3-5.8-0.5
							c-1.1-0.8-1.8-1.3-1.4-2.8c0.3-1.5,3.2-3,4.3-3.6C176.4,253.5,177.1,254.5,177.1,254.5L177.1,254.5z"/>
						<path class="st23" d="M178.8,259.3L178.8,259.3c-1.1-0.2-2.1-0.1-3-0.1c-1.3,0-2.3,0-3-0.5c-1-0.8-1.9-1.4-1.5-3.1
							c0.3-1.4,2.6-2.8,4.5-3.8l0.3-0.2l0.1,0.3c0.4,1.1,0.9,2,1.1,2.2c0.4,0.1,0.8,0.1,1.3,0.2c2.6,0.3,5.1,0.6,5.5,2.2
							c0.2,0.7,0.1,1.2-0.2,1.6c-0.6,0.9-2.1,1-3.7,1.1C179.7,259.2,179.2,259.2,178.8,259.3L178.8,259.3L178.8,259.3z M176.7,258.6
							c0.6,0,1.3,0,2.1,0.1c0.4-0.1,0.9-0.1,1.4-0.1c1.4-0.1,2.7-0.2,3.2-0.8c0.2-0.3,0.2-0.6,0.1-1.1c-0.3-1.2-2.7-1.4-5-1.7
							c-0.5-0.1-1-0.1-1.4-0.2l-0.1,0l-0.1-0.1c0,0-0.6-0.9-1.1-2.2c-2.3,1.2-3.6,2.4-3.8,3.3c-0.3,1.3,0.3,1.7,1.3,2.5
							c0.5,0.4,1.4,0.4,2.6,0.3C176,258.6,176.3,258.6,176.7,258.6L176.7,258.6z"/>
					</g>
					<g>
						<path class="st22" d="M176.4,250.9c2.6,0.2,4.9,1.3,5.3,2.3c1.2,2.7-2.2,1.9-4.3,1.7c-2.2-0.9-4-0.6-4.8-1.7
							c-0.8-1.1-1-0.8-0.6-2.3c0.4-1.5,2.6-1.9,3.5-2.3C176,250.3,176.4,250.9,176.4,250.9z"/>
						<path class="st23" d="M180.3,255.4c-0.6,0-1.2-0.1-1.9-0.1c-0.3,0-0.6-0.1-0.9-0.1l-0.1,0c-0.9-0.4-1.7-0.5-2.5-0.7
							c-1-0.2-1.9-0.4-2.5-1.1c-0.2-0.2-0.3-0.4-0.4-0.5c-0.6-0.6-0.6-0.8-0.3-2.1c0.3-1.4,1.9-1.9,3-2.2c0.3-0.1,0.5-0.2,0.7-0.3
							l0.3-0.1l0.1,0.3c0.3,1.2,0.6,1.8,0.7,2.1c2.5,0.3,4.9,1.3,5.4,2.5c0.3,0.8,0.4,1.4,0.1,1.8
							C181.7,255.3,181.1,255.5,180.3,255.4L180.3,255.4z M177.5,254.6c0.3,0,0.6,0.1,0.9,0.1c1.2,0.1,2.8,0.3,3.1-0.2
							c0.2-0.3,0-0.8-0.1-1.2c-0.4-0.8-2.5-1.9-5.1-2.1l-0.1,0l-0.1-0.1c0,0-0.4-0.6-0.7-2.1c-0.1,0.1-0.3,0.1-0.5,0.2
							c-1,0.3-2.3,0.8-2.6,1.8c-0.2,0.7-0.1,1.2,0.1,1.6c0.1,0.1,0.3,0.3,0.4,0.5c0.4,0.5,1.1,0.7,2.1,0.9
							C175.8,254,176.6,254.2,177.5,254.6L177.5,254.6z"/>
					</g>
				</g>
			</g>
			<g>
				<path class="st24" d="M227.6,160.9c4.8,5.5,28.6-18.2,14.4-16.8c-14.3,1.5-20.1,9.3-21.4,17.8c-1.3,8.5-2.5,16.5,3.2,29.7
					c4.7,10.8,4,24.3,1.4,28.2c22.3,1.9,25.9-11.8,25.9-11.8L227.6,160.9z"/>
				<path d="M228.3,159.8c-6.9,13-2.5,23.5,0,30.6c3.9,11.1,5.2,20.6,2.1,28.1c18,0.7,20.7-10.6,20.7-10.6S226.8,171.3,228.3,159.8z
					"/>
				<g>
					<path class="st22" d="M229.4,156.7c0.9-1.4,2-2.5,3.2-3.6c1.9-1.7,4-3.3,6.6-3.4c5.8-0.2,11.3-0.2,16.5,2.5
						c5.5,2.9,10.8,6.3,15.1,10.8c2.3,2.5,4.4,5.3,5.2,8.6c0.7,2.9-0.6,6.4-0.6,9.5c0,13.5,1.6,19.5,8.9,23.5
						c-2.5,4.6-8.8,11.3-13.5,13.5c-10.3,4.8-18.6,4.9-15.2-1.5c1.9-3.7,0.1-8.1,0.2-10.5c-1.9,2-5.4,3.7-7.4,3.5
						c-2.1-0.1-4.8-0.8-5.3-2.8c-0.8-3.8-3.3-4.4-5.5-9.3c-0.3-0.7-1.4-2.3-2.6-2.3c-0.3-0.1-0.9-0.4-1.2-0.6
						c-1.9-1.4-0.6-3.4-0.6-3.5c-1.9-5.4-1.1-4.4-1.9-6.5c-0.3-0.9-0.5-1-0.9-1.6C227.1,178.6,228.5,158,229.4,156.7L229.4,156.7z"
						/>
					<path class="st23" d="M258.7,222c-1.6,0-2.8-0.3-3.5-1.1c-0.6-0.7-1.1-2,0.1-4.4c1.3-2.5,0.8-5.4,0.4-7.7
						c-0.1-0.7-0.2-1.3-0.3-1.9c-2,1.8-5.2,3.2-7.2,3.1c-1.2-0.1-5-0.5-5.6-3.1c-0.4-1.9-1.3-3-2.3-4.3c-1-1.2-2.1-2.6-3.1-5
						c-0.3-0.6-1.3-2.1-2.3-2.1h-0.1c-0.4-0.1-1-0.4-1.3-0.6c-1.7-1.3-1-3.1-0.8-3.7c0,0,0-0.1,0-0.1c-1.1-3.1-1.3-4.1-1.4-4.8
						c-0.1-0.5-0.2-0.8-0.5-1.6c-0.2-0.6-0.4-0.8-0.6-1.1c-0.1-0.1-0.2-0.2-0.3-0.4c-3.4-4.8-1.8-25.5-1-26.8
						c0.9-1.4,2.2-2.7,3.3-3.6c1.8-1.6,4.1-3.3,6.8-3.5c5.7-0.2,11.3-0.2,16.6,2.6c6.6,3.5,11.4,6.9,15.2,10.9
						c2.8,3,4.6,5.8,5.3,8.8c0.5,1.9,0.1,3.9-0.2,5.9c-0.2,1.3-0.4,2.5-0.4,3.6c0,12.8,1.3,19.2,8.8,23.2l0.3,0.2l-0.2,0.3
						c-2.5,4.6-8.8,11.4-13.6,13.7C266.1,220.8,261.7,222,258.7,222L258.7,222z M256.1,205.3l0,0.9c0,0.7,0.1,1.5,0.3,2.5
						c0.4,2.4,0.9,5.4-0.5,8.1c-0.9,1.7-1,2.9-0.3,3.6c1.7,1.8,7.9,0.7,15.1-2.6c4.6-2.1,10.6-8.6,13.1-13.1
						c-7.5-4.2-8.8-10.7-8.8-23.6c0-1.2,0.2-2.5,0.4-3.7c0.3-1.9,0.6-3.9,0.2-5.6c-0.7-2.8-2.4-5.6-5.1-8.5
						c-3.7-3.9-8.5-7.3-15-10.7c-5.2-2.7-10.7-2.7-16.3-2.5c-2.4,0.1-4.6,1.7-6.3,3.3c-1.1,1-2.3,2.1-3.2,3.5l0,0
						c-0.8,1.2-2.2,21.6,0.9,26.1c0.1,0.1,0.2,0.2,0.3,0.3c0.3,0.3,0.4,0.6,0.7,1.3c0.4,0.9,0.4,1.3,0.5,1.8
						c0.1,0.7,0.3,1.6,1.4,4.8c0.1,0.1,0,0.3-0.1,0.5c-0.2,0.6-0.8,1.9,0.6,2.9c0.2,0.2,0.8,0.4,1.1,0.5c1.4,0.1,2.6,1.9,2.8,2.5
						c1,2.3,2.1,3.6,3,4.8c1.1,1.4,2,2.5,2.5,4.6c0.5,2.1,3.9,2.5,5,2.6c1.9,0.1,5.4-1.5,7.2-3.4L256.1,205.3L256.1,205.3z"/>
				</g>
				<path class="st23" d="M265.5,189c0.2-1.5,0.8-2.1-1-6.7c-3.6-9.1,3.2-22.3,6.2-19.1c2.3,2.5,4.4,5.3,5.2,8.6
					c0.7,2.9-0.6,6.4-0.6,9.5c0,13.5,2.4,18.5,9.1,23.3c-2.5,4.6-11.9,15.9-22.8,16.8c15.3-8.9,7.7-17.5,7.4-24.7
					C268.9,192.6,267.1,190.3,265.5,189L265.5,189z"/>
				<path d="M241.5,182.2c-0.9,0-1.5-0.2-1.8-0.5c-0.2-0.2-0.2-0.5,0-0.7c0.2-0.2,0.5-0.2,0.7,0c0.3,0.3,2.9,0.7,6.8-1.7
					c0.2-0.1,0.5-0.1,0.7,0.2c0.1,0.2,0.1,0.5-0.2,0.7C245.2,181.6,243,182.2,241.5,182.2L241.5,182.2z"/>
				<g>
					<path class="st3" d="M233.8,182.7c-0.9,0.4-1.9,0.5-2.9,0.2"/>
					<path d="M232,183.6c-0.4,0-0.8-0.1-1.2-0.2c-0.3-0.1-0.4-0.3-0.4-0.6c0.1-0.3,0.3-0.4,0.6-0.4c0.9,0.2,1.8,0.1,2.6-0.2
						c0.2-0.1,0.5,0,0.6,0.3s0,0.5-0.3,0.6C233.3,183.4,232.6,183.5,232,183.6L232,183.6z"/>
				</g>
				<path class="st23" d="M235.7,196.2c-0.7,0-1.4-0.2-1.9-0.6l-0.1-0.1c-0.6-0.5-1.5-1.2-1.4-2.2c0-0.3,0.2-1,0.6-2.4
					c0.6-2.2,1.7-5.9,1.5-7.2c-0.2-1.7-1.3-4-3.7-4.6c-0.3-0.1-0.4-0.3-0.3-0.6c0.1-0.3,0.3-0.4,0.6-0.3c2.8,0.7,4.1,3.4,4.4,5.4
					c0.2,1.5-0.8,5-1.6,7.6c-0.3,0.9-0.6,2-0.6,2.2c0,0.5,0.6,1,1.1,1.4l0.1,0.1c0.8,0.6,2.7,0.3,4.2-0.3c0.2-0.1,0.5,0,0.6,0.3
					c0.1,0.2,0,0.5-0.3,0.6C238.1,195.8,236.8,196.2,235.7,196.2L235.7,196.2z"/>
				<path class="st23" d="M249.8,209.9c-0.2,0-0.3-0.1-0.3-0.3c0-0.2,0.1-0.4,0.3-0.4c5-1,12.7-10.1,14.2-14.6
					c0.6-1.7,1.7-6.4,1.4-9.2c0-0.2,0.1-0.3,0.3-0.4c0.2,0,0.3,0.1,0.4,0.3c0.3,3-0.8,7.8-1.4,9.5
					C263,199.7,255.1,208.9,249.8,209.9C249.9,209.9,249.8,209.9,249.8,209.9L249.8,209.9z"/>
				<path class="st25" d="M243.2,173.6c-2.1,0.6-4.2,1.3-6.2,2.2c-0.6,0.3-1.4,0.9-1.2,1.5c0.2,0.6,1.1,0.6,1.7,0.4
					c2.4-0.8,4.6-2.4,7.2-2.8c2.1-0.4,4.3,0.1,6.3,0.7C251.1,175.6,246.5,172.7,243.2,173.6L243.2,173.6z"/>
				<path class="st25" d="M227.8,177.9c0.3-0.4,0.8-0.4,1.3-0.4h0.5c0.1,0,0.4,0.2,0.5,0.2l0,0c0.4,0.1,1.7,1,1.5,1.4
					c-0.2,0.3-1.7,0.1-2.1,0.2c-0.4,0.1-0.9,0.1-1.3-0.2C227.7,178.8,227.5,178.3,227.8,177.9L227.8,177.9z"/>
				<path d="M244.8,181.4c0,0,0.4,1.9-1.2,1.9c-1.6,0-1.4-1.7-1.4-1.7"/>
				<path d="M233.4,183.1c0,0,0.3,1.7-1,1.9c0-0.1,0-0.1-0.1-0.2c-0.2-0.5-0.5-1.1-0.8-1.6L233.4,183.1L233.4,183.1z"/>
				<g>
					<path class="st5" d="M238.3,198.8c-0.2,0-0.4,0.3-0.2,0.5c0.2,0.2,0.5,0.5,0.6,0.9c0.5,1.2,2.2,2.6,4,2.2
						c1.9-0.4,3.2-1.3,4.4-3c1.2-1.8,2.5-3.7,2.5-3.7S243.1,198.9,238.3,198.8L238.3,198.8z"/>
					<path class="st11" d="M249.8,195.5c0,0-0.6,0.5-1.1,0.9c-0.2,0.2-2,1.4-2.3,1.6c-1.1,0.7-3.3,1.4-5.7,1.6
						c-2.9,0.3-2.7-0.8-2.7-0.8s0.3-1.1,0.8-1.4c0.5-0.3,0.5,0.4,1.2,0.4c0.7,0,0.9-1.3,1.9-1.3
						C242.7,196.5,246.6,196.8,249.8,195.5L249.8,195.5z"/>
				</g>
				<path class="st24" d="M286.4,172.4c-0.9-24.1-31.3-41-43.6-33.9c-2.6,1.5-4.7,3-6.5,4.4c-0.9,0.4-1.6,0.9-2.1,1.3
					c-1.3,1.1-2.2,2.7-3.2,4.1c-0.1,0.2-0.7,0.9-0.8,1.1c-4,4.5-4.3,11.5-1.7,14.4c5.6,5.1,19.6,12,30.2,11.1
					c0.2,0.4,0.5,0.9,0.8,1.2c0.6,0.6,1.5,0.9,2.2,0.5c0-0.8,0.1-1.6,0.2-2.3c0.8-0.2,1.6-0.5,2.4-0.9c3.2,7.9,9.7,29.2,4.2,39
					C280.5,201.2,287,187.7,286.4,172.4L286.4,172.4z"/>
				<path d="M286.4,172.4c-0.6-16-14.1-28.8-26.8-33.6c21.4,17.1,2,28.5,6.1,46.6c6.2,3.4,12.4,13.5,7,23.2
					C283,197.5,287,187.7,286.4,172.4L286.4,172.4z"/>
				<g>
					<path class="st22" d="M261.9,179.9c-0.2-1.4-0.2-4.5,0.1-5.9c0.3-1.4,1-2.8,2.2-3.3c0.6-0.3,1.4-0.3,2.1-0.2
						c0.8,0.1,1.7,0.3,2.4,1c1.2,1.1,1.4,3,1.3,4.7c0,1.9-0.2,3.8-0.5,5.6c-0.3,1.9-1.1,2.6-2.7,3.2c-0.9,0.3-2,0.1-2.8-0.5"/>
					<path class="st23" d="M265.9,185.6c-0.7,0-1.4-0.2-2.1-0.7l0.4-0.5c0.8,0.6,1.8,0.7,2.5,0.5c1.5-0.5,2.2-1.1,2.5-2.9
						c0.3-1.8,0.5-3.7,0.5-5.6c0-1.4-0.1-3.4-1.2-4.5c-0.5-0.5-1.2-0.8-2.2-0.9c-0.8-0.1-1.4,0-1.9,0.2c-1,0.4-1.8,1.6-2,3.1
						c-0.3,1.4-0.3,4.4-0.1,5.8l-0.6,0.1c-0.2-1.5-0.2-4.5,0.1-6c0.3-1.7,1.2-3,2.4-3.5c0.8-0.3,1.7-0.3,2.2-0.2
						c1.1,0.1,1.9,0.5,2.5,1.1c1.3,1.2,1.5,3.4,1.4,5c0,1.9-0.2,3.8-0.5,5.7c-0.4,2.2-1.3,2.9-2.9,3.4
						C266.6,185.5,266.2,185.6,265.9,185.6L265.9,185.6z"/>
				</g>
			</g>
		</g>
	</g>
</g>
</svg>
