<?xml version="1.0" encoding="utf-8"?>
<!-- Generator: Adobe Illustrator 28.3.0, SVG Export Plug-In . SVG Version: 6.00 Build 0)  -->
<svg version="1.1" id="Layer_1" xmlns="http://www.w3.org/2000/svg" xmlns:xlink="http://www.w3.org/1999/xlink" x="0px" y="0px"
	 viewBox="0 0 566 321" style="enable-background:new 0 0 566 321;" xml:space="preserve">
<style type="text/css">
	.st0{enable-background:new    ;}
	.st1{clip-path:url(#SVGID_00000076575341824455101530000011962599753811949203_);}
	.st2{fill:#DAF2F2;}
	.st3{fill:#9AD8D8;}
	.st4{fill:#EE0000;}
	.st5{fill:#147878;}
	.st6{fill:#FFFFFF;}
	.st7{fill:#B9E5E5;}
	.st8{fill:#FFFFFF;stroke:#DAF2F2;stroke-width:2.93;stroke-miterlimit:10;}
	.st9{fill:#FFFFFF;stroke:#DAF2F2;stroke-width:3.44;stroke-miterlimit:10;}
	.st10{fill:#37A3A3;}
	.st11{fill:#724335;}
	.st12{fill:#40251D;}
	.st13{fill:#5F0000;}
	.st14{fill:#A60000;}
	.st15{fill:#C9C9C9;}
	.st16{clip-path:url(#SVGID_00000034802795593979821620000003977317974350838945_);}
	.st17{fill:#A60000;enable-background:new    ;}
	.st18{clip-path:url(#SVGID_00000106131864675202226450000017841016652386732678_);}
	.st19{stroke:#000000;stroke-width:2.04;stroke-linecap:round;stroke-linejoin:round;}
	.st20{fill:#F56E6E;}
	.st21{fill:#F56D6D;}
	.st22{fill:#004D4D;}
	.st23{fill:#EDBEA1;}
	.st24{fill:#D8A381;}
	.st25{clip-path:url(#SVGID_00000075874844464235363220000013336761435876727170_);}
	.st26{fill:#63BDBD;}
</style>
<g class="st0">
	<g id="uuid-bc573d35-6b89-4597-81ff-c816a5191329">
		<g>
			<defs>
				<path id="SVGID_1_" d="M471.2,81.9c-10.6,0-37.6,10.1-47.2,13.1c-23.2-43.7-69.2-73.4-122.1-73.4c-58.8,0-114.5,25.7-134.4,77.5
					c-37.6,1.3-64.2,35.7-78,68.6c-5.3-1.3-10.8-2.1-16.5-2.1c-36.5,0-66.1,29.6-66.1,66.1S36.5,298,73,298h381.5
					c57.3,0,103.8-46.5,103.8-103.8S528.5,81.9,471.2,81.9L471.2,81.9z"/>
			</defs>
			<clipPath id="SVGID_00000029727164305978556820000014448928449610491539_">
				<use xlink:href="#SVGID_1_"  style="overflow:visible;"/>
			</clipPath>
			<g style="clip-path:url(#SVGID_00000029727164305978556820000014448928449610491539_);">
				<path class="st2" d="M454.5,90.4c-10.6,0-20.9,1.6-30.5,4.6c-23.2-43.7-69.2-73.4-122.1-73.4c-58.8,0-109.1,36.8-129,88.6
					c-37.6,1.3-69.6,24.6-83.4,57.5c-5.3-1.3-10.8-2.1-16.5-2.1c-36.5,0-66.1,29.6-66.1,66.1S36.5,298,73,298h381.5
					c57.3,0,103.8-46.5,103.8-103.8S511.8,90.4,454.5,90.4L454.5,90.4z"/>
				<polygon class="st3" points="365.8,144.6 302,144.6 302,100.1 302,93.1 365.8,93.1 				"/>
				<polygon class="st3" points="414.9,160.1 391.5,160.1 391.5,141.3 391.5,138.3 414.9,138.3 				"/>
				<polygon class="st3" points="357.9,251.8 334.5,251.8 334.5,233 334.5,230 357.9,230 				"/>
				<polygon class="st3" points="294.4,192.3 210.7,192.3 210.7,125.2 210.7,115 294.4,115 				"/>
				<g>
					<path class="st4" d="M250.6,232.1c-7.2,0-13.1-5.9-13.1-13.1v-41.4c0-0.3,0.2-0.5,0.5-0.5c0.3,0,0.5,0.2,0.5,0.5V219
						c0,6.7,5.4,12.1,12.1,12.1c0.3,0,0.5,0.2,0.5,0.5S250.9,232.1,250.6,232.1L250.6,232.1z"/>
					<path class="st4" d="M385.1,238.8h-91.3c-0.3,0-0.5-0.2-0.5-0.5s0.2-0.5,0.5-0.5h91.3c7.2,0,13.1-5.9,13.1-13.1v-97.2
						c0-6-4.9-10.9-10.9-10.9h-39.4c-0.3,0-0.5-0.2-0.5-0.5c0-0.3,0.2-0.5,0.5-0.5h39.4c6.6,0,11.9,5.4,11.9,11.9v97.2
						C399.2,232.4,392.9,238.8,385.1,238.8z"/>
					<path class="st4" d="M237.8,113.9c-0.3,0-0.5-0.2-0.5-0.5V78.6c0-7.9,6.4-14.3,14.3-14.3h31.9c0.3,0,0.5,0.2,0.5,0.5
						c0,0.3-0.2,0.5-0.5,0.5h-31.9c-7.3,0-13.2,5.9-13.2,13.2v34.8C238.3,113.7,238.1,113.9,237.8,113.9z"/>
					<path class="st4" d="M328.1,86.2c-0.3,0-0.5-0.2-0.5-0.5V76c0-0.3,0.2-0.5,0.5-0.5c0.3,0,0.5,0.2,0.5,0.5v9.7
						C328.6,86,328.4,86.2,328.1,86.2z"/>
				</g>
				<polygon class="st5" points="434.9,303.2 91.8,301.3 135.4,250.1 446.7,250.1 				"/>
				<g>
					<rect x="206.5" y="121" class="st6" width="78.1" height="62"/>
					<path class="st4" d="M204,108v77.5h83.1V108L204,108L204,108z M284.6,183h-78.1v-62h78.1V183z"/>
					<g>
						<circle class="st6" cx="273.8" cy="114.9" r="1.8"/>
						<circle class="st6" cx="280.3" cy="114.9" r="1.8"/>
					</g>
					<path class="st6" d="M250.6,115.5h-42.9c-0.3,0-0.5-0.2-0.5-0.5s0.2-0.5,0.5-0.5h42.9c0.3,0,0.5,0.2,0.5,0.5
						S250.9,115.5,250.6,115.5L250.6,115.5z"/>
					<g>
						<path class="st7" d="M239.9,149.7h-24.6c-0.3,0-0.6-0.3-0.6-0.6v-19.2c0-0.3,0.3-0.6,0.6-0.6h24.6c0.3,0,0.6,0.3,0.6,0.6v19.2
							C240.4,149.4,240.2,149.7,239.9,149.7L239.9,149.7z M215.8,148.5h23.5v-18.1h-23.5V148.5z"/>
						<path class="st7" d="M275.4,149.7h-24.6c-0.3,0-0.6-0.3-0.6-0.6v-19.2c0-0.3,0.3-0.6,0.6-0.6h24.6c0.3,0,0.6,0.3,0.6,0.6v19.2
							C276,149.4,275.7,149.7,275.4,149.7z M251.4,148.5h23.5v-18.1h-23.5L251.4,148.5L251.4,148.5z"/>
						<path class="st7" d="M239.9,174.9h-24.6c-0.3,0-0.6-0.3-0.6-0.6v-19.2c0-0.3,0.3-0.6,0.6-0.6h24.6c0.3,0,0.6,0.3,0.6,0.6v19.2
							C240.4,174.7,240.2,174.9,239.9,174.9L239.9,174.9z M215.8,173.8h23.5v-18.1h-23.5V173.8z"/>
						<path class="st7" d="M275.4,174.9h-24.6c-0.3,0-0.6-0.3-0.6-0.6v-19.2c0-0.3,0.3-0.6,0.6-0.6h24.6c0.3,0,0.6,0.3,0.6,0.6v19.2
							C276,174.7,275.7,174.9,275.4,174.9z M251.4,173.8h23.5v-18.1h-23.5L251.4,173.8L251.4,173.8z"/>
					</g>
				</g>
				<g>
					<rect x="387.2" y="134.2" class="st6" width="23" height="21.2"/>
					<path class="st2" d="M411,156.2h-24.6v-22.8H411V156.2z M388,154.6h21.5v-19.7H388V154.6z"/>
				</g>
				<rect x="330.3" y="225.4" class="st8" width="23" height="21.2"/>
				<path class="st9" d="M324.6,41.7c-1.8,0-3.5,0.3-5,0.8c-3.8-7.2-11.4-12.1-20.2-12.1c-9.7,0-18,6.1-21.3,14.7
					c-6.2,0.2-11.5,4.1-13.8,9.5c-0.9-0.2-1.8-0.3-2.7-0.3c-6,0-10.9,4.9-10.9,10.9c0,6,4.9,10.9,10.9,10.9h63.1
					c9.5,0,17.2-7.7,17.2-17.2S334.1,41.7,324.6,41.7L324.6,41.7z"/>
				<g>
					<polygon points="219,253.4 219,255.7 205.1,274 295.2,274.3 302.8,255.7 302.8,253.4 					"/>
					<polygon points="295.2,272 205.1,271.7 219.3,253 302.8,253.4 					"/>
					<path class="st10" d="M294.4,258.5h-33.1c-0.3,0-0.5-0.2-0.5-0.5c0-0.3,0.2-0.5,0.5-0.5h33.1c0.3,0,0.5,0.2,0.5,0.5
						C295,258.2,294.7,258.5,294.4,258.5z"/>
					<path class="st10" d="M291.9,262h-33.1c-0.3,0-0.5-0.2-0.5-0.5s0.2-0.5,0.5-0.5h33.1c0.3,0,0.5,0.2,0.5,0.5
						S292.2,262,291.9,262z"/>
					<rect x="219" y="201.6" width="83.8" height="51.8"/>
					<rect x="220.9" y="203.3" class="st6" width="80.1" height="47.4"/>
					<path d="M227,245.1c-0.1,0-0.2,0-0.3-0.1c-0.3-0.2-0.3-0.5-0.2-0.7l5.9-9.4c0.1-0.2,0.3-0.3,0.5-0.3l8.1,0l5.8-6.4
						c0.1-0.1,0.3-0.2,0.5-0.2l11.2,2.3l12.4-15c0.2-0.2,0.5-0.3,0.8-0.1c0.2,0.2,0.3,0.5,0.1,0.8L259,231.4
						c-0.1,0.2-0.3,0.2-0.5,0.2l-11.2-2.3l-5.8,6.3c-0.1,0.1-0.2,0.2-0.4,0.2l-8,0l-5.7,9.1C227.3,245,227.1,245.1,227,245.1
						L227,245.1z"/>
					<rect x="277.1" y="235.3" class="st7" width="14.6" height="1.4"/>
					<rect x="277.1" y="231.7" class="st7" width="18.2" height="1.4"/>
					<rect x="277.1" y="228.1" class="st7" width="18.2" height="1.4"/>
					<rect x="277.1" y="224.5" class="st7" width="18.3" height="1.4"/>
					<path class="st7" d="M271,245.2h-44.6c-0.3,0-0.5-0.2-0.5-0.5v-31.9c0-0.3,0.2-0.5,0.5-0.5s0.5,0.2,0.5,0.5v31.4h44
						c0.3,0,0.5,0.2,0.5,0.5S271.3,245.2,271,245.2z"/>
				</g>
				<g>
					<path class="st11" d="M332.4,154.4c0,0-3.3-2.9-10.8-5.3c-7.5-2.3-9.9-2.7-11.4-3.8c-1.5-1.1-5-7.9-5-7.9h23.2l14.5,10
						c0,0,0.7,7-3.2,7L332.4,154.4L332.4,154.4z"/>
					<path class="st12" d="M320.2,140.9c-0.1,0-0.1,0-0.2,0c-1.9-0.8-5.9-0.6-6-0.6c-0.2,0-0.4-0.1-0.5-0.3c-0.5-1.3-4.5-6.5-6-8.4
						c-0.2-0.2-0.1-0.6,0.1-0.8c0.2-0.2,0.6-0.1,0.8,0.1c0.2,0.3,4.9,6.2,6,8.4c1.1,0,4.3,0,6.1,0.7c0.3,0.1,0.4,0.4,0.3,0.7
						C320.6,140.7,320.4,140.9,320.2,140.9L320.2,140.9z"/>
					<g>
						<path class="st13" d="M462.7,150.7c-1.4,1.2-3,2.3-4.9,2.3c-1.8,0-3.9-0.3-5.5-1.2c-0.9-0.5-2.8-1.4-2.9-2.6
							c0.3,2.9,2.1,4.7,5,5.8c1.3,0.5,2.7,0.9,4,1.2c0.5,0.1,5.2,0.8,5.2,0.7C463.8,155.1,463.1,152.6,462.7,150.7L462.7,150.7z"/>
						<path class="st11" d="M498.9,179.9c0,0-3.2-10.7-2.5-21.3l1.5-23.5c0.3-7.9-2.1-14.4-7.1-19.2c-11.2-10.9-20.9-15.1-29.5-13.5
							c-0.1,0-2.7,3.8-2.7,3.8c-0.1,0.2-3.2,4.1-3.2,6.7c0,2.9-0.3,5.2-0.9,6.4l-0.1,0.2c-0.8,1.5-3.1,6.1-4.6,7.2
							c-1.4,1.2-4.1,2.5-2.5,4.7l2.7,1.9c0,0,0.1,0.1,0.1,0.1c-0.1,2.2-0.3,10.6-0.3,12.4c0,0.2,0,0.5,0,0.8c0,2.1,0.1,5.3,3,7.1
							c3.3,2.1,8.5,2.6,10.7,2.8c0,0,0,0,0.1,0c0,2.6-0.3,5.1-0.6,7.7c-0.1,1.1-0.3,2.3-0.4,3.5c0,0,0,0,0,0
							c0,0.1,1.7,10.9,14.9,12.2C490.8,181.3,498.9,179.9,498.9,179.9L498.9,179.9z"/>
						<path class="st12" d="M498,175.1l-15.5-2.8c-5.9-1.5-19.9-2.8-19.9-2.8c0.3-1.9,0.6-4.2,0.6-4.2s3.4-0.2,5.2-0.5
							c11.7-1.6,17.5,4.2,26.5,3.8c0.3,0,1.5-0.3,1.8-0.3L498,175.1L498,175.1z"/>
						<path class="st12" d="M468.8,136.7c-0.2,0-0.3,0-0.5,0c-1.4-0.3-2.2-1.7-2.8-2.8c-0.1-0.3,0-0.6,0.3-0.7
							c0.3-0.1,0.6,0,0.7,0.3c0.7,1.4,1.3,2.1,2,2.2c0.8,0.2,2-0.5,3.4-1.8c0.2-0.2,0.5-0.5,0.7-0.8c0.2-0.2,0.5-0.3,0.8-0.1
							c0.2,0.2,0.3,0.5,0.1,0.8c-0.3,0.4-0.6,0.7-0.9,1C471.1,136,469.9,136.7,468.8,136.7L468.8,136.7z"/>
						<path class="st12" d="M449.9,133.9C449.9,133.9,449.9,133.9,449.9,133.9c-0.1,0-1.8-0.2-2.9-1.8c-1.9-2.7,1.3-5.3,2.4-6.2
							c1.3-1.1,3.4-4.6,4.5-6.7c0.6-1.1,0.9-3.4,0.9-6.2c0-2.7,4.7-8.9,5.2-9.6c0.2-0.2,0.5-0.3,0.8-0.1c0.2,0.2,0.3,0.5,0.1,0.8
							c-1.4,1.8-5,7-5,9c0,1.8-0.1,5-1,6.7c0,0.1-2.8,5.4-4.7,7c-2.5,2-3.1,3.5-2.2,4.8c0.8,1.1,2.1,1.3,2.1,1.3
							c0.3,0,0.5,0.3,0.5,0.6C450.4,133.7,450.2,133.9,449.9,133.9L449.9,133.9z"/>
						<path class="st12" d="M463.4,156.9C463.4,156.9,463.4,156.9,463.4,156.9c-2.3-0.2-7.5-0.7-10.9-2.8c-3.1-2-3.2-5.2-3.2-7.4
							c0-0.3,0-0.5,0-0.8c0-0.9,0-4.1,0.2-9.4c0-0.3,0.3-0.5,0.6-0.5c0.3,0,0.5,0.3,0.5,0.6c-0.2,5.3-0.2,8.5-0.2,9.4
							c0,0.2,0,0.5,0,0.8c0,2.1,0.1,4.9,2.7,6.5c3.1,2,8.2,2.5,10.4,2.7c0.3,0,0.5,0.3,0.5,0.6C463.9,156.7,463.7,156.9,463.4,156.9
							L463.4,156.9z"/>
						<path class="st12" d="M450,137C450,137,450,137,450,137c-0.3,0-0.5-0.3-0.5-0.6c0.1-3.2,0.2-6,0.2-6c0-0.3,0.3-0.5,0.6-0.5
							c0.3,0,0.5,0.3,0.5,0.6c0,0-0.1,2.8-0.2,6C450.6,136.8,450.3,137,450,137L450,137z"/>
						<path class="st12" d="M462.6,168.3C462.6,168.3,462.5,168.3,462.6,168.3c-0.3,0-0.6-0.3-0.5-0.6c0.1-1.2,0.3-2.4,0.4-3.5
							c0.6-4.4,1.1-8.6,0.1-12.8c-0.1-0.3,0.1-0.6,0.4-0.6c0.3-0.1,0.6,0.1,0.6,0.4c1,4.5,0.5,8.9-0.1,13.2
							c-0.1,1.1-0.3,2.3-0.4,3.5C463.1,168.1,462.8,168.3,462.6,168.3L462.6,168.3z"/>
						<path class="st12" d="M498.9,180.5c-0.2,0-0.4-0.2-0.5-0.4c0-0.1-3.2-10.9-2.5-21.5l1.5-23.5c0-0.3,0.3-0.5,0.6-0.5
							c0.3,0,0.5,0.3,0.5,0.6l-1.5,23.5c-0.7,10.4,2.4,21,2.5,21.1c0.1,0.3-0.1,0.6-0.4,0.7C499,180.5,498.9,180.5,498.9,180.5
							L498.9,180.5z"/>
					</g>
					<path class="st11" d="M357.1,148.3c3.6-0.3,10.1,3.8,12.7,6.7c2.6,2.9,9.1-12.4,9.1-12.4s-8-4.2-9.2-7.9
						C368.5,130.9,357.1,148.3,357.1,148.3L357.1,148.3z"/>
					<path class="st14" d="M365.4,155.1c0,0,0.4-13.5,13.4-16.6c0,0,33,32.7,62.1,38.2c8.4,1.6-25,22.3-36.4,16.6
						C393.1,187.6,365.4,155.1,365.4,155.1L365.4,155.1z"/>
					<ellipse class="st15" cx="490.2" cy="199.4" rx="18.9" ry="19.3"/>
					<ellipse class="st15" cx="373.4" cy="207.6" rx="13.5" ry="13.7"/>
					<path class="st6" d="M421.8,290.3c-6.5,15.4-6.8,16.6-13.6,45.7h91c0,0,6.3-15.2-3.6-38.8C485.7,273.8,421.8,290.3,421.8,290.3
						L421.8,290.3z"/>
					<path class="st4" d="M509.1,199.4c-0.5,15.8-6.3,32.9-15.9,57.2c-1.2,20.3,7.1,40.7,7.1,40.7s-7.9,14-29.9,16.1
						c-22,2.1-48.3-6.8-60.8-8.2c10.8-48.4,28.4-76.4,16.1-108.4c-5-13,2.7-25.9,19.6-27.9c10.4-1.2,24-0.6,36.7,2.8
						C507.1,178.5,509.4,190.2,509.1,199.4L509.1,199.4z"/>
					<path class="st4" d="M370.3,221.3c-25.1-13.7-26.2-47.5-38.3-66c0,0,7.8-11.6,18.6-2.1c0,0,17,32.6,31.8,46.1
						C404.3,219.4,378.6,217.1,370.3,221.3L370.3,221.3z"/>
					<g>
						<defs>
							<path id="SVGID_00000035505240729008152560000004689176182289466782_" d="M370.3,221.3c-25.1-13.7-26.2-47.5-38.3-66
								c0,0,7.8-11.6,18.6-2.1c0,0,17,32.6,31.8,46.1C404.3,219.4,378.6,217.1,370.3,221.3L370.3,221.3z"/>
						</defs>
						<clipPath id="SVGID_00000154387411125961704750000002957669115917827240_">
							<use xlink:href="#SVGID_00000035505240729008152560000004689176182289466782_"  style="overflow:visible;"/>
						</clipPath>
						<g style="clip-path:url(#SVGID_00000154387411125961704750000002957669115917827240_);">
							<path class="st17" d="M360.1,236.1c-23-17.1-28.6-54.8-38.1-74.8c0,0-0.9-38,16.6-10.9c17.4,27.1,9.6,45.7,26.9,64.2
								C385.8,236.3,377.3,244.5,360.1,236.1L360.1,236.1z"/>
						</g>
					</g>
					<path class="st11" d="M358.8,125c0,0-1-9.1,2.7-9.3c3.7-0.2,1.4,10.6,5.2,13.2s4.2,10.7,1.1,13.7c-3.1,3-8.8,7.7-14.5,4.8
						c-5.7-3-10.5-6.2-10.5-6.2l-5.6-13.1L358.8,125L358.8,125z"/>
					<path class="st4" d="M454.2,168.7c0,0,16.9-5.2,31.4,0.3c9.4,3.5,12.7,1.8,12.7,1.8s0.9,8.2,4.9,11.6c-2.5,2-13.3,0.6-19.9-1.2
						s-8.3-10.7-34.9-12.2L454.2,168.7L454.2,168.7z"/>
					<g>
						<defs>
							<path id="SVGID_00000168089430304964011500000006527564680725154969_" d="M509.1,199.4c-0.5,15.8-6.3,32.9-15.9,57.2
								c-1.2,20.3,7.1,40.7,7.1,40.7s-7.9,14-29.9,16.1c-22,2.1-48.3-6.8-60.8-8.2c10.6-47.8,28.4-76.4,16.1-108.4
								c-5-13-4.3-25.1,12.7-27.1c10.4-1.2,30.9-1.4,43.7,2C507.1,178.5,509.4,190.2,509.1,199.4L509.1,199.4z"/>
						</defs>
						<clipPath id="SVGID_00000137839958111446405970000005628401259831978941_">
							<use xlink:href="#SVGID_00000168089430304964011500000006527564680725154969_"  style="overflow:visible;"/>
						</clipPath>
						<g style="clip-path:url(#SVGID_00000137839958111446405970000005628401259831978941_);">
							<path class="st17" d="M428.8,338.7c-11.4-11.1-4.3-54,8.1-86.2c8.3-21.5,26.4-57.4,5.4-67.6c-27.9-13.7-23.1,12.5-23.1,12.5
								s-44.4,83.5-38.2,100C387.2,313.9,428.8,338.7,428.8,338.7z"/>
						</g>
					</g>
					<path class="st4" d="M370.3,221.3c11.6,0.6,61.2-8,72.6-10.8c11.5-2.9,11,12.5,14.1,8.1c5.3-7.5,4.9-35.4-3.8-45.9
						c-10.8-13.1-37.3,12.2-77.5,21.2C355.5,198.4,370.3,221.3,370.3,221.3L370.3,221.3z"/>
					<path class="st19" d="M473,133.3c3-4,6.7-14.9,0.3-16c-3.8-0.7-6.2,5-7.9,7.7c0,0-3-2.7-1.7-7.5s-3.2-5.9-1.5-8.6
						c3.8-6.4-3.7-4.2-0.6-8c0,0,1.9-3.4,6.3-5.7c6.3-3.3,15.6-4.8,27-1.1c12.3,4,18.8,15.4,19.7,18.5c4.9,16.1-6.9,28.8-8.5,30.7
						c-7.5,8.4-9.3,12.9-9.8,15.4c0,0-8.8-0.5-15-4c-7.3-4.2-8.1-14.7-8.4-21"/>
					<path d="M455.7,111.1c1.2,0.4,2.1,1.4,2.6,2.5c0.1,0.2,0,0.4-0.2,0.5c-0.2,0.1-0.4,0-0.5-0.1c-0.6-0.6-1.4-1.3-2.3-1.4
						C454.5,112.5,454.7,111,455.7,111.1L455.7,111.1L455.7,111.1z"/>
					<path class="st12" d="M367.8,143.1c-0.1,0-0.3-0.1-0.4-0.2c-0.2-0.2-0.2-0.6,0-0.8c1.4-1.3,2.1-4,1.8-6.8c-0.2-2.7-1.3-5-2.9-6
						c-2.1-1.4-2.5-4.9-2.9-7.9c-0.4-3.2-0.7-5.3-2-5.2c-0.4,0-0.8,0.2-1.1,0.6c-1.4,1.7-1.2,6.4-1.1,8.1c0,0.3-0.2,0.6-0.5,0.6
						c-0.3,0-0.6-0.2-0.6-0.5c0-0.3-0.7-6.6,1.3-9c0.5-0.6,1.1-0.9,1.9-1c2.4-0.1,2.7,2.9,3.1,6.1c0.3,2.8,0.7,6,2.4,7.2
						c1.8,1.2,3.1,3.8,3.3,6.8c0.3,3.2-0.5,6.1-2.2,7.7C368,143.1,367.9,143.1,367.8,143.1L367.8,143.1z"/>
					<g>
						<g>
							<rect x="301.1" y="84.9" class="st6" width="58.8" height="52.7"/>
							<path class="st2" d="M359.1,85.7v51.2h-57.3V85.7H359.1 M360.6,84.1h-60.3v54.3h60.3V84.1L360.6,84.1z"/>
						</g>
						<rect x="295.7" y="85.7" class="st2" width="12.4" height="51.2"/>
						<g>
							<g>
								<path class="st3" d="M304,96.2h-4.2c-0.3,0-0.6-0.3-0.6-0.6c0-0.3,0.3-0.6,0.6-0.6h4.2c0.3,0,0.6,0.3,0.6,0.6
									C304.5,95.9,304.3,96.2,304,96.2z"/>
								<path class="st3" d="M304,101.4h-4.2c-0.3,0-0.6-0.3-0.6-0.6c0-0.3,0.3-0.6,0.6-0.6h4.2c0.3,0,0.6,0.3,0.6,0.6
									C304.5,101.1,304.3,101.4,304,101.4z"/>
								<path class="st3" d="M304,106.6h-4.2c-0.3,0-0.6-0.3-0.6-0.6s0.3-0.6,0.6-0.6h4.2c0.3,0,0.6,0.3,0.6,0.6
									S304.3,106.6,304,106.6z"/>
								<path class="st3" d="M304,111.9h-4.2c-0.3,0-0.6-0.3-0.6-0.6c0-0.3,0.3-0.6,0.6-0.6h4.2c0.3,0,0.6,0.3,0.6,0.6
									C304.5,111.6,304.3,111.9,304,111.9z"/>
								<path class="st3" d="M304,117.1h-4.2c-0.3,0-0.6-0.3-0.6-0.6c0-0.3,0.3-0.6,0.6-0.6h4.2c0.3,0,0.6,0.3,0.6,0.6
									C304.5,116.8,304.3,117.1,304,117.1z"/>
								<path class="st3" d="M304,122.3h-4.2c-0.3,0-0.6-0.3-0.6-0.6c0-0.3,0.3-0.6,0.6-0.6h4.2c0.3,0,0.6,0.3,0.6,0.6
									C304.5,122.1,304.3,122.3,304,122.3z"/>
								<path class="st3" d="M304,127.5h-4.2c-0.3,0-0.6-0.3-0.6-0.6c0-0.3,0.3-0.6,0.6-0.6h4.2c0.3,0,0.6,0.3,0.6,0.6
									C304.5,127.3,304.3,127.5,304,127.5z"/>
							</g>
							<g>
								<path class="st4" d="M330,96.1h-17.7c-0.3,0-0.5-0.2-0.5-0.5c0-0.3,0.2-0.5,0.5-0.5H330c0.3,0,0.5,0.2,0.5,0.5
									C330.5,95.9,330.3,96.1,330,96.1z"/>
								<path class="st2" d="M352.2,101.4H337c-0.3,0-0.6-0.3-0.6-0.6c0-0.3,0.3-0.6,0.6-0.6h15.3c0.3,0,0.6,0.3,0.6,0.6
									C352.8,101.1,352.6,101.4,352.2,101.4z"/>
								<path class="st2" d="M332,101.4h-15.9c-0.3,0-0.6-0.3-0.6-0.6c0-0.3,0.3-0.6,0.6-0.6H332c0.3,0,0.6,0.3,0.6,0.6
									C332.6,101.1,332.3,101.4,332,101.4z"/>
								<path class="st2" d="M343.4,106.6h-27.2c-0.3,0-0.6-0.3-0.6-0.6s0.3-0.6,0.6-0.6h27.2c0.3,0,0.6,0.3,0.6,0.6
									S343.7,106.6,343.4,106.6z"/>
								<path class="st4" d="M337,111.8h-24.7c-0.3,0-0.5-0.2-0.5-0.5c0-0.3,0.2-0.5,0.5-0.5H337c0.3,0,0.5,0.2,0.5,0.5
									C337.5,111.6,337.3,111.8,337,111.8z"/>
								<path class="st2" d="M342.1,117.1H332c-0.3,0-0.6-0.3-0.6-0.6c0-0.3,0.3-0.6,0.6-0.6h10.1c0.3,0,0.6,0.3,0.6,0.6
									C342.7,116.8,342.4,117.1,342.1,117.1z"/>
								<path class="st2" d="M325.7,117.1h-9.6c-0.3,0-0.6-0.3-0.6-0.6c0-0.3,0.3-0.6,0.6-0.6h9.6c0.3,0,0.6,0.3,0.6,0.6
									C326.2,116.8,326,117.1,325.7,117.1z"/>
								<path class="st2" d="M352.2,122.3h-6.8c-0.3,0-0.6-0.3-0.6-0.6c0-0.3,0.3-0.6,0.6-0.6h6.8c0.3,0,0.6,0.3,0.6,0.6
									C352.8,122.1,352.6,122.3,352.2,122.3z"/>
								<path class="st2" d="M341.1,122.3h-25c-0.3,0-0.6-0.3-0.6-0.6c0-0.3,0.3-0.6,0.6-0.6h25c0.3,0,0.6,0.3,0.6,0.6
									C341.7,122.1,341.4,122.3,341.1,122.3z"/>
								<path class="st2" d="M344.1,127.5H336c-0.3,0-0.6-0.3-0.6-0.6c0-0.3,0.3-0.6,0.6-0.6h8.1c0.3,0,0.6,0.3,0.6,0.6
									C344.7,127.3,344.5,127.5,344.1,127.5z"/>
								<path class="st2" d="M330,127.5h-13.9c-0.3,0-0.6-0.3-0.6-0.6c0-0.3,0.3-0.6,0.6-0.6H330c0.3,0,0.6,0.3,0.6,0.6
									C330.6,127.3,330.3,127.5,330,127.5z"/>
							</g>
						</g>
					</g>
					<path class="st11" d="M342.8,149.5c0.3-3.9-1.3-7.9-4.1-10.5c-3.9-3.6-9.6-4.4-14.1-7.3c-0.6-0.4-3.5-1.8-4.4-1.8
						c-0.8-0.1-1.7,0.1-2.1,0.8c-0.4,0.7-0.1,1.7,0.4,2.4c1,1.7,2.5,3.2,4.2,4.2c1,0.6,2.2,1.1,3.1,1.9c0.9,0.8,1.7,2,1.6,3.2
						c0,0.4-0.2,0.8-0.2,1.3c0,0.7,0.4,1.3,0.8,1.9c1.2,1.8,2.6,3.4,4.3,4.8"/>
					<path class="st12" d="M342.8,150C342.8,150,342.8,150,342.8,150c-0.3,0-0.6-0.3-0.5-0.6c0.1-0.9,0-1.8-0.1-2.6
						c-0.4-2.8-1.8-5.6-3.9-7.5c-2.2-2.1-5-3.2-7.9-4.3c-2.1-0.8-4.2-1.7-6.1-2.9c-0.6-0.4-3.4-1.7-4.1-1.8c-0.4,0-1.2,0-1.6,0.5
						c-0.2,0.3-0.5,0.3-0.7,0.2c-0.3-0.1-0.3-0.5-0.2-0.7c0.4-0.7,1.4-1.1,2.6-1c1.1,0.1,4.1,1.5,4.6,1.9c1.8,1.2,3.9,2,6,2.8
						c2.9,1.2,5.9,2.4,8.2,4.5c2.3,2.1,3.7,5,4.2,8.1c0.1,1,0.2,1.9,0.1,2.9C343.3,149.8,343.1,150.1,342.8,150L342.8,150z"/>
					<path class="st12" d="M327.4,142.8C327.4,142.8,327.3,142.8,327.4,142.8c-0.3,0-0.6-0.3-0.5-0.6c0.1-0.9-0.4-1.9-1.4-2.7
						c-0.2-0.2-0.3-0.5-0.1-0.8s0.5-0.3,0.8-0.1c1.2,1,1.9,2.4,1.8,3.6C327.9,142.6,327.6,142.8,327.4,142.8z"/>
					<path class="st12" d="M325.8,139.6c-0.1,0-0.2,0-0.3-0.1c-0.6-0.5-1.3-0.9-2-1.2c-0.4-0.2-0.7-0.4-1.1-0.6
						c-1.8-1.1-3.3-2.6-4.4-4.4c-0.9-1.5-0.7-2.4-0.4-2.9c0.2-0.3,0.5-0.3,0.7-0.2c0.3,0.2,0.3,0.5,0.2,0.7c-0.3,0.5,0,1.3,0.4,1.8
						c1,1.6,2.4,3,4,4c0.3,0.2,0.7,0.4,1.1,0.6c0.7,0.4,1.5,0.8,2.1,1.3c0.2,0.2,0.3,0.5,0.1,0.8C326.1,139.5,326,139.6,325.8,139.6
						L325.8,139.6z"/>
					<path class="st20" d="M365.5,202.8c0,0-0.1,0-0.1,0c-0.3-0.1-0.5-0.4-0.4-0.7c1.2-4.5,4.8-7.4,10.6-8.8
						c16.9-3.8,31.5-10.5,43.2-15.9c16.4-7.6,28.3-13,34.8-5.1c0.2,0.2,0.2,0.6-0.1,0.8c-0.2,0.2-0.6,0.2-0.8-0.1
						c-6-7.3-17.6-1.9-33.6,5.4c-11.8,5.4-26.4,12.2-43.4,16c-5.4,1.2-8.7,3.9-9.8,8C365.9,202.6,365.7,202.8,365.5,202.8
						L365.5,202.8z"/>
					<path class="st21" d="M376.8,194c-0.2,0-0.3-0.1-0.4-0.2c-13.1-15.2-26.1-40.1-26.3-40.4c-0.1-0.3,0-0.6,0.2-0.7s0.6,0,0.7,0.2
						c0.1,0.2,13.2,25.1,26.1,40.2c0.2,0.2,0.2,0.6-0.1,0.8C377.1,194,376.9,194,376.8,194L376.8,194z"/>
					<path class="st20" d="M498.1,183.9c-4.8,0-11.2-1.2-14.9-2.2c-0.3-0.1-0.5-0.4-0.4-0.7c0.1-0.3,0.4-0.5,0.7-0.4
						c6.7,1.8,15.9,2.8,18.8,1.6c-3.1-3.1-4.1-8.8-4.4-10.8c-1.4,0.4-5.2,0.7-12.4-2c-14.2-5.3-30.9-0.3-31.1-0.3
						c-0.3,0.1-0.6-0.1-0.7-0.4c-0.1-0.3,0.1-0.6,0.4-0.7c0.2-0.1,17.3-5.2,31.8,0.3c9,3.4,12.2,1.8,12.2,1.8c0.2-0.1,0.3-0.1,0.5,0
						c0.2,0.1,0.3,0.2,0.3,0.4c0,0.1,0.9,8.1,4.7,11.2c0.1,0.1,0.2,0.3,0.2,0.4s-0.1,0.3-0.2,0.4
						C502.5,183.6,500.5,183.9,498.1,183.9L498.1,183.9z"/>
				</g>
				<g>
					<path class="st22" d="M185.5,158.5c-1.1,0-2.2-0.2-3.4-0.7c-0.4-0.2-0.6-0.6-0.4-1s0.6-0.6,1-0.4c2,0.8,3.8,0.8,5.2,0
						c2.9-1.7,3.7-6.3,3.7-6.3c0.1-0.4,0.5-0.7,0.9-0.7c0.4,0.1,0.7,0.5,0.7,0.9c0,0.2-0.9,5.4-4.5,7.4
						C187.7,158.2,186.7,158.5,185.5,158.5L185.5,158.5z"/>
					<circle class="st21" cx="162.1" cy="136.7" r="27"/>
					<path class="st23" d="M189.1,136.7c-0.5,9.4-4.6,15.4-4.8,18c-0.2,2.6-0.1,6.4-1.4,8.4c-4.2,6.2-5.9,14.7-10.9,15.6
						c-5,0.9-23-9.4-23.4-21c-0.4-11.5,30.1-23.9,30.1-23.9L189.1,136.7L189.1,136.7z"/>
					<path class="st24" d="M172,179.2c-0.3,0-0.5-0.2-0.5-0.4c-0.1-0.3,0.1-0.6,0.4-0.6c3-0.5,4.8-4.2,6.8-8.5
						c1.1-2.3,2.2-4.7,3.7-6.9c1-1.4,1.1-4,1.2-6.4c0-0.6,0.1-1.2,0.1-1.8c0.1-1,0.6-2.2,1.3-3.9c1.3-3.1,3.2-7.9,3.5-14.1
						c0-0.3,0.3-0.5,0.6-0.5c0.3,0,0.5,0.3,0.5,0.6c-0.3,6.4-2.3,11.2-3.6,14.4c-0.6,1.6-1.1,2.8-1.2,3.6c0,0.5-0.1,1.1-0.1,1.7
						c-0.1,2.5-0.3,5.2-1.4,6.9c-1.4,2.1-2.5,4.4-3.6,6.7C177.6,174.6,175.7,178.6,172,179.2C172.1,179.2,172.1,179.2,172,179.2
						L172,179.2z"/>
					<path class="st14" d="M180.6,200c2.2-18.2-20.2-27.5-15.3-47.4c0.7-2.9,1.3-4.8,5.5-5c15.1-0.6,23.5-14.6,19.3-23.7
						s-22.6-17.1-32.6-15.9c-10,1.2-18.2,11.1-22,16.8c0,0-9,11.6-4.4,31.4c4.6,19.8-2.5,30.8-2.5,30.8L180.6,200L180.6,200z"/>
					<path class="st13" d="M171.6,194c-4.2-8.7-21.8-6.2-23.8-34.2c0,0-3.9,23.2-11.8,27.3S171.6,194,171.6,194L171.6,194z"/>
					<path class="st4" d="M180.6,200.6C180.6,200.6,180.6,200.6,180.6,200.6c-0.4,0-0.6-0.3-0.5-0.6c1-8.3-3.2-14.7-7.7-21.4
						c-5-7.5-10.2-15.3-7.5-26.1c0.7-2.8,1.3-5.2,6-5.4c7.4-0.3,13.9-4,17.4-9.9c2.7-4.4,3.2-9.2,1.4-13c-0.1-0.3,0-0.6,0.3-0.7
						c0.3-0.1,0.6,0,0.7,0.3c1.9,4.1,1.4,9.4-1.5,14c-3.8,6.2-10.6,10-18.3,10.4c-3.9,0.2-4.3,1.8-5,4.6
						c-2.6,10.4,2.5,17.9,7.4,25.2c4.4,6.6,8.9,13.4,7.9,22.1C181.1,200.4,180.9,200.6,180.6,200.6L180.6,200.6z"/>
					<path class="st22" d="M192.4,150.9c-0.1,0-0.2,0-0.2,0l-21.7-7.2c-0.4-0.1-0.6-0.6-0.5-1s0.6-0.6,1-0.5l21.7,7.2
						c0.4,0.1,0.6,0.6,0.5,1C193,150.7,192.7,150.9,192.4,150.9L192.4,150.9z"/>
					<path class="st23" d="M172,144.5c-0.3-2.9-5.2-5.5-7.5,1.1c-2.3,6.6-0.9,13.2,1,13c1.9-0.1,4.5-2.5,4.5-2.5L172,144.5z"/>
					<path class="st23" d="M232.1,257.6c5.9-0.8,17.5-7.3,19.7-7.4c2.2-0.1,7.8,2.8,7.8,2.8l2.5,5.4c0,0-4.5,2.2-6,4
						c-1.6,1.8-7.9,5.3-10.2,4.9c-2.3-0.4-10.3,0.1-12.3,0.9C231.5,269,232.1,257.6,232.1,257.6L232.1,257.6z"/>
					<path class="st24" d="M259,253.2c-0.1,0-0.2,0-0.2-0.1c-1.6-0.8-5.3-2-6.8-1.9c-0.3,0-0.6-0.2-0.6-0.5s0.2-0.6,0.5-0.6
						c1.9-0.1,5.9,1.2,7.4,2c0.3,0.1,0.4,0.5,0.2,0.7C259.4,253.1,259.2,253.2,259,253.2L259,253.2z"/>
					<path class="st23" d="M203.9,253c3.8-0.6,13.9-5.1,15.8-5.4c1.9-0.3,8,2.9,9.4,3.4c1.5,0.5,3.5,4.1,4.5,4.6
						c1,0.4-0.1,2.5-2.5,2.1c-2.4-0.5-24.3,4.7-24.3,4.7L203.9,253L203.9,253z"/>
					<path class="st24" d="M230.7,258.1c-0.1,0-0.2,0-0.2-0.1c-0.1-0.1-3.1-1.5-4.1-2.1c-0.5-0.3-3.2-1.8-6.5-1.3
						c-0.3,0-0.6-0.2-0.6-0.5c0-0.3,0.2-0.6,0.5-0.6c3.6-0.5,6.4,1,7.2,1.4c1,0.6,4,2.1,4,2.1c0.3,0.1,0.4,0.5,0.2,0.7
						C231.1,258,230.9,258.1,230.7,258.1L230.7,258.1z"/>
					<path class="st24" d="M221,258.7c-1.7,0-3.2-1.2-4.4-3.5c-0.1-0.3,0-0.6,0.2-0.7c0.3-0.1,0.6,0,0.7,0.2c1.1,2,2.3,3,3.6,2.9
						c0.3,0,0.5,0.2,0.6,0.5c0,0.3-0.2,0.5-0.5,0.6C221.1,258.7,221.1,258.7,221,258.7L221,258.7z"/>
					<path class="st6" d="M188.3,249.6c4.4,0.3,15.5-1,15.5-1s4.8,3.2,5.5,10.6c0.7,7.4-19.6,7.4-19.6,7.4L188.3,249.6L188.3,249.6z
						"/>
					<path class="st13" d="M126.7,202.4c9.9-0.7,20.9-9.3,21.9-28.7c1-19.4-6.1-26.6-6.4-33.9c-0.3-7.2,4.1-13.4,4.1-16.5
						c0-3-2.1-3.3-2.1-3.3c-5.9-3.1-15.6,11.6-18.7,23s-0.8,19.6-4.1,27.1c-3.1,7.1-14.9,14-8.3,31.1c0.4,1.1,2,1.2,2.5,0.2
						c0.7-1.4,2-3.2,4-5.1c0,0,0.1,10.2-4,16.4C121.6,213.9,126.7,202.4,126.7,202.4L126.7,202.4z"/>
					<path class="st6" d="M172.6,245.5l15.8,12.7c-13.1-11.6,6.5-55.6-10.4-63c-40.7-17.7-74.3-5.3-74.3-5.3
						c-6.5,1.9-8.4,9.5-9,13.2c-6.1,25-4.5,73-19.7,103.3h98.1c0,0-7.7-9.4,1.6-38.7L172.6,245.5L172.6,245.5z"/>
					<path class="st6" d="M157.4,207.6c-1.1,44.3,21.6,79.1,30.5,80.9c8.9,1.7,40.4-10.6,52.5-19.1c0,0,1.1-9.6-6.5-14.5
						c0,0-13.6,1.4-34.1,6.4c-11.9-22.3-9-51.2-16.6-61.1C175.4,190,157.8,189.8,157.4,207.6L157.4,207.6z"/>
					<g>
						<defs>
							<path id="SVGID_00000060732102258812795670000010819516512309120665_" d="M233.9,257.1c0,0-13.6-0.9-34.1,4.1
								c-11.9-22.3-9.4-61.4-17.5-66.6c-0.5-0.3-1-0.6-1.5-0.9c-0.8-0.9-1.7-1.7-2.8-2.3c-40-22.1-66-4.8-74.4-1.6
								c-8.4,3.2-8.6,10.9-8.8,13.3c-6.1,25-4.5,73-19.7,103.3h98.1c0,0-6.8-8.4,0.2-33.9c5.5,9.4,11.1,15.2,14.6,15.9
								c8.9,1.7,40.4-10.6,52.5-19.1C240.3,269.4,241.4,262.1,233.9,257.1L233.9,257.1z"/>
						</defs>
						<clipPath id="SVGID_00000027577926765714139970000018153809786374194060_">
							<use xlink:href="#SVGID_00000060732102258812795670000010819516512309120665_"  style="overflow:visible;"/>
						</clipPath>
						<g style="clip-path:url(#SVGID_00000027577926765714139970000018153809786374194060_);">
							<path class="st2" d="M88,191.4l-17.3,2.3l29.4,126.1l78.3-2.3c0,0-5.3-24.5,0.8-19.2c6,5.3,63.6-18.4,65.2-23.3
								c1.6-4.8-3.5-9.6-3.5-9.6c-22.7,12.3-44.4,15.8-47.7,11c-13-18.7-18.2-66-30.2-74.1C132.2,181.4,88,191.4,88,191.4L88,191.4z
								"/>
						</g>
					</g>
					<path class="st3" d="M75,307c-0.1,0-0.2,0-0.2-0.1c-0.3-0.1-0.4-0.5-0.2-0.7c9.8-19.5,12.5-46.3,15-69.9
						c1.3-12.6,2.5-24.5,4.7-33.3c0.6-4.3,2.7-11.7,9.3-13.6c0.1,0,11.1-4,27.7-4.2c0.3,0,0.5,0.2,0.5,0.5c0,0.3-0.2,0.5-0.5,0.5
						c-16.5,0.2-27.3,4.1-27.4,4.2c-6.1,1.7-8,8.8-8.6,12.8c-2.2,8.8-3.4,20.7-4.7,33.2c-2.4,23.7-5.2,50.6-15.1,70.3
						C75.4,306.9,75.2,307,75,307L75,307z"/>
					<path class="st13" d="M141.8,158.3c-4.6-19.8,4.4-31.4,4.4-31.4c3.8-5.6,12-15.5,22-16.8c0.8-0.1,1.6-0.1,2.5-0.1
						c-4.8-1.6-9.5-2.4-13.1-2c-10,1.2-18.2,11.1-22,16.8c0,0-9,11.6-4.4,31.4c4.6,19.8-2.5,30.8-2.5,30.8l11,1.4
						C141.1,185.8,145.8,175.3,141.8,158.3L141.8,158.3z"/>
					<ellipse class="st4" cx="139.3" cy="121.5" rx="4.5" ry="5"/>
					<path class="st14" d="M121.4,197c9.9-0.7,25.2-6.4,26.2-25.8s-10.4-29.6-10.7-36.8c-0.3-7.2,4.1-8.8,4.1-11.9
						c0-3-2.1-3.3-2.1-3.3c-5.9-3.1-15.6,7-18.7,18.4s-0.8,19.6-4.1,27.1c-3.1,7.1-14.9,14-8.3,31.1c0.4,1.1,2,1.2,2.5,0.2
						c0.7-1.4,2-3.2,4-5.1c0,0,0.1,10.2-4,16.4C116.2,208.6,121.4,197,121.4,197L121.4,197z"/>
					<path class="st13" d="M119,166.8c3.5-8,1.1-16.7,4.3-28.8c2.4-8.7,8.4-16.8,13.9-19.3c-5.9-0.9-14.3,8.5-17.1,18.9
						c-3.1,11.4-0.8,19.6-4.1,27.1c-3.1,7.1-14.9,14-8.3,31.1c0.2,0.6,0.8,0.9,1.4,0.9C104.6,180.8,115.8,173.9,119,166.8L119,166.8
						z"/>
					<path class="st13" d="M119.2,199.6c-0.2,0-0.5-0.2-0.5-0.4c-1.6-7.1,1.5-12.4,4.4-17.6c2.3-4,4.7-8.2,5-13.3
						c0.3-5.2-0.6-10.5-1.4-15.6c-1-6.2-2-12-0.4-16.2c2.3-6.4,5.7-11,10.5-14.6c0.2-0.2,0.6-0.1,0.8,0.1c0.2,0.2,0.1,0.6-0.1,0.8
						c-4.7,3.5-7.9,7.9-10.1,14.1c-1.4,3.9-0.5,9.6,0.5,15.6c0.8,5.2,1.7,10.5,1.4,15.8c-0.3,5.3-2.7,9.6-5.1,13.8
						c-3,5.2-5.8,10.1-4.3,16.8c0.1,0.3-0.1,0.6-0.4,0.6C119.3,199.6,119.2,199.6,119.2,199.6L119.2,199.6z"/>
					<path class="st13" d="M123.3,191.5c-0.1,0-0.2,0-0.3-0.1c-0.2-0.2-0.3-0.5-0.1-0.8c5.2-6.3,10.6-17.1,10.9-26.9
						c0.1-5.1-0.7-9.1-1.6-12.9c-0.8-3.8-1.6-7.3-1.2-11.2c0.9-7.8,2.8-9.8,2.9-9.9c0.2-0.2,0.6-0.2,0.8,0c0.2,0.2,0.2,0.6,0,0.8
						c0,0-1.8,1.9-2.6,9.2c-0.4,3.7,0.3,7,1.1,10.9c0.8,3.7,1.8,8,1.6,13.2c-0.3,10-5.8,21-11.1,27.5
						C123.6,191.4,123.4,191.5,123.3,191.5L123.3,191.5z"/>
					<path class="st23" d="M250.2,254.7c0,0,10.1-2.4,10.9-2.5c0.8-0.1,6.5,2.7,6.9,3.1c0.4,0.4,1.3,2.8,2,3.1s0.3,2.8-3,1.5
						c-3.2-1.3-6.5-2.3-6.5-2.3l-7.1,1.5L250.2,254.7L250.2,254.7z"/>
					<path class="st23" d="M256.1,262.3c2.3-0.9,3.2-1.2,5-1.3c1.8-0.2,3.5,0.5,5.2,1.3c1.7,0.9,3.4,0.7,4,0c0.6-0.7-1.6-2.7-3-3.6
						c-1.4-0.9-3.8-3-5.2-3.2c-1.4-0.2-4.9,1-6.4,1.4L256.1,262.3"/>
					<path class="st24" d="M270.1,259c-0.1,0-0.1,0-0.2,0c-0.6-0.2-1-1-1.7-2.3c-0.2-0.4-0.5-0.9-0.6-1c-0.5-0.4-5.4-2.5-6.2-2.5
						c0,0,0,0,0,0c-0.3,0-0.5-0.2-0.6-0.5c0-0.3,0.2-0.5,0.5-0.6c1-0.1,6.5,2.3,7,2.8c0.2,0.2,0.4,0.6,0.7,1.2
						c0.3,0.5,0.9,1.6,1.1,1.8c0.3,0.1,0.4,0.4,0.3,0.7C270.5,258.8,270.3,259,270.1,259L270.1,259z"/>
					<path class="st24" d="M270.4,262.9c-0.1,0-0.3,0-0.4-0.1c-0.2-0.2-0.2-0.5-0.1-0.7c-0.1-0.5-1.4-1.8-2.9-2.8
						c-0.4-0.3-0.8-0.6-1.3-0.9c-1.2-0.9-2.8-2.1-3.7-2.2c-0.3,0-0.5-0.3-0.5-0.6c0-0.3,0.3-0.5,0.6-0.5c1.2,0.1,2.8,1.3,4.2,2.4
						c0.5,0.3,0.9,0.7,1.3,0.9c0.9,0.6,3.2,2.4,3.4,3.6c0,0.3-0.1,0.6-0.2,0.8C270.7,262.8,270.5,262.9,270.4,262.9L270.4,262.9z"/>
					<path class="st24" d="M165.5,159.2c-0.3,0-0.5-0.2-0.5-0.5c0-0.3,0.2-0.6,0.5-0.6c1.4-0.1,3.5-1.7,4.2-2.3
						c0.2-0.2,0.6-0.2,0.8,0c0.2,0.2,0.2,0.6,0,0.8C170.3,156.7,167.6,159.1,165.5,159.2C165.5,159.2,165.5,159.2,165.5,159.2
						L165.5,159.2z"/>
					<path class="st4" d="M170.7,190.2c-0.2,0-0.5-0.2-0.5-0.4c-0.9-4.4-3.8-7.9-6.6-11.3c-3-3.8-6.2-7.7-6.9-12.7
						c0-0.3,0.2-0.6,0.5-0.6c0.3,0,0.6,0.2,0.6,0.5c0.6,4.7,3.6,8.4,6.6,12.2c2.8,3.5,5.8,7.2,6.8,11.8c0.1,0.3-0.1,0.6-0.4,0.6
						C170.8,190.2,170.8,190.2,170.7,190.2L170.7,190.2z"/>
					<path class="st26" d="M187.9,288.2c0,0-0.1,0-0.1,0c-4.7-0.9-11.9-9.4-17.9-21.2c-7.4-14.7-12-32.3-12.9-49.6
						c0-0.3,0.2-0.5,0.5-0.6c0.3,0,0.5,0.2,0.6,0.5c2.1,39.5,22.1,68.3,29.9,69.8c0.3,0.1,0.5,0.3,0.4,0.6
						C188.3,288,188.1,288.2,187.9,288.2L187.9,288.2z"/>
					<path class="st3" d="M202,268.1c-0.3,0-0.5-0.2-0.5-0.4c-0.4-2.3-2.2-6.2-2.2-6.2c-6.5-12.1-8.5-25.9-10.4-38.1
						c-1.5-9.9-2.8-18.5-6.2-23c-3.8-5-10.3-7.6-15.7-6.4c-5.6,1.2-8.9,6.2-9.1,13.6c0,0.3-0.2,0.5-0.5,0.5c0,0,0,0,0,0
						c-0.3,0-0.5-0.3-0.5-0.6c0.2-7.9,3.8-13.2,9.9-14.6c5.8-1.3,12.8,1.5,16.8,6.7c3.6,4.7,4.9,13.4,6.4,23.4
						c1.8,12.1,3.9,25.8,10.3,37.8c0.1,0.2,1.9,4.1,2.3,6.5C202.6,267.7,202.4,268,202,268.1C202.1,268.1,202.1,268.1,202,268.1
						L202,268.1z"/>
					<path class="st3" d="M240.3,269.9C240.3,269.9,240.3,269.9,240.3,269.9c-0.4,0-0.6-0.3-0.5-0.6c0-0.1,0.9-9.2-6.1-13.9
						c-1.7,0.2-14.9,1.8-33.8,6.3c-0.3,0.1-0.6-0.1-0.6-0.4c-0.1-0.3,0.1-0.6,0.4-0.6c20.3-4.9,34-6.4,34.2-6.4c0.1,0,0.2,0,0.4,0.1
						c7.7,5,6.7,15,6.7,15.1C240.8,269.7,240.6,269.9,240.3,269.9L240.3,269.9z"/>
					<path d="M154.7,308c0-41.3-16.6-88-21.9-102.1c-1-2.5-3.4-4.2-6.1-4.2h-68c-4.6,0-7.7,4.5-6.1,8.8c6.7,18,19.2,54.7,21.1,97.4
						H154.7L154.7,308z"/>
				</g>
			</g>
		</g>
	</g>
</g>
</svg>
