<?xml version="1.0" encoding="utf-8"?>
<!-- Generator: Adobe Illustrator 28.3.0, SVG Export Plug-In . SVG Version: 6.00 Build 0)  -->
<svg version="1.1" id="uuid-1d152f65-b441-46e8-ae96-577dc5539273"
	 xmlns="http://www.w3.org/2000/svg" xmlns:xlink="http://www.w3.org/1999/xlink" x="0px" y="0px" viewBox="0 0 326 323"
	 style="enable-background:new 0 0 326 323;" xml:space="preserve">
<style type="text/css">
	.st0{fill:#FFE8CC;}
	.st1{clip-path:url(#SVGID_00000112611297674528717110000013311965522108702594_);}
	.st2{fill:#FFFFFF;}
	.st3{fill:#EE0000;}
	.st4{fill:#FFFFFF;stroke:#EE0000;stroke-width:2;stroke-miterlimit:10;}
	.st5{fill:none;stroke:#EE0000;stroke-width:2;stroke-miterlimit:10;}
	.st6{fill:#FFFFFF;stroke:#FFFFFF;stroke-width:2;stroke-miterlimit:10;}
	.st7{fill:#A60000;}
	.st8{fill:#FCCB8F;}
	.st9{fill:#F8AE54;}
	.st10{clip-path:url(#SVGID_00000041976194055379547400000005452136194380282804_);}
	.st11{fill:none;stroke:#FFFFFF;stroke-width:2.07;stroke-linecap:round;stroke-linejoin:round;}
	.st12{clip-path:url(#SVGID_00000183207263048940397160000008946258925924671130_);}
	.st13{clip-path:url(#SVGID_00000173842313802575467460000001896399358219734694_);}
	.st14{clip-path:url(#SVGID_00000088813573692902352420000009021909864742885254_);}
	.st15{clip-path:url(#SVGID_00000000220589359788645480000016946950349649421706_);}
</style>
<g>
	<path class="st0" d="M32.3,56.1c4.9-8.5,16.6-11.2,25.5-12.8c11.8-2.2,24.1-2.4,35.9,0.2c11.5,2.6,21.5,9,32.5,12.9
		c16.8,5.9,32.5,1.3,48-6.3c6-2.9,11.8-6.1,17.5-9.5C242.3,11,284.6,30,295.3,44.2s33.2,56.5-22.1,113.2c0,0-19.4,18-3.2,43.3
		c16.2,25.3,51.4,49.4,33.6,83.8c-17.8,34.4-65.2,30.4-109.4,14.6c0,0-26.1-11.5-56.5,0.4c-27.8,10.8-57.2,20.3-85.9,5.7
		c-32.2-16.4-38.7-55.6-22-85.9c6.4-24.9,10.9-50.6,13.1-76.3c1.2-13.6,1.7-27.5,0.2-41.1c-0.6-5.8-1.6-11.6-3.4-17.2
		c-2.4-7.5-8.6-14.3-8.9-22.4C30.8,59.9,31.3,57.9,32.3,56.1L32.3,56.1z"/>
	<g>
		<g>
			<defs>
				<path id="SVGID_1_" d="M32.3,56.1c4.9-8.5,16.6-11.2,25.5-12.8c11.8-2.2,24.1-2.4,35.9,0.2c11.5,2.6,21.5,9,32.5,12.9
					c16.8,5.9,32.5,1.3,48-6.3c6-2.9,11.8-6.1,17.5-9.5C242.3,11,284.6,30,295.3,44.2s33.2,56.5-22.1,113.2c0,0-19.4,18-3.2,43.3
					c16.2,25.3,51.4,49.4,33.6,83.8c-17.8,34.4-65.2,30.4-109.4,14.6c0,0-26.1-11.5-56.5,0.4c-27.8,10.8-57.2,20.3-85.9,5.7
					c-32.2-16.4-38.7-55.6-22-85.9c6.4-24.9,10.9-50.6,13.1-76.3c1.2-13.6,1.7-27.5,0.2-41.1c-0.6-5.8-1.6-11.6-3.4-17.2
					c-2.4-7.5-8.6-14.3-8.9-22.4C30.8,59.9,31.3,57.9,32.3,56.1L32.3,56.1z"/>
			</defs>
			<clipPath id="SVGID_00000178907443285880116320000015335826878177754559_">
				<use xlink:href="#SVGID_1_"  style="overflow:visible;"/>
			</clipPath>
			<g style="clip-path:url(#SVGID_00000178907443285880116320000015335826878177754559_);">
				<path class="st2" d="M195.5,76.4c3.2,0,6.4,0.5,9.3,1.4c7.1-13.3,21.1-22.4,37.2-22.4c18,0,33.3,11.2,39.4,27
					c11.5,0.4,21.2,7.5,25.5,17.5c1.6-0.4,3.3-0.6,5-0.6c11.1,0,20.2,9,20.2,20.2s-9,20.2-20.2,20.2c-5.5,0-108.1,0-116.4,0
					c-17.5,0-31.7-14.2-31.7-31.7S178,76.4,195.5,76.4L195.5,76.4z"/>
			</g>
		</g>
		<g>
			<path class="st3" d="M182.9,31.2c0-7.5-6.1-13.6-13.6-13.6s-13.6,6.1-13.6,13.6s6.1,13.6,13.6,13.6h-0.4v50.6h0.8V44.8h-0.4
				C176.8,44.8,182.9,38.7,182.9,31.2L182.9,31.2z"/>
			<path class="st3" d="M196.5,33.3c0.1-0.7,0.1-1.4,0.1-2.1c0-15.1-12.3-27.4-27.4-27.4c-0.9,0-1.7,0-2.5,0.1
				c-0.4-2.1-2.3-3.7-4.6-3.7c-2.6,0-4.7,2.1-4.7,4.7c0,0.5,0.1,1,0.2,1.5c-9.3,4.4-15.8,13.8-15.8,24.8c0,5.8,1.8,11.2,5,15.7
				c-0.9,0.9-1.5,2.1-1.5,3.4c0,2.6,2.1,4.7,4.7,4.7c1.4,0,2.6-0.6,3.4-1.5c3.5,2.5,7.6,4.2,12.1,4.8l0.1-0.8
				c-4.3-0.6-8.3-2.2-11.7-4.7c0.5-0.7,0.8-1.6,0.8-2.5c0-2.6-2.1-4.7-4.7-4.7c-0.9,0-1.8,0.3-2.5,0.7c-3-4.3-4.8-9.6-4.8-15.2
				c0-10.6,6.3-19.8,15.4-24.1c0.8,1.5,2.3,2.4,4.1,2.4c2.6,0,4.7-2.1,4.7-4.7c0,0,0-0.1,0-0.1c0.8-0.1,1.6-0.1,2.4-0.1
				c14.6,0,26.6,11.9,26.6,26.6c0,0.7,0,1.3-0.1,2c-0.1,0-0.2,0-0.3,0c-2.6,0-4.7,2.1-4.7,4.7c0,1.9,1.1,3.5,2.8,4.2
				c-3.7,8.1-11.3,14.2-20.5,15.5l0.1,0.8c9.5-1.3,17.4-7.6,21.2-16c0.4,0.1,0.8,0.2,1.2,0.2c2.6,0,4.7-2.1,4.7-4.7
				C200,35.6,198.5,33.8,196.5,33.3L196.5,33.3z"/>
			<g>
				<path class="st2" d="M176.4,24.8c-0.1,0-0.2,0-0.3-0.1c-1.7-1.8-4-2.8-6.5-2.9c-0.2,0-0.4-0.2-0.4-0.4c0-0.2,0.2-0.4,0.4-0.4
					c2.7,0.1,5.2,1.2,7,3.1c0.2,0.2,0.1,0.4,0,0.6C176.6,24.8,176.5,24.8,176.4,24.8z"/>
				<path class="st2" d="M162.4,38c-0.1,0-0.2,0-0.3-0.1c-1.8-1.9-2.8-4.4-2.7-7.1c0.1-5.5,4.8-9.9,10.3-9.8c0.2,0,0.4,0.2,0.4,0.4
					s-0.2,0.4-0.4,0.4c-5.1-0.1-9.3,3.9-9.5,9c-0.1,2.4,0.8,4.7,2.5,6.5c0.2,0.2,0.1,0.4,0,0.6C162.6,38,162.5,38,162.4,38L162.4,38
					z"/>
			</g>
		</g>
		<g>
			<g>
				<g>
					<rect x="33.6" y="76.3" class="st2" width="89.9" height="31"/>
					<path class="st3" d="M123.9,107.8H33.2V75.9h90.7V107.8L123.9,107.8z M34,107h89.1V76.7H34V107L34,107z"/>
				</g>
				<g>
					<rect x="33.6" y="107.4" class="st2" width="89.9" height="31"/>
					<path class="st3" d="M123.9,138.8H33.2V107h90.7V138.8z M34,138h89.1v-30.2H34V138z"/>
				</g>
				<g>
					<rect x="33.6" y="138.4" class="st2" width="89.9" height="31"/>
					<path class="st3" d="M123.9,169.8H33.2V138h90.7V169.8z M34,169h89.1v-30.2H34V169z"/>
				</g>
				<rect x="33.6" y="169.4" class="st4" width="89.9" height="31"/>
				<g>
					<rect x="43.2" y="89.6" class="st3" width="49.4" height="5.7"/>
					<circle class="st3" cx="110.6" cy="92.5" r="2.8"/>
				</g>
				<circle class="st3" cx="110.6" cy="153.9" r="2.8"/>
				<circle class="st3" cx="110.6" cy="184.9" r="2.8"/>
				<circle class="st3" cx="110.6" cy="122.9" r="2.8"/>
				<g>
					<rect x="43.2" y="114.5" class="st3" width="5.7" height="16.7"/>
					<rect x="53.7" y="114.5" class="st3" width="5.7" height="16.7"/>
				</g>
			</g>
			<g>
				<path class="st3" d="M129.9,207.2h-3.2c-0.2,0-0.4-0.2-0.4-0.4c0-0.2,0.2-0.4,0.4-0.4h2.8v-2.8c0-0.2,0.2-0.4,0.4-0.4
					c0.2,0,0.4,0.2,0.4,0.4v3.2C130.3,207,130.1,207.2,129.9,207.2z"/>
				<path class="st3" d="M121.8,207.2h-6.5c-0.2,0-0.4-0.2-0.4-0.4c0-0.2,0.2-0.4,0.4-0.4h6.5c0.2,0,0.4,0.2,0.4,0.4
					C122.2,207,122,207.2,121.8,207.2z M110.4,207.2h-6.5c-0.2,0-0.4-0.2-0.4-0.4c0-0.2,0.2-0.4,0.4-0.4h6.5c0.2,0,0.4,0.2,0.4,0.4
					C110.8,207,110.6,207.2,110.4,207.2z M98.9,207.2h-6.5c-0.2,0-0.4-0.2-0.4-0.4c0-0.2,0.2-0.4,0.4-0.4h6.5c0.2,0,0.4,0.2,0.4,0.4
					C99.3,207,99.2,207.2,98.9,207.2z M87.5,207.2H81c-0.2,0-0.4-0.2-0.4-0.4c0-0.2,0.2-0.4,0.4-0.4h6.5c0.2,0,0.4,0.2,0.4,0.4
					C87.9,207,87.7,207.2,87.5,207.2z M76.1,207.2h-6.5c-0.2,0-0.4-0.2-0.4-0.4c0-0.2,0.2-0.4,0.4-0.4h6.5c0.2,0,0.4,0.2,0.4,0.4
					C76.5,207,76.3,207.2,76.1,207.2z M64.7,207.2h-6.5c-0.2,0-0.4-0.2-0.4-0.4c0-0.2,0.2-0.4,0.4-0.4h6.5c0.2,0,0.4,0.2,0.4,0.4
					C65.1,207,64.9,207.2,64.7,207.2z M53.2,207.2h-6.5c-0.2,0-0.4-0.2-0.4-0.4c0-0.2,0.2-0.4,0.4-0.4h6.5c0.2,0,0.4,0.2,0.4,0.4
					C53.6,207,53.5,207.2,53.2,207.2z M41.8,207.2h-6.5c-0.2,0-0.4-0.2-0.4-0.4c0-0.2,0.2-0.4,0.4-0.4h6.5c0.2,0,0.4,0.2,0.4,0.4
					C42.2,207,42,207.2,41.8,207.2z"/>
				<path class="st3" d="M30.4,207.2h-3.2c-0.2,0-0.4-0.2-0.4-0.4v-3.2c0-0.2,0.2-0.4,0.4-0.4c0.2,0,0.4,0.2,0.4,0.4v2.8h2.8
					c0.2,0,0.4,0.2,0.4,0.4C30.8,207,30.6,207.2,30.4,207.2z"/>
				<path class="st3" d="M27.2,199.1c-0.2,0-0.4-0.2-0.4-0.4v-6.5c0-0.2,0.2-0.4,0.4-0.4c0.2,0,0.4,0.2,0.4,0.4v6.5
					C27.6,199,27.4,199.1,27.2,199.1z M27.2,187.7c-0.2,0-0.4-0.2-0.4-0.4v-6.5c0-0.2,0.2-0.4,0.4-0.4c0.2,0,0.4,0.2,0.4,0.4v6.5
					C27.6,187.5,27.4,187.7,27.2,187.7z M27.2,176.3c-0.2,0-0.4-0.2-0.4-0.4v-6.5c0-0.2,0.2-0.4,0.4-0.4c0.2,0,0.4,0.2,0.4,0.4v6.5
					C27.6,176.1,27.4,176.3,27.2,176.3z M27.2,164.9c-0.2,0-0.4-0.2-0.4-0.4V158c0-0.2,0.2-0.4,0.4-0.4c0.2,0,0.4,0.2,0.4,0.4v6.5
					C27.6,164.7,27.4,164.9,27.2,164.9z M27.2,153.5c-0.2,0-0.4-0.2-0.4-0.4v-6.5c0-0.2,0.2-0.4,0.4-0.4c0.2,0,0.4,0.2,0.4,0.4v6.5
					C27.6,153.3,27.4,153.5,27.2,153.5z M27.2,142c-0.2,0-0.4-0.2-0.4-0.4v-6.5c0-0.2,0.2-0.4,0.4-0.4c0.2,0,0.4,0.2,0.4,0.4v6.5
					C27.6,141.9,27.4,142,27.2,142z M27.2,130.6c-0.2,0-0.4-0.2-0.4-0.4v-6.5c0-0.2,0.2-0.4,0.4-0.4c0.2,0,0.4,0.2,0.4,0.4v6.5
					C27.6,130.5,27.4,130.6,27.2,130.6z M27.2,119.2c-0.2,0-0.4-0.2-0.4-0.4v-6.5c0-0.2,0.2-0.4,0.4-0.4c0.2,0,0.4,0.2,0.4,0.4v6.5
					C27.6,119,27.4,119.2,27.2,119.2z M27.2,107.8c-0.2,0-0.4-0.2-0.4-0.4v-6.5c0-0.2,0.2-0.4,0.4-0.4c0.2,0,0.4,0.2,0.4,0.4v6.5
					C27.6,107.6,27.4,107.8,27.2,107.8z M27.2,96.4c-0.2,0-0.4-0.2-0.4-0.4v-6.5c0-0.2,0.2-0.4,0.4-0.4c0.2,0,0.4,0.2,0.4,0.4V96
					C27.6,96.2,27.4,96.4,27.2,96.4z M27.2,85c-0.2,0-0.4-0.2-0.4-0.4V78c0-0.2,0.2-0.4,0.4-0.4c0.2,0,0.4,0.2,0.4,0.4v6.5
					C27.6,84.8,27.4,85,27.2,85z"/>
				<path class="st3" d="M27.2,73.6c-0.2,0-0.4-0.2-0.4-0.4V70c0-0.2,0.2-0.4,0.4-0.4h3.2c0.2,0,0.4,0.2,0.4,0.4
					c0,0.2-0.2,0.4-0.4,0.4h-2.8v2.8C27.6,73.4,27.4,73.6,27.2,73.6z"/>
				<path class="st3" d="M121.8,70.4h-6.5c-0.2,0-0.4-0.2-0.4-0.4c0-0.2,0.2-0.4,0.4-0.4h6.5c0.2,0,0.4,0.2,0.4,0.4
					C122.2,70.2,122,70.4,121.8,70.4z M110.4,70.4h-6.5c-0.2,0-0.4-0.2-0.4-0.4c0-0.2,0.2-0.4,0.4-0.4h6.5c0.2,0,0.4,0.2,0.4,0.4
					C110.8,70.2,110.6,70.4,110.4,70.4z M98.9,70.4h-6.5c-0.2,0-0.4-0.2-0.4-0.4c0-0.2,0.2-0.4,0.4-0.4h6.5c0.2,0,0.4,0.2,0.4,0.4
					C99.3,70.2,99.2,70.4,98.9,70.4z M87.5,70.4H81c-0.2,0-0.4-0.2-0.4-0.4c0-0.2,0.2-0.4,0.4-0.4h6.5c0.2,0,0.4,0.2,0.4,0.4
					C87.9,70.2,87.7,70.4,87.5,70.4z M76.1,70.4h-6.5c-0.2,0-0.4-0.2-0.4-0.4c0-0.2,0.2-0.4,0.4-0.4h6.5c0.2,0,0.4,0.2,0.4,0.4
					C76.5,70.2,76.3,70.4,76.1,70.4z M64.7,70.4h-6.5c-0.2,0-0.4-0.2-0.4-0.4c0-0.2,0.2-0.4,0.4-0.4h6.5c0.2,0,0.4,0.2,0.4,0.4
					C65.1,70.2,64.9,70.4,64.7,70.4z M53.2,70.4h-6.5c-0.2,0-0.4-0.2-0.4-0.4c0-0.2,0.2-0.4,0.4-0.4h6.5c0.2,0,0.4,0.2,0.4,0.4
					C53.6,70.2,53.5,70.4,53.2,70.4z M41.8,70.4h-6.5c-0.2,0-0.4-0.2-0.4-0.4c0-0.2,0.2-0.4,0.4-0.4h6.5c0.2,0,0.4,0.2,0.4,0.4
					C42.2,70.2,42,70.4,41.8,70.4z"/>
				<path class="st3" d="M129.9,73.6c-0.2,0-0.4-0.2-0.4-0.4v-2.8h-2.8c-0.2,0-0.4-0.2-0.4-0.4c0-0.2,0.2-0.4,0.4-0.4h3.2
					c0.2,0,0.4,0.2,0.4,0.4v3.2C130.3,73.4,130.1,73.6,129.9,73.6z"/>
				<path class="st3" d="M129.9,199.1c-0.2,0-0.4-0.2-0.4-0.4v-6.5c0-0.2,0.2-0.4,0.4-0.4c0.2,0,0.4,0.2,0.4,0.4v6.5
					C130.3,199,130.1,199.1,129.9,199.1z M129.9,187.7c-0.2,0-0.4-0.2-0.4-0.4v-6.5c0-0.2,0.2-0.4,0.4-0.4c0.2,0,0.4,0.2,0.4,0.4
					v6.5C130.3,187.5,130.1,187.7,129.9,187.7z M129.9,176.3c-0.2,0-0.4-0.2-0.4-0.4v-6.5c0-0.2,0.2-0.4,0.4-0.4
					c0.2,0,0.4,0.2,0.4,0.4v6.5C130.3,176.1,130.1,176.3,129.9,176.3z M129.9,164.9c-0.2,0-0.4-0.2-0.4-0.4V158
					c0-0.2,0.2-0.4,0.4-0.4c0.2,0,0.4,0.2,0.4,0.4v6.5C130.3,164.7,130.1,164.9,129.9,164.9z M129.9,153.5c-0.2,0-0.4-0.2-0.4-0.4
					v-6.5c0-0.2,0.2-0.4,0.4-0.4c0.2,0,0.4,0.2,0.4,0.4v6.5C130.3,153.3,130.1,153.5,129.9,153.5z M129.9,142
					c-0.2,0-0.4-0.2-0.4-0.4v-6.5c0-0.2,0.2-0.4,0.4-0.4c0.2,0,0.4,0.2,0.4,0.4v6.5C130.3,141.9,130.1,142,129.9,142z M129.9,130.6
					c-0.2,0-0.4-0.2-0.4-0.4v-6.5c0-0.2,0.2-0.4,0.4-0.4c0.2,0,0.4,0.2,0.4,0.4v6.5C130.3,130.5,130.1,130.6,129.9,130.6z
					 M129.9,119.2c-0.2,0-0.4-0.2-0.4-0.4v-6.5c0-0.2,0.2-0.4,0.4-0.4c0.2,0,0.4,0.2,0.4,0.4v6.5C130.3,119,130.1,119.2,129.9,119.2
					z M129.9,107.8c-0.2,0-0.4-0.2-0.4-0.4v-6.5c0-0.2,0.2-0.4,0.4-0.4c0.2,0,0.4,0.2,0.4,0.4v6.5
					C130.3,107.6,130.1,107.8,129.9,107.8z M129.9,96.4c-0.2,0-0.4-0.2-0.4-0.4v-6.5c0-0.2,0.2-0.4,0.4-0.4c0.2,0,0.4,0.2,0.4,0.4
					V96C130.3,96.2,130.1,96.4,129.9,96.4z M129.9,85c-0.2,0-0.4-0.2-0.4-0.4V78c0-0.2,0.2-0.4,0.4-0.4c0.2,0,0.4,0.2,0.4,0.4v6.5
					C130.3,84.8,130.1,85,129.9,85z"/>
			</g>
			<rect x="43.2" y="151.1" class="st3" width="49.4" height="5.7"/>
			<rect x="43.2" y="182.2" class="st3" width="49.4" height="5.7"/>
		</g>
		<g>
			<path class="st2" d="M10.2,210.9c0,8.3,6.8,15.1,15.1,15.1H136c8.3,0,15.1-6.8,15.1-15.1c0-8.3-6.8-15.1-15.1-15.1
				c-1.3,0-2.6,0.2-3.8,0.5c-3.2-8.6-11.5-14.4-20.8-14.4c-1.8,0-3.6,0.2-5.4,0.7c-2.2-7.5-7.3-14.4-14.4-19.3
				c-7.4-5-16.7-7.8-26.2-7.8c-23.1,0-41.8,15.9-41.8,35.4c0,1.7,0.1,3.4,0.4,5C16.2,196.6,10.2,203.1,10.2,210.9L10.2,210.9z"/>
			<path class="st0" d="M136,226.3H25.3c-8.5,0-15.5-6.9-15.5-15.5c0-7.7,5.9-14.4,13.6-15.3c-0.2-1.5-0.4-3.1-0.4-4.7
				c0-19.7,18.9-35.8,42.2-35.8c9.6,0,19,2.8,26.5,7.9c7.1,4.9,12.3,11.6,14.5,19.1c1.7-0.4,3.4-0.6,5.1-0.6c9.3,0,17.7,5.8,21,14.4
				c1.2-0.3,2.4-0.4,3.6-0.4c8.5,0,15.5,6.9,15.5,15.5S144.5,226.3,136,226.3L136,226.3z M65.3,155.9c-22.9,0-41.4,15.7-41.4,35
				c0,1.6,0.1,3.3,0.4,5c0,0.1,0,0.2-0.1,0.3c-0.1,0.1-0.2,0.1-0.3,0.2c-7.4,0.7-13.3,7.1-13.3,14.6c0,8.1,6.6,14.7,14.7,14.7H136
				c8.1,0,14.7-6.6,14.7-14.7s-6.6-14.7-14.7-14.7c-1.2,0-2.5,0.2-3.7,0.5c-0.2,0.1-0.4-0.1-0.5-0.2c-3.2-8.5-11.4-14.2-20.4-14.2
				c-1.8,0-3.6,0.2-5.3,0.7c-0.2,0.1-0.4-0.1-0.5-0.3c-2.1-7.4-7.2-14.2-14.3-19C84,158.6,74.7,155.9,65.3,155.9L65.3,155.9z"/>
		</g>
		<g>
			<circle class="st2" cx="37.1" cy="51.2" r="35.7"/>
			<path class="st3" d="M37.1,87.3C17.2,87.3,1,71.1,1,51.2s16.2-36.1,36.1-36.1s36.1,16.2,36.1,36.1S57,87.3,37.1,87.3L37.1,87.3z
				 M37.1,16C17.6,16,1.8,31.8,1.8,51.2s15.8,35.3,35.3,35.3s35.3-15.8,35.3-35.3S56.5,16,37.1,16L37.1,16z"/>
		</g>
		<g>
			<line class="st5" x1="223.2" y1="249.5" x2="195.2" y2="199.8"/>
			
				<rect x="89" y="230.2" transform="matrix(0.4903 -0.8716 0.8716 0.4903 -137.5803 225.8716)" class="st3" width="70.7" height="0.8"/>
			<circle class="st6" cx="191.7" cy="104" r="12"/>
			<path class="st2" d="M170.9,196.1c-6.8,0-12.4,5.6-12.4,12.4c0,6.8,5.6,12.4,12.4,12.4s12.4-5.6,12.4-12.4
				C183.3,201.7,177.7,196.1,170.9,196.1z"/>
			<circle class="st3" cx="169.2" cy="153.1" r="58"/>
			<path d="M206.1,108.3l-0.6,0.6c8.4,10.2,13,23.1,13,36.4c0,31.6-25.7,57.3-57.3,57.3c-13.3,0-26.2-4.6-36.4-13l-0.6,0.6
				c11.1,13.4,27.4,21.2,44.8,21.2c32,0,58-26,58-58C227.3,135.7,219.6,119.4,206.1,108.3L206.1,108.3z"/>
			<g>
				<g>
					<circle class="st3" cx="162.5" cy="139" r="16.6"/>
					<path class="st7" d="M162.5,156c-9.4,0-17-7.6-17-17c0-9.4,7.6-17,17-17c9.4,0,17,7.6,17,17C179.5,148.4,171.9,156,162.5,156z
						 M162.5,122.8c-8.9,0-16.2,7.3-16.2,16.2s7.3,16.2,16.2,16.2c8.9,0,16.2-7.3,16.2-16.2S171.4,122.8,162.5,122.8L162.5,122.8z"
						/>
				</g>
				<g>
					<path d="M172.1,125.4c1.9,2.7,3.1,6,3.1,9.6c0,9.2-7.4,16.6-16.6,16.6c-3.6,0-6.9-1.1-9.6-3.1c3,4.2,8,7,13.6,7
						c9.2,0,16.6-7.4,16.6-16.6C179.1,133.4,176.4,128.4,172.1,125.4L172.1,125.4z"/>
					<path d="M162.5,156c-5.5,0-10.7-2.7-13.9-7.2c-0.1-0.2-0.1-0.4,0-0.5c0.1-0.1,0.4-0.2,0.5,0c2.8,2,6,3,9.4,3
						c8.9,0,16.2-7.3,16.2-16.2c0-3.4-1-6.6-3-9.4c-0.1-0.2-0.1-0.4,0-0.5c0.1-0.1,0.4-0.2,0.5,0c4.5,3.2,7.2,8.4,7.2,13.9
						C179.5,148.4,171.9,156,162.5,156L162.5,156z M150.8,150.2c3,3.2,7.3,5,11.7,5c8.9,0,16.2-7.3,16.2-16.2c0-4.5-1.8-8.7-5-11.7
						c1.2,2.4,1.9,5.1,1.9,7.8c0,9.4-7.6,17-17,17C155.8,152.1,153.2,151.4,150.8,150.2L150.8,150.2z"/>
				</g>
			</g>
			<g>
				<circle class="st2" cx="210.6" cy="119.4" r="21.7"/>
				<path class="st8" d="M210.6,141.4c-12.2,0-22.1-9.9-22.1-22.1s9.9-22.1,22.1-22.1s22.1,9.9,22.1,22.1S222.7,141.4,210.6,141.4z
					 M210.6,98.1c-11.7,0-21.3,9.5-21.3,21.3s9.5,21.3,21.3,21.3s21.3-9.5,21.3-21.3S222.3,98.1,210.6,98.1z"/>
			</g>
			<g>
				<circle class="st2" cx="125.4" cy="176.1" r="21.7"/>
				<path class="st8" d="M125.4,198.2c-12.2,0-22.1-9.9-22.1-22.1s9.9-22.1,22.1-22.1s22.1,9.9,22.1,22.1S137.6,198.2,125.4,198.2z
					 M125.4,154.9c-11.7,0-21.3,9.5-21.3,21.3s9.5,21.3,21.3,21.3s21.3-9.5,21.3-21.3S137.1,154.9,125.4,154.9z"/>
			</g>
			<g>
				<circle class="st2" cx="197" cy="192.3" r="28.2"/>
				<path class="st9" d="M197,220.9c-15.8,0-28.6-12.8-28.6-28.6s12.8-28.6,28.6-28.6s28.6,12.8,28.6,28.6S212.7,220.9,197,220.9z
					 M197,164.5c-15.3,0-27.8,12.5-27.8,27.8s12.5,27.8,27.8,27.8s27.8-12.5,27.8-27.8S212.3,164.5,197,164.5z"/>
			</g>
			<g>
				<path class="st8" d="M223.3,101.8c2.6,3.6,4.1,8,4.1,12.7c0,12-9.7,21.7-21.7,21.7c-4.7,0-9.1-1.5-12.7-4.1
					c3.9,5.4,10.3,9,17.5,9c12,0,21.7-9.7,21.7-21.7C232.2,112.1,228.7,105.8,223.3,101.8L223.3,101.8z"/>
				<path class="st8" d="M210.6,141.4c-7,0-13.7-3.4-17.9-9.1c-0.1-0.2-0.1-0.4,0-0.5c0.1-0.1,0.4-0.2,0.5,0c3.6,2.6,8,4,12.5,4
					c11.7,0,21.3-9.5,21.3-21.3c0-4.5-1.4-8.8-4-12.5c-0.1-0.2-0.1-0.4,0-0.5c0.1-0.1,0.4-0.2,0.5,0c5.7,4.1,9.1,10.8,9.1,17.9
					C232.6,131.5,222.7,141.4,210.6,141.4L210.6,141.4z M194.9,133.7c4,4.3,9.7,6.9,15.7,6.9c11.7,0,21.3-9.5,21.3-21.3
					c0-6-2.5-11.7-6.9-15.7c1.9,3.3,2.8,7,2.8,10.8c0,12.2-9.9,22.1-22.1,22.1C201.9,136.6,198.2,135.6,194.9,133.7L194.9,133.7z"/>
			</g>
			<g>
				<path class="st8" d="M137.8,158.3c2.4,3.5,3.9,7.8,3.9,12.3c0,12-9.7,21.7-21.7,21.7c-4.6,0-8.8-1.4-12.3-3.9
					c3.9,5.6,10.4,9.3,17.8,9.3c12,0,21.7-9.7,21.7-21.7C147.1,168.7,143.4,162.2,137.8,158.3L137.8,158.3z"/>
				<path class="st8" d="M125.4,198.2c-7.2,0-14-3.5-18.1-9.5c-0.1-0.2-0.1-0.4,0-0.5c0.1-0.1,0.3-0.2,0.5,0
					c3.6,2.5,7.8,3.8,12.1,3.8c11.7,0,21.3-9.5,21.3-21.3c0-4.4-1.3-8.5-3.8-12.1c-0.1-0.2-0.1-0.4,0-0.5c0.1-0.1,0.3-0.2,0.5,0
					c5.9,4.1,9.5,10.9,9.5,18.1C147.5,188.3,137.6,198.2,125.4,198.2L125.4,198.2z M109.3,190c4,4.7,9.9,7.4,16.1,7.4
					c11.7,0,21.3-9.5,21.3-21.3c0-6.2-2.7-12.1-7.4-16.1c1.8,3.3,2.8,6.9,2.8,10.7c0,12.2-9.9,22.1-22.1,22.1
					C116.2,192.7,112.5,191.8,109.3,190L109.3,190z"/>
			</g>
			<g>
				<path class="st8" d="M214.3,170.1c3.7,4.8,5.9,10.8,5.9,17.3c0,15.6-12.6,28.2-28.2,28.2c-6.5,0-12.5-2.2-17.3-5.9
					c5.2,6.6,13.2,10.9,22.2,10.9c15.6,0,28.2-12.6,28.2-28.2C225.2,183.3,220.9,175.2,214.3,170.1L214.3,170.1z"/>
				<path class="st8" d="M197,220.9c-8.9,0-17.1-4-22.5-11l-2-2.5l2.5,2c4.9,3.8,10.8,5.8,17.1,5.8c15.3,0,27.8-12.5,27.8-27.8
					c0-6.2-2-12.1-5.8-17.1l-2-2.5l2.5,2c7,5.5,11,13.7,11,22.5C225.5,208.1,212.7,220.9,197,220.9L197,220.9z M177.1,211.7
					c5.2,5.3,12.3,8.3,19.8,8.3c15.3,0,27.8-12.5,27.8-27.8c0-7.6-3-14.6-8.3-19.8c2.7,4.5,4.2,9.6,4.2,14.9
					c0,15.8-12.8,28.6-28.6,28.6C186.7,215.9,181.6,214.5,177.1,211.7z"/>
			</g>
			<g>
				<path class="st2" d="M151.5,95c-3.4,0-6.2,2.8-6.2,6.2c0,3.4,2.8,6.2,6.2,6.2c3.4,0,6.2-2.8,6.2-6.2C157.8,97.8,155,95,151.5,95
					z"/>
				<path class="st2" d="M169.4,148.2c-3.4,0-6.2,2.8-6.2,6.2c0,3.4,2.8,6.2,6.2,6.2c3.4,0,6.2-2.8,6.2-6.2S172.8,148.2,169.4,148.2
					z"/>
			</g>
			<g>
				<circle class="st2" cx="146.3" cy="181.9" r="5.8"/>
				<path class="st8" d="M146.3,188.1c-3.4,0-6.2-2.8-6.2-6.2c0-3.4,2.8-6.2,6.2-6.2s6.2,2.8,6.2,6.2
					C152.5,185.3,149.7,188.1,146.3,188.1z M146.3,176.5c-3,0-5.4,2.4-5.4,5.4c0,3,2.4,5.4,5.4,5.4c3,0,5.4-2.4,5.4-5.4
					C151.7,178.9,149.3,176.5,146.3,176.5z"/>
			</g>
			<g>
				<circle class="st2" cx="205" cy="166.1" r="8.8"/>
				<path class="st8" d="M205,175.3c-5.1,0-9.2-4.1-9.2-9.2c0-5.1,4.1-9.2,9.2-9.2c5.1,0,9.2,4.1,9.2,9.2
					C214.2,171.2,210.1,175.3,205,175.3z M205,157.6c-4.6,0-8.4,3.8-8.4,8.4s3.8,8.4,8.4,8.4s8.4-3.8,8.4-8.4S209.7,157.6,205,157.6
					z"/>
			</g>
			<g>
				<circle class="st2" cx="215.8" cy="97.7" r="4.1"/>
				<path class="st8" d="M215.8,102.2c-2.5,0-4.5-2-4.5-4.5c0-2.5,2-4.5,4.5-4.5c2.5,0,4.5,2,4.5,4.5
					C220.3,100.2,218.3,102.2,215.8,102.2z M215.8,94c-2.1,0-3.7,1.7-3.7,3.7c0,2.1,1.7,3.7,3.7,3.7c2.1,0,3.7-1.7,3.7-3.7
					C219.5,95.6,217.8,94,215.8,94z"/>
			</g>
			<path class="st3" d="M233.1,172.9c-2.5,0-4.5,2-4.5,4.5c0,2.5,2,4.5,4.5,4.5c2.5,0,4.5-2,4.5-4.5
				C237.6,174.9,235.6,172.9,233.1,172.9z"/>
			<g>
				<path class="st3" d="M102,230.2c-1.2-0.4-2.4-0.3-3.6,0.2c-2.3,1.1-3.3,3.9-2.1,6.2c0.8,1.6,2.5,2.6,4.2,2.6
					c0.7,0,1.4-0.2,2.1-0.5c2.3-1.1,3.3-3.9,2.1-6.2C104.2,231.5,103.2,230.6,102,230.2L102,230.2z"/>
				<path class="st3" d="M135.7,267.9c-0.6-1.1-1.5-2-2.7-2.4c-1.2-0.4-2.4-0.3-3.6,0.2c-2.3,1.1-3.3,3.9-2.1,6.2
					c0.8,1.6,2.5,2.6,4.2,2.6c0.7,0,1.4-0.2,2.1-0.5C135.9,273,136.9,270.2,135.7,267.9L135.7,267.9z"/>
				<path d="M83.3,274.7c-2.3,1.1-3.3,3.9-2.1,6.2c0.6,1.1,1.5,2,2.7,2.4c0.5,0.2,1,0.2,1.5,0.2c0.7,0,1.4-0.2,2.1-0.5
					c1.1-0.6,2-1.5,2.4-2.7c0.4-1.2,0.3-2.4-0.2-3.6C88.4,274.5,85.6,273.5,83.3,274.7L83.3,274.7z"/>
			</g>
			<path class="st3" d="M106.2,288.7c-0.2,0-0.4,0-0.7,0c-15.1-0.4-27.1-12.9-26.7-28c0.4-15.1,12.9-27.1,28-26.7
				c3.5,0.1,6.8,0.8,10,2.1c0.2,0.1,0.3,0.3,0.2,0.5c-0.1,0.2-0.3,0.3-0.5,0.2c-3.1-1.3-6.3-2-9.7-2.1
				c-14.6-0.3-26.8,11.3-27.2,25.9s11.3,26.8,25.9,27.2c7.1,0.2,13.8-2.4,19-7.3c5.1-4.9,8.1-11.5,8.2-18.6
				c0.2-8.4-3.4-16.2-10-21.4c-0.2-0.1-0.2-0.4-0.1-0.6c0.1-0.2,0.4-0.2,0.6-0.1c6.7,5.4,10.5,13.4,10.3,22
				c-0.2,7.3-3.2,14.1-8.5,19.1C119.9,286,113.3,288.7,106.2,288.7L106.2,288.7z"/>
			<g>
				<g>
					<circle class="st3" cx="128.8" cy="116.7" r="9.1"/>
					<path class="st7" d="M128.8,126.2c-5.2,0-9.5-4.2-9.5-9.5s4.2-9.5,9.5-9.5c5.2,0,9.5,4.2,9.5,9.5S134,126.2,128.8,126.2z
						 M128.8,108.1c-4.8,0-8.7,3.9-8.7,8.7s3.9,8.7,8.7,8.7c4.8,0,8.7-3.9,8.7-8.7S133.6,108.1,128.8,108.1z"/>
				</g>
				<g>
					<path d="M134.1,109.3c1.1,1.5,1.7,3.3,1.7,5.3c0,5-4.1,9.1-9.1,9.1c-2,0-3.8-0.6-5.3-1.7c1.6,2.3,4.3,3.8,7.4,3.8
						c5,0,9.1-4.1,9.1-9.1C137.9,113.7,136.4,111,134.1,109.3L134.1,109.3z"/>
					<path d="M128.8,126.2c-3.1,0-5.9-1.5-7.7-4c-0.1-0.2-0.1-0.4,0-0.5c0.1-0.1,0.4-0.2,0.5,0c1.5,1,3.2,1.6,5,1.6
						c4.8,0,8.7-3.9,8.7-8.7c0-1.8-0.6-3.5-1.6-5c-0.1-0.2-0.1-0.4,0-0.5c0.1-0.1,0.4-0.2,0.5,0c2.5,1.8,4,4.7,4,7.7
						C138.3,121.9,134,126.2,128.8,126.2L128.8,126.2z M123.3,123.4c1.5,1.2,3.5,2,5.5,2c4.8,0,8.7-3.9,8.7-8.7c0-2-0.7-3.9-2-5.5
						c0.4,1.1,0.6,2.2,0.6,3.3c0,5.2-4.2,9.5-9.5,9.5C125.5,124.1,124.4,123.8,123.3,123.4z"/>
				</g>
			</g>
			<g>
				<g>
					<circle class="st3" cx="197.7" cy="136" r="9.1"/>
					<path class="st7" d="M197.7,145.5c-5.2,0-9.5-4.2-9.5-9.5s4.2-9.5,9.5-9.5c5.2,0,9.5,4.2,9.5,9.5S203,145.5,197.7,145.5z
						 M197.7,127.3c-4.8,0-8.7,3.9-8.7,8.7s3.9,8.7,8.7,8.7c4.8,0,8.7-3.9,8.7-8.7S202.5,127.3,197.7,127.3z"/>
				</g>
				<g>
					<path d="M203,128.6c1.1,1.5,1.7,3.3,1.7,5.3c0,5-4.1,9.1-9.1,9.1c-2,0-3.8-0.6-5.3-1.7c1.6,2.3,4.3,3.8,7.4,3.8
						c5,0,9.1-4.1,9.1-9.1C206.8,132.9,205.3,130.2,203,128.6L203,128.6z"/>
					<path d="M197.7,145.5c-3.1,0-5.9-1.5-7.7-4c-0.1-0.2-0.1-0.4,0-0.5c0.1-0.1,0.4-0.2,0.5,0c1.5,1,3.2,1.6,5,1.6
						c4.8,0,8.7-3.9,8.7-8.7c0-1.8-0.6-3.5-1.6-5c-0.1-0.2-0.1-0.4,0-0.5c0.1-0.1,0.4-0.2,0.5,0c2.5,1.8,4,4.7,4,7.7
						C207.2,141.2,203,145.5,197.7,145.5L197.7,145.5z M192.3,142.7c1.5,1.2,3.5,2,5.5,2c4.8,0,8.7-3.9,8.7-8.7c0-2-0.7-3.9-2-5.5
						c0.4,1.1,0.6,2.2,0.6,3.3c0,5.2-4.2,9.5-9.5,9.5C194.4,143.3,193.3,143.1,192.3,142.7L192.3,142.7z"/>
				</g>
			</g>
		</g>
		<g>
			<defs>
				<path id="SVGID_00000048497558382615773580000004321571140207061640_" d="M32.3,56.1c4.9-8.5,16.6-11.2,25.5-12.8
					c11.8-2.2,24.1-2.4,35.9,0.2c11.5,2.6,21.5,9,32.5,12.9c16.8,5.9,32.5,1.3,48-6.3c6-2.9,11.8-6.1,17.5-9.5
					C242.3,11,284.6,30,295.3,44.2s33.2,56.5-22.1,113.2c0,0-19.4,18-3.2,43.3c16.2,25.3,51.4,49.4,33.6,83.8
					c-17.8,34.4-65.2,30.4-109.4,14.6c0,0-26.1-11.5-56.5,0.4c-27.8,10.8-57.2,20.3-85.9,5.7c-32.2-16.4-38.7-55.6-22-85.9
					c6.4-24.9,10.9-50.6,13.1-76.3c1.2-13.6,1.7-27.5,0.2-41.1c-0.6-5.8-1.6-11.6-3.4-17.2c-2.4-7.5-8.6-14.3-8.9-22.4
					C30.8,59.9,31.3,57.9,32.3,56.1L32.3,56.1z"/>
			</defs>
			<clipPath id="SVGID_00000144321838296400425610000006398048406390092678_">
				<use xlink:href="#SVGID_00000048497558382615773580000004321571140207061640_"  style="overflow:visible;"/>
			</clipPath>
			<g style="clip-path:url(#SVGID_00000144321838296400425610000006398048406390092678_);">
				<g>
					<rect x="42.9" y="250.9" class="st2" width="77.4" height="77.4"/>
					<path class="st3" d="M43.3,250.9h76.6c0.2,0,0.4,0.2,0.4,0.4v14.3c0,0.2-0.2,0.4-0.4,0.4H43.3c-0.2,0-0.4-0.2-0.4-0.4v-14.3
						C42.9,251.1,43.1,250.9,43.3,250.9z"/>
					<g>
						<circle class="st2" cx="105.7" cy="258.6" r="2"/>
						<circle class="st2" cx="113.3" cy="258.6" r="2"/>
					</g>
					<path class="st2" d="M92.5,259H50.1c-0.2,0-0.4-0.2-0.4-0.4c0-0.2,0.2-0.4,0.4-0.4h42.4c0.2,0,0.4,0.2,0.4,0.4
						C92.9,258.8,92.7,259,92.5,259z"/>
					<g>
						<path class="st9" d="M86,321.5H50c-0.2,0-0.4-0.2-0.4-0.4v-48.8c0-0.2,0.2-0.4,0.4-0.4h36c0.2,0,0.4,0.2,0.4,0.4v48.8
							C86.4,321.3,86.2,321.5,86,321.5z M50.4,320.7h35.2v-48H50.4V320.7z"/>
						<path class="st9" d="M113.1,294.4H90.9c-0.2,0-0.4-0.2-0.4-0.4v-21.7c0-0.2,0.2-0.4,0.4-0.4h22.2c0.2,0,0.4,0.2,0.4,0.4V294
							C113.5,294.3,113.4,294.4,113.1,294.4L113.1,294.4z M91.3,293.6h21.4v-20.9H91.3V293.6z"/>
						<path class="st9" d="M113.1,321.5H90.9c-0.2,0-0.4-0.2-0.4-0.4v-21.7c0-0.2,0.2-0.4,0.4-0.4h22.2c0.2,0,0.4,0.2,0.4,0.4v21.7
							C113.5,321.3,113.4,321.5,113.1,321.5L113.1,321.5z M91.3,320.7h21.4v-20.9H91.3V320.7z"/>
					</g>
				</g>
			</g>
		</g>
		<g>
			<circle class="st2" cx="237.1" cy="275.1" r="47.3"/>
			<path class="st3" d="M237.1,322.8c-26.3,0-47.7-21.4-47.7-47.7s21.4-47.7,47.7-47.7s47.7,21.4,47.7,47.7S263.4,322.8,237.1,322.8
				z M237.1,228.3c-25.8,0-46.9,21-46.9,46.9s21,46.9,46.9,46.9s46.9-21,46.9-46.9S262.9,228.3,237.1,228.3z"/>
		</g>
		<g>
			<line class="st11" x1="37.1" y1="51.1" x2="37.1" y2="62.9"/>
			<line class="st11" x1="37.1" y1="51.1" x2="37.1" y2="70"/>
			<polygon class="st3" points="55.6,40.4 55.6,61.7 37.1,72.4 18.7,61.7 18.7,40.4 37.1,29.7 			"/>
			<g>
				<defs>
					<polygon id="SVGID_00000160869203447171873690000008219489948024841663_" points="55.6,40.4 55.6,61.7 37.1,72.4 18.7,61.7 
						18.7,40.4 37.1,29.7 					"/>
				</defs>
				<clipPath id="SVGID_00000085968426529931034570000011736094703510178235_">
					<use xlink:href="#SVGID_00000160869203447171873690000008219489948024841663_"  style="overflow:visible;"/>
				</clipPath>
				<g style="clip-path:url(#SVGID_00000085968426529931034570000011736094703510178235_);">
					<path d="M22.2,23.7c-1.1,1.2-1.6,3.6-2.1,5.1c-1,3.1-1.8,6.4-1.9,9.7c-0.1,4.6,2.9,8.8,5.8,12.2c2.8,3.2,6.4,5.6,9,9
						c0.5,0.6,0.9,1.3,1.2,1.9c2.2,4.1,2.9,8.9,2.4,13.5c0,0.2-0.1,1.6-0.4,1.6l-25,0.9L9.3,24.2C9.3,24.2,22.6,23.2,22.2,23.7
						L22.2,23.7z"/>
				</g>
			</g>
			<g>
				<defs>
					<polygon id="SVGID_00000172436767319740619740000001551144003380837282_" points="55.6,40.4 55.6,61.7 37.1,72.4 18.7,61.7 
						18.7,40.4 37.1,29.7 					"/>
				</defs>
				<clipPath id="SVGID_00000123431541774770998140000002547388921764013503_">
					<use xlink:href="#SVGID_00000172436767319740619740000001551144003380837282_"  style="overflow:visible;"/>
				</clipPath>
				<g style="clip-path:url(#SVGID_00000123431541774770998140000002547388921764013503_);">
					<path class="st2" d="M56,40.2c-0.1-0.2-0.4-0.3-0.7-0.2L37.1,50.5L18.9,40c-0.2-0.1-0.5-0.1-0.7,0.2c-0.1,0.2-0.1,0.5,0.2,0.7
						l18.2,10.5v24.5c0,0.3,0.2,0.5,0.5,0.5c0.3,0,0.5-0.2,0.5-0.5V51.4l18.2-10.5C56.1,40.7,56.2,40.4,56,40.2L56,40.2z"/>
				</g>
			</g>
		</g>
		<g>
			<line class="st11" x1="236.7" y1="275.1" x2="236.7" y2="289.6"/>
			<line class="st11" x1="236.7" y1="275.1" x2="236.7" y2="298.3"/>
			<polygon class="st3" points="259.4,262 259.4,288.2 236.7,301.3 214,288.2 214,262 236.7,248.9 			"/>
			<g>
				<defs>
					<polygon id="SVGID_00000068650855539157462690000003586291606053824170_" points="259.4,262 259.4,288.2 236.7,301.3 
						214,288.2 214,262 236.7,248.9 					"/>
				</defs>
				<clipPath id="SVGID_00000059988209085810132010000010228198031736121021_">
					<use xlink:href="#SVGID_00000068650855539157462690000003586291606053824170_"  style="overflow:visible;"/>
				</clipPath>
				<g style="clip-path:url(#SVGID_00000059988209085810132010000010228198031736121021_);">
					<path d="M218.3,241.5c-1.4,1.5-2,4.4-2.6,6.2c-1.2,3.8-2.3,7.9-2.3,12c-0.1,5.6,3.6,10.9,7.1,15c3.4,3.9,7.9,6.8,11,11
						c0.6,0.8,1.1,1.6,1.5,2.4c2.7,5,3.5,11,3,16.6c0,0.3-0.1,2-0.5,2l-30.8,1.1l-2.4-65.6C202.5,242.1,218.9,240.9,218.3,241.5
						L218.3,241.5z"/>
				</g>
			</g>
			<g>
				<defs>
					<polygon id="SVGID_00000098903084389073046360000003639616609492915330_" points="259.4,262 259.4,288.2 236.7,301.3 
						214,288.2 214,262 236.7,248.9 					"/>
				</defs>
				<clipPath id="SVGID_00000168808955944851158370000010097178493700077245_">
					<use xlink:href="#SVGID_00000098903084389073046360000003639616609492915330_"  style="overflow:visible;"/>
				</clipPath>
				<g style="clip-path:url(#SVGID_00000168808955944851158370000010097178493700077245_);">
					<path class="st2" d="M259.8,261.8c-0.1-0.2-0.4-0.3-0.7-0.2l-22.4,13l-22.5-13c-0.2-0.1-0.5-0.1-0.7,0.2
						c-0.1,0.2-0.1,0.5,0.2,0.7l22.5,13v30.1c0,0.3,0.2,0.5,0.5,0.5s0.5-0.2,0.5-0.5v-30.1l22.4-13C259.9,262.3,260,262,259.8,261.8
						z"/>
				</g>
			</g>
		</g>
		<g>
			<g>
				<circle class="st2" cx="299.1" cy="185" r="16.8"/>
				<path class="st8" d="M299.1,202.2c-9.5,0-17.2-7.7-17.2-17.2c0-9.5,7.7-17.2,17.2-17.2c9.5,0,17.2,7.7,17.2,17.2
					C316.3,194.5,308.6,202.2,299.1,202.2z M299.1,168.6c-9,0-16.4,7.4-16.4,16.4c0,9,7.4,16.4,16.4,16.4c9,0,16.4-7.4,16.4-16.4
					C315.5,175.9,308.1,168.6,299.1,168.6z"/>
			</g>
			<g>
				<path class="st8" d="M307.9,170.7c1.6,2.6,2.5,5.6,2.5,8.8c0,9.3-7.5,16.8-16.8,16.8c-3.2,0-6.2-0.9-8.8-2.5c3,4.8,8.3,8,14.3,8
					c9.3,0,16.8-7.5,16.8-16.8C315.9,178.9,312.7,173.6,307.9,170.7L307.9,170.7z"/>
				<path class="st8" d="M299.1,202.2c-6,0-11.5-3.1-14.7-8.2c-0.1-0.2-0.1-0.4,0.1-0.5c0.1-0.1,0.3-0.2,0.5-0.1
					c2.6,1.6,5.5,2.4,8.6,2.4c9,0,16.4-7.4,16.4-16.4c0-3-0.8-6-2.4-8.6c-0.1-0.2-0.1-0.4,0.1-0.5c0.1-0.1,0.3-0.2,0.5-0.1
					c5.1,3.2,8.2,8.6,8.2,14.7C316.3,194.5,308.6,202.2,299.1,202.2L299.1,202.2z M286.1,194.9c3.1,4.1,7.9,6.5,13,6.5
					c9,0,16.4-7.4,16.4-16.4c0-5.2-2.4-10-6.5-13c1.1,2.3,1.7,4.9,1.7,7.5c0,9.5-7.7,17.2-17.2,17.2
					C291,196.7,288.4,196.1,286.1,194.9L286.1,194.9z"/>
			</g>
		</g>
		<g>
			<g>
				<circle class="st2" cx="107.1" cy="42" r="16.6"/>
				<path class="st8" d="M107.1,59.1c-9.4,0-17-7.6-17-17s7.6-17,17-17s17,7.6,17,17S116.4,59.1,107.1,59.1z M107.1,25.8
					c-8.9,0-16.2,7.3-16.2,16.2s7.3,16.2,16.2,16.2s16.2-7.3,16.2-16.2S116,25.8,107.1,25.8z"/>
			</g>
			<g>
				<path class="st8" d="M116.7,28.5c1.9,2.7,3.1,6,3.1,9.6c0,9.2-7.4,16.6-16.6,16.6c-3.6,0-6.9-1.1-9.6-3.1c3,4.2,8,7,13.6,7
					c9.2,0,16.6-7.4,16.6-16.6C123.7,36.5,120.9,31.5,116.7,28.5L116.7,28.5z"/>
				<path class="st8" d="M107.1,59.1c-5.5,0-10.7-2.7-13.9-7.2c-0.1-0.2-0.1-0.4,0-0.5c0.1-0.1,0.4-0.2,0.5,0c2.8,2,6,3,9.4,3
					c8.9,0,16.2-7.3,16.2-16.2c0-3.4-1-6.6-3-9.4c-0.1-0.2-0.1-0.4,0-0.5c0.1-0.1,0.4-0.2,0.5,0c4.5,3.2,7.2,8.4,7.2,13.9
					C124.1,51.4,116.4,59.1,107.1,59.1L107.1,59.1z M95.3,53.2c3,3.2,7.3,5,11.7,5c8.9,0,16.2-7.3,16.2-16.2c0-4.5-1.8-8.7-5-11.7
					c1.2,2.4,1.9,5.1,1.9,7.8c0,9.4-7.6,17-17,17C100.4,55.1,97.7,54.5,95.3,53.2z"/>
			</g>
		</g>
		<g>
			<g>
				<circle class="st2" cx="8.6" cy="107" r="8.2"/>
				<path class="st8" d="M8.6,115.6c-4.7,0-8.6-3.9-8.6-8.6c0-4.7,3.9-8.6,8.6-8.6s8.6,3.9,8.6,8.6C17.2,111.7,13.3,115.6,8.6,115.6
					z M8.6,99.2c-4.3,0-7.8,3.5-7.8,7.8c0,4.3,3.5,7.8,7.8,7.8s7.8-3.5,7.8-7.8C16.4,102.7,12.9,99.2,8.6,99.2z"/>
			</g>
			<g>
				<path class="st8" d="M12.9,100c0.8,1.2,1.2,2.7,1.2,4.3c0,4.5-3.7,8.2-8.2,8.2c-1.6,0-3-0.4-4.3-1.2c1.4,2.3,4,3.9,7,3.9
					c4.5,0,8.2-3.7,8.2-8.2C16.8,104,15.2,101.4,12.9,100z"/>
				<path class="st8" d="M8.6,115.6c-3,0-5.7-1.5-7.3-4.1c-0.1-0.2-0.1-0.4,0.1-0.5c0.1-0.1,0.3-0.2,0.5-0.1
					c1.2,0.8,2.6,1.2,4.1,1.2c4.3,0,7.8-3.5,7.8-7.8c0-1.4-0.4-2.9-1.2-4.1c-0.1-0.2-0.1-0.4,0.1-0.5c0.1-0.1,0.3-0.2,0.5-0.1
					c2.6,1.6,4.1,4.3,4.1,7.3C17.2,111.7,13.3,115.6,8.6,115.6L8.6,115.6z M2.9,112.4c1.5,1.5,3.5,2.4,5.7,2.4
					c4.3,0,7.8-3.5,7.8-7.8c0-2.2-0.9-4.2-2.4-5.7c0.3,0.9,0.5,1.9,0.5,3c0,4.7-3.9,8.6-8.6,8.6C4.9,112.9,3.9,112.7,2.9,112.4
					L2.9,112.4z"/>
			</g>
		</g>
		<g>
			<g>
				<circle class="st2" cx="317.6" cy="157.3" r="8"/>
				<path class="st8" d="M317.6,165.7c-4.6,0-8.4-3.8-8.4-8.4s3.8-8.4,8.4-8.4s8.4,3.8,8.4,8.4S322.2,165.7,317.6,165.7z
					 M317.6,149.7c-4.2,0-7.6,3.4-7.6,7.6s3.4,7.6,7.6,7.6c4.2,0,7.6-3.4,7.6-7.6S321.8,149.7,317.6,149.7z"/>
			</g>
			<g>
				<path class="st8" d="M322.2,150.7c0.9,1.3,1.5,2.9,1.5,4.7c0,4.4-3.6,8-8,8c-1.7,0-3.3-0.6-4.7-1.5c1.5,2,3.8,3.4,6.5,3.4
					c4.4,0,8-3.6,8-8C325.6,154.6,324.3,152.2,322.2,150.7L322.2,150.7z"/>
				<path class="st8" d="M317.6,165.7c-2.7,0-5.3-1.3-6.9-3.6c-0.1-0.2-0.1-0.4,0-0.5c0.1-0.1,0.4-0.2,0.5,0
					c1.3,0.9,2.8,1.4,4.4,1.4c4.2,0,7.6-3.4,7.6-7.6c0-1.6-0.5-3.1-1.4-4.4c-0.1-0.2-0.1-0.4,0-0.5c0.1-0.1,0.4-0.2,0.5,0
					c2.2,1.6,3.6,4.2,3.6,6.9C326,161.9,322.2,165.7,317.6,165.7L317.6,165.7z M313,163.4c1.3,1,2.9,1.6,4.6,1.6
					c4.2,0,7.6-3.4,7.6-7.6c0-1.7-0.6-3.3-1.6-4.6c0.3,0.9,0.4,1.8,0.4,2.7c0,4.6-3.8,8.4-8.4,8.4
					C314.7,163.8,313.8,163.7,313,163.4L313,163.4z"/>
			</g>
		</g>
	</g>
</g>
</svg>
