<?xml version="1.0" encoding="utf-8"?>
<!-- Generator: Adobe Illustrator 28.3.0, SVG Export Plug-In . SVG Version: 6.00 Build 0)  -->
<svg version="1.1" id="uuid-07f88b0d-0a06-4081-8aaa-9b335cce561d"
	 xmlns="http://www.w3.org/2000/svg" xmlns:xlink="http://www.w3.org/1999/xlink" x="0px" y="0px" viewBox="0 0 378 321"
	 style="enable-background:new 0 0 378 321;" xml:space="preserve">
<style type="text/css">
	.st0{fill:#FFE8CC;}
	.st1{fill:#F8AE54;}
	.st2{fill:#FFFFFF;}
	.st3{fill:#FCCB8F;}
	.st4{fill:#EE0000;}
	.st5{fill:none;stroke:#EE0000;stroke-width:3;stroke-linecap:round;stroke-linejoin:round;}
	.st6{fill:#664934;}
	.st7{fill:none;stroke:#8F0000;stroke-width:3;stroke-linecap:round;stroke-linejoin:round;}
	.st8{fill:none;stroke:#664934;stroke-width:3;stroke-linecap:round;stroke-linejoin:round;}
	.st9{fill:none;stroke:#FCCB8F;stroke-width:3;stroke-miterlimit:10;}
	.st10{clip-path:url(#SVGID_00000163768460521451006740000010962981066457926043_);}
	.st11{fill:#FFE9DC;}
	.st12{opacity:0.5;fill:#D8A381;enable-background:new    ;}
	.st13{fill:none;stroke:#000000;stroke-width:3;stroke-linecap:round;stroke-miterlimit:10;}
	.st14{clip-path:url(#SVGID_00000042701427658932295510000013113789385487904129_);}
	.st15{fill:#F56D6D;}
	.st16{clip-path:url(#SVGID_00000183934628865033149680000000761491724817307314_);}
	.st17{fill:#F9D5C0;}
	.st18{fill:#F5921B;}
	.st19{fill:#EDBEA1;}
	.st20{fill:#CA6C0F;}
</style>
<g>
	<path class="st0" d="M6.2,133.7C-22.1,65.1,46.9-13.8,116.4,2.1c13.4,3.1,26.2,9.6,35.4,20.2c14.9,17.2,15.9,39.9,29.9,57.6
		c14.7,18.7,37.4,16.4,58.9,18.1c46.6,3.7,86.7,11,111.4,57.3c15.7,29.5,14.4,66.5,2.8,97.2c-7.4,19.5-19.6,37.7-36.5,50
		c-43.9,31.9-114,21.1-150.1-22.4c-23.4-28.2-31.6-60.3-62.6-81.4c-19.5-13.3-49.1-15.5-68.7-28.6C21.9,160.2,12,147.6,6.2,133.7z"
		/>
	<rect x="80.1" y="32.4" class="st1" width="106.6" height="109.2"/>
	<rect x="219" y="173.4" class="st1" width="108.2" height="111.5"/>
	<g>
		<rect x="214.2" y="168.6" class="st2" width="108.2" height="111.5"/>
		<path class="st3" d="M323,280.8H213.6V168H323L323,280.8L323,280.8z M214.9,279.5h106.9V169.3H214.9V279.5z"/>
	</g>
	<g>
		<path class="st4" d="M121.4,236.4h136.3c0.2,0,0.4,0.2,0.4,0.4v9c0,0.2-0.2,0.4-0.4,0.4H121.4c-0.2,0-0.4-0.2-0.4-0.4v-9
			C121,236.6,121.2,236.4,121.4,236.4z"/>
		<path class="st4" d="M185.4,219.9h46.5c0.2,0,0.4,0.2,0.4,0.4v9c0,0.2-0.2,0.4-0.4,0.4h-46.5c-0.2,0-0.4-0.2-0.4-0.4v-9
			C185,220.1,185.2,219.9,185.4,219.9z"/>
		<path class="st4" d="M63.4,219.9h108.1c0.2,0,0.4,0.2,0.4,0.4v9c0,0.2-0.2,0.4-0.4,0.4H63.4c-0.2,0-0.4-0.2-0.4-0.4v-9
			C63,220.1,63.2,219.9,63.4,219.9z"/>
	</g>
	<g>
		<path class="st4" d="M260.5,56.5h109.3c0.2,0,0.4,0.2,0.4,0.4v9c0,0.2-0.2,0.4-0.4,0.4H260.5c-0.2,0-0.4-0.2-0.4-0.4v-9
			C260.1,56.7,260.3,56.5,260.5,56.5z"/>
		<path class="st4" d="M206.3,56.5h39.4c0.2,0,0.4,0.2,0.4,0.4v9c0,0.2-0.2,0.4-0.4,0.4h-39.4c-0.2,0-0.4-0.2-0.4-0.4v-9
			C205.9,56.7,206.1,56.5,206.3,56.5z"/>
		<path class="st4" d="M199.5,40.4h76.1c0.2,0,0.4,0.2,0.4,0.4v8.3c0,0.2-0.2,0.4-0.4,0.4h-76.1c-0.2,0-0.4-0.2-0.4-0.4v-8.3
			C199.1,40.6,199.3,40.4,199.5,40.4z"/>
		<path class="st4" d="M290.2,40.4h39.4c0.2,0,0.4,0.2,0.4,0.4v8.3c0,0.2-0.2,0.4-0.4,0.4h-39.4c-0.2,0-0.4-0.2-0.4-0.4v-8.3
			C289.8,40.6,290,40.4,290.2,40.4z"/>
	</g>
	<g>
		<path class="st4" d="M58.5,89h-23c-0.3-1.9-1.9-3.3-3.9-3.3s-3.6,1.4-3.9,3.3h-10c-0.3,0-0.6,0.3-0.6,0.6s0.3,0.6,0.6,0.6h10
			c0.3,1.9,1.9,3.3,3.9,3.3s3.6-1.4,3.9-3.3h23c0.4,0,0.6-0.3,0.6-0.6S58.8,89,58.5,89L58.5,89z M34.1,90.3
			c-0.3,1.2-1.3,2.1-2.6,2.1s-2.3-0.9-2.6-2.1c-0.1-0.2-0.1-0.4-0.1-0.6s0-0.4,0.1-0.6c0.3-1.2,1.3-2.1,2.6-2.1s2.3,0.9,2.6,2.1
			c0.1,0.2,0.1,0.4,0.1,0.6S34.2,90.1,34.1,90.3z"/>
		<path class="st4" d="M58.5,101.2h-5.9c-0.3-1.9-1.9-3.3-3.9-3.3c-2,0-3.6,1.4-3.9,3.3H17.6c-0.3,0-0.6,0.3-0.6,0.6
			s0.3,0.6,0.6,0.6h27.1c0.3,1.9,1.9,3.3,3.9,3.3s3.6-1.4,3.9-3.3h5.9c0.4,0,0.6-0.3,0.6-0.6S58.8,101.2,58.5,101.2z M51.2,102.4
			c-0.3,1.2-1.3,2.1-2.6,2.1s-2.3-0.9-2.6-2.1c-0.1-0.2-0.1-0.4-0.1-0.6s0-0.4,0.1-0.6c0.3-1.2,1.3-2.1,2.6-2.1s2.3,0.9,2.6,2.1
			c0.1,0.2,0.1,0.4,0.1,0.6S51.3,102.2,51.2,102.4z"/>
		<path class="st2" d="M34.2,89.7c0,0.2,0,0.4-0.1,0.6c-0.3,1.2-1.3,2.1-2.6,2.1s-2.3-0.9-2.6-2.1c-0.1-0.2-0.1-0.4-0.1-0.6
			s0-0.4,0.1-0.6c0.3-1.2,1.3-2.1,2.6-2.1s2.3,0.9,2.6,2.1C34.2,89.2,34.2,89.4,34.2,89.7z"/>
		<path class="st2" d="M51.3,101.8c0,0.2,0,0.4-0.1,0.6c-0.3,1.2-1.3,2.1-2.6,2.1s-2.3-0.9-2.6-2.1c-0.1-0.2-0.1-0.4-0.1-0.6
			s0-0.4,0.1-0.6c0.3-1.2,1.3-2.1,2.6-2.1s2.3,0.9,2.6,2.1C51.3,101.4,51.3,101.6,51.3,101.8z"/>
		<g>
			<path class="st4" d="M58.5,113.3H42.4c-0.3-1.9-1.9-3.3-3.9-3.3c-2,0-3.6,1.4-3.9,3.3h-17c-0.3,0-0.6,0.3-0.6,0.6
				s0.3,0.6,0.6,0.6h17c0.3,1.9,1.9,3.3,3.9,3.3c2,0,3.6-1.4,3.9-3.3h16.1c0.4,0,0.6-0.3,0.6-0.6S58.8,113.3,58.5,113.3L58.5,113.3z
				 M41.1,114.6c-0.3,1.2-1.3,2.1-2.6,2.1c-1.3,0-2.3-0.9-2.6-2.1c-0.1-0.2-0.1-0.4-0.1-0.6s0-0.4,0.1-0.6c0.3-1.2,1.3-2.1,2.6-2.1
				c1.3,0,2.3,0.9,2.6,2.1c0.1,0.2,0.1,0.4,0.1,0.6S41.2,114.4,41.1,114.6z"/>
			<path class="st2" d="M41.2,113.9c0,0.2,0,0.4-0.1,0.6c-0.3,1.2-1.3,2.1-2.6,2.1c-1.3,0-2.3-0.9-2.6-2.1c-0.1-0.2-0.1-0.4-0.1-0.6
				s0-0.4,0.1-0.6c0.3-1.2,1.3-2.1,2.6-2.1c1.3,0,2.3,0.9,2.6,2.1C41.2,113.5,41.2,113.7,41.2,113.9z"/>
		</g>
	</g>
	<g>
		<rect x="150.7" y="154.4" class="st2" width="45.1" height="45.1"/>
		<path class="st4" d="M195.8,200.1h-45.1c-0.4,0-0.6-0.3-0.6-0.6v-45.1c0-0.4,0.3-0.6,0.6-0.6h45.1c0.4,0,0.6,0.3,0.6,0.6v45.1
			C196.4,199.9,196.2,200.1,195.8,200.1z M151.3,198.9h43.8V155h-43.8V198.9z"/>
	</g>
	<rect x="199.5" y="154.4" class="st2" width="45.1" height="45.1"/>
	<rect x="213.7" y="168" class="st3" width="31.1" height="31.7"/>
	<rect x="200.2" y="123.1" class="st2" width="43.8" height="27"/>
	<g>
		<path class="st4" d="M244.6,104.9h-45.1c-0.3,0-0.6,0.3-0.6,0.6v45.1c0,0.4,0.3,0.6,0.6,0.6h45.1c0.4,0,0.6-0.3,0.6-0.6v-45.1
			C245.3,105.2,245,104.9,244.6,104.9L244.6,104.9z M244,150h-43.8v-27H244V150z"/>
		<path class="st4" d="M245.3,104.9v0.6c0-0.4-0.3-0.6-0.6-0.6H245.3z"/>
	</g>
	<circle class="st2" cx="227.6" cy="114.1" r="2.3"/>
	<circle class="st2" cx="236.6" cy="114.1" r="2.3"/>
	<path class="st2" d="M208.6,114.1c0,0.4-0.3,0.6-0.6,0.6h-9.1v-1.3h9.1C208.3,113.5,208.6,113.8,208.6,114.1z"/>
	<rect x="151.3" y="123.1" class="st2" width="43.8" height="27"/>
	<g>
		<path class="st4" d="M195.8,104.9h-45.1c-0.3,0-0.6,0.3-0.6,0.6v45.1c0,0.4,0.3,0.6,0.6,0.6h45.1c0.4,0,0.6-0.3,0.6-0.6v-45.1
			C196.4,105.2,196.2,104.9,195.8,104.9L195.8,104.9z M195.2,150h-43.8v-27h43.8V150z"/>
		<path class="st4" d="M150.7,104.9c-0.3,0-0.6,0.3-0.6,0.6v-0.6H150.7z"/>
	</g>
	<path class="st2" d="M196.5,113.5v1.3h-40.7c-0.3,0-0.6-0.3-0.6-0.6s0.3-0.6,0.6-0.6H196.5z"/>
	<rect x="150" y="102.8" class="st1" width="36.7" height="20.4"/>
	<rect x="199.5" y="154.4" class="st5" width="45.1" height="45.1"/>
	<rect x="151.4" y="123.1" class="st1" width="35.3" height="18.5"/>
	<rect x="150" y="119.6" class="st4" width="1.4" height="22.1"/>
	<g>
		<rect x="75.2" y="27.4" class="st2" width="106.6" height="109.2"/>
		<path class="st3" d="M182.4,137.3H74.5V26.8h107.9V137.3L182.4,137.3z M75.8,136h105.3v-108H75.8V136z"/>
	</g>
	<path d="M102.3,136.7c0,0-0.4-25.8,8.3-45.9c0,0,3.8-6.1,6.1-7.7c0,0,0.4,1.1,5.5,0.8c5.1-0.2,15,3.8,17.9,9
		c3,5.2,5.2,11.1,6.8,20.1s10,23.5,10,23.5L102.3,136.7"/>
	<path class="st6" d="M196.5,50.4l-4.6-2.5c-0.5-0.3-1.1-0.3-1.6-0.1l-8.9,4.1c0,0,0,0-0.1,0c-1.2,0.7-3.6,7-4.6,9.7
		c-0.1,0.3,0,0.7,0.4,0.8c0.1,0,0.1,0,0.2,0c0.1,0,0.3,0,0.4-0.1l5.2,5.1c0,0,5.2-3.8,6.7-4.7c1.5-1,5.3-4.9,6.3-6.5
		c1.1-1.6-0.5-2.5-2-1.7c-1.5,0.8-3.9,3-5.5,3.1c0,0,0.1-2.7,3.1-4.4l3.8-1.9l0.5,0.3c0.3,0.2,0.7,0.1,0.9-0.2
		C196.9,51,196.8,50.6,196.5,50.4L196.5,50.4z"/>
	<path d="M183.1,68.1c-0.2,0-0.4-0.1-0.5-0.3c-0.2-0.3-0.1-0.7,0.1-0.9c0.2-0.2,5.2-3.8,6.7-4.8c1.4-0.9,5.1-4.8,6.2-6.3
		c0.2-0.4,0.3-0.7,0.2-0.8c-0.2-0.2-0.7-0.3-1.4,0c-0.5,0.3-1.2,0.7-1.8,1.2c-1.3,0.9-2.7,1.9-3.9,2c-0.3,0-0.7-0.2-0.7-0.6
		c0-0.4,0.2-0.7,0.6-0.7c0.9-0.1,2.1-1,3.3-1.8c0.7-0.5,1.4-1,2-1.3c1.1-0.5,2.3-0.4,2.9,0.3c0.5,0.6,0.5,1.5-0.1,2.4
		c-1.1,1.7-5,5.7-6.5,6.7c-1.5,1-6.6,4.7-6.7,4.7C183.4,68.1,183.3,68.2,183.1,68.1L183.1,68.1z"/>
	<path d="M204.9,49.2c-0.1-0.3-0.4-0.4-0.7-0.4l-5.6,0.5c-0.1,0-0.1,0-0.1,0l-16.3,5.6c-0.2,0.1-0.3,0.2-0.4,0.3
		c-0.4,0.9-0.7,2.9,1,4.1c0.1,0.1,0.2,0.1,0.4,0.1c0.1,0,0.1,0,0.2,0l16.9-6.3c0.1,0,0.1-0.1,0.2-0.1l4.2-3.1
		C204.9,49.7,205,49.4,204.9,49.2L204.9,49.2z"/>
	<line class="st7" x1="119" y1="80.9" x2="119" y2="84"/>
	<path class="st6" d="M148.9,63.4c0-0.1-3.2-5.2-2.9-10.9c0-0.4-0.3-0.6-0.6-0.7c-0.2,0-0.3,0.1-0.5,0.2l-2.4-5.4l-10,3.4
		l-13.2,23.4l-0.5,10.5l3.3,0c7.9,0.3,13,3.9,14.8,5.5l0,0.7c0,0.4,0.2,0.7,0.6,0.7c0,0,0,0,0,0c0.3,0,0.6-0.3,0.6-0.6l0.8-12.6
		c1.4,1.1,4.1,2.6,6.5,1.1c3-2,2.1-10.4,1.8-12.2l1.6-2.4C149,63.9,149,63.7,148.9,63.4L148.9,63.4z"/>
	<path d="M138.2,67.7c-1.3,0-2.2-0.9-2.3-1c-0.3-0.2-0.3-0.6,0-0.9c0.2-0.3,0.6-0.3,0.9,0c0,0,0.7,0.7,1.5,0.6
		c0.5,0,0.9-0.3,1.3-0.9c0.2-0.3,0.6-0.3,0.9-0.1c0.3,0.2,0.3,0.6,0.1,0.9c-0.6,0.8-1.4,1.3-2.2,1.4
		C138.4,67.7,138.3,67.7,138.2,67.7L138.2,67.7z"/>
	<path d="M147.2,62c-0.3,0-0.5-0.2-0.6-0.4c-0.1-0.3,0-0.7,0.4-0.8c1.5-0.6,1.6-2.8,1.6-3.9l-5.9,0.3c-0.4,0-0.7-0.2-0.7-0.6
		c0-0.4,0.2-0.7,0.6-0.7l6.6-0.4c0.3,0,0.6,0.2,0.7,0.5c0,0.2,0.7,4.7-2.3,5.8C147.3,62,147.3,62,147.2,62L147.2,62z"/>
	<path class="st4" d="M189.5,68.3c-0.1-0.2-0.2-0.4-0.5-0.4c-11.7-2.9-12.6-8.4-12.6-8.5c0-0.3-0.2-0.5-0.4-0.5
		c-0.2-0.1-0.5,0-0.7,0.2c-1.4,1.5-3.3,3.8-5.4,6.4c-5.5,6.5-13.1,15.5-15.6,16.9c-3.9,2.1-11.7,3.9-16.6,4.3
		c-0.3,0-0.6,0.3-0.6,0.6l0,1.7c-4.3-3.5-10-5.6-15.9-5.6c-0.4,0-0.8,0-1.2,0c-1.4,0.1-2,0.1-2.5-0.6c-0.2-0.3-0.6-0.3-0.8-0.2
		c-1.8,1.1-3.6,3-5.5,5.9c-1.4,2.3-2.6,4.7-3.5,7.2c-1.1,3-1.8,6.2-2.5,9.2l-0.2,1c-2.3,10-3.4,20.2-3.4,30.4c0,0.4,0.3,0.6,0.6,0.6
		l0,0c0.4,0,0.6-0.3,0.6-0.6l52.8,0c0.1,0.1,0.1,0.2,0.2,0.3c0.2,0.3,0.6,0.4,0.9,0.2c0.3-0.2,0.4-0.6,0.2-0.9
		c-3.9-6.5-6.9-13.6-8.9-20.9c-0.5-1.9-0.9-3.8-1.4-5.7c-0.4-1.8-0.8-3.6-1.3-5.4c6-0.5,13.9-3.2,18.6-6.3
		c4.8-3.3,8.7-7.7,12.2-12.1c2-2.5,4.6-5.8,6.8-8.8c2.9-3.7,5.6-7.2,6.2-7.9C189.5,68.8,189.6,68.5,189.5,68.3L189.5,68.3z"/>
	<path d="M136.2,136.4c-3.4-4.3-7.3-29.2-7.3-29.4c0-0.2-0.2-0.4-0.4-0.4l0,0c-0.2,0-0.4,0.2-0.4,0.4c-2.1,15.3,0.9,29.6,0.9,29.8
		c0,0.2,0.2,0.4,0.4,0.4h6.5c0.2,0,0.3-0.1,0.4-0.3C136.4,136.7,136.3,136.5,136.2,136.4L136.2,136.4z"/>
	<path d="M146.1,47.6c-0.2-0.4-0.4-0.9-0.6-1.4c-0.2-0.7-0.1-1.5,0-2.4c0.1-1.2,0.3-2.6-0.6-3.9c-0.9-1.2-2.5-1.7-4.7-1.4
		c-0.8,0.1-1-0.1-1.5-0.9c-0.2-0.3-0.4-0.5-0.6-0.9c-0.7-0.9-1.7-1.3-3-1.4c-1.7-0.1-3.6,0.6-4.7,1.7c-1,1-1.9,1.5-2.8,1.5h0
		c-0.6,0-1.2-0.3-1.8-0.6c-0.2-0.1-0.5-0.3-0.8-0.4c-1-0.5-2.2-0.5-3.3,0c-1.2,0.5-2.2,1.4-2.8,2.7c-1,2.3-2.8,3.5-5.8,5
		c-1.9,0.9-3,2.7-2.9,4.6c0.1,1.1,0.6,2,1.1,2.9c0.3,0.6,0.4,1.2,0.3,1.8c-0.2,1.8-1.1,3.5-2,5c-1.5,2.5,0.1,5.1,1.4,6.8
		c0.5,0.7,1.1,1.3,1.6,2c1.2,1.4,2.3,2.6,3.1,4.2c1.1,2.1,1.4,3.7,1.1,4.8c-0.1,0.4-0.2,0.8-0.2,1.2c0,0.9,0.3,1.7,0.9,2.2
		c1.1,1.1,2.9,1.2,3.9,1.2c0.2,0,0.4,0,0.5,0c1.9-0.1,3.6-1,5.2-1.7c1.6-0.8,3.2-1.8,4.6-3c2-1.7,3.3-4,4.3-6
		c0.1-0.1,0.1-0.3,0.2-0.4c0.6-1.2,1.5-2.8,1.2-4.1c-0.1-0.6-0.6-1.1-1-1.5l-0.2-0.2c-1-1.1-1.9-3.3-1.6-4.9
		c0.1-0.8,0.5-1.3,1.2-1.6c0.5-0.3,0.9-0.3,1.2-0.2c0.6,0.2,1.1,1.1,1.4,1.8c0.4,0.7,0.7,1.3,1.3,1.4c0.1,0,0.2,0,0.3,0.1
		c0.5,0.1,1.2,0.3,1.8-0.2c0.7-0.5,1-1.5,1.1-3.2c0.2-2,1.2-3.9,2.8-5.1c0.6-0.3,1-0.9,1.1-1.6C147.1,49.9,146.6,48.8,146.1,47.6
		L146.1,47.6z"/>
	<path class="st2" d="M147.1,108.5c-0.3,0-0.6-0.2-0.6-0.5c-2.9-14.1-8.1-17.9-11.8-19.5c-0.3-0.1-0.5-0.5-0.3-0.8
		c0.1-0.3,0.5-0.5,0.8-0.3c8.3,3.6,11.1,13.4,12.6,20.4c0.1,0.3-0.2,0.7-0.5,0.8C147.2,108.5,147.2,108.5,147.1,108.5L147.1,108.5z"
		/>
	<path class="st8" d="M147.9,62.9c-0.6-1.2-1.1-2.4-1.6-3.7"/>
	<line class="st9" x1="181.8" y1="136.7" x2="75.2" y2="136.7"/>
	<g>
		<defs>
			<rect id="SVGID_1_" x="217.7" y="179" width="95.9" height="100.6"/>
		</defs>
		<clipPath id="SVGID_00000129925952866183361770000010879544761919015609_">
			<use xlink:href="#SVGID_1_"  style="overflow:visible;"/>
		</clipPath>
		<g style="clip-path:url(#SVGID_00000129925952866183361770000010879544761919015609_);">
			<g>
				<path class="st11" d="M260,207.3c-0.1,1.8-0.2,4.3-0.2,8.1c0,0.7,0.6,1.3,1.1,1.8c1.2,1.1,3.4,3.7,1.5,7.1
					c-0.1,0.2-0.1,0.5,0.1,0.7c0.5,0.5,1.6,0.9,3.4,0.3c0,0,0.8,1.7,1.8,2.5c0,0,0,0.5,0.8,1.4c0.4,0.4,0.8,1.9,1.2,2.4
					c0,0,0.1,0.1,0.1,0.1c0.9,0.8,2.1,0.9,3.1,0.2c0.7-0.5,1.3-1,1.9-1.4c1.1-0.7,2.1-1.5,3.1-2.4c0.5-0.4,1-0.9,1.4-1.4l0,0
					c0,0,1.1,3.7,1,5.2l0.3,1.3l14.7-8.1v-0.7l-4.7-11.5L269,199.6l-7.5,6.3C261.5,205.9,260.1,206.4,260,207.3"/>
				<path class="st12" d="M279.3,226.9c0.6-0.7,1.2-1.4,1.7-2.2c0.8-1.1,0.8-2.6,0.8-4.1c0-0.1,0.1-0.1,0.1-0.1c0.1,0,0.1,0,0.1,0.1
					c0.5,1.3,1.4,3.2-0.8,6.4c0,0,0.8,3.4,0.9,4.5l-1.8,1.4l-0.2-0.7c0,0,0.2-0.8-0.8-4.5L279.3,226.9L279.3,226.9z"/>
				<path class="st12" d="M283.1,209.6c-0.1-0.1-0.3-0.2-0.5-0.1l-0.8,0.8c-0.3,0.1-0.6,0.4-0.5,0.7c0.2,1.3-0.1,2.7-0.8,3.8
					c-0.1,0.2-0.2,0.6,0,0.8c0.4,0.2,0.7-0.2,0.9-0.5c0.6-0.6,1.1-1.3,1.4-2.1c0.3-0.8,0.5-1.7,0.5-2.5v-0.4
					C283.3,210,283.2,209.8,283.1,209.6L283.1,209.6z"/>
				<path d="M268.1,213.6c-0.6-0.1-1.2-0.1-1.8-0.1c-0.6,0.1-1.2,0.3-1.7,0.5c-0.5,0.2-1,0.5-1.5,0.9c-0.2,0.2-0.4,0.4-0.6,0.6
					l-0.7,0.7c-0.2,0.3-0.6,0.3-0.9,0c-0.3-0.2-0.3-0.6,0-0.9c0,0,0,0,0,0l0,0l0.7-0.6c0.3-0.2,0.5-0.4,0.8-0.6
					c0.6-0.4,1.2-0.7,1.8-0.9c0.6-0.2,1.3-0.3,2-0.3c0.7,0,1.3,0.2,1.9,0.4c0.1,0,0.2,0.2,0.1,0.3l0,0
					C268.3,213.6,268.2,213.6,268.1,213.6L268.1,213.6L268.1,213.6z"/>
				<ellipse transform="matrix(0.896 -0.444 0.444 0.896 -69.1259 139.8568)" cx="264" cy="217.5" rx="0.9" ry="1.1"/>
				<path d="M262.8,217.6c-0.1,0-0.2-0.1-0.3-0.2c-0.1-0.2-0.1-0.5,0.1-0.6c1.1-0.9,2.3-1.7,4.6-1.6c0.2,0,0.4,0.2,0.4,0.4
					c0,0.2-0.2,0.4-0.4,0.4c-2-0.1-3,0.6-4.1,1.4C263,217.6,262.9,217.6,262.8,217.6L262.8,217.6z"/>
				<path class="st13" d="M281.8,210.7c-0.1-0.8-0.4-1.5-0.8-2.2c-0.4-0.6-1-1.1-1.8-1.2c-0.7-0.1-1.5,0.2-1.9,0.8
					c-0.5,0.6-0.7,1.3-0.8,2c-0.1,0.3-0.2,0.6-0.3,0.8"/>
				<path d="M293.5,189c-1.6-1.5-3.6-3.5-6.2-4.2c-1.5-0.4-3.7-0.3-5.2,2.8c-0.2,0.4-0.5,1-0.7,1.5c-0.2-0.1-0.5-0.1-0.7-0.2
					c-1.4-0.4-2.8-0.5-4.3-0.5c-3.5,0.1-6.3,1.7-9.5,3.5c-2.4,1.4-5.3,3.3-7,6.1c-1.8,2.8-2,6.5-0.5,9.5l0,0
					c0.1,0.2,0.4,0.3,0.7,0.2c0,0,0.1,0,0.1-0.1c0.1-0.1,0.9-0.5,1.3-0.8c1.8-1,4.9-2.8,7.3-2.2c1.1,0.3,1.5,1.2,1.9,2.3
					c0.1,0.2,0.1,0.3,0.2,0.5c0.7,1.7,1.8,3.6,4.1,4c0.1,0,0.2,0,0.3,0.1c0.5,0.1,0.9,0.2,1.2-0.1c0.1-0.2,0.2-0.4,0.1-0.6
					c-0.4-1.3,0.3-2.4,1.2-3.2c0.8,0,1.5,0.1,2,0.5c1.3,0.9,1.5,2.8,1.5,2.8c0,0.2,0.2,0.4,0.4,0.4c2.6,0.4,5.9,4.1,6.2,4.5
					c0.1,0.2,0.3,0.3,0.5,0.4c0.4,0.2,0.8,0.2,1.1,0.2c1.1,0,1.7-0.7,2-1.2c0.2-0.2,0.4-0.4,0.4-0.7c1.9-6,1.7-10.6,0.7-14.2
					c0.5,0,0.9-0.2,1.4-0.4c1.5-0.7,2.6-2.1,2.8-3.6C297.5,193.5,295.4,190.8,293.5,189L293.5,189z"/>
				<path class="st2" d="M290.6,197.7c-0.2,0-0.4-0.1-0.5-0.3c-2.5-3.9-5.5-5.3-5.5-5.3c-0.3-0.1-0.5-0.5-0.3-0.8
					c0.1-0.3,0.5-0.5,0.8-0.3c0.1,0.1,3.3,1.5,6,5.8c0.2,0.3,0.1,0.7-0.2,0.9C290.8,197.7,290.7,197.7,290.6,197.7L290.6,197.7z"/>
				<path class="st12" d="M266.5,226.4c0.1-0.1,0.2-0.2,0.2-0.3c0.1-0.1,0.2-0.2,0.2-0.4c0.1-0.2,0.2-0.5,0.3-0.7
					c0.2-0.4,0.3-0.8,0.3-1.3c-0.2,0.5-0.6,0.9-1,1.2c-0.2,0.1-0.3,0.2-0.5,0.3l-0.1,0.1c0.2,0.3,0.3,0.7,0.5,1L266.5,226.4"/>
				<g>
					<defs>
						<path id="SVGID_00000130615760853976808640000005334475786981563320_" d="M260,207.3c-0.1,1.8-0.2,4.3-0.2,8.1
							c0,0.7,0.6,1.3,1.1,1.8c1.2,1.1,3.4,3.7,1.5,7.1c-0.1,0.2-0.1,0.5,0.1,0.7c0.5,0.5,1.6,0.9,3.4,0.3c0,0,0.8,1.7,1.8,2.5
							c0,0,0,0.5,0.8,1.4c0.4,0.4,0.8,1.9,1.2,2.4c0,0,0.1,0.1,0.1,0.1c0.9,0.8,2.1,0.9,3.1,0.2c0.7-0.5,1.3-1,1.9-1.4
							c1.1-0.7,2.1-1.5,3.1-2.4c0.5-0.4,1-0.9,1.4-1.4l0,0c0,0,1.1,3.7,1,5.2l0.3,1.3l14.7-8.1v-0.7l-4.7-11.5L269,199.6l-7.5,6.3
							C261.5,205.9,260.1,206.4,260,207.3"/>
					</defs>
					<clipPath id="SVGID_00000013172665156632980940000011234858711410820021_">
						<use xlink:href="#SVGID_00000130615760853976808640000005334475786981563320_"  style="overflow:visible;"/>
					</clipPath>
					<g style="clip-path:url(#SVGID_00000013172665156632980940000011234858711410820021_);">
						<g>
							<path class="st15" d="M267.5,227.8c0,0-0.2,0.8,0.8,1.1c0,0,2.1-1.2,1.7-3.4L267.5,227.8z"/>
							<path class="st4" d="M266.9,226.7c0.3-0.1,0.6-0.2,0.8-0.4c0.3-0.1,0.5-0.3,0.8-0.5c0.3-0.2,0.5-0.3,0.7-0.5
								c0.2-0.2,0.4-0.4,0.6-0.7v0c0.1-0.1,0.2-0.1,0.3-0.1c0.1,0.1,0.1,0.2,0.1,0.2c-0.1,0.3-0.3,0.6-0.5,0.9
								c-0.2,0.3-0.4,0.5-0.7,0.8c-0.2,0.2-0.5,0.5-0.8,0.7s-0.5,0.4-0.8,0.6c-0.3,0.2-0.7,0.1-0.9-0.2c-0.2-0.3-0.1-0.6,0.1-0.8
								C266.8,226.8,266.8,226.7,266.9,226.7L266.9,226.7L266.9,226.7z"/>
						</g>
					</g>
				</g>
				<g>
					<defs>
						<rect id="SVGID_00000072986383944656932240000003630328335220958107_" x="216.8" y="172.8" width="95.4" height="106.7"/>
					</defs>
					<clipPath id="SVGID_00000065759408325763278360000007094573724007035011_">
						<use xlink:href="#SVGID_00000072986383944656932240000003630328335220958107_"  style="overflow:visible;"/>
					</clipPath>
					<g style="clip-path:url(#SVGID_00000065759408325763278360000007094573724007035011_);">
						<g>
							<path class="st17" d="M244.9,246.2c-0.8-0.9-4.7-5.7-5.2-5.9c-0.5-0.2-1.1-0.3-1.6-0.3c-0.5-0.1-1.1-0.1-1.7-0.2
								c-0.5-0.1-1.1-0.2-1.7-0.3c-0.8-0.2-1.7-0.3-2.3-0.5c-1-0.3-2.8,3.5-3.6,5.2l-2.5,1.4c-0.1,0-0.1,0.1-0.1,0.2
								c0,0.1,0.1,0.2,0.2,0.2l2.5,0.8c0,0,0,0,0.1,0c0.1,0.3,0.2,0.5,0.3,0.8c0.2,1.2,1.1,1.4,1.9,1.6l0.4,0.1c0.5,0.1,2,1,3.4,1.8
								c1.2,0.7,2.2,1.3,2.8,1.5c0.6,0.3,1.3,0.6,1.8,1c0,0,0.1,0.1,0.1,0.1h0c0.1,0,0.1,0,0.2-0.1l4.9-6.9
								C245,246.4,245,246.3,244.9,246.2L244.9,246.2z"/>
							<path class="st17" d="M245.1,246.6c-0.1,0-0.2-0.1-0.3-0.2c-2.2-2.8-4.8-5.8-5.2-6.1c-0.2-0.1-0.8-0.2-1.5-0.3
								c-0.6-0.1-1.2-0.1-1.8-0.3c-0.5-0.1-1-0.2-1.6-0.3c-0.9-0.2-1.9-0.4-2.5-0.5c-0.5,0.1-1.6,2.1-2.7,4.5l1.2,0l1.2-1.8
								c0.1-0.2,0.4-0.3,0.6-0.1c0.2,0.1,0.3,0.4,0.1,0.6l-1.3,2c-0.1,0.1-0.2,0.2-0.4,0.2l-2.1,0c-0.1,0-0.3-0.1-0.3-0.2
								c-0.1-0.1-0.1-0.3,0-0.4c1.2-2.7,2.8-5.9,3.9-5.6c0.6,0.2,1.6,0.4,2.5,0.5c0.6,0.1,1.1,0.2,1.6,0.3c0.5,0.1,1.2,0.2,1.7,0.3
								c0.8,0.1,1.4,0.2,1.8,0.4c0.5,0.3,4,4.5,5.4,6.3c0.1,0.2,0.1,0.5-0.1,0.6C245.3,246.6,245.2,246.7,245.1,246.6L245.1,246.6z"
								/>
							<polygon class="st18" points="231.2,243.7 234.9,243.9 233.4,242.3 232.1,242.3 							"/>
							<path class="st19" d="M230.9,244.5c-0.2,0-0.4-0.2-0.5-0.4c0-0.3,0.2-0.5,0.4-0.5l3.3-0.1l-0.8-0.7c-0.8-0.1-1.5-0.6-1.9-1.3
								c-0.1-0.2-0.1-0.5,0.2-0.6c0.2-0.1,0.5-0.1,0.6,0.2c0.3,0.5,0.8,0.8,1.4,0.9c0.1,0,0.2,0,0.3,0.1l1.8,1.6
								c0.1,0.1,0.2,0.3,0.1,0.5c-0.1,0.2-0.2,0.3-0.4,0.3L230.9,244.5C230.9,244.5,230.9,244.5,230.9,244.5z"/>
							<path d="M240,243.9c-0.1-0.2-0.3-0.3-0.5-0.3l-10.6-0.2c-0.1,0-0.2,0-0.3,0.1l-2.6,1.5c-0.2,0.1-0.3,0.4-0.3,0.6
								c0,0.3,0.2,0.5,0.4,0.5l2.6,0.8c0.1,0,0.1,0,0.2,0l10.3,0.2h0c0.1,0,0.2,0,0.2,0c0.1,0,0.7-0.3,1-1
								C240.6,245.4,240.5,244.7,240,243.9L240,243.9z"/>
							<g>
								<path class="st17" d="M235.8,247.5l-3.3-1.1c0,0-0.2-0.8-2-1.6c-1.8-0.8-2.1,0.7-2.1,0.7c0.6,0.5,0.9,1.1,1,1.8
									c0.2,1.3,1.3,1.3,2.3,1.6c1,0.3,5.1,2.9,6.4,3.5c0.7,0.3,1.4,0.6,1.9,1.1"/>
								<path class="st19" d="M240,254c-0.1,0-0.2,0-0.3-0.1c-0.6-0.4-1.2-0.8-1.8-1c-0.6-0.3-1.7-0.9-2.9-1.6
									c-1.4-0.8-2.9-1.7-3.4-1.8c-0.1,0-0.3-0.1-0.4-0.1c-0.9-0.2-1.9-0.5-2.2-1.8c-0.1-0.6-0.4-1.2-0.9-1.6
									c-0.1-0.1-0.2-0.3-0.1-0.4c0-0.1,0.2-0.8,0.8-1.1c0.5-0.3,1.1-0.2,1.8,0.1c1.4,0.6,2,1.3,2.2,1.6l3.2,1
									c0.2,0.1,0.3,0.3,0.3,0.5c-0.1,0.2-0.3,0.3-0.5,0.3l-3.3-1.1c-0.1,0-0.2-0.1-0.3-0.3l0,0c0,0-0.3-0.6-1.8-1.3
									c-0.3-0.1-0.8-0.3-1.1-0.1c-0.2,0.1-0.3,0.2-0.3,0.3c0.5,0.5,0.8,1.2,0.9,1.9c0.1,0.8,0.6,0.9,1.5,1.1
									c0.1,0,0.3,0.1,0.5,0.1c0.6,0.2,2.1,1,3.7,1.9c1.1,0.6,2.3,1.3,2.8,1.6c0.7,0.3,1.4,0.7,2,1.2c0.2,0.1,0.2,0.4,0.1,0.6
									C240.2,253.9,240.1,254,240,254L240,254z"/>
							</g>
						</g>
					</g>
				</g>
				<path class="st20" d="M276.8,254.8l-0.5-1l-0.6,1c0,0.1-4,5.3-30.6-11.7l-0.5-0.3l-9.5,14.6l0.5,0.4
					c1.1,0.8,23.2,15.7,35.8,15.7c2.7,0,4.9-0.7,6.4-2.3l0.1-0.1l4-7.4L276.8,254.8L276.8,254.8z"/>
				<path class="st2" d="M268.8,275.6C268.8,275.6,268.8,275.6,268.8,275.6c-0.5,0-0.9-0.4-0.9-0.9c0.1-2.3,0-4.3-0.1-6
					c-0.2-3.3-0.3-6,0.6-8.5c1-2.5,2.1-4.9,3.5-7.1c0.2-0.4,0.8-0.5,1.2-0.3c0.4,0.2,0.5,0.8,0.3,1.2c-1.3,2.2-2.4,4.5-3.3,6.8
					c-0.8,2.2-0.7,4.7-0.5,7.8c0.1,1.8,0.2,3.8,0.1,6.1C269.6,275.2,269.3,275.6,268.8,275.6L268.8,275.6z"/>
				<path class="st20" d="M305.8,239.2c4.2,6.5,4.3,15.8,4.3,15.8c0.4,16.9-5.2,39.1-5.2,39.1l-39-1.2c6.2-18.5,1.6-26.2,3.9-32.5
					c2.3-6.3,10-17.3,10-17.3l9.1-10.8l11.8,2.4L305.8,239.2z"/>
				<path d="M286.2,261.9c0-0.3-0.3-0.6-0.7-0.6c-0.3,0-0.6,0.3-0.6,0.7c0.6,20.8-4.1,32-4.1,32.1c-0.1,0.2-0.1,0.4,0,0.6
					c0.1,0.2,0.3,0.3,0.5,0.3l3.2,0.3c0,0,0,0,0.1,0c0.3,0,0.6-0.2,0.6-0.5C288.5,280,286.2,262,286.2,261.9L286.2,261.9z"/>
				<path class="st1" d="M279.1,232.7c0,0,16.8-10.1,17.6-10.3c0.8-0.2-1,2.2,1.8,6.1s5.8,8.2,7.2,10.7c0,0-11.4-12-26.1,4
					C280,239.7,279.8,236.2,279.1,232.7L279.1,232.7z"/>
				<path class="st18" d="M285.5,280.1l-28.9-6.1c-0.2-0.1-0.5,0-0.6,0.2s-0.2,0.5-0.1,0.7l2.9,5.7c0.1,0.2,0.3,0.3,0.6,0.3l26,0.4
					h0c0.3,0,0.6-0.2,0.6-0.6C286.1,280.4,285.8,280.1,285.5,280.1L285.5,280.1z"/>
				<path d="M260.3,280.7l-12.7-25c-0.1-0.2-0.3-0.3-0.5-0.3l-28-3.7c-0.2,0-0.5,0.1-0.6,0.3c-0.1,0.2-0.2,0.4-0.1,0.6l13.7,28.6
					c0.1,0.2,0.3,0.4,0.6,0.4c0.1,0,0.2,0,0.3-0.1c0.2-0.1,0.4-0.3,0.4-0.6H259l0.1,0.3c0.2,0.3,0.5,0.4,0.9,0.3
					S260.5,281,260.3,280.7L260.3,280.7z"/>
			</g>
		</g>
	</g>
	<g>
		<path class="st4" d="M377.7,221.2h-23c-0.3-1.9-1.9-3.3-3.9-3.3s-3.6,1.4-3.9,3.3h-10c-0.3,0-0.6,0.3-0.6,0.6
			c0,0.4,0.3,0.6,0.6,0.6h10c0.3,1.9,1.9,3.3,3.9,3.3s3.6-1.4,3.9-3.3h23c0.4,0,0.6-0.3,0.6-0.6C378.3,221.5,378,221.2,377.7,221.2z
			 M353.3,222.4c-0.3,1.2-1.3,2.1-2.6,2.1c-1.3,0-2.3-0.9-2.6-2.1c-0.1-0.2-0.1-0.4-0.1-0.6s0-0.4,0.1-0.6c0.3-1.2,1.3-2.1,2.6-2.1
			c1.3,0,2.3,0.9,2.6,2.1c0.1,0.2,0.1,0.4,0.1,0.6S353.4,222.2,353.3,222.4z"/>
		<path class="st4" d="M377.7,233.3h-5.9c-0.3-1.9-1.9-3.3-3.9-3.3s-3.6,1.4-3.9,3.3h-27.1c-0.3,0-0.6,0.3-0.6,0.6s0.3,0.6,0.6,0.6
			h27.1c0.3,1.9,1.9,3.3,3.9,3.3s3.6-1.4,3.9-3.3h5.9c0.4,0,0.6-0.3,0.6-0.6S378,233.3,377.7,233.3z M370.4,234.6
			c-0.3,1.2-1.3,2.1-2.6,2.1c-1.3,0-2.3-0.9-2.6-2.1c-0.1-0.2-0.1-0.4-0.1-0.6s0-0.4,0.1-0.6c0.3-1.2,1.3-2.1,2.6-2.1
			c1.3,0,2.3,0.9,2.6,2.1c0.1,0.2,0.1,0.4,0.1,0.6S370.5,234.4,370.4,234.6z"/>
		<path class="st2" d="M353.4,221.8c0,0.2,0,0.4-0.1,0.6c-0.3,1.2-1.3,2.1-2.6,2.1c-1.3,0-2.3-0.9-2.6-2.1c-0.1-0.2-0.1-0.4-0.1-0.6
			s0-0.4,0.1-0.6c0.3-1.2,1.3-2.1,2.6-2.1c1.3,0,2.3,0.9,2.6,2.1C353.4,221.4,353.4,221.6,353.4,221.8z"/>
		<path class="st2" d="M370.5,233.9c0,0.2,0,0.4-0.1,0.6c-0.3,1.2-1.3,2.1-2.6,2.1c-1.3,0-2.3-0.9-2.6-2.1c-0.1-0.2-0.1-0.4-0.1-0.6
			s0-0.4,0.1-0.6c0.3-1.2,1.3-2.1,2.6-2.1c1.3,0,2.3,0.9,2.6,2.1C370.5,233.5,370.5,233.7,370.5,233.9z"/>
		<g>
			<path class="st4" d="M377.7,245.4h-16.1c-0.3-1.9-1.9-3.3-3.9-3.3s-3.6,1.4-3.9,3.3h-17c-0.3,0-0.6,0.3-0.6,0.6
				c0,0.4,0.3,0.6,0.6,0.6h17c0.3,1.9,1.9,3.3,3.9,3.3s3.6-1.4,3.9-3.3h16.1c0.4,0,0.6-0.3,0.6-0.6
				C378.3,245.7,378,245.4,377.7,245.4z M360.3,246.7c-0.3,1.2-1.3,2.1-2.6,2.1s-2.3-0.9-2.6-2.1c-0.1-0.2-0.1-0.4-0.1-0.6
				s0-0.4,0.1-0.6c0.3-1.2,1.3-2.1,2.6-2.1s2.3,0.9,2.6,2.1c0.1,0.2,0.1,0.4,0.1,0.6S360.4,246.5,360.3,246.7z"/>
			<path class="st2" d="M360.4,246.1c0,0.2,0,0.4-0.1,0.6c-0.3,1.2-1.3,2.1-2.6,2.1s-2.3-0.9-2.6-2.1c-0.1-0.2-0.1-0.4-0.1-0.6
				s0-0.4,0.1-0.6c0.3-1.2,1.3-2.1,2.6-2.1s2.3,0.9,2.6,2.1C360.4,245.6,360.4,245.9,360.4,246.1z"/>
		</g>
	</g>
</g>
</svg>
