<?xml version="1.0" encoding="utf-8"?>
<!-- Generator: Adobe Illustrator 28.3.0, SVG Export Plug-In . SVG Version: 6.00 Build 0)  -->
<svg version="1.1" id="Layer_1" xmlns="http://www.w3.org/2000/svg" xmlns:xlink="http://www.w3.org/1999/xlink" x="0px" y="0px"
	 viewBox="0 0 495 321" style="enable-background:new 0 0 495 321;" xml:space="preserve">
<style type="text/css">
	.st0{enable-background:new    ;}
	.st1{fill:#B9DAFC;}
	.st2{clip-path:url(#SVGID_00000082334144444578035450000002426849202634827932_);}
	.st3{fill:#4394E5;}
	.st4{fill:#FFFFFF;stroke:#FFFFFF;stroke-miterlimit:10;}
	.st5{fill:none;stroke:#FFFFFF;stroke-width:3;stroke-miterlimit:10;}
	.st6{fill:#B9DAFC;stroke:#FFFFFF;stroke-width:2.23;stroke-miterlimit:10;}
	.st7{fill:#FFFFFF;}
	.st8{fill:#EE0000;}
	.st9{clip-path:url(#SVGID_00000160187852063691342880000009548005903242447025_);}
	.st10{clip-path:url(#SVGID_00000142151220885517530920000005733161748127152045_);}
	.st11{fill:#003366;}
	.st12{clip-path:url(#SVGID_00000139980203941449251260000004260663555558625677_);}
	.st13{clip-path:url(#SVGID_00000161619106630728917290000017552698256561537933_);}
	.st14{fill:#EE0000;stroke:#FFFFFF;stroke-width:2.23;stroke-miterlimit:10;}
	.st15{fill:none;stroke:#FF0000;stroke-width:3;stroke-linecap:round;stroke-linejoin:round;}
</style>
<g class="st0">
	<g id="uuid-2c394f4a-cf84-462a-a79e-245f938fce72">
		<g>
			<path class="st1" d="M68.7,110.3c-4.4-15.7-1.2-32.2,5-46.5c21.4-48.6,74-70.1,122-56.5c43,12.3,75.4,45.1,120,49.9
				c31.3,3.4,67-9.6,95.7,8.4c26,16.2,41.4,45,39.3,75.8c-1.6,24.1-14.1,46-32.3,61.6c-18.4,15.8-40.4,26.3-58.7,42.4
				c-12.8,11.3-18.7,27.4-29.4,40.2c-12.6,15-31.4,25.3-50.7,28.2c-20.3,3.1-41.4-1.7-58.6-12.8c-15.3-9.8-27.9-25.1-46.1-29.6
				c-13.2-3.3-26.2,0.2-39.1,3.3c-9,2.2-19,1-27.8-2.1c-17.5-6.1-32.5-20.3-38.9-37.8c-4.2-11.7-4.1-24.5,1-35.8
				c3.8-8.4,8.8-16.4,10.8-25.5c3.7-16.8-0.5-33.9-7.1-49.5C71.9,119.1,70.1,115.2,68.7,110.3L68.7,110.3z"/>
			<g>
				<defs>
					<path id="SVGID_1_" d="M68.7,110.3c-4.4-15.7-1.2-32.2,5-46.5c21.4-48.6,74-70.1,122-56.5c43,12.3,75.4,45.1,120,49.9
						c31.3,3.4,67-9.6,95.7,8.4c26,16.2,41.4,45,39.3,75.8c-1.6,24.1-14.1,46-32.3,61.6c-18.4,15.8-40.4,26.3-58.7,42.4
						c-12.8,11.3-18.7,27.4-29.4,40.2c-12.6,15-31.4,25.3-50.7,28.2c-20.3,3.1-41.4-1.7-58.6-12.8c-15.3-9.8-27.9-25.1-46.1-29.6
						c-13.2-3.3-26.2,0.2-39.1,3.3c-9,2.2-19,1-27.8-2.1c-17.5-6.1-32.5-20.3-38.9-37.8c-4.2-11.7-4.1-24.5,1-35.8
						c3.8-8.4,8.8-16.4,10.8-25.5c3.7-16.8-0.5-33.9-7.1-49.5C71.9,119.1,70.1,115.2,68.7,110.3L68.7,110.3z"/>
				</defs>
				<clipPath id="SVGID_00000181063981142024680320000006360988311234069182_">
					<use xlink:href="#SVGID_1_"  style="overflow:visible;"/>
				</clipPath>
				<g style="clip-path:url(#SVGID_00000181063981142024680320000006360988311234069182_);">
					<path class="st1" d="M68.7,110.3c-4.4-15.7-1.2-32.2,5-46.5c21.4-48.6,74.3-66.4,122.3-52.7c43,12.3,75.1,41.4,119.7,46.2
						c31.3,3.4,67-9.6,95.7,8.4c26,16.2,41.4,45,39.3,75.8c-1.6,24.1-14.1,46-32.3,61.6c-18.4,15.8-40.4,26.3-58.7,42.4
						c-12.8,11.3-18.7,27.4-29.4,40.2c-12.6,15-31.4,25.3-50.7,28.2c-20.3,3.1-41.4-1.7-58.6-12.8c-15.3-9.8-27.9-25.1-46.1-29.6
						c-13.2-3.3-26.2,0.2-39.1,3.3c-9,2.2-19,1-27.8-2.1c-17.5-6.1-32.5-20.3-38.9-37.8c-4.2-11.7-4.1-24.5,1-35.8
						c3.8-8.4,8.8-16.4,10.8-25.5c3.7-16.8-0.5-33.9-7.1-49.5C71.9,119.2,70.1,115.2,68.7,110.3L68.7,110.3z"/>
					<g>
						<path class="st1" d="M264.3,110.8c-6,0-11.9,0.9-17.4,2.6c-13.2-24.9-39.4-41.8-69.5-41.8c-33.5,0-62.1,20.9-73.4,50.4
							c-21.4,0.7-39.6,14-47.5,32.7c-3-0.8-6.1-1.2-9.4-1.2c-20.8,0-37.6,16.9-37.6,37.6s16.9,37.6,37.6,37.6h217.1
							c32.6,0,59.1-26.4,59.1-59.1S296.9,110.8,264.3,110.8L264.3,110.8z"/>
					</g>
					<g>
						<circle class="st1" cx="292.4" cy="178.2" r="4.1"/>
						<circle class="st1" cx="304.9" cy="178.2" r="4.1"/>
					</g>
					<g>
						<g>
							<g>
								<rect x="174.2" y="3.2" class="st3" width="150.2" height="327.2"/>
								<rect x="189.7" y="116.3" class="st4" width="150.2" height="214"/>
								<line class="st5" x1="189.6" y1="267.5" x2="340.2" y2="267.5"/>
							</g>
							<circle class="st6" cx="312.2" cy="243.8" r="2.6"/>
							<circle class="st6" cx="320.6" cy="243.8" r="2.6"/>
							<circle class="st6" cx="303.9" cy="243.8" r="2.6"/>
						</g>
						<g>
							<line class="st5" x1="189.8" y1="217.7" x2="335.1" y2="217.7"/>
							<line class="st5" x1="189.8" y1="161" x2="339.3" y2="161"/>
						</g>
					</g>
				</g>
			</g>
		</g>
		<path class="st3" d="M257.5,122.9c-6,0-11.9,0.9-17.4,2.6c-12.5-23.5-36.5-39.9-64.6-41.6c-1.6-0.1-3.3-0.2-4.9-0.2
			c-33.5,0-62.1,20.9-73.4,50.4c-21.4,0.7-39.6,14-47.5,32.7c-3-0.8-6.1-1.2-9.4-1.2c-20.8,0-37.6,16.9-37.6,37.6S19.6,241,40.3,241
			h217.1c32.6,0,59.1-26.4,59.1-59.1S290.1,122.9,257.5,122.9L257.5,122.9z"/>
		<g>
			<path class="st7" d="M264.3,110.8c-6,0-11.9,0.9-17.4,2.6c-12.5-23.5-36.5-39.9-64.6-41.6c-1.6-0.1-3.3-0.2-4.9-0.2
				c-33.5,0-62.1,20.9-73.4,50.4c-21.4,0.7-39.6,14-47.5,32.7c-3-0.8-6.1-1.2-9.4-1.2c-20.8,0-37.6,16.9-37.6,37.6
				s16.9,37.6,37.6,37.6h217.1c32.6,0,59.1-26.4,59.1-59.1S296.9,110.8,264.3,110.8L264.3,110.8z"/>
			<path class="st1" d="M264.3,229.6H47.2c-21.1,0-38.3-17.2-38.3-38.3s17.2-38.3,38.3-38.3c3,0,6,0.4,9,1.1
				c8.2-19,26.7-31.7,47.4-32.6c5.7-14.6,15.6-27.1,28.5-36.2c13.4-9.3,29.1-14.3,45.4-14.3c1.6,0,3.2,0.1,5,0.2
				c13.7,0.8,27,5.3,38.4,12.8c11,7.2,20.2,17.1,26.4,28.7c5.5-1.6,11.2-2.5,17-2.5c32.9,0,59.7,26.8,59.7,59.7
				S297.2,229.6,264.3,229.6L264.3,229.6z M47.2,154.3c-20.4,0-37,16.6-37,37s16.6,37,37,37h217.1c32.2,0,58.4-26.2,58.4-58.4
				s-26.2-58.4-58.4-58.4c-5.8,0-11.6,0.9-17.2,2.6c-0.3,0.1-0.7,0-0.8-0.3c-6.2-11.6-15.2-21.5-26.2-28.7
				c-11.3-7.4-24.3-11.7-37.8-12.5c-1.7-0.1-3.3-0.2-4.9-0.2c-16.1,0-31.5,4.9-44.6,14c-12.8,9-22.6,21.4-28.2,36
				c-0.1,0.3-0.3,0.4-0.6,0.4c-20.5,0.7-38.9,13.4-46.9,32.3c-0.1,0.3-0.5,0.5-0.8,0.4C53.4,154.7,50.3,154.3,47.2,154.3L47.2,154.3
				z"/>
		</g>
		<g>
			<path class="st8" d="M121,228.2c-0.4,0-0.7-0.3-0.7-0.7v-30.6c0-0.4,0.3-0.7,0.7-0.7c0.4,0,0.7,0.3,0.7,0.7v30.6
				C121.7,227.9,121.4,228.2,121,228.2z"/>
			<path class="st8" d="M101.1,263.6c-0.4,0-0.7-0.3-0.7-0.7v-52.1c0-0.4,0.3-0.7,0.7-0.7s0.7,0.3,0.7,0.7v52.1
				C101.7,263.3,101.4,263.6,101.1,263.6z"/>
			<path class="st8" d="M141,262.8c-0.4,0-0.7-0.3-0.7-0.7v-44.5c0-0.4,0.3-0.7,0.7-0.7c0.4,0,0.7,0.3,0.7,0.7v44.5
				C141.7,262.5,141.4,262.8,141,262.8z"/>
			<path class="st8" d="M121,292.5c-0.4,0-0.7-0.3-0.7-0.7v-47.6c0-0.4,0.3-0.7,0.7-0.7c0.4,0,0.7,0.3,0.7,0.7v47.6
				C121.7,292.2,121.4,292.5,121,292.5z"/>
		</g>
		<g>
			<polygon class="st8" points="167.5,103.1 167.5,155.1 122.4,181.1 77.4,155.1 77.4,103.1 122.4,77.1 			"/>
			<g>
				<defs>
					<polygon id="SVGID_00000036956329780120723660000008381785446522592140_" points="167.5,103.1 167.5,155.1 122.4,181.1 
						77.4,155.1 77.4,103.1 122.4,77.1 					"/>
				</defs>
				<clipPath id="SVGID_00000046310137800730563280000000690597499582807461_">
					<use xlink:href="#SVGID_00000036956329780120723660000008381785446522592140_"  style="overflow:visible;"/>
				</clipPath>
				<g style="clip-path:url(#SVGID_00000046310137800730563280000000690597499582807461_);">
					<path class="st7" d="M168.2,102.7c-0.2-0.4-0.8-0.6-1.2-0.3l-44.5,25.7l-44.6-25.7c-0.4-0.2-1-0.1-1.2,0.3
						c-0.2,0.4-0.1,1,0.3,1.2l44.6,25.7v59.8c0,0.5,0.4,0.9,0.9,0.9c0.5,0,0.9-0.4,0.9-0.9v-59.8l44.5-25.7
						C168.3,103.6,168.5,103.1,168.2,102.7L168.2,102.7z"/>
				</g>
			</g>
			<g>
				<defs>
					<polygon id="SVGID_00000076589908644435705500000018411111499963603902_" points="167.5,103.1 167.5,155.1 122.4,181.1 
						77.4,155.1 77.4,103.1 122.4,77.1 					"/>
				</defs>
				<clipPath id="SVGID_00000150802504368725477730000014064374870789939073_">
					<use xlink:href="#SVGID_00000076589908644435705500000018411111499963603902_"  style="overflow:visible;"/>
				</clipPath>
				<g style="clip-path:url(#SVGID_00000150802504368725477730000014064374870789939073_);">
					<path class="st11" d="M86,62.4c-2.7,2.9-3.9,8.7-5.1,12.3c-2.5,7.6-4.5,15.7-4.6,23.7c-0.1,11.1,7.1,21.6,14.1,29.7
						c6.8,7.8,15.6,13.6,21.9,21.9c1.1,1.5,2.2,3.1,3,4.7c5.4,10,7,21.7,6,33c-0.1,0.5-0.1,3.9-1,3.9l-61,2.1L54.6,63.6
						C54.6,63.6,87.1,61.2,86,62.4L86,62.4z"/>
				</g>
			</g>
		</g>
		<g>
			<polygon class="st8" points="437.9,40.7 437.9,92.7 392.9,118.7 347.9,92.7 347.9,40.7 392.9,14.7 			"/>
			<g>
				<defs>
					<polygon id="SVGID_00000020359557577141049000000017088080227883089568_" points="437.9,40.7 437.9,92.7 392.9,118.7 
						347.9,92.7 347.9,40.7 392.9,14.7 					"/>
				</defs>
				<clipPath id="SVGID_00000083770390579201446000000011852125556161196680_">
					<use xlink:href="#SVGID_00000020359557577141049000000017088080227883089568_"  style="overflow:visible;"/>
				</clipPath>
				<g style="clip-path:url(#SVGID_00000083770390579201446000000011852125556161196680_);">
					<path class="st7" d="M438.7,40.3c-0.2-0.4-0.8-0.6-1.2-0.3l-44.5,25.7L348.3,40c-0.4-0.2-1-0.1-1.2,0.3s-0.1,1,0.3,1.2
						L392,67.3V127c0,0.5,0.4,0.9,0.9,0.9s0.9-0.4,0.9-0.9V67.3l44.5-25.7C438.8,41.3,438.9,40.7,438.7,40.3z"/>
				</g>
			</g>
			<g>
				<defs>
					<polygon id="SVGID_00000016758610357942877470000001035453737970813327_" points="437.9,40.7 437.9,92.7 392.9,118.7 
						347.9,92.7 347.9,40.7 392.9,14.7 					"/>
				</defs>
				<clipPath id="SVGID_00000017490873635001709530000002114454152218726028_">
					<use xlink:href="#SVGID_00000016758610357942877470000001035453737970813327_"  style="overflow:visible;"/>
				</clipPath>
				<g style="clip-path:url(#SVGID_00000017490873635001709530000002114454152218726028_);">
					<path class="st11" d="M356.5,0c-2.7,2.9-3.9,8.7-5.1,12.3c-2.5,7.6-4.5,15.7-4.6,23.7c-0.1,11.1,7.1,21.6,14.1,29.7
						c6.8,7.8,15.6,13.6,21.9,21.9c1.1,1.5,2.2,3.1,3,4.7c5.4,10,7,21.7,6,33c-0.1,0.5-0.1,3.9-1,3.9l-61,2.1L325.1,1.3
						C325.1,1.3,357.6-1.2,356.5,0L356.5,0z"/>
				</g>
			</g>
		</g>
		<path class="st11" d="M264.3,228.9c32.6,0,59.1-26.4,59.1-59.1s-26.4-59.1-59.1-59.1c-6,0-11.9,0.9-17.4,2.6
			c-12.5-23.5-36.5-39.9-64.6-41.6c-1.6-0.1-3.3-0.2-4.9-0.2c-1.1,0-2.2,0-3.2,0.1v157.2L264.3,228.9L264.3,228.9z"/>
		<polygon class="st7" points="189.4,246.2 189.7,0 339.9,0 339.9,246.5 		"/>
		<rect x="228.8" y="75.7" class="st14" width="77.4" height="5.1"/>
		<rect x="200.8" y="122.9" class="st14" width="48.2" height="5.1"/>
		<rect x="200.8" y="139.6" class="st14" width="48.2" height="5.1"/>
		<path class="st8" d="M329.6,78.2c0,1.8-1.5,3.3-3.3,3.3s-3.3-1.5-3.3-3.3s1.5-3.3,3.3-3.3C328.1,74.9,329.6,76.4,329.6,78.2z"/>
		<path class="st8" d="M274.8,133.9c0,1.8-1.5,3.3-3.3,3.3c-1.8,0-3.3-1.5-3.3-3.3s1.5-3.3,3.3-3.3S274.8,132.1,274.8,133.9z"/>
		<path class="st8" d="M297.9,133.9c0,1.8-1.5,3.3-3.3,3.3s-3.3-1.5-3.3-3.3s1.5-3.3,3.3-3.3S297.9,132.1,297.9,133.9z"/>
		<path class="st8" d="M320.8,133.9c0,1.8-1.5,3.3-3.3,3.3c-1.8,0-3.3-1.5-3.3-3.3s1.5-3.3,3.3-3.3S320.8,132.1,320.8,133.9z"/>
		<path class="st8" d="M210.7,78.2c0,1.8-1.5,3.3-3.3,3.3c-1.8,0-3.3-1.5-3.3-3.3s1.5-3.3,3.3-3.3C209.2,74.9,210.7,76.4,210.7,78.2
			z"/>
		<g>
			<g>
				<rect x="199" y="18.3" class="st7" width="130.9" height="26.3"/>
				<path class="st8" d="M329.4,18.8v25.3H199.5V18.8H329.4 M330.4,17.8H198.5v27.3h131.9V17.8L330.4,17.8L330.4,17.8z"/>
			</g>
			<path class="st8" d="M314.3,31.5c0,1.2-0.9,2.1-2.1,2.1c-1.2,0-2.1-0.9-2.1-2.1s0.9-2.1,2.1-2.1S314.3,30.3,314.3,31.5
				L314.3,31.5z"/>
			<path class="st8" d="M306,31.5c0,1.2-0.9,2.1-2.1,2.1c-1.2,0-2.1-0.9-2.1-2.1s0.9-2.1,2.1-2.1C305.1,29.4,306,30.3,306,31.5
				L306,31.5z"/>
			<path class="st8" d="M323.1,31.5c0,1.2-0.9,2.1-2.1,2.1s-2.1-0.9-2.1-2.1s0.9-2.1,2.1-2.1C322.2,29.4,323.1,30.3,323.1,31.5
				L323.1,31.5z"/>
			<rect x="208.8" y="30.9" class="st8" width="83.6" height="1"/>
		</g>
		<path class="st8" d="M217.9,187.9c0,1.8-1.5,3.3-3.3,3.3s-3.3-1.5-3.3-3.3s1.5-3.3,3.3-3.3S217.9,186.1,217.9,187.9z"/>
		<path class="st8" d="M241,187.9c0,1.8-1.5,3.3-3.3,3.3s-3.3-1.5-3.3-3.3s1.5-3.3,3.3-3.3S241,186.1,241,187.9z"/>
		<g>
			<g>
				<rect x="255.8" y="172" class="st7" width="70.4" height="31.4"/>
				<path class="st8" d="M325.5,172.7v30h-69v-30H325.5 M326.8,171.3h-71.8V204h71.8V171.3L326.8,171.3z"/>
			</g>
			<rect x="269.7" y="187" class="st8" width="43" height="1.4"/>
		</g>
		<path class="st8" d="M208.5,282.8c0,1.8-1.5,3.3-3.3,3.3s-3.3-1.5-3.3-3.3c0-1.8,1.5-3.3,3.3-3.3S208.5,281,208.5,282.8z"/>
		<path class="st8" d="M231.7,282.8c0,1.8-1.5,3.3-3.3,3.3c-1.8,0-3.3-1.5-3.3-3.3c0-1.8,1.5-3.3,3.3-3.3
			C230.2,279.5,231.7,281,231.7,282.8z"/>
		<g>
			<g>
				<rect x="199.2" y="230.8" class="st7" width="130.5" height="26"/>
				<path class="st8" d="M329,231.5v24.6H199.9v-24.6H329 M330.4,230.1H198.5v27.3h131.9V230.1L330.4,230.1z"/>
			</g>
			<rect x="208.8" y="243.1" class="st8" width="83.6" height="1.4"/>
		</g>
		<path class="st3" d="M456.5,260.6c-2.6,0-5.1,0.3-7.5,0.9c-6.3-15-20.9-25.7-38.1-26.3c-9.1-23.7-32.1-40.5-58.9-40.5
			c-7.4,0-14.4,1.3-21,3.6c-8,2.8-15.2,7.2-21.3,12.7c-0.4,0.3-0.7,0.7-1.1,1c-1.8,1.7-3.4,3.4-5,5.3c-0.4,0.5-0.8,0.9-1.1,1.4
			c-0.5,0.7-1.1,1.4-1.6,2.1c-0.6,0.8-1.1,1.6-1.7,2.4c-1.1,1.6-2.1,3.3-3,5.1c-4.4-1.4-9.1-2.1-13.9-2.1c-9.8,0-18.9,3-26.5,8.1
			c-0.3,0.2-0.6,0.4-0.9,0.7c-5,3.5-9.2,8-12.5,13.1c-4.7,7.4-7.5,16.1-7.5,25.6c0,0.6,0,1.2,0,1.8c0,0.2,0,0.4,0,0.6
			c0,0.4,0,0.8,0.1,1.2c0,0.2,0,0.5,0.1,0.7c0,0.3,0.1,0.7,0.1,1c0,0.2,0.1,0.5,0.1,0.7c0,0.3,0.1,0.7,0.1,1c0,0.2,0.1,0.5,0.1,0.7
			c0.1,0.3,0.1,0.6,0.2,0.9c0,0.2,0.1,0.5,0.1,0.7c0.1,0.3,0.1,0.6,0.2,0.9c0.1,0.2,0.1,0.5,0.2,0.7c0.1,0.3,0.1,0.6,0.2,0.9
			c0.1,0.2,0.1,0.5,0.2,0.7c0.1,0.3,0.2,0.6,0.2,0.9c0.1,0.2,0.2,0.5,0.2,0.7c0.1,0.3,0.2,0.6,0.3,0.9c0.1,0.2,0.2,0.5,0.3,0.7
			c0.1,0.3,0.2,0.6,0.3,0.9c0.1,0.2,0.2,0.5,0.3,0.7c0.1,0.3,0.2,0.6,0.3,0.8c0.1,0.2,0.2,0.5,0.3,0.7c0.1,0.3,0.2,0.6,0.4,0.8
			c0.1,0.2,0.2,0.4,0.3,0.7c0.1,0.3,0.3,0.5,0.4,0.8c0.1,0.2,0.2,0.4,0.3,0.7c0.1,0.3,0.3,0.5,0.4,0.8c0.1,0.2,0.2,0.4,0.4,0.6
			c0.2,0.3,0.3,0.5,0.5,0.8c0.1,0.2,0.3,0.4,0.4,0.6c0.2,0.3,0.3,0.5,0.5,0.8c0.1,0.2,0.3,0.4,0.4,0.6c0.2,0.3,0.3,0.5,0.5,0.8
			c0.1,0.2,0.3,0.4,0.4,0.6c0.2,0.3,0.4,0.5,0.5,0.7c0.1,0.2,0.3,0.4,0.4,0.6c0.2,0.2,0.4,0.5,0.6,0.7c0.1,0.2,0.3,0.4,0.5,0.6
			c0.2,0.2,0.4,0.5,0.6,0.7c0.2,0.2,0.3,0.4,0.5,0.5c0.2,0.2,0.4,0.5,0.6,0.7c0.2,0.2,0.3,0.3,0.5,0.5c0.2,0.2,0.4,0.5,0.6,0.7
			c0.2,0.2,0.3,0.3,0.5,0.5c0.2,0.2,0.4,0.4,0.7,0.7c0.2,0.2,0.3,0.3,0.5,0.5c0.2,0.2,0.5,0.4,0.7,0.6c0.2,0.2,0.4,0.3,0.5,0.5
			c0.2,0.2,0.5,0.4,0.7,0.6c0.2,0.2,0.4,0.3,0.5,0.4c0.2,0.2,0.5,0.4,0.7,0.6c0.2,0.1,0.4,0.3,0.6,0.4c0.3,0.2,0.5,0.4,0.8,0.6
			c0.2,0.1,0.4,0.3,0.6,0.4c0.3,0.2,0.5,0.4,0.8,0.5c0.2,0.1,0.4,0.3,0.6,0.4c0.3,0.2,0.5,0.3,0.8,0.5c0.2,0.1,0.4,0.2,0.6,0.4
			c0.3,0.2,0.5,0.3,0.8,0.5c0.2,0.1,0.4,0.2,0.6,0.3c0.3,0.2,0.5,0.3,0.8,0.4c0.2,0.1,0.4,0.2,0.6,0.3c0.2,0.1,0.4,0.2,0.6,0.3
			c0.1,0.1,0.2,0.1,0.3,0.2c0.1,0,0.1,0.1,0.2,0.1c0,0,0,0,0,0c6.2,3,13.2,4.6,20.5,4.6h174.3c16.7,0,30.2-13.5,30.2-30.2
			S473.2,260.6,456.5,260.6L456.5,260.6z"/>
		<g>
			<path class="st7" d="M287.1,218.5c4.9,0,9.5,0.7,13.9,2.1c10.6-20,31.6-33.5,55.8-33.5c26.9,0,49.8,16.8,58.9,40.5
				c17.2,0.6,31.8,11.2,38.1,26.3c2.4-0.6,4.9-0.9,7.5-0.9c16.7,0,30.2,13.5,30.2,30.2c0,16.7-13.5,30.2-30.2,30.2
				c-8.3,0-161.9,0-174.3,0c-26.2,0-47.4-21.2-47.4-47.4C239.7,239.7,260.9,218.5,287.1,218.5L287.1,218.5z"/>
			<path class="st1" d="M461.4,314H287.1c-26.5,0-48.1-21.6-48.1-48.1s21.6-48.1,48.1-48.1c4.6,0,9.2,0.7,13.6,2
				c11.2-20.6,32.6-33.4,56.1-33.4c13.2,0,25.8,4,36.5,11.5c10.4,7.3,18.3,17.3,22.9,29c16.6,0.7,31.4,10.9,38.1,26.1
				c2.3-0.5,4.7-0.8,7.1-0.8c17,0,30.9,13.9,30.9,30.9S478.4,314,461.4,314L461.4,314z M287.1,219.2c-25.8,0-46.7,21-46.7,46.7
				s21,46.7,46.7,46.7h174.3c16.3,0,29.5-13.3,29.5-29.5s-13.3-29.5-29.5-29.5c-2.5,0-5,0.3-7.3,0.9c-0.3,0.1-0.7-0.1-0.8-0.4
				c-6.4-15.2-21.1-25.3-37.5-25.9c-0.3,0-0.5-0.2-0.6-0.4c-4.5-11.7-12.3-21.6-22.6-28.8c-10.5-7.4-22.9-11.2-35.7-11.2
				c-23.1,0-44.3,12.7-55.2,33.2c-0.2,0.3-0.5,0.4-0.8,0.3C296.4,219.9,291.8,219.2,287.1,219.2L287.1,219.2z"/>
		</g>
		<path class="st1" d="M366.3,255c0-5.7-4.7-10.4-10.4-10.4s-10.4,4.7-10.4,10.4c0,4,2.3,7.5,5.7,9.3v10.3c0,2.6,2.1,4.7,4.7,4.7
			s4.7-2.1,4.7-4.7v-10.3C363.9,262.6,366.3,259.1,366.3,255z"/>
		<g>
			<path class="st8" d="M416.5,211.4c-0.4,0-0.7-0.3-0.7-0.7v-62.3c0-0.4,0.3-0.7,0.7-0.7s0.7,0.3,0.7,0.7v62.3
				C417.2,211.1,416.9,211.4,416.5,211.4z"/>
			<path class="st8" d="M369.5,187.4c-0.4,0-0.7-0.3-0.7-0.7v-37.4c0-0.4,0.3-0.7,0.7-0.7s0.7,0.3,0.7,0.7v37.4
				C370.2,187.1,369.9,187.4,369.5,187.4L369.5,187.4z"/>
			<path class="st8" d="M393,174.2c-0.4,0-0.7-0.3-0.7-0.7V130c0-0.4,0.3-0.7,0.7-0.7s0.7,0.3,0.7,0.7v43.6
				C393.7,173.9,393.4,174.2,393,174.2z"/>
		</g>
		<line class="st15" x1="393" y1="186.6" x2="393" y2="215.8"/>
	</g>
</g>
</svg>
