<?xml version="1.0" encoding="UTF-8"?><svg xmlns="http://www.w3.org/2000/svg" width="48" height="48" viewBox="0 0 48 48"><g id="uuid-67292764-f350-4d4f-bde0-1dd550c1a6ad"><rect width="48" height="48" fill="none"/></g><g id="uuid-6e7487ad-757a-40b2-8475-7092405eb995"><path d="m39,26H9c-.55,0-1,.45-1,1v12c0,.55.45,1,1,1h30c.55,0,1-.45,1-1v-12c0-.55-.45-1-1-1Zm-1,12H10v-10h28v10Z"/><path d="m18.71,14.71l4.29-4.29v12.59c0,.55.45,1,1,1s1-.45,1-1v-12.59l4.29,4.29c.2.2.45.29.71.29s.51-.1.71-.29c.39-.39.39-1.02,0-1.41l-6-6c-.09-.09-.2-.17-.33-.22-.24-.1-.52-.1-.76,0-.12.05-.23.12-.33.22l-6,6c-.39.39-.39,1.02,0,1.41s1.02.39,1.41,0Z"/><path d="m31.17,34.25c.08.05.17.1.26.14.09.03.18.06.28.08.09.02.19.03.29.03s.2,0,.29-.03c.1-.02.19-.05.28-.08.09-.04.18-.09.26-.14.09-.06.16-.12.23-.19.28-.28.44-.67.44-1.06,0-.1,0-.2-.03-.29-.02-.1-.05-.19-.08-.28-.04-.09-.09-.18-.14-.26-.06-.08-.12-.16-.19-.23s-.14-.13-.23-.19c-.08-.05-.17-.1-.26-.13-.09-.04-.18-.07-.28-.09-.19-.04-.39-.04-.58,0-.1.02-.19.05-.28.09-.09.03-.18.08-.26.13-.08.06-.16.12-.23.19-.07.07-.13.15-.19.23-.05.08-.1.17-.14.26-.03.09-.06.18-.08.28-.02.09-.03.19-.03.29,0,.39.16.78.44,1.06.07.07.15.13.23.19Z"/><path d="m15,34h7c.55,0,1-.45,1-1s-.45-1-1-1h-7c-.55,0-1,.45-1,1s.45,1,1,1Z"/></g></svg>