<svg id="b1e8d741-53b6-4099-a5d8-87ebc53e68d6" data-name="Layer 1" xmlns="http://www.w3.org/2000/svg" viewBox="0 0 36 36">
  <g>
    <path d="M26.29,10.79a3.61,3.61,0,1,0-4.58,0A6.63,6.63,0,0,0,17.38,17a.62.62,0,0,0,.62.62H30a.62.62,0,0,0,.62-.62A6.63,6.63,0,0,0,26.29,10.79ZM21.62,8a2.38,2.38,0,0,1,4.75,0A2.38,2.38,0,0,1,21.62,8Zm-3,8.38a5.38,5.38,0,0,1,10.68,0Z"/>
    <path d="M13.29,24.79a3.61,3.61,0,1,0-4.58,0A6.63,6.63,0,0,0,4.38,31a.62.62,0,0,0,.62.62H17a.62.62,0,0,0,.62-.62A6.63,6.63,0,0,0,13.29,24.79ZM8.62,22a2.38,2.38,0,0,1,4.75,0A2.38,2.38,0,0,1,8.62,22Zm-3,8.38a5.38,5.38,0,0,1,10.68,0Z"/>
    <path d="M28.1,19.38a.63.63,0,0,0-.63.62v7.38H20.1a.62.62,0,0,0,0,1.24h8a.62.62,0,0,0,.62-.62V20A.62.62,0,0,0,28.1,19.38Z"/>
    <path d="M8,16.62A.62.62,0,0,0,8.62,16V8.62H16a.62.62,0,0,0,0-1.24H8A.62.62,0,0,0,7.38,8v8A.62.62,0,0,0,8,16.62Z"/>
  </g>
</svg>
