<?xml version="1.0" encoding="UTF-8"?><svg xmlns="http://www.w3.org/2000/svg" width="48" height="48" viewBox="0 0 48 48"><g id="uuid-32fde3fb-f3ed-4ec6-a3aa-7e1862c0c5c1"><rect width="48" height="48" fill="none"/></g><g id="uuid-93402bc6-10fe-4e2c-9531-852cc34c4270"><path d="m39,38H9c-.55,0-1,.45-1,1s.45,1,1,1h30c.55,0,1-.45,1-1s-.45-1-1-1Z"/><path d="m11,35h10c.55,0,1-.45,1-1v-10c0-.55-.45-1-1-1h-10c-.55,0-1,.45-1,1v10c0,.55.45,1,1,1Zm1-10h8v8h-8v-8Z"/><path d="m26,24v10c0,.55.45,1,1,1h10c.55,0,1-.45,1-1v-10c0-.55-.45-1-1-1h-10c-.55,0-1,.45-1,1Zm2,1h8v8h-8v-8Z"/><path d="m19,20h10c.55,0,1-.45,1-1v-10c0-.55-.45-1-1-1h-10c-.55,0-1,.45-1,1v10c0,.55.45,1,1,1Zm1-10h8v8h-8v-8Z"/></g></svg>