<?xml version="1.0" encoding="UTF-8"?><svg xmlns="http://www.w3.org/2000/svg" width="48" height="48" viewBox="0 0 48 48"><g id="uuid-f1a66e2b-fb8a-4e52-943b-33b719590903"><rect width="48" height="48" fill="none"/></g><g id="uuid-56b599a8-d4a0-4fca-8e82-42f637e6575f"><path d="m24.71,23.29l-15-15c-.39-.39-1.02-.39-1.41,0s-.39,1.02,0,1.41l14.29,14.29-14.29,14.29c-.39.39-.39,1.02,0,1.41.2.2.45.29.71.29s.51-.1.71-.29l15-15c.39-.39.39-1.02,0-1.41Z"/><path d="m40.71,23.29l-15-15c-.39-.39-1.02-.39-1.41,0s-.39,1.02,0,1.41l14.29,14.29-14.29,14.29c-.39.39-.39,1.02,0,1.41.2.2.45.29.71.29s.51-.1.71-.29l15-15c.39-.39.39-1.02,0-1.41Z"/></g></svg>