<?xml version="1.0" encoding="UTF-8"?><svg xmlns="http://www.w3.org/2000/svg" width="48" height="48" viewBox="0 0 48 48"><g id="uuid-a0e9d7d4-7c5e-4557-92c4-2ac4ea588d4d"><rect width="48" height="48" fill="none"/></g><g id="uuid-1a13ae36-aa4e-4288-b693-b84bf61daa44"><path d="m24,20c-2.21,0-4,1.79-4,4s1.79,4,4,4,4-1.79,4-4-1.79-4-4-4Zm0,6c-1.1,0-2-.9-2-2s.9-2,2-2,2,.9,2,2-.9,2-2,2Z"/><path d="m18.34,16.93c-.39-.39-1.02-.39-1.41,0-3.9,3.9-3.9,10.24,0,14.14.2.2.45.29.71.29s.51-.1.71-.29c.39-.39.39-1.02,0-1.41-3.12-3.12-3.12-8.2,0-11.31.39-.39.39-1.02,0-1.41Z"/><path d="m29.66,16.93c-.39.39-.39,1.02,0,1.41,3.12,3.12,3.12,8.2,0,11.31-.39.39-.39,1.02,0,1.41.2.2.45.29.71.29s.51-.1.71-.29c3.9-3.9,3.9-10.24,0-14.14-.39-.39-1.02-.39-1.41,0Z"/><path d="m13.39,11.98c-.39-.39-1.02-.39-1.41,0-3.21,3.21-4.98,7.48-4.98,12.02s1.77,8.81,4.98,12.02c.2.2.45.29.71.29s.51-.1.71-.29c.39-.39.39-1.02,0-1.41-2.83-2.83-4.39-6.6-4.39-10.61s1.56-7.77,4.39-10.61c.39-.39.39-1.02,0-1.41Z"/><path d="m36.02,11.98c-.39-.39-1.02-.39-1.41,0s-.39,1.02,0,1.41c2.83,2.83,4.39,6.6,4.39,10.61s-1.56,7.77-4.39,10.61c-.39.39-.39,1.02,0,1.41.2.2.45.29.71.29s.51-.1.71-.29c3.21-3.21,4.98-7.48,4.98-12.02s-1.77-8.81-4.98-12.02Z"/></g></svg>