<?xml version="1.0" encoding="UTF-8"?><svg xmlns="http://www.w3.org/2000/svg" width="48" height="48" viewBox="0 0 48 48"><g id="uuid-0357926d-b66d-4573-89f9-9c0b6cdb2b80"><rect width="48" height="48" fill="none"/></g><g id="uuid-60e7604d-2e8f-4696-b102-0d767b1fee35"><path d="m39.74,12.91c-.15-.28-.42-.47-.73-.52-.31-.04-.63.06-.86.28l-6.12,6.12c-.75.75-2.07.75-2.83,0-.38-.38-.58-.88-.58-1.41s.21-1.04.58-1.41l6.12-6.12c.22-.22.33-.54.28-.86-.05-.31-.24-.59-.52-.73-1.55-.82-3.31-1.26-5.09-1.26-6.07,0-11,4.93-11,11,0,1.03.14,2.05.43,3.03l-10.87,10.87c-1.01,1.01-1.56,2.34-1.56,3.77s.55,2.76,1.56,3.77,2.4,1.56,3.77,1.56,2.73-.52,3.77-1.56l10.87-10.87c.98.29,2,.43,3.03.43,6.07,0,11-4.93,11-11,0-1.77-.43-3.53-1.26-5.09Zm-9.74,14.09c-1.02,0-2.02-.17-2.97-.51-.36-.13-.77-.04-1.04.24l-11.3,11.3c-1.3,1.3-3.41,1.3-4.71,0-.63-.63-.97-1.46-.97-2.35s.35-1.72.97-2.35l11.3-11.3c.27-.27.36-.68.24-1.04-.34-.96-.51-1.96-.51-2.97,0-4.96,4.04-9,9-9,1,0,1.96.16,2.88.47l-5.08,5.08c-1.56,1.56-1.56,4.1,0,5.65s4.1,1.56,5.65,0l5.08-5.08c.31.92.47,1.88.47,2.88,0,4.96-4.04,9-9,9Z"/><circle cx="13" cy="35" r="1.5"/></g></svg>