<?xml version="1.0" encoding="UTF-8"?><svg xmlns="http://www.w3.org/2000/svg" width="48" height="48" viewBox="0 0 48 48"><g id="uuid-f51a4af0-6225-48d0-b7dc-891d648dde61"><rect width="48" height="48" fill="none"/></g><g id="uuid-55ee4c9a-74ef-4398-ad10-fbcc88b85563"><path d="m28.57,23.2c2.5-1.54,4.18-4.3,4.18-7.45,0-4.83-3.92-8.75-8.75-8.75s-8.75,3.92-8.75,8.75c0,3.15,1.68,5.9,4.18,7.45-6.6,2.04-11.43,8.35-11.43,15.8,0,.55.45,1,1,1h30c.55,0,1-.45,1-1,0-7.46-4.83-13.77-11.43-15.8Zm-11.32-7.45c0-3.72,3.03-6.75,6.75-6.75s6.75,3.03,6.75,6.75-3.03,6.75-6.75,6.75-6.75-3.03-6.75-6.75Zm-7.22,22.25c.5-7.53,6.57-13.5,13.97-13.5s13.47,5.97,13.97,13.5H10.03Z"/></g></svg>