<?xml version="1.0" encoding="UTF-8"?><svg xmlns="http://www.w3.org/2000/svg" width="48" height="48" viewBox="0 0 48 48"><g id="uuid-66d71e49-fd70-4c75-bff7-dfd4b5a2a62b"><rect width="48" height="48" fill="none"/></g><g id="uuid-74edff00-7557-4e8b-844e-f427e2cf25c0"><path d="m39,15h-2.34l-.68-3.21c-.1-.46-.51-.79-.98-.79h-10c-.47,0-.88.33-.98.79l-.68,3.21h-9.34c-.55,0-1,.45-1,1v15c0,.55.45,1,1,1s1-.45,1-1v-14h9.15c.47,0,.88-.33.98-.79l.68-3.21h8.38l.68,3.21c.1.46.51.79.98.79h2.15v18H10v-19c0-.55-.45-1-1-1s-1,.45-1,1v20c0,.55.45,1,1,1h30c.55,0,1-.45,1-1v-20c0-.55-.45-1-1-1Z"/></g></svg>