<?xml version="1.0" encoding="UTF-8"?>
<svg width="36" height="36" viewBox="0 0 36 36" fill="none" xmlns="http://www.w3.org/2000/svg">
  <path d="M18.62 8.99891C18.62 9.16334 18.5547 9.32104 18.4384 9.43731C18.3221 9.55358 18.1644 9.61891 18 9.61891C17.8356 9.61891 17.6779 9.55358 17.5616 9.43731C17.4453 9.32104 17.38 9.16334 17.38 8.99891C17.38 8.83447 17.4453 8.67677 17.5616 8.5605C17.6779 8.44423 17.8356 8.37891 18 8.37891C18.1644 8.37891 18.3221 8.44423 18.4384 8.5605C18.5547 8.67677 18.62 8.83447 18.62 8.99891Z" fill="black"/>
  <path d="M6.00001 24.619H30C30.0818 24.6203 30.163 24.6052 30.2389 24.5745C30.3147 24.5439 30.3836 24.4983 30.4414 24.4404C30.4993 24.3826 30.5449 24.3137 30.5756 24.2378C30.6063 24.162 30.6214 24.0808 30.62 23.999V8.99899C30.6214 8.9172 30.6063 8.83597 30.5756 8.76014C30.5449 8.6843 30.4993 8.61541 30.4414 8.55757C30.3836 8.49973 30.3147 8.45411 30.2389 8.42343C30.163 8.39275 30.0818 8.37764 30 8.37899H21C20.8356 8.37899 20.6779 8.44431 20.5616 8.56058C20.4453 8.67686 20.38 8.83456 20.38 8.99899C20.38 9.16342 20.4453 9.32112 20.5616 9.4374C20.6779 9.55367 20.8356 9.61899 21 9.61899H29.38V23.379H6.62001V9.61899H15C15.1644 9.61899 15.3221 9.55367 15.4384 9.4374C15.5547 9.32112 15.62 9.16342 15.62 8.99899C15.62 8.83456 15.5547 8.67686 15.4384 8.56058C15.3221 8.44431 15.1644 8.37899 15 8.37899H6.00001C5.91822 8.37764 5.83699 8.39275 5.76116 8.42343C5.68532 8.45411 5.61644 8.49973 5.55859 8.55757C5.50075 8.61541 5.45513 8.6843 5.42445 8.76014C5.39377 8.83597 5.37866 8.9172 5.38001 8.99899V23.999C5.37866 24.0808 5.39377 24.162 5.42445 24.2378C5.45513 24.3137 5.50075 24.3826 5.55859 24.4404C5.61644 24.4983 5.68532 24.5439 5.76116 24.5745C5.83699 24.6052 5.91822 24.6203 6.00001 24.619Z" fill="black"/>
  <path d="M32 26.3789H4C3.83557 26.3789 3.67787 26.4442 3.5616 26.5605C3.44533 26.6768 3.38 26.8345 3.38 26.9989C3.38 27.1633 3.44533 27.321 3.5616 27.4373C3.67787 27.5536 3.83557 27.6189 4 27.6189H32C32.1644 27.6189 32.3221 27.5536 32.4384 27.4373C32.5547 27.321 32.62 27.1633 32.62 26.9989C32.62 26.8345 32.5547 26.6768 32.4384 26.5605C32.3221 26.4442 32.1644 26.3789 32 26.3789Z" fill="black"/>
  <path d="M17.24 19.9984C17.403 20.0309 17.5723 19.9976 17.7109 19.9058C17.8495 19.814 17.9463 19.6712 17.98 19.5084L19.22 13.6684C19.253 13.5055 19.2214 13.3362 19.1318 13.1962C19.0422 13.0563 18.9017 12.9566 18.74 12.9184C18.577 12.8859 18.4077 12.9192 18.2691 13.011C18.1305 13.1028 18.0337 13.2456 18 13.4084L16.76 19.2484C16.7243 19.4115 16.7548 19.5821 16.8448 19.7227C16.9348 19.8634 17.0769 19.9625 17.24 19.9984Z" fill="black"/>
  <path d="M21 19.4983C21.1177 19.6131 21.2756 19.6774 21.44 19.6774C21.6044 19.6774 21.7623 19.6131 21.88 19.4983L24.44 16.9383C24.5555 16.8189 24.62 16.6593 24.62 16.4933C24.62 16.3272 24.5555 16.1676 24.44 16.0483L21.88 13.4883C21.31 12.9083 20.41 13.8083 21 14.3683L23.12 16.4883L21 18.6083C20.9404 18.6661 20.8931 18.7352 20.8607 18.8117C20.8284 18.8881 20.8117 18.9703 20.8117 19.0533C20.8117 19.1363 20.8284 19.2184 20.8607 19.2949C20.8931 19.3713 20.9404 19.4405 21 19.4983Z" fill="black"/>
  <path d="M15 13.4883C14.9431 13.429 14.8748 13.3818 14.7991 13.3496C14.7235 13.3174 14.6422 13.3008 14.56 13.3008C14.4778 13.3008 14.3965 13.3174 14.3209 13.3496C14.2452 13.3818 14.1769 13.429 14.12 13.4883L11.56 16.0483C11.4445 16.1676 11.38 16.3272 11.38 16.4933C11.38 16.6594 11.4445 16.8189 11.56 16.9383L14.12 19.4983C14.2417 19.5935 14.3941 19.6407 14.5483 19.631C14.7025 19.6212 14.8477 19.555 14.9563 19.4452C15.065 19.3353 15.1295 19.1893 15.1375 19.035C15.1456 18.8807 15.0966 18.7289 15 18.6083L12.88 16.4883L15 14.3683C15.0593 14.3114 15.1065 14.243 15.1387 14.1674C15.1709 14.0918 15.1875 14.0105 15.1875 13.9283C15.1875 13.8461 15.1709 13.7648 15.1387 13.6891C15.1065 13.6135 15.0593 13.5452 15 13.4883Z" fill="black"/>
</svg>
