<?xml version="1.0" encoding="UTF-8"?><svg xmlns="http://www.w3.org/2000/svg" width="48" height="48" viewBox="0 0 48 48"><g id="uuid-94ffe917-633d-4d9d-8ed0-84ea82b1e6ff"><rect width="48" height="48" fill="none"/></g><g id="uuid-cf88f362-79ee-42ff-8275-fe3bc4f5a2bf"><path d="m39,17H9c-.55,0-1,.45-1,1v12c0,.55.45,1,1,1h30c.55,0,1-.45,1-1v-12c0-.55-.45-1-1-1Zm-1,12H10v-10h28v10Z"/><path d="m30.61,24.57c.04.09.09.18.14.26.06.09.12.16.19.23s.15.13.23.19c.08.05.17.1.26.14.09.03.18.06.28.08.09.02.19.03.29.03s.2,0,.29-.03c.1-.02.19-.05.28-.08.09-.04.18-.09.26-.14.09-.06.16-.12.23-.19.07-.07.13-.14.19-.23.05-.08.1-.17.14-.26.03-.09.06-.18.08-.28.02-.09.03-.19.03-.29s0-.2-.03-.29c-.02-.1-.05-.19-.08-.28-.04-.09-.09-.18-.14-.26-.06-.08-.12-.16-.19-.23s-.14-.13-.23-.19c-.08-.05-.17-.1-.26-.14-.09-.03-.18-.06-.28-.08-.19-.04-.39-.04-.58,0-.1.02-.19.05-.28.08-.09.04-.18.09-.26.14-.08.06-.16.12-.23.19-.07.07-.13.15-.19.23-.05.08-.1.17-.14.26-.03.09-.06.18-.08.28-.02.09-.03.19-.03.29s0,.2.03.29c.02.1.05.19.08.28Z"/><path d="m15,25h7c.55,0,1-.45,1-1s-.45-1-1-1h-7c-.55,0-1,.45-1,1s.45,1,1,1Z"/></g></svg>