<?xml version="1.0" encoding="UTF-8"?><svg xmlns="http://www.w3.org/2000/svg" width="48" height="48" viewBox="0 0 48 48"><g id="uuid-bb260d08-8860-45e3-a5bd-3a2aa9dfbce7"><rect width="48" height="48" fill="none"/></g><g id="uuid-080af0c0-6354-4d04-adc7-5829f96de813"><path d="m38,16c0-2.21-1.79-4-4-4s-4,1.79-4,4c0,1.86,1.28,3.41,3,3.86v1.16c0,1.65-1.34,2.99-2.99,3,0,0,0,0-.01,0h-10c-1.13,0-2.16.39-3,1.02v-10.18c1.72-.45,3-2,3-3.86,0-2.21-1.79-4-4-4s-4,1.79-4,4c0,1.86,1.28,3.41,3,3.86v18.28c-1.72.45-3,2-3,3.86,0,2.21,1.79,4,4,4s4-1.79,4-4c0-1.86-1.28-3.41-3-3.86v-4.13c0-1.65,1.34-2.99,2.99-3,0,0,0,0,.01,0h10c2.76,0,5-2.24,5-5v-1.16c1.72-.45,3-2,3-3.86Zm-24-5c0-1.1.9-2,2-2s2,.9,2,2-.9,2-2,2-2-.9-2-2Zm4,26c0,1.1-.9,2-2,2s-2-.9-2-2,.9-2,2-2,2,.9,2,2Zm16-19c-1.1,0-2-.9-2-2s.9-2,2-2,2,.9,2,2-.9,2-2,2Z"/></g></svg>