<svg id="fbcc6e56-f19a-485f-9312-3d9e5fc94cf8" data-name="artwork" xmlns="http://www.w3.org/2000/svg" xmlns:xlink="http://www.w3.org/1999/xlink" viewBox="0 0 659.71704 451.32691">
  <defs>
    <clipPath id="be027f95-e91e-4839-924d-b1acb589b874">
      <path d="M622.91844,240.50644C623.94587,12.35106,669.95518,58.004,354.04765,54.217,154.3294,51.82286,85.17685,155.82942,85.17685,282.845s92.47828,152.94787,138.57042,152.94787,71.62365-2.92361,107.07109-43.15385c42.10639-47.78766,115.46782-24.9698,184.55176-50.52011C583.67037,316.8584,622.68611,292.09841,622.91844,240.50644Z" style="fill: none"/>
    </clipPath>
  </defs>
  <g>
    <path d="M622.94266,240.50644c0-59.27391-69.204-186.28944-269.12646-186.28944S84.68973,155.82942,84.68973,282.845,177.256,435.79282,223.39192,435.79282s72.91252-2.6375,107.35629-42.86774c41.437-48.39828,115.33992-25.40311,184.54386-50.80622S622.94266,291.31265,622.94266,240.50644Z" style="fill: #b9dafc"/>
    <path d="M440.78789,87.73568A31.41638,31.41638,0,0,0,401.03416,57.4441a48.79534,48.79534,0,0,0-92.51888-4.75778,33.33153,33.33153,0,0,0,2.81428,66.54437c.72577,0,1.44378-.03138,2.158-.07706h40.49236l.00864.00011.00887-.00011h55.36789l.00443.00011.00432-.00011h2.10181l.00111-.07805A31.41422,31.41422,0,0,0,440.78789,87.73568Z" style="fill: #b9dafc;stroke: #fff;stroke-linecap: round;stroke-linejoin: round;stroke-width: 3px"/>
    <g>
      <rect x="325.94585" y="58.4066" width="37.13553" height="37.13553" style="fill: #fff"/>
      <g>
        <g>
          <g>
            <g>
              <polyline points="373.858 106.424 363.406 95.972 344.461 95.972" style="fill: none;stroke: #e00;stroke-linecap: round;stroke-linejoin: round;stroke-width: 3px"/>
              <polyline points="344.461 95.972 344.461 106.023 353.141 114.703" style="fill: none;stroke: #e00;stroke-linecap: round;stroke-linejoin: round;stroke-width: 3px"/>
              <polyline points="335.457 95.972 335.457 106.774 342.482 113.799" style="fill: none;stroke: #e00;stroke-linecap: round;stroke-linejoin: round;stroke-width: 3px"/>
              <polyline points="359.486 117.227 359.486 110.219 353.607 104.352 353.607 95.972" style="fill: none;stroke: #e00;stroke-linecap: round;stroke-linejoin: round;stroke-width: 3px"/>
              <circle cx="359.48601" cy="119.48901" r="3.91957" style="fill: #fff;stroke: #e00;stroke-linecap: round;stroke-linejoin: round;stroke-width: 3.69160761468312px"/>
              <circle cx="373.85777" cy="106.42377" r="2.93968" style="fill: #e00"/>
            </g>
            <g>
              <polyline points="315.064 106.424 325.516 95.972 344.461 95.972" style="fill: none;stroke: #e00;stroke-linecap: round;stroke-linejoin: round;stroke-width: 3px"/>
              <circle cx="315.06421" cy="106.42377" r="2.93968" style="fill: #e00"/>
            </g>
          </g>
          <g>
            <g>
              <g>
                <polyline points="370.106 51.382 363.406 58.082 363.406 77.027" style="fill: none;stroke: #e00;stroke-linecap: round;stroke-linejoin: round;stroke-width: 3px"/>
                <line x1="408.50277" y1="77.02699" x2="363.40558" y2="77.02699" style="fill: none;stroke: #e00;stroke-linecap: round;stroke-linejoin: round;stroke-width: 3px"/>
                <circle cx="409.09597" cy="77.02699" r="2.93968" style="fill: #e00"/>
                <polyline points="382.41 62.002 375.402 62.002 369.535 67.881 363.406 67.881" style="fill: none;stroke: #e00;stroke-linecap: round;stroke-linejoin: round;stroke-width: 3px"/>
                <circle cx="386.92301" cy="62.00197" r="3.91957" style="fill: none;stroke: #e00;stroke-linecap: round;stroke-linejoin: round;stroke-width: 3px"/>
                <circle cx="370.10626" cy="51.38172" r="2.93968" style="fill: #e00"/>
              </g>
              <g>
                <line x1="363.40558" y1="95.97158" x2="363.40558" y2="77.02699" style="fill: #fff;stroke: #e00;stroke-linecap: round;stroke-linejoin: round;stroke-width: 3px"/>
                <polyline points="382.41 92.052 375.402 92.052 369.535 86.173 363.406 86.173" style="fill: none;stroke: #e00;stroke-linecap: round;stroke-linejoin: round;stroke-width: 3px"/>
                <circle cx="386.92301" cy="92.05201" r="3.91957" style="fill: #fff;stroke: #e00;stroke-linecap: round;stroke-linejoin: round;stroke-width: 3.69160761468312px"/>
              </g>
            </g>
            <g>
              <g>
                <g>
                  <polyline points="315.169 47.525 325.622 57.977 344.566 57.977" style="fill: none;stroke: #e00;stroke-linecap: round;stroke-linejoin: round;stroke-width: 3px"/>
                  <line x1="344.56624" y1="50.39509" x2="344.56624" y2="57.97715" style="fill: none;stroke: #e00;stroke-linecap: round;stroke-linejoin: round;stroke-width: 3px"/>
                  <circle cx="344.56624" cy="49.80189" r="2.93968" style="fill: #e00"/>
                  <polyline points="329.541 23.966 329.541 45.98 335.421 51.848 335.421 57.977" style="fill: none;stroke: #e00;stroke-linecap: round;stroke-linejoin: round;stroke-width: 3px"/>
                  <circle cx="329.54122" cy="19.45367" r="3.91957" style="fill: none;stroke: #e00;stroke-linecap: round;stroke-linejoin: round;stroke-width: 3px"/>
                  <circle cx="315.16946" cy="47.52496" r="2.93968" style="fill: #e00"/>
                </g>
                <g>
                  <line x1="363.51083" y1="57.97715" x2="344.56624" y2="57.97715" style="fill: #fff;stroke: #e00;stroke-linecap: round;stroke-linejoin: round;stroke-width: 3px"/>
                  <polyline points="359.591 38.972 359.591 45.98 353.712 51.848 353.712 57.977" style="fill: none;stroke: #e00;stroke-linecap: round;stroke-linejoin: round;stroke-width: 3px"/>
                  <circle cx="359.59126" cy="34.45972" r="3.91957" style="fill: none;stroke: #e00;stroke-linecap: round;stroke-linejoin: round;stroke-width: 3px"/>
                </g>
              </g>
              <g>
                <g>
                  <line x1="325.62165" y1="95.86633" x2="325.62165" y2="76.92174" style="fill: #fff;stroke: #e00;stroke-linecap: round;stroke-linejoin: round;stroke-width: 3px"/>
                  <line x1="318.03959" y1="76.92174" x2="325.62165" y2="76.92174" style="fill: none;stroke: #e00;stroke-linecap: round;stroke-linejoin: round;stroke-width: 3px"/>
                  <circle cx="317.44639" cy="76.92174" r="2.93968" style="fill: #e00"/>
                  <polyline points="306.617 91.947 313.625 91.947 319.492 86.067 325.622 86.067" style="fill: none;stroke: #e00;stroke-linecap: round;stroke-linejoin: round;stroke-width: 3px"/>
                  <circle cx="302.10422" cy="91.94676" r="3.91957" style="fill: none;stroke: #e00;stroke-linecap: round;stroke-linejoin: round;stroke-width: 3px"/>
                </g>
                <g>
                  <line x1="325.62165" y1="57.97715" x2="325.62165" y2="76.92174" style="fill: #fff;stroke: #e00;stroke-linecap: round;stroke-linejoin: round;stroke-width: 3px"/>
                  <polyline points="284.108 61.897 298.619 61.897 304.486 67.776 325.622 67.776" style="fill: none;stroke: #e00;stroke-linecap: round;stroke-linejoin: round;stroke-width: 3px"/>
                  <circle cx="279.59514" cy="61.89672" r="3.91957" style="fill: none;stroke: #e00;stroke-linecap: round;stroke-linejoin: round;stroke-width: 3px"/>
                </g>
              </g>
            </g>
          </g>
        </g>
        <rect x="337.981" y="70.44175" width="13.06524" height="13.06524" style="fill: #b9dafc;stroke: #e00;stroke-linecap: round;stroke-linejoin: round;stroke-width: 3px"/>
      </g>
    </g>
    <g>
      <g style="clip-path: url(#be027f95-e91e-4839-924d-b1acb589b874)">
        <g>
          <rect x="332.05742" y="110.2401" width="275.71933" height="291.03707"/>
          <path d="M355.35751,245.82271H322.88017a4.49357,4.49357,0,0,1-4.49357-4.49358v-34.9345a4.49359,4.49359,0,0,0-4.49358-4.49358h-51.846" style="fill: none;stroke: #e00;stroke-linejoin: round;stroke-width: 3px"/>
          <line x1="262.79736" y1="186.85486" x2="355.3168" y2="186.85486" style="fill: none;stroke: #e00;stroke-linejoin: round;stroke-width: 3px"/>
          <g>
            <rect x="356.36049" y="85.44568" width="262.31256" height="71.33061" style="fill: #fff;stroke: #b9dafc;stroke-linecap: round;stroke-linejoin: round;stroke-width: 3px"/>
            <circle cx="576.15076" cy="121.11099" r="8.3871" style="fill: #e00"/>
            <rect x="356.36049" y="156.77629" width="262.31256" height="71.33061" style="fill: #fff;stroke: #b9dafc;stroke-linecap: round;stroke-linejoin: round;stroke-width: 3px"/>
            <circle cx="588.16534" cy="192.44159" r="9.319" style="fill: #e00"/>
            <circle cx="562.56374" cy="192.44159" r="9.319" style="fill: #e00"/>
            <rect x="356.36049" y="228.1069" width="262.31256" height="71.33061" style="fill: #fff;stroke: #b9dafc;stroke-linecap: round;stroke-linejoin: round;stroke-width: 3px"/>
            <circle cx="576.15076" cy="263.7722" r="9.319" style="fill: #e00"/>
            <rect x="356.36049" y="299.43751" width="262.31256" height="71.33061" style="fill: #fff;stroke: #b9dafc;stroke-linecap: round;stroke-linejoin: round;stroke-width: 3px"/>
            <rect x="356.36049" y="370.76812" width="262.31256" height="71.33061" style="fill: #fff;stroke: #dedede;stroke-linecap: round;stroke-linejoin: round;stroke-width: 3.17505303206457px"/>
            <circle cx="576.15076" cy="335.10281" r="9.319" style="fill: #e00"/>
            <g>
              <rect x="397.77547" y="114.31744" width="142.81761" height="13.5871" style="fill: #e00"/>
              <rect x="378.59752" y="173.94677" width="13.17876" height="37.64319" style="fill: #e00"/>
              <rect x="398.36076" y="173.94677" width="13.17876" height="37.64319" style="fill: #e00"/>
              <rect x="398.65706" y="257.06252" width="141.05443" height="13.41936" style="fill: #e00"/>
              <rect x="398.65706" y="328.39313" width="141.05443" height="13.41936" style="fill: #e00"/>
            </g>
          </g>
        </g>
      </g>
      <path d="M216.70977,131.88169c-.15932,0-.31686.00689-.475.012a20.81175,20.81175,0,0,0-20.33249-16.38795c-.19182,0-.38135.00932-.57188.01446a37.57079,37.57079,0,0,0-74.47568,3.73994c-.03742-.00022-.07427-.00283-.11176-.00283a20.80752,20.80752,0,0,0,0,41.615h95.96678a14.49533,14.49533,0,1,0,0-28.99066Z" style="fill: #fff;stroke: #b9dafc;stroke-linecap: round;stroke-linejoin: round;stroke-width: 3px"/>
      <g>
        <rect x="73.18889" y="178.50294" width="193.35998" height="193.35998" rx="1.06111"/>
        <g>
          <rect x="84.10298" y="173.34667" width="193.35998" height="193.35998" style="fill: #fff;stroke: #e00;stroke-linecap: round;stroke-linejoin: round;stroke-width: 3px"/>
          <rect x="84.10298" y="173.34667" width="193.35998" height="40.39075" style="fill: #e00"/>
          <g>
            <circle cx="242.42627" cy="193.54205" r="4.64922" style="fill: #fff"/>
            <circle cx="260.4732" cy="193.54205" r="4.64922" style="fill: #fff"/>
          </g>
          <line x1="155.00164" y1="194.40142" x2="100.86085" y2="194.40142" style="fill: none;stroke: #fff;stroke-linecap: round;stroke-linejoin: round;stroke-width: 3px"/>
          <g>
            <g>
              <line x1="151.88469" y1="238.6475" x2="193.91286" y2="238.6475" style="fill: none;stroke: #92c5f9;stroke-linecap: round;stroke-miterlimit: 10;stroke-width: 3px"/>
              <line x1="100.51691" y1="238.6475" x2="142.54509" y2="238.6475" style="fill: none;stroke: #92c5f9;stroke-linecap: round;stroke-miterlimit: 10;stroke-width: 3px"/>
            </g>
            <line x1="115.1347" y1="257.25921" x2="184.61689" y2="257.25921" style="fill: none;stroke: #92c5f9;stroke-linecap: round;stroke-miterlimit: 10;stroke-width: 3px"/>
            <g>
              <line x1="245.28064" y1="275.87092" x2="171.23823" y2="275.87092" style="fill: none;stroke: #92c5f9;stroke-linecap: round;stroke-miterlimit: 10;stroke-width: 3px"/>
              <line x1="115.57452" y1="275.87092" x2="163.52342" y2="275.87092" style="fill: none;stroke: #92c5f9;stroke-linecap: round;stroke-miterlimit: 10;stroke-width: 3px"/>
            </g>
            <g>
              <line x1="115.1347" y1="350.31774" x2="142.10527" y2="350.31774" style="fill: none;stroke: #aaa;stroke-linecap: round;stroke-miterlimit: 10;stroke-width: 3.43612386705161px"/>
              <line x1="193.47304" y1="350.31774" x2="151.44486" y2="350.31774" style="fill: none;stroke: #92c5f9;stroke-linecap: round;stroke-miterlimit: 10;stroke-width: 3px"/>
              <line x1="244.84082" y1="350.31774" x2="202.81264" y2="350.31774" style="fill: none;stroke: #92c5f9;stroke-linecap: round;stroke-miterlimit: 10;stroke-width: 3px"/>
            </g>
            <line x1="115.1347" y1="294.48262" x2="160.26067" y2="294.48262" style="fill: none;stroke: #92c5f9;stroke-linecap: round;stroke-miterlimit: 10;stroke-width: 3px"/>
            <g>
              <line x1="115.1347" y1="331.70604" x2="160.26067" y2="331.70604" style="fill: none;stroke: #92c5f9;stroke-linecap: round;stroke-miterlimit: 10;stroke-width: 3px"/>
              <line x1="209.66416" y1="331.70604" x2="169.60027" y2="331.70604" style="fill: none;stroke: #92c5f9;stroke-linecap: round;stroke-miterlimit: 10;stroke-width: 3px"/>
              <line x1="244.84082" y1="331.70604" x2="219.00376" y2="331.70604" style="fill: none;stroke: #92c5f9;stroke-linecap: round;stroke-miterlimit: 10;stroke-width: 3px"/>
            </g>
            <g>
              <line x1="100.07709" y1="313.09433" x2="135.31209" y2="313.09433" style="fill: none;stroke: #aaa;stroke-linecap: round;stroke-miterlimit: 10;stroke-width: 3.43612386705161px"/>
              <line x1="179.06422" y1="313.09433" x2="143.02689" y2="313.09433" style="fill: none;stroke: #92c5f9;stroke-linecap: round;stroke-miterlimit: 10;stroke-width: 3px"/>
            </g>
          </g>
        </g>
        <g>
          <rect x="30.21291" y="292.09841" width="109.27826" height="105.79268" rx="1.0599"/>
          <g>
            <path d="M41.05116,286.96424H151.23309a0,0,0,0,1,0,0v106.7469a.804.804,0,0,1-.804.804H41.05116a0,0,0,0,1,0,0V286.96424A0,0,0,0,1,41.05116,286.96424Z" style="fill: #fff;stroke: #e00;stroke-linecap: round;stroke-linejoin: round;stroke-width: 3px"/>
            <rect x="41.05116" y="286.96424" width="110.18193" height="23.11025" style="fill: #e00"/>
            <line x1="49.73843" y1="298.51937" x2="100.40744" y2="298.51937" style="fill: none;stroke: #fff;stroke-linecap: round;stroke-linejoin: round;stroke-width: 3px"/>
            <circle cx="130.38665" cy="298.51937" r="3.0677" style="fill: #fff"/>
            <circle cx="139.58976" cy="298.51937" r="3.0677" style="fill: #fff"/>
            <g>
              <line x1="49.73843" y1="321.21977" x2="111.75943" y2="321.21977" style="fill: none;stroke: #e00;stroke-linecap: round;stroke-linejoin: round;stroke-width: 3px"/>
              <g>
                <line x1="57.26723" y1="343.99571" x2="70.6418" y2="343.99571" style="fill: none;stroke: #e00;stroke-linecap: round;stroke-linejoin: round;stroke-width: 3px"/>
                <line x1="77.64788" y1="343.99571" x2="103.60482" y2="343.99571" style="fill: none;stroke: #e00;stroke-linecap: round;stroke-linejoin: round;stroke-width: 3px"/>
              </g>
              <g>
                <line x1="57.26723" y1="355.38368" x2="103.13305" y2="355.38368" style="fill: none;stroke: #e00;stroke-linecap: round;stroke-linejoin: round;stroke-width: 3px"/>
                <line x1="110.16166" y1="355.38368" x2="126.93031" y2="355.38368" style="fill: none;stroke: #e00;stroke-linecap: round;stroke-linejoin: round;stroke-width: 3px"/>
              </g>
              <line x1="57.26723" y1="332.60774" x2="79.71525" y2="332.60774" style="fill: none;stroke: #e00;stroke-linecap: round;stroke-linejoin: round;stroke-width: 3px"/>
              <line x1="57.26723" y1="378.15962" x2="100.04436" y2="378.15962" style="fill: none;stroke: #e00;stroke-linecap: round;stroke-linejoin: round;stroke-width: 3px"/>
              <g>
                <line x1="49.73843" y1="366.77165" x2="70.60008" y2="366.77165" style="fill: none;stroke: #e00;stroke-linecap: round;stroke-linejoin: round;stroke-width: 3px"/>
                <line x1="77.64788" y1="366.77165" x2="112.99749" y2="366.77165" style="fill: none;stroke: #e00;stroke-linecap: round;stroke-linejoin: round;stroke-width: 3px"/>
              </g>
            </g>
          </g>
        </g>
      </g>
      <circle cx="305.42167" cy="149.40881" r="6.00242" style="fill: none;stroke: #e00;stroke-linejoin: round;stroke-width: 3px"/>
      <path d="M209.77057,173.34667V155.34422a5.93541,5.93541,0,0,1,5.93541-5.93541h83.71327" style="fill: none;stroke: #e00;stroke-linejoin: round;stroke-width: 3px"/>
      <path d="M157.89272,131.79334v8.5228a5.9354,5.9354,0,0,1-5.93541,5.9354h-13.7634a5.93541,5.93541,0,0,0-5.93541,5.93541v21.15972" style="fill: none;stroke: #e00;stroke-linejoin: round;stroke-width: 3px"/>
      <circle cx="158.13013" cy="125.98327" r="6.00242" style="fill: none;stroke: #e00;stroke-linejoin: round;stroke-width: 3px"/>
    </g>
    <path d="M235.448,372.59211a15.87371,15.87371,0,0,0-3.37624.36912,18.5668,18.5668,0,0,0-35.66034,7.21415,12.04842,12.04842,0,0,0,.2983,24.09328H235.448a15.83827,15.83827,0,0,0,0-31.67655Z" style="fill: #b9dafc;stroke: #fff;stroke-linecap: round;stroke-linejoin: round;stroke-width: 3px"/>
  </g>
</svg>
