<?xml version="1.0" encoding="UTF-8"?><svg id="uuid-a683c0d2-eb90-4b4b-a9a4-5e3265f075c5" xmlns="http://www.w3.org/2000/svg" width="175" height="175" viewBox="0 0 175 175"><defs><style>.uuid-42b1a1d2-95d8-4798-bf9e-8a757028c45b{fill:none;}.uuid-524bea0b-f186-45f0-9d87-5e0a69df6aa3{fill:#e0e0e0;}.uuid-6377bf41-8959-427b-aaed-19dc09f7350e{fill:#fff;}.uuid-154205f7-6c69-4286-b9ed-ad70224c7b84{fill:#e00;}</style></defs><rect class="uuid-42b1a1d2-95d8-4798-bf9e-8a757028c45b" width="175" height="175"/><rect class="uuid-6377bf41-8959-427b-aaed-19dc09f7350e" x="12.5" y="12.5" width="150" height="150" rx="37.5" ry="37.5"/><path class="uuid-524bea0b-f186-45f0-9d87-5e0a69df6aa3" d="M125,17.70833c17.80567,0,32.29167,14.486,32.29167,32.29167v75c0,17.80566-14.48599,32.29167-32.29167,32.29167H50c-17.80567,0-32.29167-14.486-32.29167-32.29167V50c0-17.80567,14.48599-32.29167,32.29167-32.29167h75M125,12.5H50c-20.71067,0-37.5,16.78933-37.5,37.5v75c0,20.71067,16.78933,37.5,37.5,37.5h75c20.71066,0,37.5-16.78933,37.5-37.5V50c0-20.71067-16.78934-37.5-37.5-37.5h0Z"/><path class="uuid-154205f7-6c69-4286-b9ed-ad70224c7b84" d="M116.66662,119.27083h-58.33333c-1.05387,0-2.00195-.63477-2.40682-1.60726-.40283-.97249-.17904-2.09351.56559-2.83813l27.32544-27.32544-27.32544-27.32544c-.74463-.74463-.96842-1.86564-.56559-2.83813.40487-.97249,1.35295-1.60726,2.40682-1.60726h58.33333c1.05387,0,2.00195.63477,2.40682,1.60726.40283.97249.17904,2.09351-.56559,2.83813l-27.32544,27.32544,27.32544,27.32544c.74463.74463.96842,1.86564.56559,2.83813-.40487.97249-1.35295,1.60726-2.40682,1.60726ZM64.61991,114.0625h45.76009l-22.88005-22.88005-22.88005,22.88005ZM64.61991,60.9375l22.88005,22.88005,22.88005-22.88005h-45.76009Z"/><path class="uuid-154205f7-6c69-4286-b9ed-ad70224c7b84" d="M116.66662,90.10417h-58.33333c-1.4384,0-2.60417-1.16577-2.60417-2.60417s1.16577-2.60417,2.60417-2.60417h58.33333c1.4384,0,2.60417,1.16577,2.60417,2.60417s-1.16577,2.60417-2.60417,2.60417Z"/><rect class="uuid-6377bf41-8959-427b-aaed-19dc09f7350e" x="112.5" y="112.5" width="12.5" height="12.5"/><path d="M124.99995,127.60417h-12.5c-1.4384,0-2.60417-1.16577-2.60417-2.60417v-12.5c0-1.4384,1.16577-2.60417,2.60417-2.60417h12.5c1.4384,0,2.60417,1.16577,2.60417,2.60417v12.5c0,1.4384-1.16577,2.60417-2.60417,2.60417ZM115.10412,122.39583h7.29167v-7.29167h-7.29167v7.29167Z"/><rect class="uuid-6377bf41-8959-427b-aaed-19dc09f7350e" x="50" y="112.5" width="12.5" height="12.5"/><path d="M62.49995,127.60417h-12.5c-1.4384,0-2.60417-1.16577-2.60417-2.60417v-12.5c0-1.4384,1.16577-2.60417,2.60417-2.60417h12.5c1.4384,0,2.60417,1.16577,2.60417,2.60417v12.5c0,1.4384-1.16577,2.60417-2.60417,2.60417ZM52.60412,122.39583h7.29167v-7.29167h-7.29167v7.29167Z"/><rect class="uuid-6377bf41-8959-427b-aaed-19dc09f7350e" x="112.5" y="50" width="12.5" height="12.5"/><path d="M124.99995,65.10417h-12.5c-1.4384,0-2.60417-1.16577-2.60417-2.60417v-12.5c0-1.4384,1.16577-2.60417,2.60417-2.60417h12.5c1.4384,0,2.60417,1.16577,2.60417,2.60417v12.5c0,1.4384-1.16577,2.60417-2.60417,2.60417ZM115.10412,59.89583h7.29167v-7.29167h-7.29167v7.29167Z"/><rect class="uuid-6377bf41-8959-427b-aaed-19dc09f7350e" x="50" y="50" width="12.5" height="12.5"/><path d="M62.49995,65.10417h-12.5c-1.4384,0-2.60417-1.16577-2.60417-2.60417v-12.5c0-1.4384,1.16577-2.60417,2.60417-2.60417h12.5c1.4384,0,2.60417,1.16577,2.60417,2.60417v12.5c0,1.4384-1.16577,2.60417-2.60417,2.60417ZM52.60412,59.89583h7.29167v-7.29167h-7.29167v7.29167Z"/><rect class="uuid-6377bf41-8959-427b-aaed-19dc09f7350e" x="50" y="81.25" width="12.5" height="12.5"/><path d="M62.49995,96.35417h-12.5c-1.4384,0-2.60417-1.16577-2.60417-2.60417v-12.5c0-1.4384,1.16577-2.60417,2.60417-2.60417h12.5c1.4384,0,2.60417,1.16577,2.60417,2.60417v12.5c0,1.4384-1.16577,2.60417-2.60417,2.60417ZM52.60412,91.14583h7.29167v-7.29167h-7.29167v7.29167Z"/><rect class="uuid-6377bf41-8959-427b-aaed-19dc09f7350e" x="112.5" y="81.25" width="12.5" height="12.5"/><path d="M124.99995,96.35417h-12.5c-1.4384,0-2.60417-1.16577-2.60417-2.60417v-12.5c0-1.4384,1.16577-2.60417,2.60417-2.60417h12.5c1.4384,0,2.60417,1.16577,2.60417,2.60417v12.5c0,1.4384-1.16577,2.60417-2.60417,2.60417ZM115.10412,91.14583h7.29167v-7.29167h-7.29167v7.29167Z"/><rect class="uuid-6377bf41-8959-427b-aaed-19dc09f7350e" x="81.25" y="81.25" width="12.5" height="12.5"/><path d="M93.74995,96.35417h-12.5c-1.4384,0-2.60417-1.16577-2.60417-2.60417v-12.5c0-1.4384,1.16577-2.60417,2.60417-2.60417h12.5c1.4384,0,2.60417,1.16577,2.60417,2.60417v12.5c0,1.4384-1.16577,2.60417-2.60417,2.60417ZM83.85412,91.14583h7.29167v-7.29167h-7.29167v7.29167Z"/></svg>

